<?xml version="1.0" standalone="no"?>
<!DOCTYPE svg PUBLIC "-//W3C//DTD SVG 1.1//EN" "http://www.w3.org/Graphics/SVG/1.1/DTD/svg11.dtd" >
<svg xmlns="http://www.w3.org/2000/svg" xmlns:xlink="http://www.w3.org/1999/xlink" version="1.1">
<metadata>
Created by FontForge 20170731 at Wed Aug  8 17:27:09 2018
 By Aleksey,,,
(c) TrackBoostR
</metadata>
<defs>
<font id="TBRExtrabold" horiz-adv-x="779" >
  <font-face 
    font-family="TBR"
    font-weight="500"
    font-stretch="normal"
    units-per-em="1000"
    panose-1="0 0 0 0 0 0 0 0 0 0"
    ascent="800"
    descent="-200"
    x-height="483"
    cap-height="667"
    bbox="-84 -296 1057 909"
    underline-thickness="50"
    underline-position="-200"
    unicode-range="U+0020-0237"
  />
<missing-glyph horiz-adv-x="472" 
d="M0 700v-700h432v700h-432zM50 50v600h332v-600h-332z" />
    <glyph glyph-name=".notdef" horiz-adv-x="472" 
d="M0 700v-700h432v700h-432zM50 50v600h332v-600h-332z" />
    <glyph glyph-name=".notdef" horiz-adv-x="472" 
d="M0 700v-700h432v700h-432zM50 50v600h332v-600h-332z" />
    <glyph glyph-name=".null" horiz-adv-x="0" 
 />
    <glyph glyph-name="nonmarkingreturn" horiz-adv-x="333" 
 />
    <glyph glyph-name="space" unicode=" " horiz-adv-x="20" 
 />
    <glyph glyph-name="exclam" unicode="!" horiz-adv-x="268" 
d="M223 233h-137l-24 434h184zM154 -11q-38 0 -65.5 27.5t-27.5 65.5t27.5 66t65.5 28t66 -28t28 -66t-28 -65.5t-66 -27.5z" />
    <glyph glyph-name="quotedbl" unicode="&#x22;" horiz-adv-x="439" 
d="M172 357h-65q-48 219 -48 240q0 33 23.5 56.5t56.5 23.5t57 -23.5t24 -56.5q0 -9 -12 -69t-24 -116zM371 357h-64q-48 219 -48 240q0 33 23 56.5t57 23.5q33 0 56.5 -23.5t23.5 -56.5q0 -9 -12 -69t-24 -116z" />
    <glyph glyph-name="numbersign" unicode="#" horiz-adv-x="658" 
d="M378 0h-111l55 164h-87l-54 -164h-110l54 164h-91l31 95h93l48 148h-92l30 94h95l55 166h110l-55 -166h86l55 166h111l-56 -166h93l-29 -94h-95l-50 -148h96l-30 -95h-98zM353 259l50 148h-86l-49 -148h85z" />
    <glyph glyph-name="dollar" unicode="$" horiz-adv-x="638" 
d="M284 -100v91q-148 14 -240 103l91 129q88 -88 213 -88q44 0 69.5 15.5t25.5 39.5q0 21 -28 34.5t-70 20t-91 21t-91 34t-70 62.5t-28 103q0 79 58 138t161 71v94h111v-95q121 -17 207 -89l-94 -123q-84 69 -195 69q-72 0 -72 -48q0 -23 39 -36.5t94 -25t110.5 -30.5
t94.5 -64.5t39 -114.5q0 -91 -58 -149.5t-165 -70.5v-91h-111z" />
    <glyph glyph-name="percent" unicode="%" horiz-adv-x="788" 
d="M216 343q-77 0 -125 47.5t-48 118.5q0 72 48 120t125 48q79 0 127.5 -48t48.5 -120q0 -71 -48.5 -118.5t-127.5 -47.5zM236 0h-86l426 667h87zM593 -12q-77 0 -125 47.5t-48 118.5q0 72 48 120t125 48q78 0 126.5 -48t48.5 -120q0 -71 -48.5 -118.5t-126.5 -47.5z
M216 435q30 0 49.5 19.5t19.5 54.5q0 36 -19.5 56t-49.5 20t-48.5 -20t-18.5 -56q0 -35 18.5 -54.5t48.5 -19.5zM593 80q31 0 50 19t19 55t-19.5 56t-49.5 20t-48.5 -20t-18.5 -56t18.5 -55t48.5 -19z" />
    <glyph glyph-name="ampersand" unicode="&#x26;" horiz-adv-x="691" 
d="M671 0h-192l-40 41q-80 -53 -174 -53q-99 0 -163 51t-64 146q0 69 37.5 113t103.5 76q-40 80 -40 140q0 69 57 116t145 47q77 0 132 -40t55 -106q0 -69 -42 -108t-119 -73q20 -26 48 -61q16 -22 46 -57q35 56 55 118l121 -57q-42 -90 -94 -155q54 -61 128 -138zM287 107
q35 0 72 21q-48 53 -63 74q-37 47 -59 78q-38 -33 -38 -80q0 -41 26 -67t62 -26zM291 511q0 -32 23 -78q41 19 62 39.5t21 49.5q0 21 -13.5 33.5t-34.5 12.5q-25 0 -41.5 -16t-16.5 -41z" />
    <glyph glyph-name="quotesingle" unicode="'" horiz-adv-x="240" 
d="M172 357h-65q-48 219 -48 240q0 33 23.5 56.5t56.5 23.5t57 -23.5t24 -56.5q0 -9 -12 -69t-24 -116z" />
    <glyph glyph-name="parenleft" unicode="(" horiz-adv-x="344" 
d="M324 -124l-97 -75q-76 76 -122 198t-46 244t46 244t122 198l97 -74q-53 -90 -76.5 -176t-23.5 -192q0 -105 23.5 -191.5t76.5 -175.5z" />
    <glyph glyph-name="parenright" unicode=")" horiz-adv-x="323" 
d="M135 -199l-97 75q99 169 99 367q0 106 -23.5 192t-75.5 176l97 74q76 -76 122 -198t46 -244t-46 -244t-122 -198z" />
    <glyph glyph-name="asterisk" unicode="*" horiz-adv-x="376" 
d="M235 355h-73l5 107l-90 -58l-36 63l95 49l-95 49l36 62l90 -57l-5 107h73l-6 -107l90 57l37 -62l-95 -49l95 -49l-37 -63l-90 58z" />
    <glyph glyph-name="plus" unicode="+" horiz-adv-x="518" 
d="M498 291h-174v-198h-101v198h-174v92h174v191h101v-191h174v-92z" />
    <glyph glyph-name="comma" unicode="," horiz-adv-x="274" 
d="M254 61q0 -123 -114 -203l-64 52q25 13 51 41t34 54q-15 -3 -23 -3q-33 0 -55.5 23t-22.5 59q0 38 27 65t65 27q42 0 72 -31t30 -84z" />
    <glyph glyph-name="hyphen" unicode="-" horiz-adv-x="310" 
d="M290 178h-240v129h240v-129z" />
    <glyph glyph-name="period" unicode="." horiz-adv-x="268" 
d="M154 -12q-38 0 -66 28t-28 66t28 66t66 28t66 -28t28 -66t-28 -66t-66 -28z" />
    <glyph glyph-name="slash" unicode="/" horiz-adv-x="386" 
d="M129 -20h-109l237 707h109z" />
    <glyph glyph-name="zero" unicode="0" horiz-adv-x="638" 
d="M332 -12q-71 0 -126.5 29t-90 78t-52 109.5t-17.5 128.5q0 92 30 168t96.5 126t159.5 50t159.5 -50t96.5 -126t30 -168q0 -68 -17.5 -128.5t-52 -109.5t-90 -78t-126.5 -29zM332 140q112 0 112 193q0 192 -112 192t-112 -192q0 -193 112 -193z" />
    <glyph glyph-name="one" unicode="1" horiz-adv-x="427" 
d="M407 0h-172v447l-112 -113l-98 103l233 230h149v-667z" />
    <glyph glyph-name="two" unicode="2" horiz-adv-x="607" 
d="M587 0h-523v134q222 160 282.5 216t60.5 105q0 33 -26.5 51.5t-65.5 18.5q-100 0 -178 -73l-95 114q51 56 123 83.5t147 27.5q119 0 194.5 -61t75.5 -161q0 -75 -56 -146t-183 -159h244v-150z" />
    <glyph glyph-name="three" unicode="3" horiz-adv-x="608" 
d="M312 -12q-92 0 -163.5 29t-112.5 76l87 117q34 -34 84.5 -52t97.5 -18q54 0 83 18t29 47t-26.5 42.5t-92.5 13.5q-80 0 -90 -1v153q13 -1 90 -1q108 0 108 52q0 30 -31 45.5t-81 15.5q-94 0 -166 -64l-83 108q96 108 267 108q126 0 195.5 -49.5t69.5 -133.5
q0 -57 -42.5 -98.5t-103.5 -51.5q60 -6 108.5 -48.5t48.5 -109.5q0 -88 -76 -143t-200 -55z" />
    <glyph glyph-name="four" unicode="4" horiz-adv-x="635" 
d="M534 0h-173v122h-319v134l253 411h239v-394h81v-151h-81v-122zM361 273v244l-152 -244h152z" />
    <glyph glyph-name="five" unicode="5" horiz-adv-x="631" 
d="M329 -12q-170 0 -269 97l94 120q71 -65 173 -65q52 0 80.5 22t28.5 55q0 35 -27 56t-77 21q-79 0 -132 -50l-119 29v394h484v-150h-312v-129q55 53 143 53t151.5 -60t63.5 -157q0 -108 -76 -172t-206 -64z" />
    <glyph glyph-name="six" unicode="6" horiz-adv-x="635" 
d="M349 -12q-151 0 -227 95.5t-76 248.5q0 159 89 252t241 93q121 0 203 -64l-75 -132q-54 44 -128 44q-63 0 -109.5 -42.5t-46.5 -109.5v-8q25 34 69.5 55t94.5 21q96 0 163.5 -58.5t67.5 -160.5q0 -103 -75 -168.5t-191 -65.5zM338 140q46 0 74.5 23t28.5 53
q0 39 -32.5 59t-76.5 20q-68 0 -112 -45q4 -46 33 -78t85 -32z" />
    <glyph glyph-name="seven" unicode="7" horiz-adv-x="584" 
d="M329 0h-189l226 517h-325v150h523v-119z" />
    <glyph glyph-name="eight" unicode="8" horiz-adv-x="631" 
d="M329 -12q-118 0 -200.5 48t-82.5 140q0 55 37.5 100t97.5 68q-124 47 -124 155q0 46 23.5 81.5t63.5 56t87 30.5t98 10q70 0 129 -17t101 -58.5t42 -102.5q0 -107 -125 -155q60 -23 97.5 -68t37.5 -100q0 -62 -41.5 -106t-103.5 -63t-137 -19zM329 411q37 5 66.5 21.5
t29.5 41.5q0 28 -26.5 44t-69.5 16q-44 0 -70.5 -16t-26.5 -44q0 -26 33 -47t64 -16zM329 131q47 0 77.5 18t30.5 47q0 28 -35 46.5t-73 23.5q-39 -5 -73.5 -23.5t-34.5 -46.5q0 -29 30 -47t78 -18z" />
    <glyph glyph-name="nine" unicode="9" horiz-adv-x="630" 
d="M280 -11q-122 0 -202 64l74 132q54 -44 128 -44q70 0 113 44.5t43 107.5v8q-25 -34 -69.5 -55.5t-93.5 -21.5q-95 0 -163.5 59t-68.5 161q0 103 75 168.5t191 65.5q151 0 227 -95.5t76 -248.5q0 -159 -89 -252t-241 -93zM324 371q70 0 112 45q-3 46 -32.5 78t-86.5 32
q-45 0 -73 -23t-28 -53q0 -39 32.5 -59t75.5 -20z" />
    <glyph glyph-name="colon" unicode=":" horiz-adv-x="268" 
d="M154 302q-38 0 -66 28t-28 66t28 66t66 28t66 -28t28 -66t-28 -66t-66 -28zM154 -12q-38 0 -66 28t-28 66t28 66t66 28t66 -28t28 -66t-28 -66t-66 -28z" />
    <glyph glyph-name="semicolon" unicode=";" horiz-adv-x="274" 
d="M154 302q-38 0 -66 28.5t-28 66.5t28 65.5t66 27.5t66 -27.5t28 -65.5t-28 -66.5t-66 -28.5zM254 62q0 -122 -114 -202l-64 52q25 12 51 40t34 55q-10 -4 -23 -4q-33 0 -55.5 23t-22.5 60q0 38 27 65t65 27q43 0 72.5 -31.5t29.5 -84.5z" />
    <glyph glyph-name="less" unicode="&#x3c;" horiz-adv-x="518" 
d="M498 90l-449 189v111l449 190v-110l-345 -136l345 -135v-109z" />
    <glyph glyph-name="equal" unicode="=" horiz-adv-x="518" 
d="M498 381h-449v92h449v-92zM498 195h-449v92h449v-92z" />
    <glyph glyph-name="greater" unicode="&#x3e;" horiz-adv-x="518" 
d="M498 279l-449 -189v109l345 135l-345 136v110l449 -190v-111z" />
    <glyph glyph-name="question" unicode="?" horiz-adv-x="479" 
d="M186 214q-31 38 -31 92q0 31 13.5 56.5t32.5 41.5t38 29t32.5 26.5t13.5 26.5q0 39 -59 39q-60 0 -105 -52l-96 110q40 46 98.5 70t121.5 24q98 0 156 -44t58 -116q0 -40 -16 -71t-38.5 -50.5t-45.5 -35.5t-39 -34t-16 -38q0 -25 15 -40zM247 -12q-38 0 -66 28t-28 66
t28 66t66 28t66 -28t28 -66t-28 -66t-66 -28z" />
    <glyph glyph-name="at" unicode="@" horiz-adv-x="787" 
d="M372 -70q-136 0 -226.5 90.5t-90.5 223.5q0 158 120 276t277 118q141 0 228 -87.5t87 -213.5q0 -62 -20 -112t-52 -79.5t-68 -45t-70 -15.5q-83 0 -101 70l-1 7q-26 -37 -62.5 -57t-74.5 -20q-72 0 -114 48t-42 123q0 97 67.5 169t154.5 72q86 0 123 -61l10 48h136
l-49 -230q-2 -10 -2 -26q0 -41 32 -41q33 0 60 39.5t27 110.5q0 118 -74 188.5t-199 70.5q-141 0 -246 -104.5t-105 -244.5q0 -118 79.5 -197t200.5 -79q94 0 180 54l23 -32q-98 -63 -208 -63zM375 192q52 0 92 53l22 106q-22 40 -70 40q-51 0 -84 -37t-33 -86
q0 -35 19.5 -55.5t53.5 -20.5z" />
    <glyph glyph-name="A" unicode="A" horiz-adv-x="748" 
d="M728 0h-195l-33 96h-263l-33 -96h-195l251 667h216zM453 246l-85 251l-85 -251h170z" />
    <glyph glyph-name="B" unicode="B" horiz-adv-x="686" 
d="M470 0h-390v667h378q93 0 144 -50.5t51 -119.5q0 -60 -32.5 -101t-81.5 -52q54 -8 90.5 -54.5t36.5 -108.5q0 -77 -51 -129t-145 -52zM419 411q26 0 42.5 15.5t16.5 40.5q0 24 -16.5 39.5t-42.5 15.5h-167v-111h167zM425 145q31 0 48.5 16.5t17.5 43.5q0 26 -17.5 43
t-48.5 17h-173v-120h173z" />
    <glyph glyph-name="C" unicode="C" horiz-adv-x="718" 
d="M407 -12q-155 0 -258 96.5t-103 248.5q0 153 102.5 249t258.5 96q201 0 291 -179l-148 -70q-17 41 -56.5 69t-86.5 28q-81 0 -133.5 -55.5t-52.5 -137.5t52.5 -137.5t133.5 -55.5q47 0 86.5 28t56.5 69l148 -70q-38 -76 -109.5 -127.5t-181.5 -51.5z" />
    <glyph glyph-name="D" unicode="D" horiz-adv-x="741" 
d="M361 0h-281v667h280q160 0 260.5 -90t100.5 -243t-100.5 -243.5t-259.5 -90.5zM360 150q85 0 135 53.5t50 130.5q0 81 -48 132t-136 51h-109v-367h108z" />
    <glyph glyph-name="E" unicode="E" horiz-adv-x="589" 
d="M569 0h-489v667h489v-150h-317v-104h310v-150h-310v-113h317v-150z" />
    <glyph glyph-name="F" unicode="F" horiz-adv-x="589" 
d="M252 0h-172v667h489v-150h-317v-104h310v-150h-310v-263z" />
    <glyph glyph-name="G" unicode="G" horiz-adv-x="722" 
d="M407 -12q-153 0 -257 95t-104 250t104 250t257 95q104 0 175 -46t110 -116l-144 -75q-20 36 -57.5 60.5t-83.5 24.5q-81 0 -133.5 -55.5t-52.5 -137.5t52.5 -137.5t133.5 -55.5q35 0 69.5 12t53.5 28v52h-150v151h322v-265q-118 -130 -295 -130z" />
    <glyph glyph-name="H" unicode="H" horiz-adv-x="721" 
d="M701 0h-172v268h-277v-268h-172v667h172v-249h277v249h172v-667z" />
    <glyph glyph-name="I" unicode="I" horiz-adv-x="272" 
d="M252 0h-172v667h172v-667z" />
    <glyph glyph-name="J" unicode="J" horiz-adv-x="472" 
d="M206 -12q-115 0 -183 60l72 131q47 -39 96 -39q41 0 65 24.5t24 66.5v436h172v-438q0 -120 -66 -180.5t-180 -60.5z" />
    <glyph glyph-name="K" unicode="K" horiz-adv-x="703" 
d="M683 0h-211l-175 251l-45 -56v-195h-172v667h172v-274l205 274h212l-259 -312z" />
    <glyph glyph-name="L" unicode="L" horiz-adv-x="540" 
d="M520 0h-440v667h172v-517h268v-150z" />
    <glyph glyph-name="M" unicode="M" horiz-adv-x="857" 
d="M837 0h-172v434l-169 -434h-76l-168 434v-434h-172v667h239l139 -362l140 362h239v-667z" />
    <glyph glyph-name="N" unicode="N" horiz-adv-x="720" 
d="M700 0h-166l-282 386v-386h-172v667h177l270 -367v367h173v-667z" />
    <glyph glyph-name="O" unicode="O" 
d="M403 -12q-154 0 -255.5 97t-101.5 248t101.5 248t255.5 97t255 -97t101 -248t-101 -248t-255 -97zM403 140q81 0 131 55t50 138t-50 138t-131 55q-82 0 -132 -55t-50 -138t50 -138t132 -55z" />
    <glyph glyph-name="P" unicode="P" horiz-adv-x="666" 
d="M252 0h-172v667h334q108 0 170 -63.5t62 -158.5q0 -94 -62 -157.5t-170 -63.5h-162v-224zM391 374q35 0 57.5 19t22.5 52q0 34 -22.5 53t-57.5 19h-139v-143h139z" />
    <glyph glyph-name="Q" unicode="Q" 
d="M403 -12q-154 0 -255.5 97t-101.5 248t101.5 248t255.5 97t255 -97t101 -248q0 -137 -84 -231l42 -51l-120 -96l-49 60q-70 -27 -145 -27zM403 140q22 0 39 4l-61 74l119 96l63 -76q21 45 21 95q0 83 -50 138t-131 55q-82 0 -132 -55t-50 -138t50 -138t132 -55z" />
    <glyph glyph-name="R" unicode="R" horiz-adv-x="669" 
d="M649 0h-197l-112 224h-88v-224h-172v667h334q108 0 170 -63t62 -159q0 -80 -39.5 -130.5t-93.5 -69.5zM388 374q35 0 59 19t24 53q0 33 -24 52t-59 19h-136v-143h136z" />
    <glyph glyph-name="S" unicode="S" horiz-adv-x="626" 
d="M328 -12q-185 0 -296 106l91 129q88 -88 213 -88q44 0 69.5 15.5t25.5 39.5q0 21 -28 34.5t-70 20t-91 21t-91 34t-70 62.5t-28 103q0 88 71.5 150t194.5 62q163 0 271 -93l-94 -123q-84 69 -195 69q-72 0 -72 -48q0 -23 39 -36.5t94 -25t110.5 -30.5t94.5 -64.5
t39 -114.5q0 -102 -73 -162.5t-205 -60.5z" />
    <glyph glyph-name="T" unicode="T" horiz-adv-x="607" 
d="M401 0h-172v517h-187v150h545v-150h-186v-517z" />
    <glyph glyph-name="U" unicode="U" horiz-adv-x="730" 
d="M396 -12q-156 0 -236 77t-80 205v397h175v-391q0 -61 36.5 -98.5t104.5 -37.5q67 0 103.5 37.5t36.5 98.5v391h174v-396q0 -129 -79.5 -206t-234.5 -77z" />
    <glyph glyph-name="V" unicode="V" horiz-adv-x="748" 
d="M476 0h-216l-251 667h195l164 -481l165 481h195z" />
    <glyph glyph-name="W" unicode="W" horiz-adv-x="982" 
d="M771 0h-182l-101 418l-101 -418h-182l-191 667h193l101 -445l114 445h132l114 -445l100 445h194z" />
    <glyph glyph-name="X" unicode="X" horiz-adv-x="726" 
d="M706 0h-203l-145 224l-145 -224h-204l233 342l-218 325h203l131 -209l129 209h204l-217 -324z" />
    <glyph glyph-name="Y" unicode="Y" horiz-adv-x="706" 
d="M434 0h-172v269l-253 398h194l145 -246l143 246h195l-252 -398v-269z" />
    <glyph glyph-name="Z" unicode="Z" horiz-adv-x="597" 
d="M577 0h-518v137l284 380h-284v150h511v-137l-285 -380h292v-150z" />
    <glyph glyph-name="bracketleft" unicode="[" horiz-adv-x="321" 
d="M301 -190h-230v868h230v-99h-122v-670h122v-99z" />
    <glyph glyph-name="backslash" unicode="\" horiz-adv-x="386" 
d="M257 -20l-237 707h109l237 -707h-109z" />
    <glyph glyph-name="bracketright" unicode="]" horiz-adv-x="288" 
d="M268 -190h-230v99h122v670h-122v99h230v-868z" />
    <glyph glyph-name="asciicircum" unicode="^" horiz-adv-x="466" 
d="M446 333h-109l-94 231l-93 -231h-111l149 334h111z" />
    <glyph glyph-name="underscore" unicode="_" horiz-adv-x="607" 
d="M587 -139h-570v99h570v-99z" />
    <glyph glyph-name="grave" unicode="`" horiz-adv-x="303" 
d="M283 556h-104l-159 144h136z" />
    <glyph glyph-name="a" unicode="a" horiz-adv-x="535" 
d="M515 0h-154v48q-23 -27 -63.5 -43.5t-86.5 -16.5q-63 0 -114.5 41.5t-51.5 117.5q0 80 50 117.5t116 37.5q105 0 150 -56v58q0 32 -26 51t-72 19q-77 0 -137 -51l-55 97q88 75 219 75q46 0 84.5 -9.5t71 -30.5t51 -60t18.5 -93v-302zM275 89q62 0 86 35v43q-25 34 -86 34
q-33 0 -55 -14.5t-22 -41.5t22 -41.5t55 -14.5z" />
    <glyph glyph-name="b" unicode="b" horiz-adv-x="606" 
d="M230 167q14 -19 40.5 -31t51.5 -12q47 0 77 32t30 86q0 53 -30 85t-77 32q-25 0 -51.5 -12.5t-40.5 -31.5v-148zM230 0h-154v667h154v-241q55 69 143 69q92 0 152.5 -68.5t60.5 -184.5q0 -119 -60 -186.5t-153 -67.5q-84 0 -143 68v-56z" />
    <glyph glyph-name="c" unicode="c" horiz-adv-x="526" 
d="M308 -12q-114 0 -189 70.5t-75 183.5q0 112 75 182.5t189 70.5q72 0 122.5 -26t75.5 -63l-100 -93q-31 46 -91 46q-49 0 -81 -31.5t-32 -85.5t32 -86t81 -32q58 0 91 47l100 -94q-25 -37 -75.5 -63t-122.5 -26z" />
    <glyph glyph-name="d" unicode="d" horiz-adv-x="574" 
d="M554 0h-153v56q-59 -68 -143 -68q-93 0 -153.5 67.5t-60.5 186.5q0 116 60.5 184.5t153.5 68.5q87 0 143 -69v241h153v-667zM308 124q25 0 51.5 12.5t41.5 31.5v148q-15 19 -41.5 31t-51.5 12q-47 0 -76.5 -32t-29.5 -85t30 -85.5t76 -32.5z" />
    <glyph glyph-name="e" unicode="e" horiz-adv-x="568" 
d="M308 -12q-114 0 -189 69.5t-75 184.5q0 107 72.5 180t184.5 73q109 0 178 -73.5t69 -195.5v-33h-344q7 -36 39 -61t82 -25q28 0 64.5 11.5t55.5 29.5l65 -96q-35 -31 -89.5 -47.5t-112.5 -16.5zM401 293q-4 32 -28 57.5t-72 25.5q-45 0 -69 -25t-30 -58h199z" />
    <glyph glyph-name="f" unicode="f" horiz-adv-x="441" 
d="M263 0h-154v349h-80v134h80v24q0 76 48.5 123t124.5 47q92 0 139 -48l-57 -88q-18 19 -48 19q-23 0 -38 -14t-15 -39v-24h98v-134h-98v-349z" />
    <glyph glyph-name="g" unicode="g" horiz-adv-x="573" 
d="M277 -196q-126 0 -214 72l67 110q52 -56 147 -56q48 0 85.5 25t37.5 86v37q-60 -70 -143 -70q-93 0 -153 63.5t-60 180.5q0 116 59.5 179.5t153.5 63.5q87 0 143 -69v57h153v-440q0 -57 -17.5 -100.5t-44.5 -69t-65 -42t-74 -22t-75 -5.5zM308 144q25 0 51.5 12t40.5 31
v129q-14 19 -40.5 31t-51.5 12q-47 0 -76.5 -28t-29.5 -79q0 -52 29.5 -80t76.5 -28z" />
    <glyph glyph-name="h" unicode="h" horiz-adv-x="578" 
d="M558 0h-154v281q0 78 -80 78q-55 0 -93 -47v-312h-154v667h154v-243q61 71 167 71q80 0 120 -40.5t40 -110.5v-344z" />
    <glyph glyph-name="i" unicode="i" horiz-adv-x="261" 
d="M153 526q-37 0 -62.5 26t-25.5 63t25.5 62.5t62.5 25.5t62.5 -25.5t25.5 -62.5t-25.5 -63t-62.5 -26zM230 0h-154v483h154v-483z" />
    <glyph glyph-name="j" unicode="j" horiz-adv-x="261" 
d="M153 526q-37 0 -62.5 26t-25.5 63t25.5 62.5t62.5 25.5t62.5 -25.5t25.5 -62.5t-25.5 -63t-62.5 -26zM43 -196q-47 0 -72 7.5t-55 26.5l39 113q27 -21 62 -21q59 0 59 74v479h154v-479q0 -92 -47 -146t-140 -54z" />
    <glyph glyph-name="k" unicode="k" horiz-adv-x="592" 
d="M572 0h-190l-106 171l-46 -55v-116h-154v667h154v-377l147 193h186l-178 -220z" />
    <glyph glyph-name="l" unicode="l" horiz-adv-x="250" 
d="M230 0h-154v667h154v-667z" />
    <glyph glyph-name="m" unicode="m" horiz-adv-x="858" 
d="M838 0h-153v294q0 65 -64 65q-52 0 -87 -47v-312h-154v294q0 65 -64 65q-48 0 -86 -47v-312h-154v483h154v-59q19 25 63 48t96 23q107 0 137 -86q23 35 68.5 60.5t98.5 25.5q69 0 107 -36.5t38 -108.5v-350z" />
    <glyph glyph-name="n" unicode="n" horiz-adv-x="577" 
d="M557 0h-154v279q0 80 -79 80q-56 0 -94 -47v-312h-154v483h154v-59q61 71 167 71q80 0 120 -41.5t40 -111.5v-342z" />
    <glyph glyph-name="o" unicode="o" horiz-adv-x="591" 
d="M307 -12q-119 0 -191 74t-72 180t72 179.5t191 73.5q120 0 192 -73.5t72 -179.5t-72 -180t-192 -74zM307 124q49 0 77.5 33.5t28.5 84.5q0 50 -28.5 83.5t-77.5 33.5t-76.5 -33.5t-27.5 -83.5q0 -51 27.5 -84.5t76.5 -33.5z" />
    <glyph glyph-name="p" unicode="p" horiz-adv-x="605" 
d="M373 -12q-85 0 -143 69v-241h-154v667h154v-56q56 68 143 68q94 0 153 -67t59 -186q0 -120 -59 -187t-153 -67zM322 124q46 0 76 32t30 86q0 53 -30 85t-76 32q-25 0 -51.5 -12.5t-40.5 -31.5v-147q14 -19 40.5 -31.5t51.5 -12.5z" />
    <glyph glyph-name="q" unicode="q" horiz-adv-x="573" 
d="M308 124q24 0 51 12.5t40 31.5v147q-14 19 -40.5 31.5t-50.5 12.5q-47 0 -77 -32t-30 -85q0 -54 30 -86t77 -32zM256 -12q-94 0 -153 67t-59 187q0 119 59 186t153 67q87 0 143 -68v56h154v-667h-154v241q-57 -69 -143 -69z" />
    <glyph glyph-name="r" unicode="r" horiz-adv-x="401" 
d="M230 0h-154v483h154v-59q25 30 67 51t84 21v-148q-18 4 -38 4q-32 0 -65.5 -12.5t-47.5 -31.5v-308z" />
    <glyph glyph-name="s" unicode="s" horiz-adv-x="501" 
d="M261 -12q-65 0 -126.5 20t-99.5 54l64 106q28 -25 78.5 -44.5t91.5 -19.5q65 0 65 37q0 17 -29 25.5t-70 15t-82.5 19.5t-70.5 47t-29 88q0 67 55 113t152 46q114 0 202 -64l-59 -102q-23 22 -62 37.5t-80 15.5q-27 0 -44 -10t-17 -25t29 -22.5t70 -15t82.5 -21.5
t70.5 -49.5t29 -90.5q0 -71 -59 -115.5t-161 -44.5z" />
    <glyph glyph-name="t" unicode="t" horiz-adv-x="393" 
d="M259 -12q-74 0 -112.5 36t-38.5 106v219h-80v134h80v132h153v-132h98v-134h-98v-176q0 -22 11.5 -35.5t31.5 -13.5q29 0 39 12l30 -116q-34 -32 -114 -32z" />
    <glyph glyph-name="u" unicode="u" horiz-adv-x="576" 
d="M556 0h-154v58q-62 -70 -167 -70q-80 0 -119.5 40.5t-39.5 110.5v344h154v-281q0 -78 80 -78q55 0 92 47v312h154v-483z" />
    <glyph glyph-name="v" unicode="v" horiz-adv-x="574" 
d="M364 0h-164l-190 483h162l109 -306l110 306h163z" />
    <glyph glyph-name="w" unicode="w" horiz-adv-x="833" 
d="M670 0h-166l-91 299l-90 -299h-166l-143 483h158l78 -296l95 296h137l95 -296l77 296h159z" />
    <glyph glyph-name="x" unicode="x" horiz-adv-x="558" 
d="M538 0h-169l-93 146l-94 -146h-168l165 248l-155 235h169l83 -131l82 131h169l-154 -235z" />
    <glyph glyph-name="y" unicode="y" horiz-adv-x="574" 
d="M66 -188l22 137q17 -9 38 -9q54 0 65 27l11 26l-192 490h162l109 -306l110 306h163l-218 -552q-27 -71 -77 -98t-127 -29q-40 0 -66 8z" />
    <glyph glyph-name="z" unicode="z" horiz-adv-x="485" 
d="M465 0h-407v113l194 236h-194v134h403v-109l-198 -241h202v-133z" />
    <glyph glyph-name="braceleft" unicode="{" horiz-adv-x="325" 
d="M305 -190h-60q-70 0 -120 47t-50 124v156q0 29 -13.5 47.5t-38.5 18.5v82q25 0 38.5 18.5t13.5 47.5v155q0 77 50 124.5t120 47.5h60v-99h-60q-26 0 -44 -20t-18 -53v-172q0 -70 -46 -90q46 -20 46 -90v-172q0 -32 18 -52.5t44 -20.5h60v-99z" />
    <glyph glyph-name="bar" unicode="|" horiz-adv-x="199" 
d="M179 -20h-99v707h99v-707z" />
    <glyph glyph-name="braceright" unicode="}" horiz-adv-x="339" 
d="M37 -190v99h60q26 0 44 20.5t18 52.5v172q0 70 46 90q-46 20 -46 90v172q0 33 -18 53t-44 20h-60v99h60q70 0 120 -47.5t50 -124.5v-155q0 -29 13.5 -47.5t38.5 -18.5v-82q-25 0 -38.5 -18.5t-13.5 -47.5v-156q0 -77 -50 -124t-120 -47h-60z" />
    <glyph glyph-name="asciitilde" unicode="~" horiz-adv-x="528" 
d="M408 667l100 -12q-4 -51 -11.5 -90t-23.5 -77.5t-46 -59.5t-72 -21q-45 0 -72.5 26.5t-35.5 58t-19.5 58t-27.5 26.5q-38 0 -52 -170l-103 12q4 52 12 90.5t24.5 77.5t46.5 60t72 21q45 0 72.5 -26.5t35.5 -58.5t19.5 -58.5t27.5 -26.5q40 0 53 170z" />
    <glyph glyph-name="Non-breakingspace" unicode="&#xa0;" horiz-adv-x="20" 
 />
    <glyph glyph-name="exclamdown" unicode="&#xa1;" horiz-adv-x="266" 
d="M62 -184l23 434h137l24 -434h-184zM60 401q0 38 27.5 65.5t65.5 27.5t65.5 -27.5t27.5 -65.5t-27.5 -66t-65.5 -28t-65.5 28t-27.5 66z" />
    <glyph glyph-name="cent" unicode="&#xa2;" horiz-adv-x="526" 
d="M255 -100v93q-94 15 -152.5 82.5t-58.5 166.5q0 98 58.5 165t152.5 83v75h109v-75q95 -17 142 -84l-100 -93q-31 46 -91 46q-49 0 -81 -31.5t-32 -85.5t32 -86t81 -32q58 0 91 47l100 -94q-47 -67 -142 -84v-93h-109z" />
    <glyph glyph-name="sterling" unicode="&#xa3;" horiz-adv-x="594" 
d="M44 269v96h52q-33 52 -33 100q0 96 78.5 154t173.5 58q183 0 248 -125l-137 -79q-11 31 -35 48t-54 17q-37 0 -61 -21.5t-24 -54.5q0 -37 34 -97h140v-96h-110v-7q0 -30 -17 -58.5t-43 -42.5q21 8 48 8q29 0 64.5 -14.5t57.5 -14.5q56 0 81 35l67 -136q-47 -51 -154 -51
q-47 0 -103.5 21.5t-78.5 21.5q-48 0 -115 -38l-57 115q97 48 97 110q0 26 -11 51h-108z" />
    <glyph glyph-name="currency" unicode="&#xa4;" horiz-adv-x="653" 
d="M338 83q-74 0 -132 30l-74 -75l-90 90l70 70q-37 62 -37 135q0 75 38 136l-71 71l90 90l75 -76q60 29 131 29q70 0 130 -29l76 76l89 -90l-71 -71q39 -62 39 -136q0 -77 -39 -137l71 -68l-89 -90l-76 73q-58 -28 -130 -28zM338 219q51 0 80.5 32.5t29.5 81.5t-29.5 81
t-80.5 32t-80.5 -32.5t-29.5 -80.5q0 -49 29.5 -81.5t80.5 -32.5z" />
    <glyph glyph-name="yen" unicode="&#xa5;" horiz-adv-x="706" 
d="M434 0h-172v111h-218v92h218v66h-218v92h159l-194 306h194l145 -246l143 246h195l-194 -306h160v-92h-218v-66h218v-92h-218v-111z" />
    <glyph glyph-name="brokenbar" unicode="&#xa6;" horiz-adv-x="199" 
d="M179 -20h-99v316h99v-316zM179 371h-99v316h99v-316z" />
    <glyph glyph-name="section" unicode="&#xa7;" horiz-adv-x="501" 
d="M481 331q0 -40 -21 -74t-59 -54q80 -37 80 -123q0 -75 -61.5 -118t-158.5 -43q-131 0 -223 79l61 97q29 -28 74 -49.5t88 -21.5q73 0 73 42q0 22 -29 34.5t-70 21t-82.5 22t-70.5 47t-29 86.5q0 45 27.5 77t61.5 46q-89 37 -89 128q0 64 58.5 106.5t147.5 42.5
q128 0 202 -66l-58 -91q-56 51 -136 51q-67 0 -67 -40q0 -19 29 -29.5t70 -18t82.5 -20.5t70.5 -46.5t29 -85.5zM330 300q0 47 -69 63q-61 -14 -61 -61q0 -20 13.5 -33.5t29.5 -19t40 -10.5q47 19 47 61z" />
    <glyph glyph-name="dieresis" unicode="&#xa8;" horiz-adv-x="379" 
d="M359 615q0 -34 -23 -56.5t-56 -22.5q-32 0 -55 23t-23 56q0 32 23 55t55 23q33 0 56 -23t23 -55zM145 615q0 -34 -23 -56.5t-56 -22.5t-55.5 22.5t-22.5 56.5q0 32 22.5 55t55.5 23t56 -23t23 -55z" />
    <glyph glyph-name="copyright" unicode="&#xa9;" horiz-adv-x="774" 
d="M754 334q0 -143 -101 -244t-244 -101t-244 101.5t-101 243.5q0 143 101 244t244 101t244 -101t101 -244zM715 334q0 126 -90 216t-216 90t-216 -90t-90 -216t90 -216t216 -90t216 90t90 216zM531 226l35 -33q-59 -69 -150 -69q-87 0 -147.5 60t-60.5 151q0 90 60.5 149.5
t147.5 59.5q92 0 149 -67l-35 -34q-43 58 -114 58q-66 0 -112 -47t-46 -119q0 -71 46 -119.5t112 -48.5q71 0 115 59z" />
    <glyph glyph-name="ordfeminine" unicode="&#xaa;" horiz-adv-x="383" 
d="M363 326h-109v30q-33 -38 -99 -38q-43 0 -76.5 27t-33.5 76t33.5 75t76.5 26q68 0 99 -35v31q0 22 -16.5 35.5t-46.5 13.5q-50 0 -89 -39l-39 71q59 49 147 49q153 0 153 -132v-190zM201 385q37 0 53 24v25q-16 23 -53 23q-48 0 -48 -36t48 -36z" />
    <glyph glyph-name="guillemotleft" unicode="&#xab;" horiz-adv-x="581" 
d="M561 63h-139l-160 180l160 177h139l-160 -177zM349 63h-139l-160 180l160 177h139l-160 -177z" />
    <glyph glyph-name="logicalnot" unicode="&#xac;" horiz-adv-x="518" 
d="M498 473v-278h-94v186h-355v92h449z" />
    <glyph glyph-name="Softhyphen" unicode="&#xad;" horiz-adv-x="310" 
d="M290 178h-240v129h240v-129z" />
    <glyph glyph-name="registered" unicode="&#xae;" horiz-adv-x="499" 
d="M479 465q0 -88 -62 -150t-150 -62t-150 62t-62 150t62 150t150 62q89 0 150.5 -61.5t61.5 -150.5zM445 465q0 75 -52 126.5t-126 51.5q-75 0 -127 -51.5t-52 -126.5q0 -74 52.5 -126.5t126.5 -52.5t126 52.5t52 126.5zM368 343h-44l-63 96h-40v-96h-36v243h99
q32 0 56.5 -21t24.5 -53q0 -35 -22.5 -53.5t-39.5 -18.5zM328 512q0 19 -13.5 31.5t-30.5 12.5h-63v-86h63q17 0 30.5 12t13.5 30z" />
    <glyph glyph-name="macron" unicode="&#xaf;" horiz-adv-x="403" 
d="M383 556h-363v85h363v-85z" />
    <glyph glyph-name="degree" unicode="&#xb0;" horiz-adv-x="342" 
d="M322 535q0 -59 -41.5 -100.5t-100.5 -41.5t-100.5 41.5t-41.5 100.5t42 100.5t100 41.5t100 -41.5t42 -100.5zM243 535q0 25 -18.5 44t-44.5 19q-25 0 -43 -18.5t-18 -44.5t18 -44t43 -18q26 0 44.5 18.5t18.5 43.5z" />
    <glyph glyph-name="plusminus" unicode="&#xb1;" horiz-adv-x="518" 
d="M498 327h-174v-198h-101v198h-174v92h174v190h101v-190h174v-92zM498 0h-449v92h449v-92z" />
    <glyph glyph-name="Superscripttwo" unicode="&#xb2;" horiz-adv-x="410" 
d="M390 421h-326v82q135 94 172 127.5t37 59.5q0 22 -16 34.5t-43 12.5q-31 0 -61 -15t-46 -34l-58 72q62 67 168 67q77 0 123.5 -34t46.5 -94q0 -43 -35.5 -85t-122.5 -103h161v-90z" />
    <glyph glyph-name="Superscriptthree" unicode="&#xb3;" horiz-adv-x="413" 
d="M393 533q0 -53 -47.5 -86t-125.5 -33q-116 0 -172 63l54 74q46 -47 113 -47q31 0 48 10.5t17 26.5q0 23 -20 30.5t-61 7.5t-47 -1v89q9 -1 46 -1q39 0 57 8t18 28q0 35 -65 35q-62 0 -104 -42l-51 67q60 65 167 65q80 0 123 -30t43 -80q0 -33 -25.5 -58.5t-63.5 -31.5
q37 -3 66.5 -28.5t29.5 -65.5z" />
    <glyph glyph-name="acute" unicode="&#xb4;" horiz-adv-x="303" 
d="M283 700l-159 -144h-104l127 144h136z" />
    <glyph glyph-name="mu" unicode="&#xb5;" horiz-adv-x="642" 
d="M230 6v-190h-154v667h154v-281q0 -78 80 -78q55 0 92 47v312h154v-321q0 -18 10.5 -28t26.5 -10q11 0 19 3l10 -130q-27 -9 -68 -9q-114 0 -143 87q-20 -39 -53 -63t-74 -24q-36 0 -54 18z" />
    <glyph glyph-name="paragraph" unicode="&#xb6;" horiz-adv-x="455" 
d="M435 -100h-71v696h-74v-696h-71v423q-71 0 -121.5 50.5t-50.5 121.5t50.5 121.5t121.5 50.5h216v-767z" />
    <glyph glyph-name="periodcentered" unicode="&#xb7;" horiz-adv-x="268" 
d="M248 244q0 -38 -28 -65.5t-66 -27.5t-65.5 27.5t-27.5 65.5t27.5 66t65.5 28t66 -28t28 -66z" />
    <glyph glyph-name="cedilla" unicode="&#xb8;" horiz-adv-x="269" 
d="M134 -198q-73 0 -114 33l28 58q41 -30 82 -30q19 0 33 7.5t14 20.5q0 22 -25 22q-16 0 -29 -13l-53 30l31 81h71l-25 -60q17 10 34 10q28 0 48 -20.5t20 -51.5q0 -40 -33 -63.5t-82 -23.5z" />
    <glyph glyph-name="Superscriptone" unicode="&#xb9;" horiz-adv-x="291" 
d="M271 421h-114v255l-69 -69l-64 68l149 146h98v-400z" />
    <glyph glyph-name="ordmasculine" unicode="&#xba;" horiz-adv-x="420" 
d="M222 318q-80 0 -128.5 48t-48.5 117t48.5 117t128.5 48q81 0 129.5 -48t48.5 -117t-48.5 -117t-129.5 -48zM222 405q31 0 48.5 20.5t17.5 57.5t-17.5 56.5t-48.5 19.5q-64 0 -64 -76q0 -37 17 -57.5t47 -20.5z" />
    <glyph glyph-name="guillemotright" unicode="&#xbb;" horiz-adv-x="581" 
d="M349 243l-160 -180h-139l160 180l-160 177h139zM561 243l-160 -180h-139l160 180l-160 177h139z" />
    <glyph glyph-name="onequarter" unicode="&#xbc;" horiz-adv-x="887" 
d="M271 267h-114v255l-69 -69l-64 68l149 146h98v-400zM867 78h-50v-78h-113v78h-197v77l150 245h160v-233h50v-89zM704 167v138l-85 -138h85zM687 667l-428 -667h-86l426 667h88z" />
    <glyph glyph-name="onehalf" unicode="&#xbd;" horiz-adv-x="904" 
d="M271 267h-114v255l-69 -69l-64 68l149 146h98v-400zM884 0h-326v82q135 94 172 127.5t37 59.5q0 22 -16 34.5t-43 12.5q-31 0 -61 -15t-46 -34l-58 72q62 67 168 67q77 0 123.5 -34t46.5 -94q0 -43 -35.5 -85t-122.5 -103h161v-90zM687 667l-428 -667h-86l426 667h88z
" />
    <glyph glyph-name="threequarters" unicode="&#xbe;" horiz-adv-x="964" 
d="M944 78h-50v-78h-113v78h-197v77l150 245h160v-233h50v-89zM781 167v138l-85 -138h85zM764 667l-428 -667h-86l426 667h88zM393 379q0 -53 -47.5 -86t-125.5 -33q-116 0 -172 63l54 74q46 -47 113 -47q31 0 48 10.5t17 26.5q0 23 -20 30.5t-61 7.5t-47 -1v89q9 -1 46 -1
q39 0 57 8t18 28q0 35 -65 35q-62 0 -104 -42l-51 67q60 65 167 65q80 0 123 -30t43 -80q0 -33 -25.5 -58.5t-63.5 -31.5q37 -3 66.5 -28.5t29.5 -65.5z" />
    <glyph glyph-name="questiondown" unicode="&#xbf;" horiz-adv-x="488" 
d="M307 268q30 -35 30 -91q0 -32 -13.5 -57.5t-32.5 -41.5t-37.5 -29t-32 -26.5t-13.5 -26.5q0 -39 59 -39q58 0 105 52l96 -110q-40 -46 -98.5 -70t-121.5 -24q-98 0 -156 44t-58 116q0 40 16 71t38.5 50.5t45.5 35.5t39 34t16 39q0 25 -15 40zM246 494q38 0 66 -28t28 -66
t-28 -65.5t-66 -27.5t-66 27.5t-28 65.5t28 66t66 28z" />
    <glyph glyph-name="Agrave" unicode="&#xc0;" horiz-adv-x="748" 
d="M728 0h-195l-33 96h-263l-33 -96h-195l251 667h216zM453 246l-85 251l-85 -251h170zM434 723h-104l-159 144h136z" />
    <glyph glyph-name="Aacute" unicode="&#xc1;" horiz-adv-x="748" 
d="M728 0h-195l-33 96h-263l-33 -96h-195l251 667h216zM453 246l-85 251l-85 -251h170zM565 867l-159 -144h-104l127 144h136z" />
    <glyph glyph-name="Acircumflex" unicode="&#xc2;" horiz-adv-x="748" 
d="M529 723h-92l-69 81l-66 -81h-91l90 144h135zM728 0h-195l-33 96h-263l-33 -96h-195l251 667h216zM453 246l-85 251l-85 -251h170z" />
    <glyph glyph-name="Atilde" unicode="&#xc3;" horiz-adv-x="748" 
d="M728 0h-195l-33 96h-263l-33 -96h-195l251 667h216zM453 246l-85 251l-85 -251h170zM423 721q-22 0 -40.5 8.5t-28.5 19t-22 19t-22 8.5q-30 0 -30 -49h-78q0 134 113 134q28 0 49 -13.5t36.5 -27.5t27.5 -14q30 0 30 49h78q0 -134 -113 -134z" />
    <glyph glyph-name="Adieresis" unicode="&#xc4;" horiz-adv-x="748" 
d="M554 782q0 -34 -23 -56.5t-56 -22.5t-55.5 22.5t-22.5 56.5q0 32 23 55t55 23q33 0 56 -23t23 -55zM340 782q0 -34 -23 -56.5t-56 -22.5t-55.5 22.5t-22.5 56.5q0 32 22.5 55t55.5 23t56 -23t23 -55zM728 0h-195l-33 96h-263l-33 -96h-195l251 667h216zM453 246l-85 251
l-85 -251h170z" />
    <glyph glyph-name="Aring" unicode="&#xc5;" horiz-adv-x="748" 
d="M728 0h-195l-33 96h-263l-33 -96h-195l251 667h216zM453 246l-85 251l-85 -251h170zM370 687q-45 0 -77 32t-32 76q0 45 32 77t77 32q44 0 75 -32t31 -77q0 -44 -31 -76t-75 -32zM370 755q16 0 27.5 11.5t11.5 28.5t-11.5 29t-27.5 12q-17 0 -29 -12t-12 -29t12 -28.5
t29 -11.5z" />
    <glyph glyph-name="AE" unicode="&#xc6;" horiz-adv-x="983" 
d="M963 0h-489v96h-221l-54 -96h-196l400 667h560v-150h-317v-104h310v-150h-310v-113h317v-150zM474 246v251l-141 -251h141z" />
    <glyph glyph-name="Ccedilla" unicode="&#xc7;" horiz-adv-x="718" 
d="M401 -194q-73 0 -114 33l28 58q41 -30 82 -30q19 0 33 7.5t14 20.5q0 22 -25 22q-16 0 -29 -13l-53 30l21 57q-137 15 -224.5 108.5t-87.5 233.5q0 153 102.5 249t258.5 96q201 0 291 -179l-148 -70q-17 41 -56.5 69t-86.5 28q-81 0 -133.5 -55.5t-52.5 -137.5
t52.5 -137.5t133.5 -55.5q47 0 86.5 28t56.5 69l148 -70q-85 -169 -270 -178l-14 -34q17 10 34 10q28 0 48 -20.5t20 -51.5q0 -40 -33 -63.5t-82 -23.5z" />
    <glyph glyph-name="Egrave" unicode="&#xc8;" horiz-adv-x="589" 
d="M569 0h-489v667h489v-150h-317v-104h310v-150h-310v-113h317v-150zM387 723h-104l-159 144h136z" />
    <glyph glyph-name="Eacute" unicode="&#xc9;" horiz-adv-x="589" 
d="M522 867l-159 -144h-104l127 144h136zM569 0h-489v667h489v-150h-317v-104h310v-150h-310v-113h317v-150z" />
    <glyph glyph-name="Ecircumflex" unicode="&#xca;" horiz-adv-x="589" 
d="M484 723h-92l-69 81l-66 -81h-91l90 144h135zM569 0h-489v667h489v-150h-317v-104h310v-150h-310v-113h317v-150z" />
    <glyph glyph-name="Edieresis" unicode="&#xcb;" horiz-adv-x="589" 
d="M512 782q0 -34 -23 -56.5t-56 -22.5t-55.5 22.5t-22.5 56.5q0 32 23 55t55 23q33 0 56 -23t23 -55zM298 782q0 -34 -23 -56.5t-56 -22.5t-55.5 22.5t-22.5 56.5q0 32 22.5 55t55.5 23t56 -23t23 -55zM569 0h-489v667h489v-150h-317v-104h310v-150h-310v-113h317v-150z
" />
    <glyph glyph-name="Igrave" unicode="&#xcc;" horiz-adv-x="272" 
d="M252 0h-172v667h172v-667zM233 723h-104l-159 144h136z" />
    <glyph glyph-name="Iacute" unicode="&#xcd;" horiz-adv-x="384" 
d="M252 0h-172v667h172v-667zM364 867l-159 -144h-104l127 144h136z" />
    <glyph glyph-name="Icircumflex" unicode="&#xce;" horiz-adv-x="345" 
d="M325 723h-92l-69 81l-66 -81h-91l90 144h135zM252 0h-172v667h172v-667z" />
    <glyph glyph-name="Idieresis" unicode="&#xcf;" horiz-adv-x="372" 
d="M352 782q0 -34 -23 -56.5t-56 -22.5t-55.5 22.5t-22.5 56.5q0 32 23 55t55 23q33 0 56 -23t23 -55zM138 782q0 -34 -23 -56.5t-56 -22.5t-55.5 22.5t-22.5 56.5q0 32 22.5 55t55.5 23t56 -23t23 -55zM252 0h-172v667h172v-667z" />
    <glyph glyph-name="Eth" unicode="&#xd0;" horiz-adv-x="764" 
d="M384 0h-281v266h-75v131h75v270h280q160 0 260.5 -90t100.5 -243t-100.5 -243.5t-259.5 -90.5zM383 150q85 0 135 53.5t50 130.5q0 81 -48 132t-136 51h-109v-120h140v-131h-140v-116h108z" />
    <glyph glyph-name="Ntilde" unicode="&#xd1;" horiz-adv-x="720" 
d="M442 721q-22 0 -40.5 8.5t-28.5 19t-22 19t-22 8.5q-30 0 -30 -49h-78q0 134 113 134q28 0 49 -13.5t36.5 -27.5t27.5 -14q30 0 30 49h78q0 -134 -113 -134zM700 0h-166l-282 386v-386h-172v667h177l270 -367v367h173v-667z" />
    <glyph glyph-name="Ograve" unicode="&#xd2;" 
d="M469 723h-104l-159 144h136zM403 -12q-154 0 -255.5 97t-101.5 248t101.5 248t255.5 97t255 -97t101 -248t-101 -248t-255 -97zM403 140q81 0 131 55t50 138t-50 138t-131 55q-82 0 -132 -55t-50 -138t50 -138t132 -55z" />
    <glyph glyph-name="Oacute" unicode="&#xd3;" 
d="M599 867l-159 -144h-104l127 144h136zM403 -12q-154 0 -255.5 97t-101.5 248t101.5 248t255.5 97t255 -97t101 -248t-101 -248t-255 -97zM403 140q81 0 131 55t50 138t-50 138t-131 55q-82 0 -132 -55t-50 -138t50 -138t132 -55z" />
    <glyph glyph-name="Ocircumflex" unicode="&#xd4;" 
d="M565 723h-92l-69 81l-66 -81h-91l90 144h135zM403 -12q-154 0 -255.5 97t-101.5 248t101.5 248t255.5 97t255 -97t101 -248t-101 -248t-255 -97zM403 140q81 0 131 55t50 138t-50 138t-131 55q-82 0 -132 -55t-50 -138t50 -138t132 -55z" />
    <glyph glyph-name="Otilde" unicode="&#xd5;" 
d="M403 -12q-154 0 -255.5 97t-101.5 248t101.5 248t255.5 97t255 -97t101 -248t-101 -248t-255 -97zM403 140q81 0 131 55t50 138t-50 138t-131 55q-82 0 -132 -55t-50 -138t50 -138t132 -55zM457 721q-22 0 -40.5 8.5t-28.5 19t-22 19t-22 8.5q-30 0 -30 -49h-78
q0 134 113 134q28 0 49 -13.5t36.5 -27.5t27.5 -14q30 0 30 49h78q0 -134 -113 -134z" />
    <glyph glyph-name="Odieresis" unicode="&#xd6;" 
d="M591 782q0 -34 -23 -56.5t-56 -22.5q-32 0 -55 22.5t-23 56.5q0 32 23 55t55 23q33 0 56 -23t23 -55zM377 782q0 -34 -23 -56.5t-56 -22.5t-55.5 22.5t-22.5 56.5q0 32 22.5 55t55.5 23t56 -23t23 -55zM403 -12q-154 0 -255.5 97t-101.5 248t101.5 248t255.5 97t255 -97
t101 -248t-101 -248t-255 -97zM403 140q81 0 131 55t50 138t-50 138t-131 55q-82 0 -132 -55t-50 -138t50 -138t132 -55z" />
    <glyph glyph-name="multiply" unicode="&#xd7;" horiz-adv-x="496" 
d="M411 132l-137 137l-137 -137l-66 64l138 138l-138 138l66 64l137 -137l137 137l65 -64l-137 -138l137 -138z" />
    <glyph glyph-name="Oslash" unicode="&#xd8;" 
d="M403 -12q-106 0 -190 48l-29 -36h-120l75 93q-93 95 -93 240q0 151 101.5 248t255.5 97q97 0 175 -40l24 29h120l-67 -83q104 -98 104 -251q0 -151 -101 -248t-255 -97zM403 140q81 0 131 55t50 138q0 68 -35 119l-235 -291q42 -21 89 -21zM221 333q0 -60 26 -106
l229 284q-33 15 -73 15q-82 0 -132 -55t-50 -138z" />
    <glyph glyph-name="Ugrave" unicode="&#xd9;" horiz-adv-x="730" 
d="M396 -12q-156 0 -236 77t-80 205v397h175v-391q0 -61 36.5 -98.5t104.5 -37.5q67 0 103.5 37.5t36.5 98.5v391h174v-396q0 -129 -79.5 -206t-234.5 -77zM461 723h-104l-159 144h136z" />
    <glyph glyph-name="Uacute" unicode="&#xda;" horiz-adv-x="730" 
d="M592 867l-159 -144h-104l127 144h136zM396 -12q-156 0 -236 77t-80 205v397h175v-391q0 -61 36.5 -98.5t104.5 -37.5q67 0 103.5 37.5t36.5 98.5v391h174v-396q0 -129 -79.5 -206t-234.5 -77z" />
    <glyph glyph-name="Ucircumflex" unicode="&#xdb;" horiz-adv-x="730" 
d="M560 723h-92l-69 81l-66 -81h-91l90 144h135zM396 -12q-156 0 -236 77t-80 205v397h175v-391q0 -61 36.5 -98.5t104.5 -37.5q67 0 103.5 37.5t36.5 98.5v391h174v-396q0 -129 -79.5 -206t-234.5 -77z" />
    <glyph glyph-name="Udieresis" unicode="&#xdc;" horiz-adv-x="730" 
d="M584 782q0 -34 -23 -56.5t-56 -22.5t-55.5 22.5t-22.5 56.5q0 32 23 55t55 23q33 0 56 -23t23 -55zM370 782q0 -34 -23 -56.5t-56 -22.5t-55.5 22.5t-22.5 56.5q0 32 22.5 55t55.5 23t56 -23t23 -55zM396 -12q-156 0 -236 77t-80 205v397h175v-391q0 -61 36.5 -98.5
t104.5 -37.5q67 0 103.5 37.5t36.5 98.5v391h174v-396q0 -129 -79.5 -206t-234.5 -77z" />
    <glyph glyph-name="Yacute" unicode="&#xdd;" horiz-adv-x="706" 
d="M434 0h-172v269l-253 398h194l145 -246l143 246h195l-252 -398v-269zM544 867l-159 -144h-104l127 144h136z" />
    <glyph glyph-name="Thorn" unicode="&#xde;" horiz-adv-x="666" 
d="M252 0h-172v667h172v-102h162q108 0 170 -64t62 -159t-61.5 -157.5t-170.5 -62.5h-162v-122zM388 273q35 0 59 18.5t24 51.5t-24 52.5t-59 19.5h-136v-142h136z" />
    <glyph glyph-name="germandbls" unicode="&#xdf;" horiz-adv-x="692" 
d="M672 149q0 -72 -58 -116.5t-151 -44.5q-118 0 -202 74l61 106q21 -26 61.5 -45t79.5 -19q29 0 45 11t16 26q0 16 -25.5 25.5t-62 17.5t-72.5 21.5t-61.5 47t-25.5 85.5q0 34 17.5 62.5t38.5 43.5t38.5 30t17.5 26q0 20 -19.5 30.5t-47.5 10.5q-41 0 -66 -20.5t-25 -57.5
v-463h-154v463q0 90 67 152t181 62q90 0 155.5 -42.5t65.5 -111.5q0 -31 -12.5 -56.5t-30.5 -41.5t-36 -29t-30.5 -26t-12.5 -26q0 -14 25.5 -21t62 -14t73 -20.5t62 -49t25.5 -90.5z" />
    <glyph glyph-name="agrave" unicode="&#xe0;" horiz-adv-x="535" 
d="M515 0h-154v48q-23 -27 -63.5 -43.5t-86.5 -16.5q-63 0 -114.5 41.5t-51.5 117.5q0 80 50 117.5t116 37.5q105 0 150 -56v58q0 32 -26 51t-72 19q-77 0 -137 -51l-55 97q88 75 219 75q46 0 84.5 -9.5t71 -30.5t51 -60t18.5 -93v-302zM275 89q62 0 86 35v43q-25 34 -86 34
q-33 0 -55 -14.5t-22 -41.5t22 -41.5t55 -14.5zM357 556h-104l-159 144h136z" />
    <glyph glyph-name="aacute" unicode="&#xe1;" horiz-adv-x="535" 
d="M515 0h-154v48q-23 -27 -63.5 -43.5t-86.5 -16.5q-63 0 -114.5 41.5t-51.5 117.5q0 80 50 117.5t116 37.5q105 0 150 -56v58q0 32 -26 51t-72 19q-77 0 -137 -51l-55 97q88 75 219 75q46 0 84.5 -9.5t71 -30.5t51 -60t18.5 -93v-302zM275 89q62 0 86 35v43q-25 34 -86 34
q-33 0 -55 -14.5t-22 -41.5t22 -41.5t55 -14.5zM487 700l-159 -144h-104l127 144h136z" />
    <glyph glyph-name="acircumflex" unicode="&#xe2;" horiz-adv-x="535" 
d="M515 0h-154v48q-23 -27 -63.5 -43.5t-86.5 -16.5q-63 0 -114.5 41.5t-51.5 117.5q0 80 50 117.5t116 37.5q105 0 150 -56v58q0 32 -26 51t-72 19q-77 0 -137 -51l-55 97q88 75 219 75q46 0 84.5 -9.5t71 -30.5t51 -60t18.5 -93v-302zM275 89q62 0 86 35v43q-25 34 -86 34
q-33 0 -55 -14.5t-22 -41.5t22 -41.5t55 -14.5zM454 556h-92l-69 81l-66 -81h-91l90 144h135z" />
    <glyph glyph-name="atilde" unicode="&#xe3;" horiz-adv-x="535" 
d="M515 0h-154v48q-23 -27 -63.5 -43.5t-86.5 -16.5q-63 0 -114.5 41.5t-51.5 117.5q0 80 50 117.5t116 37.5q105 0 150 -56v58q0 32 -26 51t-72 19q-77 0 -137 -51l-55 97q88 75 219 75q46 0 84.5 -9.5t71 -30.5t51 -60t18.5 -93v-302zM275 89q62 0 86 35v43q-25 34 -86 34
q-33 0 -55 -14.5t-22 -41.5t22 -41.5t55 -14.5zM347 554q-28 0 -49.5 14t-36.5 27.5t-27 13.5q-30 0 -30 -49h-78q0 134 113 134q28 0 49 -14t36.5 -27.5t27.5 -13.5q30 0 30 49h78q0 -134 -113 -134z" />
    <glyph glyph-name="adieresis" unicode="&#xe4;" horiz-adv-x="535" 
d="M515 0h-154v48q-23 -27 -63.5 -43.5t-86.5 -16.5q-63 0 -114.5 41.5t-51.5 117.5q0 80 50 117.5t116 37.5q105 0 150 -56v58q0 32 -26 51t-72 19q-77 0 -137 -51l-55 97q88 75 219 75q46 0 84.5 -9.5t71 -30.5t51 -60t18.5 -93v-302zM275 89q62 0 86 35v43q-25 34 -86 34
q-33 0 -55 -14.5t-22 -41.5t22 -41.5t55 -14.5zM477 615q0 -34 -23 -56.5t-56 -22.5q-32 0 -55 23t-23 56q0 32 23 55t55 23q33 0 56 -23t23 -55zM263 615q0 -34 -23 -56.5t-56 -22.5t-55.5 22.5t-22.5 56.5q0 32 22.5 55t55.5 23t56 -23t23 -55z" />
    <glyph glyph-name="aring" unicode="&#xe5;" horiz-adv-x="535" 
d="M515 0h-154v48q-23 -27 -63.5 -43.5t-86.5 -16.5q-63 0 -114.5 41.5t-51.5 117.5q0 80 50 117.5t116 37.5q105 0 150 -56v58q0 32 -26 51t-72 19q-77 0 -137 -51l-55 97q88 75 219 75q46 0 84.5 -9.5t71 -30.5t51 -60t18.5 -93v-302zM275 89q62 0 86 35v43q-25 34 -86 34
q-33 0 -55 -14.5t-22 -41.5t22 -41.5t55 -14.5zM294 525q-45 0 -77 32t-32 76q0 45 32 77t77 32q44 0 75 -32t31 -77q0 -44 -31 -76t-75 -32zM294 593q16 0 27.5 11.5t11.5 28.5t-11.5 29t-27.5 12q-17 0 -29 -12t-12 -29t12 -28.5t29 -11.5z" />
    <glyph glyph-name="ae" unicode="&#xe6;" horiz-adv-x="880" 
d="M860 193h-330q9 -36 39 -59.5t78 -23.5q67 0 108 41l68 -99q-34 -31 -87.5 -47.5t-103.5 -16.5q-117 0 -180 77q-33 -34 -85.5 -55.5t-114.5 -21.5q-90 0 -148.5 39.5t-58.5 117.5q0 76 49 116.5t123 40.5q107 0 158 -54v56q0 31 -28 50.5t-76 19.5q-81 0 -145 -52
l-55 98q88 75 221 75q116 0 162 -71q66 71 173 71q101 0 167 -74t66 -195v-33zM528 293h185q-4 32 -26.5 57.5t-66.5 25.5q-41 0 -64 -25t-28 -58zM375 161v5q-29 35 -94 35q-35 0 -59 -13t-24 -37q0 -25 22 -37.5t53 -12.5q41 0 71.5 19.5t30.5 40.5z" />
    <glyph glyph-name="ccedilla" unicode="&#xe7;" horiz-adv-x="526" 
d="M312 -196q-73 0 -114 33l28 58q41 -30 82 -30q19 0 33 7.5t14 20.5q0 22 -25 22q-16 0 -29 -13l-53 30l22 58q-100 11 -163 80t-63 172q0 112 75 182.5t189 70.5q72 0 122.5 -26t75.5 -63l-100 -93q-31 46 -91 46q-49 0 -81 -31.5t-32 -85.5t32 -86t81 -32q58 0 91 47
l100 -94q-52 -76 -166 -87l-15 -37q17 10 34 10q28 0 48 -20.5t20 -51.5q0 -40 -33 -63.5t-82 -23.5z" />
    <glyph glyph-name="egrave" unicode="&#xe8;" horiz-adv-x="568" 
d="M308 -12q-114 0 -189 69.5t-75 184.5q0 107 72.5 180t184.5 73q109 0 178 -73.5t69 -195.5v-33h-344q7 -36 39 -61t82 -25q28 0 64.5 11.5t55.5 29.5l65 -96q-35 -31 -89.5 -47.5t-112.5 -16.5zM401 293q-4 32 -28 57.5t-72 25.5q-45 0 -69 -25t-30 -58h199zM367 556
h-104l-159 144h136z" />
    <glyph glyph-name="eacute" unicode="&#xe9;" horiz-adv-x="568" 
d="M497 700l-159 -144h-104l127 144h136zM308 -12q-114 0 -189 69.5t-75 184.5q0 107 72.5 180t184.5 73q109 0 178 -73.5t69 -195.5v-33h-344q7 -36 39 -61t82 -25q28 0 64.5 11.5t55.5 29.5l65 -96q-35 -31 -89.5 -47.5t-112.5 -16.5zM401 293q-4 32 -28 57.5t-72 25.5
q-45 0 -69 -25t-30 -58h199z" />
    <glyph glyph-name="ecircumflex" unicode="&#xea;" horiz-adv-x="568" 
d="M461 556h-92l-69 81l-66 -81h-91l90 144h135zM308 -12q-114 0 -189 69.5t-75 184.5q0 107 72.5 180t184.5 73q109 0 178 -73.5t69 -195.5v-33h-344q7 -36 39 -61t82 -25q28 0 64.5 11.5t55.5 29.5l65 -96q-35 -31 -89.5 -47.5t-112.5 -16.5zM401 293q-4 32 -28 57.5
t-72 25.5q-45 0 -69 -25t-30 -58h199z" />
    <glyph glyph-name="edieresis" unicode="&#xeb;" horiz-adv-x="568" 
d="M488 615q0 -34 -23 -56.5t-56 -22.5t-55.5 23t-22.5 56q0 32 23 55t55 23q33 0 56 -23t23 -55zM274 615q0 -34 -23 -56.5t-56 -22.5t-55.5 22.5t-22.5 56.5q0 32 22.5 55t55.5 23t56 -23t23 -55zM308 -12q-114 0 -189 69.5t-75 184.5q0 107 72.5 180t184.5 73
q109 0 178 -73.5t69 -195.5v-33h-344q7 -36 39 -61t82 -25q28 0 64.5 11.5t55.5 29.5l65 -96q-35 -31 -89.5 -47.5t-112.5 -16.5zM401 293q-4 32 -28 57.5t-72 25.5q-45 0 -69 -25t-30 -58h199z" />
    <glyph glyph-name="igrave" unicode="&#xec;" horiz-adv-x="250" 
d="M230 0h-154v483h154v-483zM220 556h-104l-159 144h136z" />
    <glyph glyph-name="iacute" unicode="&#xed;" horiz-adv-x="370" 
d="M350 700l-159 -144h-104l127 144h136zM230 0h-154v483h154v-483z" />
    <glyph glyph-name="icircumflex" unicode="&#xee;" horiz-adv-x="333" 
d="M313 556h-92l-69 81l-66 -81h-91l90 144h135zM230 0h-154v483h154v-483z" />
    <glyph glyph-name="idieresis" unicode="&#xef;" horiz-adv-x="359" 
d="M339 615q0 -34 -23 -56.5t-56 -22.5q-32 0 -55 23t-23 56q0 32 23 55t55 23q33 0 56 -23t23 -55zM125 615q0 -34 -23 -56.5t-56 -22.5t-55.5 22.5t-22.5 56.5q0 32 22.5 55t55.5 23t56 -23t23 -55zM230 0h-154v483h154v-483z" />
    <glyph glyph-name="eth" unicode="&#xf0;" horiz-adv-x="591" 
d="M113 454l-28 69l103 45l-55 33l83 122q78 -48 129 -86l100 44l29 -66l-67 -30q164 -150 164 -330q0 -121 -70.5 -194t-193.5 -73q-118 0 -190.5 64.5t-72.5 167.5q0 101 61 165.5t151 64.5q104 0 160 -94q-28 73 -155 164zM307 124q50 0 78 27t28 69q0 41 -28.5 68
t-77.5 27t-76.5 -27t-27.5 -68q0 -42 27.5 -69t76.5 -27z" />
    <glyph glyph-name="ntilde" unicode="&#xf1;" horiz-adv-x="577" 
d="M557 0h-154v279q0 80 -79 80q-56 0 -94 -47v-312h-154v483h154v-59q61 71 167 71q80 0 120 -41.5t40 -111.5v-342zM372 554q-28 0 -49.5 14t-36.5 27.5t-27 13.5q-30 0 -30 -49h-78q0 134 113 134q28 0 49 -14t36.5 -27.5t27.5 -13.5q30 0 30 49h78q0 -134 -113 -134z
" />
    <glyph glyph-name="ograve" unicode="&#xf2;" horiz-adv-x="591" 
d="M307 -12q-119 0 -191 74t-72 180t72 179.5t191 73.5q120 0 192 -73.5t72 -179.5t-72 -180t-192 -74zM307 124q49 0 77.5 33.5t28.5 84.5q0 50 -28.5 83.5t-77.5 33.5t-76.5 -33.5t-27.5 -83.5q0 -51 27.5 -84.5t76.5 -33.5zM374 556h-104l-159 144h136z" />
    <glyph glyph-name="oacute" unicode="&#xf3;" horiz-adv-x="591" 
d="M504 700l-159 -144h-104l127 144h136zM307 -12q-119 0 -191 74t-72 180t72 179.5t191 73.5q120 0 192 -73.5t72 -179.5t-72 -180t-192 -74zM307 124q49 0 77.5 33.5t28.5 84.5q0 50 -28.5 83.5t-77.5 33.5t-76.5 -33.5t-27.5 -83.5q0 -51 27.5 -84.5t76.5 -33.5z" />
    <glyph glyph-name="ocircumflex" unicode="&#xf4;" horiz-adv-x="591" 
d="M468 556h-92l-69 81l-66 -81h-91l90 144h135zM307 -12q-119 0 -191 74t-72 180t72 179.5t191 73.5q120 0 192 -73.5t72 -179.5t-72 -180t-192 -74zM307 124q49 0 77.5 33.5t28.5 84.5q0 50 -28.5 83.5t-77.5 33.5t-76.5 -33.5t-27.5 -83.5q0 -51 27.5 -84.5t76.5 -33.5z
" />
    <glyph glyph-name="otilde" unicode="&#xf5;" horiz-adv-x="591" 
d="M307 -12q-119 0 -191 74t-72 180t72 179.5t191 73.5q120 0 192 -73.5t72 -179.5t-72 -180t-192 -74zM307 124q49 0 77.5 33.5t28.5 84.5q0 50 -28.5 83.5t-77.5 33.5t-76.5 -33.5t-27.5 -83.5q0 -51 27.5 -84.5t76.5 -33.5zM362 554q-28 0 -49.5 14t-36.5 27.5t-27 13.5
q-30 0 -30 -49h-78q0 134 113 134q28 0 49 -14t36.5 -27.5t27.5 -13.5q30 0 30 49h78q0 -134 -113 -134z" />
    <glyph glyph-name="odieresis" unicode="&#xf6;" horiz-adv-x="591" 
d="M493 615q0 -34 -23 -56.5t-56 -22.5q-32 0 -55 23t-23 56q0 32 23 55t55 23q33 0 56 -23t23 -55zM279 615q0 -34 -23 -56.5t-56 -22.5t-55.5 22.5t-22.5 56.5q0 32 22.5 55t55.5 23t56 -23t23 -55zM307 -12q-119 0 -191 74t-72 180t72 179.5t191 73.5q120 0 192 -73.5
t72 -179.5t-72 -180t-192 -74zM307 124q49 0 77.5 33.5t28.5 84.5q0 50 -28.5 83.5t-77.5 33.5t-76.5 -33.5t-27.5 -83.5q0 -51 27.5 -84.5t76.5 -33.5z" />
    <glyph glyph-name="divide" unicode="&#xf7;" horiz-adv-x="522" 
d="M344 510q0 -28 -20 -48.5t-49 -20.5q-28 0 -48 20t-20 49q0 28 19.5 48t48.5 20t49 -20t20 -48zM502 291h-453v92h453v-92zM344 163q0 -28 -20.5 -48t-48.5 -20t-48 20t-20 48q0 29 20 49t48 20q29 0 49 -20t20 -49z" />
    <glyph glyph-name="oslash" unicode="&#xf8;" horiz-adv-x="591" 
d="M139 0h-90l60 69q-65 71 -65 173q0 106 72 179.5t191 73.5q81 0 144 -37l22 25h92l-60 -68q66 -71 66 -173q0 -106 -72 -180t-192 -74q-83 0 -145 38zM307 124q49 0 77.5 33.5t28.5 84.5q0 29 -11 56l-144 -163q19 -11 49 -11zM203 242q0 -32 10 -55l142 161
q-22 11 -48 11q-49 0 -76.5 -33.5t-27.5 -83.5z" />
    <glyph glyph-name="ugrave" unicode="&#xf9;" horiz-adv-x="576" 
d="M556 0h-154v58q-62 -70 -167 -70q-80 0 -119.5 40.5t-39.5 110.5v344h154v-281q0 -78 80 -78q55 0 92 47v312h154v-483zM382 556h-104l-159 144h136z" />
    <glyph glyph-name="uacute" unicode="&#xfa;" horiz-adv-x="576" 
d="M512 700l-159 -144h-104l127 144h136zM556 0h-154v58q-62 -70 -167 -70q-80 0 -119.5 40.5t-39.5 110.5v344h154v-281q0 -78 80 -78q55 0 92 47v312h154v-483z" />
    <glyph glyph-name="ucircumflex" unicode="&#xfb;" horiz-adv-x="576" 
d="M477 556h-92l-69 81l-66 -81h-91l90 144h135zM556 0h-154v58q-62 -70 -167 -70q-80 0 -119.5 40.5t-39.5 110.5v344h154v-281q0 -78 80 -78q55 0 92 47v312h154v-483z" />
    <glyph glyph-name="udieresis" unicode="&#xfc;" horiz-adv-x="576" 
d="M503 615q0 -34 -23 -56.5t-56 -22.5q-32 0 -55 23t-23 56q0 32 23 55t55 23q33 0 56 -23t23 -55zM289 615q0 -34 -23 -56.5t-56 -22.5t-55.5 22.5t-22.5 56.5q0 32 22.5 55t55.5 23t56 -23t23 -55zM556 0h-154v58q-62 -70 -167 -70q-80 0 -119.5 40.5t-39.5 110.5v344
h154v-281q0 -78 80 -78q55 0 92 47v312h154v-483z" />
    <glyph glyph-name="yacute" unicode="&#xfd;" horiz-adv-x="574" 
d="M66 -188l22 137q17 -9 38 -9q54 0 65 27l11 26l-192 490h162l109 -306l110 306h163l-218 -552q-27 -71 -77 -98t-127 -29q-40 0 -66 8zM478 700l-159 -144h-104l127 144h136z" />
    <glyph glyph-name="thorn" unicode="&#xfe;" horiz-adv-x="605" 
d="M373 -12q-85 0 -143 69v-241h-154v851h154v-240q56 68 143 68q94 0 153 -67t59 -186q0 -120 -59 -187t-153 -67zM322 124q46 0 76 32t30 86q0 53 -30 85t-76 32q-25 0 -51.5 -12.5t-40.5 -31.5v-147q14 -19 40.5 -31.5t51.5 -12.5z" />
    <glyph glyph-name="ydieresis" unicode="&#xff;" horiz-adv-x="574" 
d="M66 -188l22 137q17 -9 38 -9q54 0 65 27l11 26l-192 490h162l109 -306l110 306h163l-218 -552q-27 -71 -77 -98t-127 -29q-40 0 -66 8zM467 615q0 -34 -23 -56.5t-56 -22.5q-32 0 -55 23t-23 56q0 32 23 55t55 23q33 0 56 -23t23 -55zM253 615q0 -34 -23 -56.5t-56 -22.5
t-55.5 22.5t-22.5 56.5q0 32 22.5 55t55.5 23t56 -23t23 -55z" />
    <glyph glyph-name="Amacron" unicode="&#x100;" horiz-adv-x="748" 
d="M728 0h-195l-33 96h-263l-33 -96h-195l251 667h216zM453 246l-85 251l-85 -251h170zM549 723h-363v85h363v-85z" />
    <glyph glyph-name="amacron" unicode="&#x101;" horiz-adv-x="535" 
d="M515 0h-154v48q-23 -27 -63.5 -43.5t-86.5 -16.5q-63 0 -114.5 41.5t-51.5 117.5q0 80 50 117.5t116 37.5q105 0 150 -56v58q0 32 -26 51t-72 19q-77 0 -137 -51l-55 97q88 75 219 75q46 0 84.5 -9.5t71 -30.5t51 -60t18.5 -93v-302zM275 89q62 0 86 35v43q-25 34 -86 34
q-33 0 -55 -14.5t-22 -41.5t22 -41.5t55 -14.5zM474 556h-363v85h363v-85z" />
    <glyph glyph-name="Abreve" unicode="&#x102;" horiz-adv-x="748" 
d="M728 0h-195l-33 96h-263l-33 -96h-195l251 667h216zM453 246l-85 251l-85 -251h170zM543 783q-65 -88 -175 -88q-109 0 -176 88l66 54q43 -58 110 -58q70 0 109 58z" />
    <glyph glyph-name="abreve" unicode="&#x103;" horiz-adv-x="535" 
d="M515 0h-154v48q-23 -27 -63.5 -43.5t-86.5 -16.5q-63 0 -114.5 41.5t-51.5 117.5q0 80 50 117.5t116 37.5q105 0 150 -56v58q0 32 -26 51t-72 19q-77 0 -137 -51l-55 97q88 75 219 75q46 0 84.5 -9.5t71 -30.5t51 -60t18.5 -93v-302zM275 89q62 0 86 35v43q-25 34 -86 34
q-33 0 -55 -14.5t-22 -41.5t22 -41.5t55 -14.5zM468 616q-65 -88 -175 -88q-109 0 -176 88l66 54q43 -58 110 -58q70 0 109 58z" />
    <glyph glyph-name="Aogonek" unicode="&#x104;" horiz-adv-x="811" 
d="M732 -94l59 -37q-33 -55 -98 -55q-45 0 -75 23t-30 69q0 55 42 94h-97l-33 96h-263l-33 -96h-195l251 667h216l252 -667q-68 -35 -68 -87q0 -38 33 -38q27 0 39 31zM453 246l-85 251l-85 -251h170z" />
    <glyph glyph-name="aogonek" unicode="&#x105;" horiz-adv-x="598" 
d="M519 -94l59 -37q-33 -55 -98 -55q-45 0 -75 23t-30 69q0 55 42 94h-56v48q-23 -27 -63.5 -43.5t-86.5 -16.5q-63 0 -114.5 41.5t-51.5 117.5q0 80 50 117.5t116 37.5q105 0 150 -56v58q0 32 -26 51t-72 19q-77 0 -137 -51l-55 97q88 75 219 75q46 0 84.5 -9.5t71 -30.5
t51 -60t18.5 -93v-302q-68 -35 -68 -87q0 -38 33 -38q27 0 39 31zM275 89q62 0 86 35v43q-25 34 -86 34q-33 0 -55 -14.5t-22 -41.5t22 -41.5t55 -14.5z" />
    <glyph glyph-name="Cacute" unicode="&#x106;" horiz-adv-x="718" 
d="M603 867l-159 -144h-104l127 144h136zM407 -12q-155 0 -258 96.5t-103 248.5q0 153 102.5 249t258.5 96q201 0 291 -179l-148 -70q-17 41 -56.5 69t-86.5 28q-81 0 -133.5 -55.5t-52.5 -137.5t52.5 -137.5t133.5 -55.5q47 0 86.5 28t56.5 69l148 -70
q-38 -76 -109.5 -127.5t-181.5 -51.5z" />
    <glyph glyph-name="cacute" unicode="&#x107;" horiz-adv-x="526" 
d="M505 700l-159 -144h-104l127 144h136zM308 -12q-114 0 -189 70.5t-75 183.5q0 112 75 182.5t189 70.5q72 0 122.5 -26t75.5 -63l-100 -93q-31 46 -91 46q-49 0 -81 -31.5t-32 -85.5t32 -86t81 -32q58 0 91 47l100 -94q-25 -37 -75.5 -63t-122.5 -26z" />
    <glyph glyph-name="Ccircumflex" unicode="&#x108;" horiz-adv-x="718" 
d="M565 723h-92l-69 81l-66 -81h-91l90 144h135zM407 -12q-155 0 -258 96.5t-103 248.5q0 153 102.5 249t258.5 96q201 0 291 -179l-148 -70q-17 41 -56.5 69t-86.5 28q-81 0 -133.5 -55.5t-52.5 -137.5t52.5 -137.5t133.5 -55.5q47 0 86.5 28t56.5 69l148 -70
q-38 -76 -109.5 -127.5t-181.5 -51.5z" />
    <glyph glyph-name="ccircumflex" unicode="&#x109;" horiz-adv-x="526" 
d="M474 556h-92l-69 81l-66 -81h-91l90 144h135zM308 -12q-114 0 -189 70.5t-75 183.5q0 112 75 182.5t189 70.5q72 0 122.5 -26t75.5 -63l-100 -93q-31 46 -91 46q-49 0 -81 -31.5t-32 -85.5t32 -86t81 -32q58 0 91 47l100 -94q-25 -37 -75.5 -63t-122.5 -26z" />
    <glyph glyph-name="Cdotaccent" unicode="&#x10a;" horiz-adv-x="718" 
d="M407 -12q-155 0 -258 96.5t-103 248.5q0 153 102.5 249t258.5 96q201 0 291 -179l-148 -70q-17 41 -56.5 69t-86.5 28q-81 0 -133.5 -55.5t-52.5 -137.5t52.5 -137.5t133.5 -55.5q47 0 86.5 28t56.5 69l148 -70q-38 -76 -109.5 -127.5t-181.5 -51.5zM409 703
q-32 0 -55 23t-23 56q0 32 23 55t55 23t55 -23t23 -55q0 -33 -23 -56t-55 -23z" />
    <glyph glyph-name="cdotaccent" unicode="&#x10b;" horiz-adv-x="526" 
d="M308 -12q-114 0 -189 70.5t-75 183.5q0 112 75 182.5t189 70.5q72 0 122.5 -26t75.5 -63l-100 -93q-31 46 -91 46q-49 0 -81 -31.5t-32 -85.5t32 -86t81 -32q58 0 91 47l100 -94q-25 -37 -75.5 -63t-122.5 -26zM307 536q-32 0 -55 23t-23 56q0 32 23 55t55 23t55 -23
t23 -55q0 -33 -23 -56t-55 -23z" />
    <glyph glyph-name="Ccaron" unicode="&#x10c;" horiz-adv-x="718" 
d="M475 723h-135l-93 144h91l69 -81l66 81h92zM407 -12q-155 0 -258 96.5t-103 248.5q0 153 102.5 249t258.5 96q201 0 291 -179l-148 -70q-17 41 -56.5 69t-86.5 28q-81 0 -133.5 -55.5t-52.5 -137.5t52.5 -137.5t133.5 -55.5q47 0 86.5 28t56.5 69l148 -70
q-38 -76 -109.5 -127.5t-181.5 -51.5z" />
    <glyph glyph-name="ccaron" unicode="&#x10d;" horiz-adv-x="526" 
d="M384 556h-135l-93 144h91l69 -81l66 81h92zM308 -12q-114 0 -189 70.5t-75 183.5q0 112 75 182.5t189 70.5q72 0 122.5 -26t75.5 -63l-100 -93q-31 46 -91 46q-49 0 -81 -31.5t-32 -85.5t32 -86t81 -32q58 0 91 47l100 -94q-25 -37 -75.5 -63t-122.5 -26z" />
    <glyph glyph-name="Dcaron" unicode="&#x10e;" horiz-adv-x="741" 
d="M457 723h-135l-93 144h91l69 -81l66 81h92zM361 0h-281v667h280q160 0 260.5 -90t100.5 -243t-100.5 -243.5t-259.5 -90.5zM360 150q85 0 135 53.5t50 130.5q0 81 -48 132t-136 51h-109v-367h108z" />
    <glyph glyph-name="dcaron" unicode="&#x10f;" horiz-adv-x="758" 
d="M738 589q0 -94 -88 -157l-49 39q20 11 39.5 33.5t25.5 43.5q-4 -3 -17 -3q-25 0 -42 17.5t-17 45.5q0 29 20.5 50t49.5 21q32 0 55 -24.5t23 -65.5zM554 0h-153v56q-59 -68 -143 -68q-93 0 -153.5 67.5t-60.5 186.5q0 116 60.5 184.5t153.5 68.5q87 0 143 -69v241h153
v-667zM308 124q25 0 51.5 12.5t41.5 31.5v148q-15 19 -41.5 31t-51.5 12q-47 0 -76.5 -32t-29.5 -85t30 -85.5t76 -32.5z" />
    <glyph glyph-name="Dcroat" unicode="&#x110;" horiz-adv-x="764" 
d="M384 0h-281v266h-75v131h75v270h280q160 0 260.5 -90t100.5 -243t-100.5 -243.5t-259.5 -90.5zM383 150q85 0 135 53.5t50 130.5q0 81 -48 132t-136 51h-109v-120h140v-131h-140v-116h108z" />
    <glyph glyph-name="dcroat" unicode="&#x111;" horiz-adv-x="628" 
d="M554 0h-153v56q-59 -68 -143 -68q-93 0 -153.5 67.5t-60.5 186.5q0 116 60.5 184.5t153.5 68.5q87 0 143 -69v98h-140v85h140v58h153v-58h54v-85h-54v-524zM308 124q25 0 51.5 12.5t41.5 31.5v148q-15 19 -41.5 31t-51.5 12q-47 0 -76.5 -32t-29.5 -85t30 -85.5t76 -32.5
z" />
    <glyph glyph-name="Emacron" unicode="&#x112;" horiz-adv-x="589" 
d="M569 0h-489v667h489v-150h-317v-104h310v-150h-310v-113h317v-150zM504 723h-363v85h363v-85z" />
    <glyph glyph-name="emacron" unicode="&#x113;" horiz-adv-x="568" 
d="M308 -12q-114 0 -189 69.5t-75 184.5q0 107 72.5 180t184.5 73q109 0 178 -73.5t69 -195.5v-33h-344q7 -36 39 -61t82 -25q28 0 64.5 11.5t55.5 29.5l65 -96q-35 -31 -89.5 -47.5t-112.5 -16.5zM401 293q-4 32 -28 57.5t-72 25.5q-45 0 -69 -25t-30 -58h199zM479 556
h-363v85h363v-85z" />
    <glyph glyph-name="Ebreve" unicode="&#x114;" horiz-adv-x="589" 
d="M569 0h-489v667h489v-150h-317v-104h310v-150h-310v-113h317v-150zM497 783q-65 -88 -175 -88q-109 0 -176 88l66 54q43 -58 110 -58q70 0 109 58z" />
    <glyph glyph-name="ebreve" unicode="&#x115;" horiz-adv-x="568" 
d="M308 -12q-114 0 -189 69.5t-75 184.5q0 107 72.5 180t184.5 73q109 0 178 -73.5t69 -195.5v-33h-344q7 -36 39 -61t82 -25q28 0 64.5 11.5t55.5 29.5l65 -96q-35 -31 -89.5 -47.5t-112.5 -16.5zM401 293q-4 32 -28 57.5t-72 25.5q-45 0 -69 -25t-30 -58h199zM478 616
q-65 -88 -175 -88q-109 0 -176 88l66 54q43 -58 110 -58q70 0 109 58z" />
    <glyph glyph-name="Edotaccent" unicode="&#x116;" horiz-adv-x="589" 
d="M569 0h-489v667h489v-150h-317v-104h310v-150h-310v-113h317v-150zM324 703q-32 0 -55 23t-23 56q0 32 23 55t55 23t55 -23t23 -55q0 -33 -23 -56t-55 -23z" />
    <glyph glyph-name="edotaccent" unicode="&#x117;" horiz-adv-x="568" 
d="M308 -12q-114 0 -189 69.5t-75 184.5q0 107 72.5 180t184.5 73q109 0 178 -73.5t69 -195.5v-33h-344q7 -36 39 -61t82 -25q28 0 64.5 11.5t55.5 29.5l65 -96q-35 -31 -89.5 -47.5t-112.5 -16.5zM401 293q-4 32 -28 57.5t-72 25.5q-45 0 -69 -25t-30 -58h199zM303 536
q-32 0 -55 23t-23 56q0 32 23 55t55 23t55 -23t23 -55q0 -33 -23 -56t-55 -23z" />
    <glyph glyph-name="Eogonek" unicode="&#x118;" horiz-adv-x="652" 
d="M569 0q-68 -35 -68 -87q0 -38 33 -38q27 0 39 31l59 -37q-33 -55 -98 -55q-45 0 -75 23t-30 69q0 55 42 94h-391v667h489v-150h-317v-104h310v-150h-310v-113h317v-150z" />
    <glyph glyph-name="eogonek" unicode="&#x119;" horiz-adv-x="568" 
d="M409 -94l59 -37q-33 -55 -98 -55q-45 0 -75 23t-30 69q0 45 31 82q-110 4 -181 73t-71 181q0 107 72.5 180t184.5 73q109 0 178 -73.5t69 -195.5v-33h-344q7 -36 39 -61t82 -25q28 0 64.5 11.5t55.5 29.5l65 -96q-40 -36 -105 -52q-68 -35 -68 -87q0 -38 33 -38
q27 0 39 31zM401 293q-4 32 -28 57.5t-72 25.5q-45 0 -69 -25t-30 -58h199z" />
    <glyph glyph-name="Ecaron" unicode="&#x11a;" horiz-adv-x="589" 
d="M394 723h-135l-93 144h91l69 -81l66 81h92zM569 0h-489v667h489v-150h-317v-104h310v-150h-310v-113h317v-150z" />
    <glyph glyph-name="ecaron" unicode="&#x11b;" horiz-adv-x="568" 
d="M369 556h-135l-93 144h91l69 -81l66 81h92zM308 -12q-114 0 -189 69.5t-75 184.5q0 107 72.5 180t184.5 73q109 0 178 -73.5t69 -195.5v-33h-344q7 -36 39 -61t82 -25q28 0 64.5 11.5t55.5 29.5l65 -96q-35 -31 -89.5 -47.5t-112.5 -16.5zM401 293q-4 32 -28 57.5
t-72 25.5q-45 0 -69 -25t-30 -58h199z" />
    <glyph glyph-name="Gcircumflex" unicode="&#x11c;" horiz-adv-x="722" 
d="M568 723h-92l-69 81l-66 -81h-91l90 144h135zM407 -12q-153 0 -257 95t-104 250t104 250t257 95q104 0 175 -46t110 -116l-144 -75q-20 36 -57.5 60.5t-83.5 24.5q-81 0 -133.5 -55.5t-52.5 -137.5t52.5 -137.5t133.5 -55.5q35 0 69.5 12t53.5 28v52h-150v151h322v-265
q-118 -130 -295 -130z" />
    <glyph glyph-name="gcircumflex" unicode="&#x11d;" horiz-adv-x="573" 
d="M481 556h-92l-69 81l-66 -81h-91l90 144h135zM277 -196q-126 0 -214 72l67 110q52 -56 147 -56q48 0 85.5 25t37.5 86v37q-60 -70 -143 -70q-93 0 -153 63.5t-60 180.5q0 116 59.5 179.5t153.5 63.5q87 0 143 -69v57h153v-440q0 -57 -17.5 -100.5t-44.5 -69t-65 -42
t-74 -22t-75 -5.5zM308 144q25 0 51.5 12t40.5 31v129q-14 19 -40.5 31t-51.5 12q-47 0 -76.5 -28t-29.5 -79q0 -52 29.5 -80t76.5 -28z" />
    <glyph glyph-name="Gbreve" unicode="&#x11e;" horiz-adv-x="722" 
d="M407 -12q-153 0 -257 95t-104 250t104 250t257 95q104 0 175 -46t110 -116l-144 -75q-20 36 -57.5 60.5t-83.5 24.5q-81 0 -133.5 -55.5t-52.5 -137.5t52.5 -137.5t133.5 -55.5q35 0 69.5 12t53.5 28v52h-150v151h322v-265q-118 -130 -295 -130zM583 783
q-65 -88 -175 -88q-109 0 -176 88l66 54q43 -58 110 -58q70 0 109 58z" />
    <glyph glyph-name="gbreve" unicode="&#x11f;" horiz-adv-x="573" 
d="M277 -196q-126 0 -214 72l67 110q52 -56 147 -56q48 0 85.5 25t37.5 86v37q-60 -70 -143 -70q-93 0 -153 63.5t-60 180.5q0 116 59.5 179.5t153.5 63.5q87 0 143 -69v57h153v-440q0 -57 -17.5 -100.5t-44.5 -69t-65 -42t-74 -22t-75 -5.5zM308 144q25 0 51.5 12t40.5 31
v129q-14 19 -40.5 31t-51.5 12q-47 0 -76.5 -28t-29.5 -79q0 -52 29.5 -80t76.5 -28zM489 616q-65 -88 -175 -88q-109 0 -176 88l66 54q43 -58 110 -58q70 0 109 58z" />
    <glyph glyph-name="Gdotaccent" unicode="&#x120;" horiz-adv-x="722" 
d="M407 -12q-153 0 -257 95t-104 250t104 250t257 95q104 0 175 -46t110 -116l-144 -75q-20 36 -57.5 60.5t-83.5 24.5q-81 0 -133.5 -55.5t-52.5 -137.5t52.5 -137.5t133.5 -55.5q35 0 69.5 12t53.5 28v52h-150v151h322v-265q-118 -130 -295 -130zM408 703q-32 0 -55 23
t-23 56q0 32 23 55t55 23t55 -23t23 -55q0 -33 -23 -56t-55 -23z" />
    <glyph glyph-name="gdotaccent" unicode="&#x121;" horiz-adv-x="573" 
d="M277 -196q-126 0 -214 72l67 110q52 -56 147 -56q48 0 85.5 25t37.5 86v37q-60 -70 -143 -70q-93 0 -153 63.5t-60 180.5q0 116 59.5 179.5t153.5 63.5q87 0 143 -69v57h153v-440q0 -57 -17.5 -100.5t-44.5 -69t-65 -42t-74 -22t-75 -5.5zM308 144q25 0 51.5 12t40.5 31
v129q-14 19 -40.5 31t-51.5 12q-47 0 -76.5 -28t-29.5 -79q0 -52 29.5 -80t76.5 -28zM322 536q-32 0 -55 23t-23 56q0 32 23 55t55 23t55 -23t23 -55q0 -33 -23 -56t-55 -23z" />
    <glyph glyph-name="CapitalLetterGwithce" unicode="&#x122;" horiz-adv-x="722" 
d="M486 -139q0 -94 -88 -157l-49 39q20 11 39.5 33.5t25.5 43.5q-4 -3 -17 -3q-25 0 -42 17.5t-17 45.5q0 29 20.5 50t49.5 21q32 0 55 -24.5t23 -65.5zM407 -12q-153 0 -257 95t-104 250t104 250t257 95q104 0 175 -46t110 -116l-144 -75q-20 36 -57.5 60.5t-83.5 24.5
q-81 0 -133.5 -55.5t-52.5 -137.5t52.5 -137.5t133.5 -55.5q35 0 69.5 12t53.5 28v52h-150v151h322v-265q-118 -130 -295 -130z" />
    <glyph glyph-name="SmallLetterGwithcedi" unicode="&#x123;" horiz-adv-x="573" 
d="M241 612q0 104 85 162l49 -39q-19 -9 -40 -30t-24 -40l2 1h4q26 0 47 -19.5t21 -47.5q0 -29 -21 -50t-51 -21q-27 0 -49.5 19.5t-22.5 64.5zM277 -196q-126 0 -214 72l67 110q52 -56 147 -56q48 0 85.5 25t37.5 86v37q-60 -70 -143 -70q-93 0 -153 63.5t-60 180.5
q0 116 59.5 179.5t153.5 63.5q87 0 143 -69v57h153v-440q0 -57 -17.5 -100.5t-44.5 -69t-65 -42t-74 -22t-75 -5.5zM308 144q25 0 51.5 12t40.5 31v129q-14 19 -40.5 31t-51.5 12q-47 0 -76.5 -28t-29.5 -79q0 -52 29.5 -80t76.5 -28z" />
    <glyph glyph-name="Hcircumflex" unicode="&#x124;" horiz-adv-x="721" 
d="M549 723h-92l-69 81l-66 -81h-91l90 144h135zM701 0h-172v268h-277v-268h-172v667h172v-249h277v249h172v-667z" />
    <glyph glyph-name="hcircumflex" unicode="&#x125;" horiz-adv-x="578" 
d="M477 723h-92l-69 81l-66 -81h-91l90 144h135zM558 0h-154v281q0 78 -80 78q-55 0 -93 -47v-312h-154v667h154v-243q61 71 167 71q80 0 120 -40.5t40 -110.5v-344z" />
    <glyph glyph-name="Hbar" unicode="&#x126;" horiz-adv-x="789" 
d="M709 0h-172v268h-277v-268h-172v499h-60v85h60v83h172v-83h277v83h172v-83h60v-85h-60v-499zM260 418h277v81h-277v-81z" />
    <glyph glyph-name="hbar" unicode="&#x127;" horiz-adv-x="582" 
d="M375 524h-140v-100q61 71 167 71q80 0 120 -40.5t40 -110.5v-344h-154v281q0 78 -80 78q-55 0 -93 -47v-312h-154v524h-53v85h53v58h154v-58h140v-85z" />
    <glyph glyph-name="Itilde" unicode="&#x128;" horiz-adv-x="354" 
d="M252 0h-172v667h172v-667zM221 721q-22 0 -40.5 8.5t-28.5 19t-22 19t-22 8.5q-30 0 -30 -49h-78q0 134 113 134q28 0 49 -13.5t36.5 -27.5t27.5 -14q30 0 30 49h78q0 -134 -113 -134z" />
    <glyph glyph-name="itilde" unicode="&#x129;" horiz-adv-x="341" 
d="M230 0h-154v483h154v-483zM208 554q-28 0 -49.5 14t-36.5 27.5t-27 13.5q-30 0 -30 -49h-78q0 134 113 134q28 0 49 -14t36.5 -27.5t27.5 -13.5q30 0 30 49h78q0 -134 -113 -134z" />
    <glyph glyph-name="Imacron" unicode="&#x12a;" horiz-adv-x="368" 
d="M252 0h-172v667h172v-667zM348 723h-363v85h363v-85z" />
    <glyph glyph-name="imacron" unicode="&#x12b;" horiz-adv-x="355" 
d="M230 0h-154v483h154v-483zM335 556h-363v85h363v-85z" />
    <glyph glyph-name="Ibreve" unicode="&#x12c;" horiz-adv-x="365" 
d="M252 0h-172v667h172v-667zM345 783q-65 -88 -175 -88q-109 0 -176 88l66 54q43 -58 110 -58q70 0 109 58z" />
    <glyph glyph-name="ibreve" unicode="&#x12d;" horiz-adv-x="350" 
d="M230 0h-154v483h154v-483zM330 616q-65 -88 -175 -88q-109 0 -176 88l66 54q43 -58 110 -58q70 0 109 58z" />
    <glyph glyph-name="Iogonek" unicode="&#x12e;" horiz-adv-x="336" 
d="M257 -94l59 -37q-33 -55 -98 -55q-45 0 -75 23t-30 69q0 55 42 94h-75v667h172v-667h1q-68 -35 -68 -87q0 -38 33 -38q27 0 39 31z" />
    <glyph glyph-name="iogonek" unicode="&#x12f;" horiz-adv-x="313" 
d="M234 -94l59 -37q-33 -55 -98 -55q-45 0 -75 23t-30 69q0 55 42 94h-56v483h154v-483q-68 -35 -68 -87q0 -38 33 -38q27 0 39 31zM153 526q-37 0 -62.5 26t-25.5 63t25.5 62.5t62.5 25.5t62.5 -25.5t25.5 -62.5t-25.5 -63t-62.5 -26z" />
    <glyph glyph-name="Idotaccent" unicode="&#x130;" horiz-adv-x="272" 
d="M252 0h-172v667h172v-667zM168 703q-32 0 -55 23t-23 56q0 32 23 55t55 23t55 -23t23 -55q0 -33 -23 -56t-55 -23z" />
    <glyph glyph-name="dotlessi" unicode="&#x131;" horiz-adv-x="250" 
d="M230 0h-154v483h154v-483z" />
    <glyph glyph-name="IJ" unicode="&#x132;" horiz-adv-x="764" 
d="M252 0h-172v667h172v-667zM498 -12q-115 0 -183 60l72 131q47 -39 96 -39q41 0 65 24.5t24 66.5v436h172v-438q0 -120 -66 -180.5t-180 -60.5z" />
    <glyph glyph-name="ij" unicode="&#x133;" horiz-adv-x="527" 
d="M153 526q-37 0 -62.5 26t-25.5 63t25.5 62.5t62.5 25.5t62.5 -25.5t25.5 -62.5t-25.5 -63t-62.5 -26zM230 0h-154v483h154v-483zM419 526q-37 0 -62.5 26t-25.5 63t25.5 62.5t62.5 25.5t62.5 -25.5t25.5 -62.5t-25.5 -63t-62.5 -26zM309 -196q-47 0 -72 7.5t-55 26.5
l39 113q27 -21 62 -21q59 0 59 74v479h154v-479q0 -92 -47 -146t-140 -54z" />
    <glyph glyph-name="Jcircumflex" unicode="&#x134;" horiz-adv-x="547" 
d="M527 723h-92l-69 81l-66 -81h-91l90 144h135zM206 -12q-115 0 -183 60l72 131q47 -39 96 -39q41 0 65 24.5t24 66.5v436h172v-438q0 -120 -66 -180.5t-180 -60.5z" />
    <glyph glyph-name="jcircumflex" unicode="&#x135;" horiz-adv-x="335" 
d="M315 556h-92l-69 81l-66 -81h-91l90 144h135zM43 -196q-47 0 -72 7.5t-55 26.5l39 121q28 -22 62 -22q27 0 43 18t16 49v479h154v-479q0 -92 -47 -146t-140 -54z" />
    <glyph glyph-name="CapitalLetterKwithce" unicode="&#x136;" horiz-adv-x="703" 
d="M432 -139q0 -94 -88 -157l-49 39q20 11 39.5 33.5t25.5 43.5q-4 -3 -17 -3q-25 0 -42 17.5t-17 45.5q0 29 20.5 50t49.5 21q32 0 55 -24.5t23 -65.5zM683 0h-211l-175 251l-45 -56v-195h-172v667h172v-274l205 274h212l-259 -312z" />
    <glyph glyph-name="SmallLetterKwithcedi" unicode="&#x137;" horiz-adv-x="592" 
d="M371 -139q0 -94 -88 -157l-49 39q20 11 39.5 33.5t25.5 43.5q-5 -3 -17 -3q-25 0 -42 17.5t-17 45.5q0 29 20.5 50t49.5 21q32 0 55 -24.5t23 -65.5zM572 0h-190l-106 171l-46 -55v-116h-154v667h154v-377l147 193h186l-178 -220z" />
    <glyph glyph-name="kgreenlandic" unicode="&#x138;" horiz-adv-x="592" 
d="M572 0h-190l-106 171l-46 -55v-116h-154v483h154v-193l147 193h186l-178 -220z" />
    <glyph glyph-name="Lacute" unicode="&#x139;" horiz-adv-x="540" 
d="M495 867l-159 -144h-104l127 144h136zM520 0h-440v667h172v-517h268v-150z" />
    <glyph glyph-name="lacute" unicode="&#x13a;" horiz-adv-x="370" 
d="M350 867l-159 -144h-104l127 144h136zM230 0h-154v667h154v-667z" />
    <glyph glyph-name="CapitalLetterLwithce" unicode="&#x13b;" horiz-adv-x="540" 
d="M360 -139q0 -94 -88 -157l-49 39q20 11 39.5 33.5t25.5 43.5q-4 -3 -17 -3q-25 0 -42 17.5t-17 45.5q0 29 20.5 50t49.5 21q32 0 55 -24.5t23 -65.5zM520 0h-440v667h172v-517h268v-150z" />
    <glyph glyph-name="SmallLetterLwithcedi" unicode="&#x13c;" horiz-adv-x="252" 
d="M232 -139q0 -94 -88 -157l-49 39q20 11 39.5 33.5t25.5 43.5q-5 -3 -17 -3q-25 0 -42 17.5t-17 45.5q0 29 20.5 50t49.5 21q32 0 55 -24.5t23 -65.5zM230 0h-154v667h154v-667z" />
    <glyph glyph-name="Lcaron" unicode="&#x13d;" horiz-adv-x="540" 
d="M473 591q0 -94 -88 -157l-49 39q20 11 39.5 33.5t25.5 43.5q-5 -3 -17 -3q-25 0 -42 17.5t-17 45.5q0 29 20.5 50t49.5 21q32 0 55 -24.5t23 -65.5zM520 0h-440v667h172v-517h268v-150z" />
    <glyph glyph-name="lcaron" unicode="&#x13e;" horiz-adv-x="443" 
d="M423 591q0 -94 -88 -157l-49 39q20 11 39.5 33.5t25.5 43.5q-5 -3 -17 -3q-25 0 -42 17.5t-17 45.5q0 29 20.5 50t49.5 21q32 0 55 -24.5t23 -65.5zM230 0h-154v667h154v-667z" />
    <glyph glyph-name="Ldot" unicode="&#x13f;" horiz-adv-x="565" 
d="M520 0h-440v667h172v-517h268v-150zM545 342q0 -38 -28 -65.5t-66 -27.5t-65.5 27.5t-27.5 65.5t27.5 66t65.5 28t66 -28t28 -66z" />
    <glyph glyph-name="ldot" unicode="&#x140;" horiz-adv-x="478" 
d="M230 0h-154v667h154v-667zM458 244q0 -38 -28 -65.5t-66 -27.5t-65.5 27.5t-27.5 65.5t27.5 66t65.5 28t66 -28t28 -66z" />
    <glyph glyph-name="Lslash" unicode="&#x141;" horiz-adv-x="551" 
d="M28 177v138l63 36v316h172v-216l67 39v-139l-67 -39v-162h268v-150h-440v213z" />
    <glyph glyph-name="lslash" unicode="&#x142;" horiz-adv-x="351" 
d="M28 192v109l74 42v324h154v-235l75 44v-109l-75 -44v-323h-154v234z" />
    <glyph glyph-name="Nacute" unicode="&#x143;" horiz-adv-x="720" 
d="M587 867l-159 -144h-104l127 144h136zM700 0h-166l-282 386v-386h-172v667h177l270 -367v367h173v-667z" />
    <glyph glyph-name="nacute" unicode="&#x144;" horiz-adv-x="577" 
d="M513 700l-159 -144h-104l127 144h136zM557 0h-154v279q0 80 -79 80q-56 0 -94 -47v-312h-154v483h154v-59q61 71 167 71q80 0 120 -41.5t40 -111.5v-342z" />
    <glyph glyph-name="CapitalLetterNwithce" unicode="&#x145;" horiz-adv-x="720" 
d="M467 -139q0 -94 -88 -157l-49 39q20 11 39.5 33.5t25.5 43.5q-5 -3 -17 -3q-25 0 -42 17.5t-17 45.5q0 29 20.5 50t49.5 21q32 0 55 -24.5t23 -65.5zM700 0h-166l-282 386v-386h-172v667h177l270 -367v367h173v-667z" />
    <glyph glyph-name="SmallLetterNwithcedi" unicode="&#x146;" horiz-adv-x="577" 
d="M393 -139q0 -94 -88 -157l-49 39q20 11 39.5 33.5t25.5 43.5q-5 -3 -17 -3q-25 0 -42 17.5t-17 45.5q0 29 20.5 50t49.5 21q32 0 55 -24.5t23 -65.5zM557 0h-154v279q0 80 -79 80q-56 0 -94 -47v-312h-154v483h154v-59q61 71 167 71q80 0 120 -41.5t40 -111.5v-342z" />
    <glyph glyph-name="Ncaron" unicode="&#x147;" horiz-adv-x="720" 
d="M458 723h-135l-93 144h91l69 -81l66 81h92zM700 0h-166l-282 386v-386h-172v667h177l270 -367v367h173v-667z" />
    <glyph glyph-name="ncaron" unicode="&#x148;" horiz-adv-x="577" 
d="M386 556h-135l-93 144h91l69 -81l66 81h92zM557 0h-154v279q0 80 -79 80q-56 0 -94 -47v-312h-154v483h154v-59q61 71 167 71q80 0 120 -41.5t40 -111.5v-342z" />
    <glyph glyph-name="napostrophe" unicode="&#x149;" horiz-adv-x="577" 
d="M202 685q0 -94 -88 -157l-49 39q20 11 39.5 33.5t25.5 43.5q-5 -3 -17 -3q-25 0 -42 17.5t-17 45.5q0 29 20.5 50t49.5 21q32 0 55 -24.5t23 -65.5zM557 0h-154v279q0 80 -79 80q-56 0 -94 -47v-312h-154v483h154v-59q61 71 167 71q80 0 120 -41.5t40 -111.5v-342z" />
    <glyph glyph-name="Eng" unicode="&#x14a;" horiz-adv-x="720" 
d="M453 -196q-113 0 -183 60l72 131q47 -39 96 -39q67 0 85 59l-271 371v-386h-172v667h177l270 -367v367h173v-623q0 -119 -66.5 -179.5t-180.5 -60.5z" />
    <glyph glyph-name="eng" unicode="&#x14b;" horiz-adv-x="577" 
d="M557 342v-338q0 -92 -47 -146t-140 -54q-47 0 -72 7.5t-55 26.5l39 124q26 -22 62 -22q27 0 43 17t16 47v275q0 80 -79 80q-56 0 -94 -47v-312h-154v483h154v-59q61 71 167 71q80 0 120 -41.5t40 -111.5z" />
    <glyph glyph-name="Omacron" unicode="&#x14c;" 
d="M584 723h-363v85h363v-85zM403 -12q-154 0 -255.5 97t-101.5 248t101.5 248t255.5 97t255 -97t101 -248t-101 -248t-255 -97zM403 140q81 0 131 55t50 138t-50 138t-131 55q-82 0 -132 -55t-50 -138t50 -138t132 -55z" />
    <glyph glyph-name="omacron" unicode="&#x14d;" horiz-adv-x="591" 
d="M489 556h-363v85h363v-85zM307 -12q-119 0 -191 74t-72 180t72 179.5t191 73.5q120 0 192 -73.5t72 -179.5t-72 -180t-192 -74zM307 124q49 0 77.5 33.5t28.5 84.5q0 50 -28.5 83.5t-77.5 33.5t-76.5 -33.5t-27.5 -83.5q0 -51 27.5 -84.5t76.5 -33.5z" />
    <glyph glyph-name="Obreve" unicode="&#x14e;" 
d="M403 -12q-154 0 -255.5 97t-101.5 248t101.5 248t255.5 97t255 -97t101 -248t-101 -248t-255 -97zM403 140q81 0 131 55t50 138t-50 138t-131 55q-82 0 -132 -55t-50 -138t50 -138t132 -55zM578 783q-65 -88 -175 -88q-109 0 -176 88l66 54q43 -58 110 -58q70 0 109 58z
" />
    <glyph glyph-name="obreve" unicode="&#x14f;" horiz-adv-x="591" 
d="M307 -12q-119 0 -191 74t-72 180t72 179.5t191 73.5q120 0 192 -73.5t72 -179.5t-72 -180t-192 -74zM307 124q49 0 77.5 33.5t28.5 84.5q0 50 -28.5 83.5t-77.5 33.5t-76.5 -33.5t-27.5 -83.5q0 -51 27.5 -84.5t76.5 -33.5zM482 616q-65 -88 -175 -88q-109 0 -176 88
l66 54q43 -58 110 -58q70 0 109 58z" />
    <glyph glyph-name="Ohungarumlaut" unicode="&#x150;" 
d="M475 867l-115 -144h-87l84 144h118zM628 867l-115 -144h-87l83 144h119zM403 -12q-154 0 -255.5 97t-101.5 248t101.5 248t255.5 97t255 -97t101 -248t-101 -248t-255 -97zM403 140q81 0 131 55t50 138t-50 138t-131 55q-82 0 -132 -55t-50 -138t50 -138t132 -55z" />
    <glyph glyph-name="ohungarumlaut" unicode="&#x151;" horiz-adv-x="591" 
d="M381 700l-115 -144h-87l84 144h118zM534 700l-115 -144h-87l83 144h119zM307 -12q-119 0 -191 74t-72 180t72 179.5t191 73.5q120 0 192 -73.5t72 -179.5t-72 -180t-192 -74zM307 124q49 0 77.5 33.5t28.5 84.5q0 50 -28.5 83.5t-77.5 33.5t-76.5 -33.5t-27.5 -83.5
q0 -51 27.5 -84.5t76.5 -33.5z" />
    <glyph glyph-name="OE" unicode="&#x152;" horiz-adv-x="1077" 
d="M1057 0h-489v57q-31 -34 -82 -51.5t-102 -17.5q-147 0 -242.5 96t-95.5 249q0 152 95.5 248t242.5 96q51 0 101.5 -17.5t82.5 -49.5v57h489v-150h-317v-104h310v-150h-310v-113h317v-150zM568 234v199q-22 44 -63.5 68t-95.5 24q-86 0 -137 -54t-51 -138t51 -138.5
t137 -54.5q53 0 95 25t64 69z" />
    <glyph glyph-name="oe" unicode="&#x153;" horiz-adv-x="936" 
d="M916 193h-344q10 -36 41.5 -61t83.5 -25q69 0 114 40l68 -95q-73 -64 -203 -64q-65 0 -107 24.5t-79 66.5q-76 -91 -183 -91q-119 0 -191 74t-72 180t72 179.5t191 73.5q101 0 184 -92q73 92 179 92q109 0 177.5 -73.5t68.5 -195.5v-33zM571 293h198q-4 32 -28 58t-72 26
q-45 0 -69 -25.5t-29 -58.5zM413 242q0 54 -29 85.5t-77 31.5q-46 0 -75 -32t-29 -85q0 -54 29 -86.5t75 -32.5q48 0 77 32.5t29 86.5z" />
    <glyph glyph-name="Racute" unicode="&#x154;" horiz-adv-x="669" 
d="M557 867l-159 -144h-104l127 144h136zM649 0h-197l-112 224h-88v-224h-172v667h334q108 0 170 -63t62 -159q0 -80 -39.5 -130.5t-93.5 -69.5zM388 374q35 0 59 19t24 53q0 33 -24 52t-59 19h-136v-143h136z" />
    <glyph glyph-name="racute" unicode="&#x155;" horiz-adv-x="444" 
d="M424 700l-159 -144h-104l127 144h136zM230 0h-154v483h154v-59q25 30 67 51t84 21v-148q-18 4 -38 4q-32 0 -65.5 -12.5t-47.5 -31.5v-308z" />
    <glyph glyph-name="CapitalLetterRwithce" unicode="&#x156;" horiz-adv-x="669" 
d="M431 -139q0 -94 -88 -157l-49 39q20 11 39.5 33.5t25.5 43.5q-5 -3 -17 -3q-25 0 -42 17.5t-17 45.5q0 29 20.5 50t49.5 21q32 0 55 -24.5t23 -65.5zM649 0h-197l-112 224h-88v-224h-172v667h334q108 0 170 -63t62 -159q0 -80 -39.5 -130.5t-93.5 -69.5zM388 374
q35 0 59 19t24 53q0 33 -24 52t-59 19h-136v-143h136z" />
    <glyph glyph-name="SmallLetterRwithcedi" unicode="&#x157;" horiz-adv-x="401" 
d="M285 -139q0 -94 -88 -157l-49 39q20 11 39.5 33.5t25.5 43.5q-5 -3 -17 -3q-25 0 -42 17.5t-17 45.5q0 29 20.5 50t49.5 21q32 0 55 -24.5t23 -65.5zM230 0h-154v483h154v-59q25 30 67 51t84 21v-148q-18 4 -38 4q-32 0 -65.5 -12.5t-47.5 -31.5v-308z" />
    <glyph glyph-name="Rcaron" unicode="&#x158;" horiz-adv-x="669" 
d="M422 723h-135l-93 144h91l69 -81l66 81h92zM649 0h-197l-112 224h-88v-224h-172v667h334q108 0 170 -63t62 -159q0 -80 -39.5 -130.5t-93.5 -69.5zM388 374q35 0 59 19t24 53q0 33 -24 52t-59 19h-136v-143h136z" />
    <glyph glyph-name="rcaron" unicode="&#x159;" horiz-adv-x="407" 
d="M297 556h-135l-93 144h91l69 -81l66 81h92zM230 0h-154v483h154v-59q25 30 67 51t84 21v-148q-18 4 -38 4q-32 0 -65.5 -12.5t-47.5 -31.5v-308z" />
    <glyph glyph-name="Sacute" unicode="&#x15a;" horiz-adv-x="626" 
d="M520 867l-159 -144h-104l127 144h136zM328 -12q-185 0 -296 106l91 129q88 -88 213 -88q44 0 69.5 15.5t25.5 39.5q0 21 -28 34.5t-70 20t-91 21t-91 34t-70 62.5t-28 103q0 88 71.5 150t194.5 62q163 0 271 -93l-94 -123q-84 69 -195 69q-72 0 -72 -48q0 -23 39 -36.5
t94 -25t110.5 -30.5t94.5 -64.5t39 -114.5q0 -102 -73 -162.5t-205 -60.5z" />
    <glyph glyph-name="sacute" unicode="&#x15b;" horiz-adv-x="501" 
d="M458 700l-159 -144h-104l127 144h136zM261 -12q-65 0 -126.5 20t-99.5 54l64 106q28 -25 78.5 -44.5t91.5 -19.5q65 0 65 37q0 17 -29 25.5t-70 15t-82.5 19.5t-70.5 47t-29 88q0 67 55 113t152 46q114 0 202 -64l-59 -102q-23 22 -62 37.5t-80 15.5q-27 0 -44 -10
t-17 -25t29 -22.5t70 -15t82.5 -21.5t70.5 -49.5t29 -90.5q0 -71 -59 -115.5t-161 -44.5z" />
    <glyph glyph-name="Scircumflex" unicode="&#x15c;" horiz-adv-x="626" 
d="M475 723h-92l-69 81l-66 -81h-91l90 144h135zM328 -12q-185 0 -296 106l91 129q88 -88 213 -88q44 0 69.5 15.5t25.5 39.5q0 21 -28 34.5t-70 20t-91 21t-91 34t-70 62.5t-28 103q0 88 71.5 150t194.5 62q163 0 271 -93l-94 -123q-84 69 -195 69q-72 0 -72 -48
q0 -23 39 -36.5t94 -25t110.5 -30.5t94.5 -64.5t39 -114.5q0 -102 -73 -162.5t-205 -60.5z" />
    <glyph glyph-name="scircumflex" unicode="&#x15d;" horiz-adv-x="501" 
d="M421 556h-92l-69 81l-66 -81h-91l90 144h135zM261 -12q-65 0 -126.5 20t-99.5 54l64 106q28 -25 78.5 -44.5t91.5 -19.5q65 0 65 37q0 17 -29 25.5t-70 15t-82.5 19.5t-70.5 47t-29 88q0 67 55 113t152 46q114 0 202 -64l-59 -102q-23 22 -62 37.5t-80 15.5
q-27 0 -44 -10t-17 -25t29 -22.5t70 -15t82.5 -21.5t70.5 -49.5t29 -90.5q0 -71 -59 -115.5t-161 -44.5z" />
    <glyph glyph-name="Scedilla" unicode="&#x15e;" horiz-adv-x="626" 
d="M313 -198q-73 0 -114 33l28 58q41 -30 82 -30q19 0 33 7.5t14 20.5q0 22 -25 22q-16 0 -29 -13l-53 30l23 61q-148 14 -240 103l91 129q88 -88 213 -88q44 0 69.5 15.5t25.5 39.5q0 21 -28 34.5t-70 20t-91 21t-91 34t-70 62.5t-28 103q0 88 71.5 150t194.5 62
q163 0 271 -93l-94 -123q-84 69 -195 69q-72 0 -72 -48q0 -23 39 -36.5t94 -25t110.5 -30.5t94.5 -64.5t39 -114.5q0 -100 -69 -159.5t-196 -63.5l-15 -37q17 10 34 10q28 0 48 -20.5t20 -51.5q0 -40 -33 -63.5t-82 -23.5z" />
    <glyph glyph-name="scedilla" unicode="&#x15f;" horiz-adv-x="501" 
d="M260 -198q-73 0 -114 33l28 58q41 -30 82 -30q19 0 33 7.5t14 20.5q0 22 -25 22q-16 0 -29 -13l-53 30l23 60q-119 13 -184 72l64 106q28 -25 78.5 -44.5t91.5 -19.5q65 0 65 37q0 17 -29 25.5t-70 15t-82.5 19.5t-70.5 47t-29 88q0 67 55 113t152 46q114 0 202 -64
l-59 -102q-23 22 -62 37.5t-80 15.5q-27 0 -44 -10t-17 -25t29 -22.5t70 -15t82.5 -21.5t70.5 -49.5t29 -90.5q0 -66 -51 -109t-141 -50l-16 -38q17 10 34 10q28 0 48 -20.5t20 -51.5q0 -40 -33 -63.5t-82 -23.5z" />
    <glyph glyph-name="Scaron" unicode="&#x160;" horiz-adv-x="626" 
d="M385 723h-135l-93 144h91l69 -81l66 81h92zM328 -12q-185 0 -296 106l91 129q88 -88 213 -88q44 0 69.5 15.5t25.5 39.5q0 21 -28 34.5t-70 20t-91 21t-91 34t-70 62.5t-28 103q0 88 71.5 150t194.5 62q163 0 271 -93l-94 -123q-84 69 -195 69q-72 0 -72 -48
q0 -23 39 -36.5t94 -25t110.5 -30.5t94.5 -64.5t39 -114.5q0 -102 -73 -162.5t-205 -60.5z" />
    <glyph glyph-name="scaron" unicode="&#x161;" horiz-adv-x="501" 
d="M331 556h-135l-93 144h91l69 -81l66 81h92zM261 -12q-65 0 -126.5 20t-99.5 54l64 106q28 -25 78.5 -44.5t91.5 -19.5q65 0 65 37q0 17 -29 25.5t-70 15t-82.5 19.5t-70.5 47t-29 88q0 67 55 113t152 46q114 0 202 -64l-59 -102q-23 22 -62 37.5t-80 15.5q-27 0 -44 -10
t-17 -25t29 -22.5t70 -15t82.5 -21.5t70.5 -49.5t29 -90.5q0 -71 -59 -115.5t-161 -44.5z" />
    <glyph glyph-name="CapitalLetterTwithce" unicode="&#x162;" horiz-adv-x="607" 
d="M392 -139q0 -94 -88 -157l-49 39q20 11 39.5 33.5t25.5 43.5q-4 -3 -17 -3q-25 0 -42 17.5t-17 45.5q0 29 20.5 50t49.5 21q32 0 55 -24.5t23 -65.5zM401 0h-172v517h-187v150h545v-150h-186v-517z" />
    <glyph glyph-name="SmallLetterTwithcedi" unicode="&#x163;" horiz-adv-x="393" 
d="M278 -139q0 -94 -88 -157l-49 39q20 11 39.5 33.5t25.5 43.5q-5 -3 -17 -3q-25 0 -42 17.5t-17 45.5q0 29 20.5 50t49.5 21q32 0 55 -24.5t23 -65.5zM259 -12q-74 0 -112.5 36t-38.5 106v219h-80v134h80v132h153v-132h98v-134h-98v-176q0 -22 11.5 -35.5t31.5 -13.5
q29 0 39 12l30 -116q-34 -32 -114 -32z" />
    <glyph glyph-name="Tcaron" unicode="&#x164;" horiz-adv-x="607" 
d="M384 723h-135l-93 144h91l69 -81l66 81h92zM401 0h-172v517h-187v150h545v-150h-186v-517z" />
    <glyph glyph-name="tcaron" unicode="&#x165;" horiz-adv-x="480" 
d="M460 685q0 -94 -88 -157l-49 39q20 11 39.5 33.5t25.5 43.5q-5 -3 -17 -3q-25 0 -42 17.5t-17 45.5q0 29 20.5 50t49.5 21q32 0 55 -24.5t23 -65.5zM259 -12q-74 0 -112.5 36t-38.5 106v219h-80v134h80v132h153v-132h98v-134h-98v-176q0 -22 11.5 -35.5t31.5 -13.5
q29 0 39 12l30 -116q-34 -32 -114 -32z" />
    <glyph glyph-name="Tbar" unicode="&#x166;" horiz-adv-x="607" 
d="M401 0h-172v246h-125v85h125v186h-187v150h545v-150h-186v-186h126v-85h-126v-246z" />
    <glyph glyph-name="tbar" unicode="&#x167;" horiz-adv-x="393" 
d="M259 -12q-74 0 -112.5 36t-38.5 106v69h-80v85h80v65h-80v134h80v132h153v-132h98v-134h-98v-65h68v-85h-68v-26q0 -22 11.5 -35.5t31.5 -13.5q29 0 39 12l30 -116q-34 -32 -114 -32z" />
    <glyph glyph-name="Utilde" unicode="&#x168;" horiz-adv-x="730" 
d="M396 -12q-156 0 -236 77t-80 205v397h175v-391q0 -61 36.5 -98.5t104.5 -37.5q67 0 103.5 37.5t36.5 98.5v391h174v-396q0 -129 -79.5 -206t-234.5 -77zM451 721q-22 0 -40.5 8.5t-28.5 19t-22 19t-22 8.5q-30 0 -30 -49h-78q0 134 113 134q28 0 49 -13.5t36.5 -27.5
t27.5 -14q30 0 30 49h78q0 -134 -113 -134z" />
    <glyph glyph-name="utilde" unicode="&#x169;" horiz-adv-x="576" 
d="M556 0h-154v58q-62 -70 -167 -70q-80 0 -119.5 40.5t-39.5 110.5v344h154v-281q0 -78 80 -78q55 0 92 47v312h154v-483zM371 554q-28 0 -49.5 14t-36.5 27.5t-27 13.5q-30 0 -30 -49h-78q0 134 113 134q28 0 49 -14t36.5 -27.5t27.5 -13.5q30 0 30 49h78
q0 -134 -113 -134z" />
    <glyph glyph-name="Umacron" unicode="&#x16a;" horiz-adv-x="730" 
d="M396 -12q-156 0 -236 77t-80 205v397h175v-391q0 -61 36.5 -98.5t104.5 -37.5q67 0 103.5 37.5t36.5 98.5v391h174v-396q0 -129 -79.5 -206t-234.5 -77zM579 723h-363v85h363v-85z" />
    <glyph glyph-name="umacron" unicode="&#x16b;" horiz-adv-x="576" 
d="M556 0h-154v58q-62 -70 -167 -70q-80 0 -119.5 40.5t-39.5 110.5v344h154v-281q0 -78 80 -78q55 0 92 47v312h154v-483zM497 556h-363v85h363v-85z" />
    <glyph glyph-name="Ubreve" unicode="&#x16c;" horiz-adv-x="730" 
d="M396 -12q-156 0 -236 77t-80 205v397h175v-391q0 -61 36.5 -98.5t104.5 -37.5q67 0 103.5 37.5t36.5 98.5v391h174v-396q0 -129 -79.5 -206t-234.5 -77zM573 783q-65 -88 -175 -88q-109 0 -176 88l66 54q43 -58 110 -58q70 0 109 58z" />
    <glyph glyph-name="ubreve" unicode="&#x16d;" horiz-adv-x="576" 
d="M556 0h-154v58q-62 -70 -167 -70q-80 0 -119.5 40.5t-39.5 110.5v344h154v-281q0 -78 80 -78q55 0 92 47v312h154v-483zM493 616q-65 -88 -175 -88q-109 0 -176 88l66 54q43 -58 110 -58q70 0 109 58z" />
    <glyph glyph-name="Uring" unicode="&#x16e;" horiz-adv-x="730" 
d="M398 692q-45 0 -77 32t-32 76q0 45 32 77t77 32q44 0 75 -32t31 -77q0 -44 -31 -76t-75 -32zM398 760q16 0 27.5 11.5t11.5 28.5t-11.5 29t-27.5 12q-17 0 -29 -12t-12 -29t12 -28.5t29 -11.5zM396 -12q-156 0 -236 77t-80 205v397h175v-391q0 -61 36.5 -98.5
t104.5 -37.5q67 0 103.5 37.5t36.5 98.5v391h174v-396q0 -129 -79.5 -206t-234.5 -77z" />
    <glyph glyph-name="uring" unicode="&#x16f;" horiz-adv-x="576" 
d="M318 525q-45 0 -77 32t-32 76q0 45 32 77t77 32q44 0 75 -32t31 -77q0 -44 -31 -76t-75 -32zM318 593q16 0 27.5 11.5t11.5 28.5t-11.5 29t-27.5 12q-17 0 -29 -12t-12 -29t12 -28.5t29 -11.5zM556 0h-154v58q-62 -70 -167 -70q-80 0 -119.5 40.5t-39.5 110.5v344h154
v-281q0 -78 80 -78q55 0 92 47v312h154v-483z" />
    <glyph glyph-name="Uhungarumlaut" unicode="&#x170;" horiz-adv-x="730" 
d="M396 -12q-156 0 -236 77t-80 205v397h175v-391q0 -61 36.5 -98.5t104.5 -37.5q67 0 103.5 37.5t36.5 98.5v391h174v-396q0 -129 -79.5 -206t-234.5 -77zM471 867l-115 -144h-87l84 144h118zM624 867l-115 -144h-87l83 144h119z" />
    <glyph glyph-name="uhungarumlaut" unicode="&#x171;" horiz-adv-x="576" 
d="M556 0h-154v58q-62 -70 -167 -70q-80 0 -119.5 40.5t-39.5 110.5v344h154v-281q0 -78 80 -78q55 0 92 47v312h154v-483zM389 700l-115 -144h-87l84 144h118zM542 700l-115 -144h-87l83 144h119z" />
    <glyph glyph-name="Uogonek" unicode="&#x172;" horiz-adv-x="730" 
d="M508 -94l59 -37q-33 -55 -98 -55q-45 0 -75 23t-30 69q0 45 31 82q-156 1 -235.5 77.5t-79.5 204.5v397h175v-391q0 -61 36.5 -98.5t104.5 -37.5q67 0 103.5 37.5t36.5 98.5v391h174v-396q0 -104 -52 -175.5t-154 -95.5q-68 -35 -68 -87q0 -38 33 -38q27 0 39 31z" />
    <glyph glyph-name="uogonek" unicode="&#x173;" horiz-adv-x="639" 
d="M556 0q-68 -35 -68 -87q0 -38 33 -38q27 0 39 31l59 -37q-33 -55 -98 -55q-45 0 -75 23t-30 69q0 55 42 94h-56v58q-62 -70 -167 -70q-80 0 -119.5 40.5t-39.5 110.5v344h154v-281q0 -78 80 -78q55 0 92 47v312h154v-483z" />
    <glyph glyph-name="Wcircumflex" unicode="&#x174;" horiz-adv-x="982" 
d="M648 723h-92l-69 81l-66 -81h-91l90 144h135zM771 0h-182l-101 418l-101 -418h-182l-191 667h193l101 -445l114 445h132l114 -445l100 445h194z" />
    <glyph glyph-name="wcircumflex" unicode="&#x175;" horiz-adv-x="833" 
d="M573 556h-92l-69 81l-66 -81h-91l90 144h135zM670 0h-166l-91 299l-90 -299h-166l-143 483h158l78 -296l95 296h137l95 -296l77 296h159z" />
    <glyph glyph-name="Ycircumflex" unicode="&#x176;" horiz-adv-x="706" 
d="M509 723h-92l-69 81l-66 -81h-91l90 144h135zM434 0h-172v269l-253 398h194l145 -246l143 246h195l-252 -398v-269z" />
    <glyph glyph-name="ycircumflex" unicode="&#x177;" horiz-adv-x="574" 
d="M66 -188l22 137q17 -9 38 -9q54 0 65 27l11 26l-192 490h162l109 -306l110 306h163l-218 -552q-27 -71 -77 -98t-127 -29q-40 0 -66 8zM441 556h-92l-69 81l-66 -81h-91l90 144h135z" />
    <glyph glyph-name="Ydieresis" unicode="&#x178;" horiz-adv-x="706" 
d="M534 782q0 -34 -23 -56.5t-56 -22.5t-55.5 22.5t-22.5 56.5q0 32 23 55t55 23q33 0 56 -23t23 -55zM320 782q0 -34 -23 -56.5t-56 -22.5t-55.5 22.5t-22.5 56.5q0 32 22.5 55t55.5 23t56 -23t23 -55zM434 0h-172v269l-253 398h194l145 -246l143 246h195l-252 -398v-269z
" />
    <glyph glyph-name="Zacute" unicode="&#x179;" horiz-adv-x="597" 
d="M482 867l-159 -144h-104l127 144h136zM577 0h-518v137l284 380h-284v150h511v-137l-285 -380h292v-150z" />
    <glyph glyph-name="zacute" unicode="&#x17a;" horiz-adv-x="485" 
d="M458 700l-159 -144h-104l127 144h136zM465 0h-407v113l194 236h-194v134h403v-109l-198 -241h202v-133z" />
    <glyph glyph-name="Zdotaccent" unicode="&#x17b;" horiz-adv-x="597" 
d="M577 0h-518v137l284 380h-284v150h511v-137l-285 -380h292v-150zM311 703q-32 0 -55 23t-23 56q0 32 23 55t55 23t55 -23t23 -55q0 -33 -23 -56t-55 -23z" />
    <glyph glyph-name="zdotaccent" unicode="&#x17c;" horiz-adv-x="485" 
d="M465 0h-407v113l194 236h-194v134h403v-109l-198 -241h202v-133zM259 536q-32 0 -55 23t-23 56q0 32 23 55t55 23t55 -23t23 -55q0 -33 -23 -56t-55 -23z" />
    <glyph glyph-name="Zcaron" unicode="&#x17d;" horiz-adv-x="597" 
d="M386 723h-135l-93 144h91l69 -81l66 81h92zM577 0h-518v137l284 380h-284v150h511v-137l-285 -380h292v-150z" />
    <glyph glyph-name="zcaron" unicode="&#x17e;" horiz-adv-x="485" 
d="M326 556h-135l-93 144h91l69 -81l66 81h92zM465 0h-407v113l194 236h-194v134h403v-109l-198 -241h202v-133z" />
    <glyph glyph-name="longs" unicode="&#x17f;" horiz-adv-x="441" 
d="M263 0h-154v349h-80v134h80v24q0 76 48.5 123t124.5 47q92 0 139 -48l-57 -91q-18 20 -50 20q-21 0 -36 -14t-15 -37v-507z" />
    <glyph glyph-name="florin" unicode="&#x192;" horiz-adv-x="526" 
d="M194 -161h-175l87 392h-47v134h76l32 146q16 73 74.5 119.5t135.5 46.5q86 0 129 -46l-62 -125q-18 21 -45 21q-22 0 -39.5 -14.5t-24.5 -40.5l-24 -107h100v-134h-129z" />
    <glyph glyph-name="Ohorn" unicode="&#x1a0;" horiz-adv-x="793" 
d="M403 -12q-154 0 -255.5 97t-101.5 248t101.5 248t255.5 97q163 0 264 -106q33 25 43 58q-3 -3 -15 -3q-23 0 -38 15.5t-15 40.5q0 26 18 44.5t44 18.5q29 0 49 -21.5t20 -58.5q0 -80 -72 -136q58 -86 58 -197q0 -151 -101 -248t-255 -97zM403 140q81 0 131 55t50 138
t-50 138t-131 55q-82 0 -132 -55t-50 -138t50 -138t132 -55z" />
    <glyph glyph-name="ohorn" unicode="&#x1a1;" horiz-adv-x="604" 
d="M584 533q0 -78 -67 -132q54 -68 54 -159q0 -106 -72 -180t-192 -74q-119 0 -191 74t-72 180t72 179.5t191 73.5q101 0 172 -56q32 25 42 58q-3 -3 -15 -3q-23 0 -38 15.5t-15 40.5q0 26 18.5 44t43.5 18q29 0 49 -21.5t20 -57.5zM307 124q49 0 77.5 33.5t28.5 84.5
q0 50 -28.5 83.5t-77.5 33.5t-76.5 -33.5t-27.5 -83.5q0 -51 27.5 -84.5t76.5 -33.5z" />
    <glyph glyph-name="Uhorn" unicode="&#x1af;" horiz-adv-x="837" 
d="M817 726q0 -45 -27.5 -88.5t-79.5 -69.5v-297q0 -129 -79.5 -206t-234.5 -77q-156 0 -236 77t-80 205v397h175v-391q0 -61 36.5 -98.5t104.5 -37.5q67 0 103.5 37.5t36.5 98.5v391h174v-37q35 26 44 59q-6 -2 -16 -2q-22 0 -37 15.5t-15 40.5t18 43.5t44 18.5
q28 0 48.5 -21.5t20.5 -57.5z" />
    <glyph glyph-name="uhorn" unicode="&#x1b0;" horiz-adv-x="653" 
d="M556 0h-154v58q-62 -70 -167 -70q-80 0 -119.5 40.5t-39.5 110.5v344h154v-281q0 -78 80 -78q55 0 92 47v312h152q10 15 15 30q-3 -3 -15 -3q-23 0 -38 16t-15 41t18.5 43.5t43.5 18.5q29 0 49.5 -21.5t20.5 -58.5q0 -84 -77 -139v-410z" />
    <glyph glyph-name="AEacute" unicode="&#x1fc;" horiz-adv-x="983" 
d="M758 867l-159 -144h-104l127 144h136zM963 0h-489v96h-221l-54 -96h-196l400 667h560v-150h-317v-104h310v-150h-310v-113h317v-150zM474 246v251l-141 -251h141z" />
    <glyph glyph-name="aeacute" unicode="&#x1fd;" horiz-adv-x="880" 
d="M638 700l-159 -144h-104l127 144h136zM860 193h-330q9 -36 39 -59.5t78 -23.5q67 0 108 41l68 -99q-34 -31 -87.5 -47.5t-103.5 -16.5q-117 0 -180 77q-33 -34 -85.5 -55.5t-114.5 -21.5q-90 0 -148.5 39.5t-58.5 117.5q0 76 49 116.5t123 40.5q107 0 158 -54v56
q0 31 -28 50.5t-76 19.5q-81 0 -145 -52l-55 98q88 75 221 75q116 0 162 -71q66 71 173 71q101 0 167 -74t66 -195v-33zM528 293h185q-4 32 -26.5 57.5t-66.5 25.5q-41 0 -64 -25t-28 -58zM375 161v5q-29 35 -94 35q-35 0 -59 -13t-24 -37q0 -25 22 -37.5t53 -12.5
q41 0 71.5 19.5t30.5 40.5z" />
    <glyph glyph-name="Oslashacute" unicode="&#x1fe;" 
d="M599 867l-159 -144h-104l127 144h136zM403 -12q-106 0 -190 48l-29 -36h-120l75 93q-93 95 -93 240q0 151 101.5 248t255.5 97q97 0 175 -40l24 29h120l-67 -83q104 -98 104 -251q0 -151 -101 -248t-255 -97zM403 140q81 0 131 55t50 138q0 68 -35 119l-235 -291
q42 -21 89 -21zM221 333q0 -60 26 -106l229 284q-33 15 -73 15q-82 0 -132 -55t-50 -138z" />
    <glyph glyph-name="oslashacute" unicode="&#x1ff;" horiz-adv-x="591" 
d="M504 700l-159 -144h-104l127 144h136zM139 0h-90l60 69q-65 71 -65 173q0 106 72 179.5t191 73.5q81 0 144 -37l22 25h92l-60 -68q66 -71 66 -173q0 -106 -72 -180t-192 -74q-83 0 -145 38zM307 124q49 0 77.5 33.5t28.5 84.5q0 29 -11 56l-144 -163q19 -11 49 -11z
M203 242q0 -32 10 -55l142 161q-22 11 -48 11q-49 0 -76.5 -33.5t-27.5 -83.5z" />
    <glyph glyph-name="CapitalLetterSwithco" unicode="&#x218;" horiz-adv-x="626" 
d="M398 -139q0 -94 -88 -157l-49 39q20 11 39.5 33.5t25.5 43.5q-4 -3 -17 -3q-25 0 -42 17.5t-17 45.5q0 29 20.5 50t49.5 21q32 0 55 -24.5t23 -65.5zM328 -12q-185 0 -296 106l91 129q88 -88 213 -88q44 0 69.5 15.5t25.5 39.5q0 21 -28 34.5t-70 20t-91 21t-91 34
t-70 62.5t-28 103q0 88 71.5 150t194.5 62q163 0 271 -93l-94 -123q-84 69 -195 69q-72 0 -72 -48q0 -23 39 -36.5t94 -25t110.5 -30.5t94.5 -64.5t39 -114.5q0 -102 -73 -162.5t-205 -60.5z" />
    <glyph glyph-name="SmallLetterSwithcomm" unicode="&#x219;" horiz-adv-x="501" 
d="M345 -139q0 -94 -88 -157l-49 39q20 11 39.5 33.5t25.5 43.5q-5 -3 -17 -3q-25 0 -42 17.5t-17 45.5q0 29 20.5 50t49.5 21q32 0 55 -24.5t23 -65.5zM261 -12q-65 0 -126.5 20t-99.5 54l64 106q28 -25 78.5 -44.5t91.5 -19.5q65 0 65 37q0 17 -29 25.5t-70 15t-82.5 19.5
t-70.5 47t-29 88q0 67 55 113t152 46q114 0 202 -64l-59 -102q-23 22 -62 37.5t-80 15.5q-27 0 -44 -10t-17 -25t29 -22.5t70 -15t82.5 -21.5t70.5 -49.5t29 -90.5q0 -71 -59 -115.5t-161 -44.5z" />
    <glyph glyph-name="CapitalLetterTwithco" unicode="&#x21a;" horiz-adv-x="607" 
d="M392 -139q0 -94 -88 -157l-49 39q20 11 39.5 33.5t25.5 43.5q-4 -3 -17 -3q-25 0 -42 17.5t-17 45.5q0 29 20.5 50t49.5 21q32 0 55 -24.5t23 -65.5zM401 0h-172v517h-187v150h545v-150h-186v-517z" />
    <glyph glyph-name="SmallLetterTwithcomm" unicode="&#x21b;" horiz-adv-x="393" 
d="M278 -139q0 -94 -88 -157l-49 39q20 11 39.5 33.5t25.5 43.5q-5 -3 -17 -3q-25 0 -42 17.5t-17 45.5q0 29 20.5 50t49.5 21q32 0 55 -24.5t23 -65.5zM259 -12q-74 0 -112.5 36t-38.5 106v219h-80v134h80v132h153v-132h98v-134h-98v-176q0 -22 11.5 -35.5t31.5 -13.5
q29 0 39 12l30 -116q-34 -32 -114 -32z" />
    <glyph glyph-name="SmallLetterDotlessJ" unicode="&#x237;" horiz-adv-x="250" 
d="M43 -196q-47 0 -72 7.5t-55 26.5l39 121q28 -22 62 -22q27 0 43 18t16 49v479h154v-479q0 -92 -47 -146t-140 -54z" />
  </font>
</defs>
</svg>
