<?xml version="1.0" standalone="no"?>
<!DOCTYPE svg PUBLIC "-//W3C//DTD SVG 1.1//EN" "http://www.w3.org/Graphics/SVG/1.1/DTD/svg11.dtd" >
<svg xmlns="http://www.w3.org/2000/svg" xmlns:xlink="http://www.w3.org/1999/xlink" version="1.1">
<metadata>
Created by FontForge 20170731 at Wed Aug  8 17:24:17 2018
 By Aleksey,,,
(c) TrackBoostR
</metadata>
<defs>
<font id="TBRRegular" horiz-adv-x="516" >
  <font-face 
    font-family="TBR"
    font-weight="500"
    font-stretch="normal"
    units-per-em="1000"
    panose-1="0 0 0 0 0 0 0 0 0 0"
    ascent="800"
    descent="-200"
    x-height="483"
    cap-height="667"
    bbox="-79 -272 1071 907"
    underline-thickness="50"
    underline-position="-200"
    unicode-range="U+0020-0237"
  />
<missing-glyph horiz-adv-x="472" 
d="M0 700v-700h432v700h-432zM50 50v600h332v-600h-332z" />
    <glyph glyph-name=".notdef" horiz-adv-x="472" 
d="M0 700v-700h432v700h-432zM50 50v600h332v-600h-332z" />
    <glyph glyph-name=".notdef" horiz-adv-x="472" 
d="M0 700v-700h432v700h-432zM50 50v600h332v-600h-332z" />
    <glyph glyph-name=".null" horiz-adv-x="0" 
 />
    <glyph glyph-name="nonmarkingreturn" horiz-adv-x="333" 
 />
    <glyph glyph-name="space" unicode=" " horiz-adv-x="20" 
 />
    <glyph glyph-name="exclam" unicode="!" horiz-adv-x="210" 
d="M166 187h-62l-16 480h94zM135 -10q-22 0 -38.5 16.5t-16.5 38.5q0 23 16 39t39 16t39 -16t16 -39q0 -22 -16.5 -38.5t-38.5 -16.5z" />
    <glyph glyph-name="quotedbl" unicode="&#x22;" horiz-adv-x="330" 
d="M138 412h-37q-27 205 -27 219q0 19 13 32.5t32 13.5t32.5 -13.5t13.5 -32.5zM283 412h-37q-27 205 -27 219q0 19 13.5 32.5t32.5 13.5t32 -13.5t13 -32.5z" />
    <glyph glyph-name="numbersign" unicode="#" horiz-adv-x="609" 
d="M320 0h-61l61 181h-111l-60 -181h-62l61 181h-106l17 53h107l66 199h-108l16 52h110l60 182h62l-60 -182h110l60 182h61l-61 -182h107l-15 -52h-109l-67 -199h111l-16 -53h-113zM337 234l66 199h-110l-66 -199h110z" />
    <glyph glyph-name="dollar" unicode="$" horiz-adv-x="584" 
d="M291 -100v89q-144 8 -229 105l49 63q73 -82 180 -94v244q-38 10 -61.5 18t-54.5 23.5t-49 33.5t-30.5 46t-12.5 64q0 77 58 128t150 56v92h61v-93q121 -12 197 -91l-50 -61q-59 63 -147 76v-217q47 -13 78 -25.5t65.5 -35t51.5 -57t17 -80.5q0 -76 -52 -131.5t-160 -63.5
v-89h-61zM478 177q0 45 -32.5 70t-93.5 43v-227q65 7 95.5 40t30.5 74zM169 497q0 -38 31 -59.5t91 -39.5v204q-54 -4 -88 -32.5t-34 -72.5z" />
    <glyph glyph-name="percent" unicode="%" horiz-adv-x="740" 
d="M211 348q-71 0 -115.5 46.5t-44.5 116.5q0 71 45 118.5t115 47.5q71 0 116.5 -47.5t45.5 -118.5q0 -70 -45.5 -116.5t-116.5 -46.5zM202 0h-54l426 667h55zM559 -12q-71 0 -115.5 46.5t-44.5 116.5q0 71 45 118.5t115 47.5q71 0 116 -47.5t45 -118.5q0 -70 -45 -116.5
t-116 -46.5zM211 398q44 0 73 32.5t29 80.5q0 50 -28.5 82.5t-73.5 32.5q-44 0 -72 -32.5t-28 -82.5q0 -48 28 -80.5t72 -32.5zM559 38q44 0 73 32.5t29 80.5q0 50 -28.5 82.5t-73.5 32.5t-73 -32.5t-28 -82.5q0 -48 28.5 -80.5t72.5 -32.5z" />
    <glyph glyph-name="ampersand" unicode="&#x26;" horiz-adv-x="653" 
d="M633 0h-104q-30 26 -73 70q-82 -82 -192 -82q-91 0 -149.5 48.5t-58.5 137.5q0 71 39 116t108 82q-51 87 -51 150q0 66 48.5 110.5t119.5 44.5q67 0 109 -34.5t42 -96.5q0 -36 -13 -64.5t-42 -52t-50.5 -36.5t-64.5 -35q32 -44 77 -95q36 -43 79 -89q44 65 72 152l65 -28
q-49 -114 -91 -172q50 -52 130 -126zM271 50q74 0 140 66q-66 69 -92 101q-46 53 -84 106q-47 -29 -72.5 -62.5t-25.5 -81.5q0 -60 39.5 -94.5t94.5 -34.5zM230 521q0 -47 40 -115q65 32 98.5 62t33.5 75q0 36 -22 55.5t-57 19.5q-39 0 -66 -27.5t-27 -69.5z" />
    <glyph glyph-name="quotesingle" unicode="'" horiz-adv-x="185" 
d="M138 412h-37q-27 205 -27 219q0 19 13 32.5t32 13.5t32.5 -13.5t13.5 -32.5z" />
    <glyph glyph-name="parenleft" unicode="(" horiz-adv-x="270" 
d="M250 -164l-45 -35q-141 193 -141 442q0 248 141 442l45 -34q-53 -105 -78.5 -198t-25.5 -210t25.5 -210.5t78.5 -196.5z" />
    <glyph glyph-name="parenright" unicode=")" horiz-adv-x="244" 
d="M82 -199l-45 35q53 103 79 196.5t26 210.5q0 118 -26 211t-79 197l45 34q142 -193 142 -442q0 -250 -142 -442z" />
    <glyph glyph-name="asterisk" unicode="*" horiz-adv-x="346" 
d="M213 389h-46l5 115l-96 -63l-22 40l102 52l-102 52l22 39l96 -62l-5 115h46l-6 -115l96 62l23 -39l-102 -52l102 -52l-23 -40l-96 63z" />
    <glyph glyph-name="plus" unicode="+" horiz-adv-x="510" 
d="M490 311h-192v-213h-57v213h-192v52h192v207h57v-207h192v-52z" />
    <glyph glyph-name="comma" unicode="," horiz-adv-x="216" 
d="M196 24q0 -44 -23 -84.5t-59 -66.5l-37 31q25 16 43.5 42.5t21.5 50.5q-4 -2 -14 -2q-21 0 -34.5 14.5t-13.5 36.5t15.5 38t37.5 16q26 0 44.5 -20.5t18.5 -55.5z" />
    <glyph glyph-name="hyphen" unicode="-" horiz-adv-x="310" 
d="M290 209h-240v66h240v-66z" />
    <glyph glyph-name="period" unicode="." horiz-adv-x="210" 
d="M135 -10q-23 0 -39 16t-16 39t16 39t39 16t39 -16t16 -39t-16 -39t-39 -16z" />
    <glyph glyph-name="slash" unicode="/" horiz-adv-x="336" 
d="M79 -20h-59l237 707h59z" />
    <glyph glyph-name="zero" unicode="0" horiz-adv-x="601" 
d="M326 -12q-66 0 -116.5 30.5t-80 81.5t-44 110t-14.5 123t14.5 123t44 109.5t80 81t116.5 30.5q65 0 116 -30.5t80.5 -81t44 -109.5t14.5 -123t-14.5 -123t-44 -110t-80.5 -81.5t-116 -30.5zM326 62q60 0 100 41.5t55 99.5t15 130t-15 130t-55 99t-100 41t-100 -41
t-55 -99t-15 -130t15 -130t55 -99.5t100 -41.5z" />
    <glyph glyph-name="one" unicode="1" horiz-adv-x="301" 
d="M281 0h-83v557l-107 -113l-50 51l167 172h73v-667z" />
    <glyph glyph-name="two" unicode="2" horiz-adv-x="552" 
d="M532 0h-458v66q104 82 161.5 130.5t111 103t75.5 97t22 84.5q0 60 -41 91t-98 31q-115 0 -181 -84l-51 53q38 50 99.5 77.5t132.5 27.5q91 0 157.5 -51t66.5 -145q0 -93 -80 -185.5t-244 -221.5h327v-74z" />
    <glyph glyph-name="three" unicode="3" horiz-adv-x="542" 
d="M286 -12q-80 0 -142 31t-95 79l49 52q30 -40 79 -64t107 -24q73 0 114.5 33.5t41.5 91.5q0 60 -44.5 89t-121.5 29q-59 0 -69 -1v76q11 -1 69 -1q68 0 111.5 27.5t43.5 82.5q0 53 -42.5 83.5t-106.5 30.5q-101 0 -176 -81l-46 52q85 103 228 103q99 0 162.5 -47.5
t63.5 -130.5q0 -66 -44 -105.5t-100 -49.5q55 -5 104.5 -48t49.5 -116q0 -85 -64 -138.5t-172 -53.5z" />
    <glyph glyph-name="four" unicode="4" horiz-adv-x="566" 
d="M452 0h-83v169h-317v69l286 429h114v-425h94v-73h-94v-169zM369 242v348l-234 -348h234z" />
    <glyph glyph-name="five" unicode="5" horiz-adv-x="578" 
d="M321 -12q-154 0 -235 107l51 55q69 -88 184 -88q68 0 111 41t43 102q0 65 -42.5 104.5t-110.5 39.5q-90 0 -154 -63l-61 21v360h408v-74h-325v-232q60 60 156 60q88 0 150 -57.5t62 -155.5q0 -100 -67 -160t-170 -60z" />
    <glyph glyph-name="six" unicode="6" horiz-adv-x="582" 
d="M328 -12q-67 0 -118 28t-80.5 76.5t-44 109t-14.5 130.5q0 94 28 170t90.5 125.5t152.5 49.5q115 0 185 -80l-42 -62q-58 68 -143 68q-62 0 -105.5 -39t-63 -96.5t-19.5 -126.5q0 -17 1 -26q25 40 77.5 72t111.5 32q95 0 156.5 -55.5t61.5 -157.5q0 -91 -64 -154.5
t-170 -63.5zM325 62q72 0 112.5 43.5t40.5 97.5q0 70 -43 107t-111 37q-49 0 -94 -27.5t-73 -72.5q7 -74 48 -129.5t120 -55.5z" />
    <glyph glyph-name="seven" unicode="7" horiz-adv-x="526" 
d="M233 0h-92l269 593h-359v74h455v-57z" />
    <glyph glyph-name="eight" unicode="8" horiz-adv-x="570" 
d="M311 -12q-102 0 -170.5 49t-68.5 132q0 63 45.5 109t113.5 66q-64 18 -106 58.5t-42 101.5q0 84 68 128.5t160 44.5t160.5 -44.5t68.5 -128.5q0 -61 -42 -101.5t-107 -58.5q68 -20 113.5 -66t45.5 -109q0 -82 -68.5 -131.5t-170.5 -49.5zM311 378q20 3 40.5 10t46.5 19.5
t42 35t16 50.5q0 50 -41.5 80t-103.5 30q-63 0 -104 -30t-41 -80q0 -28 16 -50.5t42 -35t46.5 -19t40.5 -10.5zM311 62q64 0 109.5 32t45.5 84q0 58 -57.5 96t-97.5 33q-27 -3 -59.5 -15.5t-64.5 -43t-32 -70.5q0 -52 45.5 -84t110.5 -32z" />
    <glyph glyph-name="nine" unicode="9" horiz-adv-x="580" 
d="M289 -11q-115 0 -185 80l42 62q58 -68 143 -68q64 0 108 40t62 97t18 124q0 18 -1 27q-25 -40 -77 -72t-111 -32q-95 0 -157 55.5t-62 157.5q0 90 64 154t169 64q68 0 119 -28t80.5 -77t44 -109t14.5 -131q0 -94 -28 -169.5t-90.5 -125t-152.5 -49.5zM307 319
q49 0 94.5 27t71.5 72q-6 74 -47 130t-120 56q-71 0 -112 -44t-41 -97q0 -70 43 -107t111 -37z" />
    <glyph glyph-name="colon" unicode=":" horiz-adv-x="210" 
d="M135 380q-23 0 -39 16t-16 39t16 39t39 16t39 -16t16 -39t-16 -39t-39 -16zM135 -10q-23 0 -39 16t-16 39t16 39t39 16t39 -16t16 -39t-16 -39t-39 -16z" />
    <glyph glyph-name="semicolon" unicode=";" horiz-adv-x="216" 
d="M135 380q-22 0 -38.5 16.5t-16.5 38.5q0 23 16 39t39 16t39 -16t16 -39q0 -22 -16.5 -38.5t-38.5 -16.5zM196 26q0 -45 -23 -85.5t-59 -65.5l-37 30q24 16 43 43t22 51q-6 -3 -14 -3q-21 0 -34.5 14.5t-13.5 36.5q0 23 15.5 39t37.5 16q26 0 44.5 -20.5t18.5 -55.5z" />
    <glyph glyph-name="less" unicode="&#x3c;" horiz-adv-x="510" 
d="M490 90l-441 218v53l441 219v-63l-377 -183l377 -182v-62z" />
    <glyph glyph-name="equal" unicode="=" horiz-adv-x="510" 
d="M490 404h-441v53h441v-53zM490 211h-441v52h441v-52z" />
    <glyph glyph-name="greater" unicode="&#x3e;" horiz-adv-x="510" 
d="M490 308l-441 -218v62l376 182l-376 183v63l441 -219v-53z" />
    <glyph glyph-name="question" unicode="?" horiz-adv-x="471" 
d="M223 185q-39 33 -39 81q0 30 13.5 55t33.5 41t43.5 33.5t43.5 32.5t33.5 36t13.5 46q0 40 -30.5 66.5t-87.5 26.5q-97 0 -159 -82l-50 54q79 102 217 102q89 0 142.5 -44.5t53.5 -110.5q0 -51 -30.5 -90.5t-66.5 -60.5t-66.5 -50t-30.5 -61q0 -28 27 -49zM244 -10
q-22 0 -38.5 16t-16.5 39t16.5 39t38.5 16t38.5 -16t16.5 -39t-16.5 -39t-38.5 -16z" />
    <glyph glyph-name="at" unicode="@" horiz-adv-x="787" 
d="M372 -70q-136 0 -226.5 90.5t-90.5 223.5q0 160 119.5 277t277.5 117q139 0 227 -91.5t88 -225.5q0 -111 -52 -173.5t-121 -62.5q-40 0 -64.5 23.5t-26.5 57.5l-1 6q-27 -38 -69.5 -62.5t-88.5 -24.5q-69 0 -111 45t-42 118q0 102 72 176.5t163 74.5q46 0 79.5 -22
t48.5 -56l13 62h68l-57 -271q-2 -12 -2 -21q0 -25 13.5 -38.5t33.5 -13.5q38 0 73 45t35 137q0 124 -78.5 203.5t-204.5 79.5q-144 0 -251.5 -108.5t-107.5 -249.5q0 -121 81.5 -202t205.5 -81q97 0 186 56l18 -26q-98 -63 -208 -63zM364 141q87 0 149 90l29 138
q-10 29 -36.5 51.5t-66.5 22.5q-73 0 -125 -58.5t-52 -132.5q0 -49 27.5 -80t74.5 -31z" />
    <glyph glyph-name="A" unicode="A" horiz-adv-x="689" 
d="M669 0h-95l-59 148h-332l-59 -148h-95l268 667h103zM490 222l-141 359l-142 -359h283z" />
    <glyph glyph-name="B" unicode="B" horiz-adv-x="615" 
d="M402 0h-304v667h297q86 0 136.5 -47t50.5 -123q0 -60 -34 -101.5t-83 -51.5q53 -8 91.5 -56t38.5 -108q0 -81 -51.5 -130.5t-141.5 -49.5zM381 378q55 0 85 30t30 77t-30.5 77.5t-84.5 30.5h-200v-215h200zM385 74q58 0 91 31t33 84q0 49 -32.5 82t-91.5 33h-204v-230
h204z" />
    <glyph glyph-name="C" unicode="C" horiz-adv-x="688" 
d="M414 -12q-146 0 -244.5 96.5t-98.5 248.5t98.5 248.5t244.5 96.5q160 0 253 -132l-70 -39q-29 43 -78 70t-105 27q-110 0 -183.5 -76.5t-73.5 -194.5t73.5 -194.5t183.5 -76.5q56 0 105 26.5t78 70.5l71 -39q-97 -132 -254 -132z" />
    <glyph glyph-name="D" unicode="D" horiz-adv-x="688" 
d="M326 0h-228v667h228q153 0 247.5 -95t94.5 -239q0 -145 -94.5 -239t-247.5 -94zM326 74q118 0 187 74t69 185q0 112 -68 186t-188 74h-145v-519h145z" />
    <glyph glyph-name="E" unicode="E" horiz-adv-x="555" 
d="M535 0h-437v667h437v-74h-354v-215h347v-74h-347v-230h354v-74z" />
    <glyph glyph-name="F" unicode="F" horiz-adv-x="555" 
d="M181 0h-83v667h437v-74h-354v-215h347v-74h-347v-304z" />
    <glyph glyph-name="G" unicode="G" horiz-adv-x="696" 
d="M414 -13q-145 0 -244 96.5t-99 249.5t99 249t244 96q158 0 259 -125l-66 -41q-32 42 -83.5 67t-109.5 25q-110 0 -183.5 -76.5t-73.5 -194.5t73.5 -195t183.5 -77q55 0 102.5 21.5t76.5 50.5v136h-229v74h312v-241q-103 -115 -262 -115z" />
    <glyph glyph-name="H" unicode="H" horiz-adv-x="674" 
d="M654 0h-83v306h-390v-306h-83v667h83v-287h390v287h83v-667z" />
    <glyph glyph-name="I" unicode="I" horiz-adv-x="201" 
d="M181 0h-83v667h83v-667z" />
    <glyph glyph-name="J" unicode="J" horiz-adv-x="437" 
d="M205 -12q-108 0 -174 77l43 63q55 -66 126 -66q61 0 97.5 38.5t36.5 101.5v465h83v-466q0 -104 -59 -158.5t-153 -54.5z" />
    <glyph glyph-name="K" unicode="K" horiz-adv-x="624" 
d="M604 0h-103l-253 300l-67 -76v-224h-83v667h83v-345l295 345h104l-278 -317z" />
    <glyph glyph-name="L" unicode="L" horiz-adv-x="511" 
d="M491 0h-393v667h83v-593h310v-74z" />
    <glyph glyph-name="M" unicode="M" horiz-adv-x="771" 
d="M751 0h-83v549l-227 -549h-34l-226 549v-549h-83v667h119l207 -502l208 502h119v-667z" />
    <glyph glyph-name="N" unicode="N" horiz-adv-x="670" 
d="M650 0h-80l-389 532v-532h-83v667h85l384 -521v521h83v-667z" />
    <glyph glyph-name="O" unicode="O" horiz-adv-x="753" 
d="M402 -12q-147 0 -239 98t-92 247t92 247t239 98q146 0 238.5 -98t92.5 -247t-92.5 -247t-238.5 -98zM402 62q110 0 177.5 76.5t67.5 194.5q0 119 -67.5 195t-177.5 76q-111 0 -178 -76t-67 -195q0 -118 67 -194.5t178 -76.5z" />
    <glyph glyph-name="P" unicode="P" horiz-adv-x="595" 
d="M181 0h-83v667h268q97 0 153 -58t56 -143t-56.5 -143t-152.5 -58h-185v-265zM356 339q59 0 96 35.5t37 91.5t-37 91.5t-96 35.5h-175v-254h175z" />
    <glyph glyph-name="Q" unicode="Q" horiz-adv-x="753" 
d="M402 -12q-147 0 -239 98t-92 247t92 247t239 98q146 0 238.5 -98t92.5 -247t-92 -246l64 -68l-58 -50l-65 69q-78 -50 -180 -50zM402 62q71 0 127 34l-95 103l58 49l94 -102q61 75 61 187q0 119 -67.5 195t-177.5 76q-111 0 -178 -76t-67 -195q0 -118 67 -194.5
t178 -76.5z" />
    <glyph glyph-name="R" unicode="R" horiz-adv-x="602" 
d="M582 0h-98l-170 265h-133v-265h-83v667h268q93 0 151 -55t58 -146q0 -86 -50 -137t-123 -57zM356 338q59 0 96 36t37 92t-37 91.5t-96 35.5h-175v-255h175z" />
    <glyph glyph-name="S" unicode="S" horiz-adv-x="580" 
d="M314 -12q-162 0 -256 106l49 63q85 -95 210 -95q81 0 119 34.5t38 80.5q0 35 -22 59t-56.5 37.5t-77 24.5t-84.5 24.5t-76.5 32.5t-56.5 54t-22 83q0 82 65 133.5t164 51.5q149 0 237 -93l-50 -61q-73 80 -193 80q-60 0 -98.5 -29.5t-38.5 -76.5q0 -35 29.5 -58t73 -34
t95 -27.5t95 -35t73 -59.5t29.5 -99q0 -82 -60.5 -139t-185.5 -57z" />
    <glyph glyph-name="T" unicode="T" horiz-adv-x="578" 
d="M346 0h-83v593h-211v74h506v-74h-212v-593z" />
    <glyph glyph-name="U" unicode="U" horiz-adv-x="662" 
d="M370 -12q-133 0 -202.5 72.5t-69.5 198.5v408h83v-406q0 -93 49 -146t140 -53t140 53t49 146v406h83v-407q0 -127 -69.5 -199.5t-202.5 -72.5z" />
    <glyph glyph-name="V" unicode="V" horiz-adv-x="689" 
d="M400 0h-103l-268 667h95l225 -576l225 576h95z" />
    <glyph glyph-name="W" unicode="W" horiz-adv-x="908" 
d="M698 0h-90l-147 538l-147 -538h-90l-190 667h92l148 -556l153 556h69l153 -556l147 556h92z" />
    <glyph glyph-name="X" unicode="X" horiz-adv-x="679" 
d="M659 0h-100l-213 284l-213 -284h-101l260 342l-245 325h101l198 -267l197 267h101l-244 -324z" />
    <glyph glyph-name="Y" unicode="Y" horiz-adv-x="657" 
d="M375 0h-83v282l-263 385h97l207 -310l207 310h97l-262 -385v-282z" />
    <glyph glyph-name="Z" unicode="Z" horiz-adv-x="576" 
d="M556 0h-488v69l375 524h-375v74h481v-69l-375 -524h382v-74z" />
    <glyph glyph-name="bracketleft" unicode="[" horiz-adv-x="266" 
d="M246 -190h-186v868h186v-55h-128v-758h128v-55z" />
    <glyph glyph-name="backslash" unicode="\" horiz-adv-x="336" 
d="M257 -20l-237 707h59l237 -707h-59z" />
    <glyph glyph-name="bracketright" unicode="]" horiz-adv-x="243" 
d="M223 -190h-186v55h128v758h-128v55h186v-868z" />
    <glyph glyph-name="asciicircum" unicode="^" horiz-adv-x="453" 
d="M433 333h-62l-135 279l-135 -279h-62l169 334h57z" />
    <glyph glyph-name="underscore" unicode="_" horiz-adv-x="607" 
d="M587 -95h-570v55h570v-55z" />
    <glyph glyph-name="grave" unicode="`" horiz-adv-x="266" 
d="M246 556h-57l-169 144h78z" />
    <glyph glyph-name="a" unicode="a" horiz-adv-x="492" 
d="M472 0h-75v55q-61 -67 -160 -67q-67 0 -118 43t-51 117q0 76 50.5 117.5t118.5 41.5q103 0 160 -66v87q0 48 -34 75t-88 27q-85 0 -148 -67l-35 52q77 80 193 80q83 0 135 -40t52 -123v-332zM264 42q90 0 133 60v91q-43 60 -133 60q-52 0 -85.5 -29.5t-33.5 -76.5
q0 -46 33.5 -75.5t85.5 -29.5z" />
    <glyph glyph-name="b" unicode="b" horiz-adv-x="568" 
d="M170 131q20 -32 60.5 -54t83.5 -22q72 0 114 52t42 134t-42 134.5t-114 52.5q-43 0 -83.5 -22.5t-60.5 -55.5v-219zM170 0h-75v667h75v-257q63 85 163 85q95 0 155 -69.5t60 -184.5q0 -116 -59.5 -184.5t-155.5 -68.5q-101 0 -163 84v-72z" />
    <glyph glyph-name="c" unicode="c" horiz-adv-x="505" 
d="M308 -12q-107 0 -174 72.5t-67 181.5t67 181t174 72q112 0 177 -84l-50 -46q-46 63 -123 63q-76 0 -121.5 -52t-45.5 -134t45.5 -134.5t121.5 -52.5t123 63l50 -46q-65 -84 -177 -84z" />
    <glyph glyph-name="d" unicode="d" horiz-adv-x="540" 
d="M520 0h-75v72q-62 -84 -163 -84q-96 0 -155.5 68.5t-59.5 184.5q0 115 59.5 184.5t155.5 69.5q100 0 163 -85v257h75v-667zM300 55q44 0 84 22t61 54v219q-21 33 -61.5 55.5t-83.5 22.5q-71 0 -113 -52.5t-42 -134.5t42 -134t113 -52z" />
    <glyph glyph-name="e" unicode="e" horiz-adv-x="557" 
d="M313 -12q-108 0 -177 70.5t-69 183.5q0 106 68 179.5t170 73.5q107 0 169.5 -73.5t62.5 -185.5v-19h-391q5 -71 52 -119t122 -48q90 0 149 61l36 -49q-74 -74 -192 -74zM463 272q-1 62 -42 111.5t-117 49.5q-72 0 -113.5 -49t-44.5 -112h317z" />
    <glyph glyph-name="f" unicode="f" horiz-adv-x="378" 
d="M191 0h-75v417h-80v66h80v37q0 74 37.5 115.5t102.5 41.5q62 0 102 -37l-31 -49q-27 24 -60 24q-37 0 -56.5 -24.5t-19.5 -70.5v-37h98v-66h-98v-417z" />
    <glyph glyph-name="g" unicode="g" horiz-adv-x="539" 
d="M289 -196q-64 0 -109 15.5t-86 56.5l38 56q55 -66 157 -66q67 0 111 35.5t44 109.5v69q-27 -38 -70 -62t-92 -24q-96 0 -155.5 67.5t-59.5 182.5t59.5 183t155.5 68q99 0 162 -85v73h75v-469q0 -111 -65 -160.5t-165 -49.5zM300 60q43 0 83.5 23t60.5 56v211
q-20 33 -60 55.5t-84 22.5q-72 0 -113.5 -51t-41.5 -133q0 -81 42 -132.5t113 -51.5z" />
    <glyph glyph-name="h" unicode="h" horiz-adv-x="517" 
d="M497 0h-75v318q0 60 -28 85t-81 25q-41 0 -80.5 -22t-62.5 -53v-353h-75v667h75v-254q28 33 75 57.5t98 24.5q154 0 154 -154v-341z" />
    <glyph glyph-name="i" unicode="i" horiz-adv-x="203" 
d="M132 552q-20 0 -35 14.5t-15 35.5t15 36t35 15q21 0 36 -15t15 -36t-15 -35.5t-36 -14.5zM170 0h-75v483h75v-483z" />
    <glyph glyph-name="j" unicode="j" horiz-adv-x="203" 
d="M132 552q-20 0 -35 14.5t-15 35.5t15 36t35 15q21 0 36 -15t15 -36t-15 -35.5t-36 -14.5zM27 -196q-59 0 -106 36l27 57q31 -31 69 -31q36 0 57 21.5t21 65.5v530h75v-530q0 -71 -37 -110t-106 -39z" />
    <glyph glyph-name="k" unicode="k" horiz-adv-x="540" 
d="M520 0h-96l-174 217l-80 -79v-138h-75v667h75v-441l254 257h95l-214 -219z" />
    <glyph glyph-name="l" unicode="l" horiz-adv-x="190" 
d="M170 0h-75v667h75v-667z" />
    <glyph glyph-name="m" unicode="m" horiz-adv-x="773" 
d="M753 0h-75v328q0 100 -89 100q-36 0 -72 -22t-56 -52v-354h-75v328q0 100 -89 100q-35 0 -70.5 -22t-56.5 -53v-353h-75v483h75v-70q18 28 63 55t93 27q53 0 86 -25t44 -65q22 36 67 63t95 27q135 0 135 -146v-349z" />
    <glyph glyph-name="n" unicode="n" 
d="M496 0h-75v316q0 61 -28 86.5t-80 25.5q-42 0 -81.5 -22t-61.5 -53v-353h-75v483h75v-70q28 33 75 57.5t97 24.5q154 0 154 -156v-339z" />
    <glyph glyph-name="o" unicode="o" horiz-adv-x="565" 
d="M306 -12q-108 0 -173.5 73t-65.5 181t65.5 180.5t173.5 72.5t173.5 -72.5t65.5 -180.5t-65.5 -181t-173.5 -73zM306 55q74 0 117 54.5t43 132.5t-43 132t-117 54t-117.5 -54.5t-43.5 -131.5q0 -78 43.5 -132.5t117.5 -54.5z" />
    <glyph glyph-name="p" unicode="p" horiz-adv-x="568" 
d="M333 -12q-102 0 -163 85v-257h-75v667h75v-72q27 38 70 61t93 23q96 0 155.5 -68.5t59.5 -184.5t-59.5 -185t-155.5 -69zM314 55q71 0 113 52.5t42 134.5t-42 134t-113 52q-43 0 -83.5 -22.5t-60.5 -54.5v-218q20 -33 60.5 -55.5t83.5 -22.5z" />
    <glyph glyph-name="q" unicode="q" horiz-adv-x="536" 
d="M297 55q44 0 84.5 22.5t59.5 55.5v218q-19 32 -59.5 54.5t-84.5 22.5q-71 0 -112.5 -52t-41.5 -134t41.5 -134.5t112.5 -52.5zM279 -12q-96 0 -155.5 69t-59.5 185t59.5 184.5t155.5 68.5q50 0 93 -23t69 -61v72h75v-667h-75v257q-61 -85 -162 -85z" />
    <glyph glyph-name="r" unicode="r" horiz-adv-x="351" 
d="M170 0h-75v483h75v-78q67 88 161 88v-77q-14 3 -30 3q-34 0 -74 -24t-57 -53v-342z" />
    <glyph glyph-name="s" unicode="s" horiz-adv-x="458" 
d="M248 -12q-123 0 -195 76l39 54q25 -29 68.5 -49t90.5 -20q54 0 84 23t30 60q0 32 -31 50.5t-74.5 28t-87.5 22t-75 43t-31 80.5q0 59 48.5 99t131.5 40q109 0 179 -70l-35 -52q-51 61 -144 61q-49 0 -78 -21.5t-29 -54.5q0 -29 31 -45.5t74.5 -26t87.5 -22.5t75 -45.5
t31 -84.5q0 -64 -50 -105t-140 -41z" />
    <glyph glyph-name="t" unicode="t" horiz-adv-x="327" 
d="M217 -12q-53 0 -80 29t-27 84v316h-80v66h80v132h75v-132h98v-66h-98v-300q0 -28 12.5 -45t36.5 -17q33 0 51 20l22 -56q-33 -31 -90 -31z" />
    <glyph glyph-name="u" unicode="u" 
d="M496 0h-75v68q-30 -34 -75.5 -57t-96.5 -23q-154 0 -154 154v341h75v-318q0 -60 27.5 -85t80.5 -25q42 0 81.5 21t61.5 52v355h75v-483z" />
    <glyph glyph-name="v" unicode="v" horiz-adv-x="527" 
d="M306 0h-82l-201 483h81l161 -396l160 396h82z" />
    <glyph glyph-name="w" unicode="w" horiz-adv-x="762" 
d="M588 0h-75l-126 388l-126 -388h-75l-154 483h78l118 -385l127 385h64l127 -385l118 385h78z" />
    <glyph glyph-name="x" unicode="x" horiz-adv-x="515" 
d="M495 0h-87l-145 198l-145 -198h-86l185 248l-175 235h87l134 -184l134 184h87l-175 -235z" />
    <glyph glyph-name="y" unicode="y" horiz-adv-x="527" 
d="M68 -189l12 68q18 -8 41 -8q26 0 43 11t29 40l32 73l-202 488h81l161 -396l160 396h82l-242 -581q-40 -96 -142 -98q-31 0 -55 7z" />
    <glyph glyph-name="z" unicode="z" horiz-adv-x="460" 
d="M440 0h-368v58l266 359h-266v66h364v-57l-268 -361h272v-65z" />
    <glyph glyph-name="braceleft" unicode="{" horiz-adv-x="283" 
d="M263 -190h-61q-50 0 -87.5 37.5t-37.5 96.5v206q0 30 -13.5 49.5t-38.5 19.5v50q25 0 38.5 19.5t13.5 49.5v205q0 60 37.5 97.5t87.5 37.5h61v-55h-61q-27 0 -46.5 -22.5t-19.5 -57.5v-211q0 -68 -46 -88q46 -20 46 -88v-211q0 -34 19.5 -57t46.5 -23h61v-55z" />
    <glyph glyph-name="bar" unicode="|" horiz-adv-x="173" 
d="M153 -20h-55v707h55v-707z" />
    <glyph glyph-name="braceright" unicode="}" horiz-adv-x="295" 
d="M37 -190v55h61q27 0 46.5 23t19.5 57v211q0 68 46 88q-46 20 -46 88v211q0 35 -19.5 57.5t-46.5 22.5h-61v55h61q50 0 87.5 -37.5t37.5 -97.5v-205q0 -30 13.5 -49.5t38.5 -19.5v-50q-25 0 -38.5 -19.5t-13.5 -49.5v-206q0 -59 -37.5 -96.5t-87.5 -37.5h-61z" />
    <glyph glyph-name="asciitilde" unicode="~" horiz-adv-x="515" 
d="M439 667l56 -7q-5 -51 -12.5 -89t-22.5 -74t-41 -55t-62 -19q-35 0 -58 19.5t-34.5 47.5t-21 56t-23.5 47.5t-35 19.5q-63 0 -82 -191l-56 7q5 50 13 88.5t23 74.5t41 55t61 19t58.5 -19.5t35 -48t20.5 -56.5t23 -47.5t35 -19.5q65 0 82 192z" />
    <glyph glyph-name="Non-breakingspace" unicode="&#xa0;" horiz-adv-x="20" 
 />
    <glyph glyph-name="exclamdown" unicode="&#xa1;" horiz-adv-x="210" 
d="M89 -184l15 480h62l16 -480h-93zM80 438q0 22 16.5 38.5t38.5 16.5t38.5 -16.5t16.5 -38.5t-16 -38.5t-39 -16.5t-39 16.5t-16 38.5z" />
    <glyph glyph-name="cent" unicode="&#xa2;" horiz-adv-x="505" 
d="M272 -100v91q-92 12 -148.5 81.5t-56.5 169.5q0 98 56.5 167.5t148.5 82.5v73h59v-71q94 -8 154 -83l-50 -46q-40 54 -104 62v-371q63 6 104 62l50 -46q-58 -75 -154 -83v-89h-59zM145 242q0 -70 34 -120t93 -63v364q-59 -13 -93 -62.5t-34 -118.5z" />
    <glyph glyph-name="sterling" unicode="&#xa3;" horiz-adv-x="548" 
d="M39 268v54h106q-28 32 -38.5 45.5t-24.5 46t-14 66.5q0 82 66 139.5t158 57.5q68 0 121 -29.5t81 -82.5l-67 -40q-14 34 -48.5 58t-78.5 24q-59 0 -101 -35t-42 -93q0 -26 9 -50t17.5 -37t28.5 -37.5t26 -32.5h150v-54h-122q7 -23 7 -43q0 -78 -76 -132q25 9 52 9
q33 0 76.5 -20.5t71.5 -20.5q31 0 57 12.5t38 27.5l36 -67q-49 -47 -135 -47q-47 0 -95 23t-84 23q-42 0 -118 -40l-30 62q64 29 98.5 68.5t34.5 84.5q0 30 -15 60h-145z" />
    <glyph glyph-name="currency" unicode="&#xa4;" horiz-adv-x="609" 
d="M319 93q-86 0 -149 47l-75 -76l-47 45l77 77q-45 64 -45 147q0 86 46 147l-79 79l47 46l78 -79q62 46 147 46q86 0 146 -46l78 78l46 -46l-78 -78q47 -63 47 -147q0 -83 -46 -148l77 -76l-46 -45l-77 75q-62 -46 -147 -46zM319 161q75 0 118.5 50.5t43.5 121.5
t-43.5 120.5t-118.5 49.5t-118.5 -50t-43.5 -120q0 -71 43.5 -121.5t118.5 -50.5z" />
    <glyph glyph-name="yen" unicode="&#xa5;" horiz-adv-x="657" 
d="M375 0h-83v122h-250v53h250v107h-250v52h214l-227 333h97l207 -310l207 310h97l-227 -333h215v-52h-250v-107h250v-53h-250v-122z" />
    <glyph glyph-name="brokenbar" unicode="&#xa6;" horiz-adv-x="173" 
d="M153 -20h-55v316h55v-316zM153 371h-55v316h55v-316z" />
    <glyph glyph-name="section" unicode="&#xa7;" horiz-adv-x="458" 
d="M438 315q0 -87 -92 -128q92 -35 92 -121q0 -69 -52 -108t-138 -39q-114 0 -194 78l38 49q60 -72 156 -72q53 0 85 23t32 64q0 34 -31 53.5t-74.5 30t-87.5 23t-75 43t-31 79.5q0 50 32.5 82.5t82.5 45.5q-115 36 -115 123q0 58 48.5 97t131.5 39q117 0 178 -71l-34 -45
q-50 60 -142 60q-48 0 -78.5 -22t-30.5 -58q0 -31 31 -48.5t74.5 -26.5t87.5 -22t75 -45t31 -84zM364 305q0 39 -30.5 59t-82.5 33q-62 -16 -87 -40t-25 -59q0 -26 22 -44.5t41.5 -25t67.5 -18.5q7 -2 11 -3q83 36 83 98z" />
    <glyph glyph-name="dieresis" unicode="&#xa8;" horiz-adv-x="326" 
d="M306 604q0 -19 -14 -33t-33 -14t-33 14t-14 33t14 32.5t33 13.5t33 -13.5t14 -32.5zM99 604q0 -19 -13.5 -33t-32.5 -14t-33 13.5t-14 33.5q0 19 14 32.5t33 13.5t32.5 -13.5t13.5 -32.5z" />
    <glyph glyph-name="copyright" unicode="&#xa9;" horiz-adv-x="774" 
d="M754 334q0 -143 -101 -244t-244 -101t-244 101.5t-101 243.5q0 143 101 244t244 101t244 -101t101 -244zM723 334q0 130 -92 222t-222 92t-222 -92t-92 -222t92 -222t222 -92t222 92t92 222zM532 212l26 -25q-57 -66 -147 -66q-87 0 -147.5 61.5t-60.5 152.5t60.5 152
t147.5 61q90 0 146 -66l-25 -24q-19 26 -52.5 41.5t-68.5 15.5q-70 0 -120.5 -50.5t-50.5 -129.5q0 -77 51 -129t120 -52q36 0 68.5 16t52.5 42z" />
    <glyph glyph-name="ordfeminine" unicode="&#xaa;" horiz-adv-x="357" 
d="M337 326h-57v35q-40 -43 -107 -43q-44 0 -78 28t-34 76q0 49 33.5 76t78.5 27q67 0 107 -42v55q0 30 -23 47.5t-56 17.5q-59 0 -99 -46l-25 37q53 54 131 54q57 0 93 -27t36 -84v-211zM195 356q57 0 85 38v56q-29 38 -85 38q-33 0 -54.5 -18.5t-21.5 -47.5
q0 -30 21.5 -48t54.5 -18z" />
    <glyph glyph-name="guillemotleft" unicode="&#xab;" horiz-adv-x="449" 
d="M429 63h-75l-160 180l160 177h75l-160 -177zM285 63h-75l-160 180l160 177h75l-160 -177z" />
    <glyph glyph-name="logicalnot" unicode="&#xac;" horiz-adv-x="510" 
d="M490 457v-246h-55v193h-386v53h441z" />
    <glyph glyph-name="Softhyphen" unicode="&#xad;" horiz-adv-x="310" 
d="M290 209h-240v66h240v-66z" />
    <glyph glyph-name="registered" unicode="&#xae;" horiz-adv-x="499" 
d="M479 465q0 -88 -62 -150t-150 -62t-150 62t-62 150t62 150t150 62q89 0 150.5 -61.5t61.5 -150.5zM450 465q0 76 -53.5 129.5t-129.5 53.5q-77 0 -130.5 -53.5t-53.5 -129.5t54 -130t130 -54t129.5 54t53.5 130zM365 343h-40l-63 96h-44v-96h-32v243h99q32 0 54.5 -20.5
t22.5 -53.5q0 -35 -22.5 -53.5t-39.5 -18.5zM329 512q0 19 -13.5 32.5t-30.5 13.5h-67v-90h67q16 0 30 13t14 31z" />
    <glyph glyph-name="macron" unicode="&#xaf;" horiz-adv-x="403" 
d="M383 572h-363v48h363v-48z" />
    <glyph glyph-name="degree" unicode="&#xb0;" horiz-adv-x="307" 
d="M287 555q0 -51 -36 -86.5t-87 -35.5q-50 0 -85.5 35.5t-35.5 86.5q0 50 35.5 86t85.5 36q51 0 87 -36t36 -86zM239 555q0 30 -22 52t-53 22q-30 0 -51 -22t-21 -52q0 -31 21 -52.5t51 -21.5q31 0 53 21.5t22 52.5z" />
    <glyph glyph-name="plusminus" unicode="&#xb1;" horiz-adv-x="510" 
d="M490 324h-192v-214h-57v214h-192v52h192v207h57v-207h192v-52zM490 0h-441v52h441v-52z" />
    <glyph glyph-name="Superscripttwo" unicode="&#xb2;" horiz-adv-x="381" 
d="M361 421h-291v45q124 88 176.5 140.5t52.5 98.5q0 36 -25 54.5t-60 18.5q-73 0 -112 -52l-33 38q49 63 147 63q60 0 101.5 -30.5t41.5 -87.5q0 -56 -50 -111.5t-151 -127.5h203v-49z" />
    <glyph glyph-name="Superscriptthree" unicode="&#xb3;" horiz-adv-x="383" 
d="M363 530q0 -52 -41 -84t-110 -32q-103 0 -150 65l32 38q44 -54 116 -54q43 0 68 19t25 51q0 69 -104 69q-34 0 -40 -1v50q7 -1 39 -1q98 0 98 64q0 30 -25.5 47t-63.5 17q-64 0 -109 -49l-31 36q55 62 145 62q64 0 104 -29t40 -78q0 -40 -27 -63.5t-62 -29.5
q34 -3 65 -28t31 -69z" />
    <glyph glyph-name="acute" unicode="&#xb4;" horiz-adv-x="266" 
d="M246 700l-169 -144h-57l148 144h78z" />
    <glyph glyph-name="mu" unicode="&#xb5;" horiz-adv-x="588" 
d="M170 36v-220h-75v667h75v-318q0 -112 110 -112q41 0 80 22t61 53v355h75v-370q0 -58 47 -58q11 0 19 2l6 -65q-22 -4 -40 -4q-88 0 -104 86q-27 -37 -68 -61.5t-85 -24.5q-75 0 -101 48z" />
    <glyph glyph-name="paragraph" unicode="&#xb6;" horiz-adv-x="418" 
d="M398 -100h-45v722h-89v-722h-45v423q-71 0 -121.5 50.5t-50.5 121.5t50.5 121.5t121.5 50.5h179v-767z" />
    <glyph glyph-name="periodcentered" unicode="&#xb7;" horiz-adv-x="210" 
d="M190 244q0 -22 -16.5 -38t-38.5 -16t-38.5 16t-16.5 38t16 38.5t39 16.5t39 -16.5t16 -38.5z" />
    <glyph glyph-name="cedilla" unicode="&#xb8;" horiz-adv-x="245" 
d="M121 -191q-63 0 -101 30l19 38q35 -29 80 -29q25 0 43 11.5t18 30.5q0 35 -37 35q-23 0 -38 -17l-33 19l31 84h45l-26 -66q16 11 37 11q29 0 47.5 -18.5t18.5 -48.5q0 -36 -30 -58t-74 -22z" />
    <glyph glyph-name="Superscriptone" unicode="&#xb9;" horiz-adv-x="215" 
d="M195 421h-60v322l-66 -69l-35 37l108 110h53v-400z" />
    <glyph glyph-name="ordmasculine" unicode="&#xba;" horiz-adv-x="405" 
d="M222 318q-73 0 -117.5 47.5t-44.5 117.5t44.5 117.5t117.5 47.5q74 0 118.5 -47.5t44.5 -117.5t-44.5 -117.5t-118.5 -47.5zM222 366q48 0 76 33t28 84q0 50 -28 82.5t-76 32.5q-47 0 -74.5 -32.5t-27.5 -82.5q0 -51 27.5 -84t74.5 -33z" />
    <glyph glyph-name="guillemotright" unicode="&#xbb;" horiz-adv-x="449" 
d="M285 243l-160 -180h-75l160 180l-160 177h75zM429 243l-160 -180h-75l160 180l-160 177h75z" />
    <glyph glyph-name="onequarter" unicode="&#xbc;" horiz-adv-x="773" 
d="M195 267h-60v322l-66 -69l-35 37l108 110h53v-400zM753 100h-58v-100h-59v100h-196v44l172 256h83v-251h58v-49zM636 149v198l-136 -198h136zM610 667l-427 -667h-55l426 667h56z" />
    <glyph glyph-name="onehalf" unicode="&#xbd;" horiz-adv-x="799" 
d="M195 267h-60v322l-66 -69l-35 37l108 110h53v-400zM779 0h-291v45q124 88 176.5 140.5t52.5 98.5q0 36 -25 54.5t-60 18.5q-73 0 -112 -52l-33 38q49 63 147 63q60 0 101.5 -30.5t41.5 -87.5q0 -56 -50 -111.5t-151 -127.5h203v-49zM610 667l-427 -667h-55l426 667h56z
" />
    <glyph glyph-name="threequarters" unicode="&#xbe;" horiz-adv-x="882" 
d="M862 100h-58v-100h-59v100h-196v44l172 256h83v-251h58v-49zM745 149v198l-136 -198h136zM718 667l-427 -667h-55l426 667h56zM363 376q0 -52 -41 -84t-110 -32q-103 0 -150 65l32 38q44 -54 116 -54q43 0 68 19t25 51q0 69 -104 69q-34 0 -40 -1v50q7 -1 39 -1
q98 0 98 64q0 30 -25.5 47t-63.5 17q-64 0 -109 -49l-31 36q55 62 145 62q64 0 104 -29t40 -78q0 -40 -27 -63.5t-62 -29.5q34 -3 65 -28t31 -69z" />
    <glyph glyph-name="questiondown" unicode="&#xbf;" horiz-adv-x="483" 
d="M278 296q39 -35 39 -82q0 -35 -18.5 -63t-45 -47.5t-53 -37.5t-45 -42.5t-18.5 -53.5q0 -39 30.5 -65.5t86.5 -26.5q99 0 160 81l49 -53q-78 -102 -216 -102q-89 0 -142.5 44.5t-53.5 110.5q0 42 20 75.5t48.5 54.5t56.5 40t48 42t20 50q0 28 -26 48zM258 493
q22 0 38.5 -16.5t16.5 -39.5q0 -22 -16.5 -38t-38.5 -16t-38.5 16t-16.5 38q0 23 16.5 39.5t38.5 16.5z" />
    <glyph glyph-name="Agrave" unicode="&#xc0;" horiz-adv-x="689" 
d="M669 0h-95l-59 148h-332l-59 -148h-95l268 667h103zM490 222l-141 359l-142 -359h283zM406 723h-57l-169 144h78z" />
    <glyph glyph-name="Aacute" unicode="&#xc1;" horiz-adv-x="689" 
d="M669 0h-95l-59 148h-332l-59 -148h-95l268 667h103zM490 222l-141 359l-142 -359h283zM518 867l-169 -144h-57l148 144h78z" />
    <glyph glyph-name="Acircumflex" unicode="&#xc2;" horiz-adv-x="689" 
d="M483 723h-51l-83 106l-80 -106h-51l95 144h72zM669 0h-95l-59 148h-332l-59 -148h-95l268 667h103zM490 222l-141 359l-142 -359h283z" />
    <glyph glyph-name="Atilde" unicode="&#xc3;" horiz-adv-x="689" 
d="M669 0h-95l-59 148h-332l-59 -148h-95l268 667h103zM490 222l-141 359l-142 -359h283zM409 721q-25 0 -43.5 14.5t-27.5 31.5t-22.5 31.5t-29.5 14.5q-21 0 -34.5 -21.5t-13.5 -64.5h-45q0 60 25.5 97t71.5 37q24 0 42.5 -14.5t28 -31.5t23 -31.5t29.5 -14.5
q21 0 34.5 21.5t13.5 64.5h45q0 -60 -25.5 -97t-71.5 -37z" />
    <glyph glyph-name="Adieresis" unicode="&#xc4;" horiz-adv-x="689" 
d="M500 771q0 -19 -14 -33t-33 -14t-33 14t-14 33t14 32.5t33 13.5t33 -13.5t14 -32.5zM293 771q0 -19 -13.5 -33t-32.5 -14t-33 14t-14 33t14 32.5t33 13.5t32.5 -13.5t13.5 -32.5zM669 0h-95l-59 148h-332l-59 -148h-95l268 667h103zM490 222l-141 359l-142 -359h283z" />
    <glyph glyph-name="Aring" unicode="&#xc5;" horiz-adv-x="689" 
d="M669 0h-95l-59 148h-332l-59 -148h-95l268 667h103zM490 222l-141 359l-142 -359h283zM349 690q-41 0 -69.5 29t-28.5 69q0 41 29 70t69 29t69 -29t29 -70q0 -40 -28.5 -69t-69.5 -29zM349 729q24 0 41 17.5t17 41.5q0 25 -16.5 42t-41.5 17q-24 0 -41 -17t-17 -42
q0 -24 17 -41.5t41 -17.5z" />
    <glyph glyph-name="AE" unicode="&#xc6;" horiz-adv-x="933" 
d="M913 0h-437v148h-263l-91 -148h-95l416 667h470v-74h-354v-215h347v-74h-347v-230h354v-74zM476 222v359l-222 -359h222z" />
    <glyph glyph-name="Ccedilla" unicode="&#xc7;" horiz-adv-x="688" 
d="M408 -187q-64 0 -101 30l19 38q35 -29 80 -29q25 0 43 11.5t18 30.5q0 35 -37 35q-23 0 -38 -17l-33 19l21 59q-134 11 -221.5 105.5t-87.5 237.5q0 152 98.5 248.5t244.5 96.5q160 0 253 -132l-70 -39q-29 43 -78 70t-105 27q-110 0 -183.5 -76.5t-73.5 -194.5
t73.5 -194.5t183.5 -76.5q56 0 105 26.5t78 70.5l71 -39q-95 -128 -244 -132l-15 -39q16 11 37 11q29 0 47.5 -18.5t18.5 -48.5q0 -36 -30 -58t-74 -22z" />
    <glyph glyph-name="Egrave" unicode="&#xc8;" horiz-adv-x="555" 
d="M535 0h-437v667h437v-74h-354v-215h347v-74h-347v-230h354v-74zM373 723h-57l-169 144h78z" />
    <glyph glyph-name="Eacute" unicode="&#xc9;" horiz-adv-x="555" 
d="M485 867l-169 -144h-57l148 144h78zM535 0h-437v667h437v-74h-354v-215h347v-74h-347v-230h354v-74z" />
    <glyph glyph-name="Ecircumflex" unicode="&#xca;" horiz-adv-x="555" 
d="M448 723h-51l-83 106l-80 -106h-51l95 144h72zM535 0h-437v667h437v-74h-354v-215h347v-74h-347v-230h354v-74z" />
    <glyph glyph-name="Edieresis" unicode="&#xcb;" horiz-adv-x="555" 
d="M466 771q0 -19 -14 -33t-33 -14t-33 14t-14 33t14 32.5t33 13.5t33 -13.5t14 -32.5zM259 771q0 -19 -13.5 -33t-32.5 -14t-33 14t-14 33t14 32.5t33 13.5t32.5 -13.5t13.5 -32.5zM535 0h-437v667h437v-74h-354v-215h347v-74h-347v-230h354v-74z" />
    <glyph glyph-name="Igrave" unicode="&#xcc;" horiz-adv-x="216" 
d="M181 0h-83v667h83v-667zM196 723h-57l-169 144h78z" />
    <glyph glyph-name="Iacute" unicode="&#xcd;" horiz-adv-x="329" 
d="M181 0h-83v667h83v-667zM309 867l-169 -144h-57l148 144h78z" />
    <glyph glyph-name="Icircumflex" unicode="&#xce;" horiz-adv-x="293" 
d="M273 723h-51l-83 106l-80 -106h-51l95 144h72zM181 0h-83v667h83v-667z" />
    <glyph glyph-name="Idieresis" unicode="&#xcf;" horiz-adv-x="310" 
d="M290 771q0 -19 -14 -33t-33 -14t-33 14t-14 33t14 32.5t33 13.5t33 -13.5t14 -32.5zM83 771q0 -19 -13.5 -33t-32.5 -14t-33 14t-14 33t14 32.5t33 13.5t32.5 -13.5t13.5 -32.5zM181 0h-83v667h83v-667z" />
    <glyph glyph-name="Eth" unicode="&#xd0;" horiz-adv-x="716" 
d="M354 0h-228v299h-96v61h96v307h228q153 0 247.5 -95t94.5 -239q0 -145 -94.5 -239t-247.5 -94zM354 74q118 0 187 74t69 185q0 112 -68 186t-188 74h-145v-233h169v-61h-169v-225h145z" />
    <glyph glyph-name="Ntilde" unicode="&#xd1;" horiz-adv-x="670" 
d="M432 721q-25 0 -43.5 14.5t-27.5 31.5t-22.5 31.5t-29.5 14.5q-21 0 -34.5 -21.5t-13.5 -64.5h-45q0 60 25.5 97t71.5 37q24 0 42.5 -14.5t28 -31.5t23 -31.5t29.5 -14.5q21 0 34.5 21.5t13.5 64.5h45q0 -60 -25.5 -97t-71.5 -37zM650 0h-80l-389 532v-532h-83v667h85
l384 -521v521h83v-667z" />
    <glyph glyph-name="Ograve" unicode="&#xd2;" horiz-adv-x="753" 
d="M460 723h-57l-169 144h78zM402 -12q-147 0 -239 98t-92 247t92 247t239 98q146 0 238.5 -98t92.5 -247t-92.5 -247t-238.5 -98zM402 62q110 0 177.5 76.5t67.5 194.5q0 119 -67.5 195t-177.5 76q-111 0 -178 -76t-67 -195q0 -118 67 -194.5t178 -76.5z" />
    <glyph glyph-name="Oacute" unicode="&#xd3;" horiz-adv-x="753" 
d="M572 867l-169 -144h-57l148 144h78zM402 -12q-147 0 -239 98t-92 247t92 247t239 98q146 0 238.5 -98t92.5 -247t-92.5 -247t-238.5 -98zM402 62q110 0 177.5 76.5t67.5 194.5q0 119 -67.5 195t-177.5 76q-111 0 -178 -76t-67 -195q0 -118 67 -194.5t178 -76.5z" />
    <glyph glyph-name="Ocircumflex" unicode="&#xd4;" horiz-adv-x="753" 
d="M537 723h-51l-83 106l-80 -106h-51l95 144h72zM402 -12q-147 0 -239 98t-92 247t92 247t239 98q146 0 238.5 -98t92.5 -247t-92.5 -247t-238.5 -98zM402 62q110 0 177.5 76.5t67.5 194.5q0 119 -67.5 195t-177.5 76q-111 0 -178 -76t-67 -195q0 -118 67 -194.5t178 -76.5
z" />
    <glyph glyph-name="Otilde" unicode="&#xd5;" horiz-adv-x="753" 
d="M402 -12q-147 0 -239 98t-92 247t92 247t239 98q146 0 238.5 -98t92.5 -247t-92.5 -247t-238.5 -98zM402 62q110 0 177.5 76.5t67.5 194.5q0 119 -67.5 195t-177.5 76q-111 0 -178 -76t-67 -195q0 -118 67 -194.5t178 -76.5zM462 721q-25 0 -43.5 14.5t-27.5 31.5
t-22.5 31.5t-29.5 14.5q-21 0 -34.5 -21.5t-13.5 -64.5h-45q0 60 25.5 97t71.5 37q24 0 42.5 -14.5t28 -31.5t23 -31.5t29.5 -14.5q21 0 34.5 21.5t13.5 64.5h45q0 -60 -25.5 -97t-71.5 -37z" />
    <glyph glyph-name="Odieresis" unicode="&#xd6;" horiz-adv-x="753" 
d="M552 771q0 -19 -14 -33t-33 -14t-33 14t-14 33t14 32.5t33 13.5t33 -13.5t14 -32.5zM345 771q0 -19 -13.5 -33t-32.5 -14t-33 14t-14 33t14 32.5t33 13.5t32.5 -13.5t13.5 -32.5zM402 -12q-147 0 -239 98t-92 247t92 247t239 98q146 0 238.5 -98t92.5 -247t-92.5 -247
t-238.5 -98zM402 62q110 0 177.5 76.5t67.5 194.5q0 119 -67.5 195t-177.5 76q-111 0 -178 -76t-67 -195q0 -118 67 -194.5t178 -76.5z" />
    <glyph glyph-name="multiply" unicode="&#xd7;" horiz-adv-x="475" 
d="M418 148l-149 149l-148 -149l-37 37l148 149l-148 148l37 38l148 -149l149 149l37 -38l-148 -148l148 -149z" />
    <glyph glyph-name="Oslash" unicode="&#xd8;" horiz-adv-x="753" 
d="M402 -12q-97 0 -173 45l-22 -33h-66l44 65q-114 98 -114 268q0 149 92 247t239 98q92 0 167 -42l21 31h66l-42 -62q57 -47 88 -117.5t31 -154.5q0 -149 -92.5 -247t-238.5 -98zM402 62q110 0 177.5 76.5t67.5 194.5q0 130 -78 205l-297 -441q55 -35 130 -35zM157 333
q0 -126 73 -201l296 440q-56 32 -124 32q-111 0 -178 -76t-67 -195z" />
    <glyph glyph-name="Ugrave" unicode="&#xd9;" horiz-adv-x="662" 
d="M370 -12q-133 0 -202.5 72.5t-69.5 198.5v408h83v-406q0 -93 49 -146t140 -53t140 53t49 146v406h83v-407q0 -127 -69.5 -199.5t-202.5 -72.5zM427 723h-57l-169 144h78z" />
    <glyph glyph-name="Uacute" unicode="&#xda;" horiz-adv-x="662" 
d="M539 867l-169 -144h-57l148 144h78zM370 -12q-133 0 -202.5 72.5t-69.5 198.5v408h83v-406q0 -93 49 -146t140 -53t140 53t49 146v406h83v-407q0 -127 -69.5 -199.5t-202.5 -72.5z" />
    <glyph glyph-name="Ucircumflex" unicode="&#xdb;" horiz-adv-x="662" 
d="M505 723h-51l-83 106l-80 -106h-51l95 144h72zM370 -12q-133 0 -202.5 72.5t-69.5 198.5v408h83v-406q0 -93 49 -146t140 -53t140 53t49 146v406h83v-407q0 -127 -69.5 -199.5t-202.5 -72.5z" />
    <glyph glyph-name="Udieresis" unicode="&#xdc;" horiz-adv-x="662" 
d="M521 771q0 -19 -14 -33t-33 -14t-33 14t-14 33t14 32.5t33 13.5t33 -13.5t14 -32.5zM314 771q0 -19 -13.5 -33t-32.5 -14q-20 0 -33.5 14t-13.5 33t14 32.5t33 13.5t32.5 -13.5t13.5 -32.5zM370 -12q-133 0 -202.5 72.5t-69.5 198.5v408h83v-406q0 -93 49 -146t140 -53
t140 53t49 146v406h83v-407q0 -127 -69.5 -199.5t-202.5 -72.5z" />
    <glyph glyph-name="Yacute" unicode="&#xdd;" horiz-adv-x="657" 
d="M375 0h-83v282l-263 385h97l207 -310l207 310h97l-262 -385v-282zM502 867l-169 -144h-57l148 144h78z" />
    <glyph glyph-name="Thorn" unicode="&#xde;" horiz-adv-x="595" 
d="M181 0h-83v667h83v-119h185q97 0 153 -58t56 -144q0 -85 -56.5 -142.5t-152.5 -57.5h-185v-146zM356 220q59 0 96 35t37 91t-37 92t-96 36h-175v-254h175z" />
    <glyph glyph-name="germandbls" unicode="&#xdf;" horiz-adv-x="618" 
d="M598 135q0 -62 -48.5 -104.5t-137.5 -42.5q-66 0 -107.5 20t-78.5 58l38 52q23 -30 61.5 -49.5t86.5 -19.5q54 0 83.5 24.5t29.5 59.5q0 32 -29.5 50.5t-71.5 28.5t-84.5 22.5t-72 43t-29.5 78.5q0 37 23 66t50 44t50 35t23 41q0 32 -30 50t-69 18q-49 0 -82 -30.5
t-33 -80.5v-499h-75v499q0 75 52.5 126.5t138.5 51.5q72 0 123.5 -34.5t51.5 -91.5q0 -37 -23.5 -65t-51.5 -42.5t-51.5 -37t-23.5 -49.5q0 -28 29.5 -44.5t71.5 -25.5t84.5 -22t72 -45.5t29.5 -84.5z" />
    <glyph glyph-name="agrave" unicode="&#xe0;" horiz-adv-x="492" 
d="M472 0h-75v55q-61 -67 -160 -67q-67 0 -118 43t-51 117q0 76 50.5 117.5t118.5 41.5q103 0 160 -66v87q0 48 -34 75t-88 27q-85 0 -148 -67l-35 52q77 80 193 80q83 0 135 -40t52 -123v-332zM264 42q90 0 133 60v91q-43 60 -133 60q-52 0 -85.5 -29.5t-33.5 -76.5
q0 -46 33.5 -75.5t85.5 -29.5zM342 556h-57l-169 144h78z" />
    <glyph glyph-name="aacute" unicode="&#xe1;" horiz-adv-x="492" 
d="M472 0h-75v55q-61 -67 -160 -67q-67 0 -118 43t-51 117q0 76 50.5 117.5t118.5 41.5q103 0 160 -66v87q0 48 -34 75t-88 27q-85 0 -148 -67l-35 52q77 80 193 80q83 0 135 -40t52 -123v-332zM264 42q90 0 133 60v91q-43 60 -133 60q-52 0 -85.5 -29.5t-33.5 -76.5
q0 -46 33.5 -75.5t85.5 -29.5zM454 700l-169 -144h-57l148 144h78z" />
    <glyph glyph-name="acircumflex" unicode="&#xe2;" horiz-adv-x="492" 
d="M472 0h-75v55q-61 -67 -160 -67q-67 0 -118 43t-51 117q0 76 50.5 117.5t118.5 41.5q103 0 160 -66v87q0 48 -34 75t-88 27q-85 0 -148 -67l-35 52q77 80 193 80q83 0 135 -40t52 -123v-332zM264 42q90 0 133 60v91q-43 60 -133 60q-52 0 -85.5 -29.5t-33.5 -76.5
q0 -46 33.5 -75.5t85.5 -29.5zM418 556h-51l-83 106l-80 -106h-51l95 144h72z" />
    <glyph glyph-name="atilde" unicode="&#xe3;" horiz-adv-x="492" 
d="M472 0h-75v55q-61 -67 -160 -67q-67 0 -118 43t-51 117q0 76 50.5 117.5t118.5 41.5q103 0 160 -66v87q0 48 -34 75t-88 27q-85 0 -148 -67l-35 52q77 80 193 80q83 0 135 -40t52 -123v-332zM264 42q90 0 133 60v91q-43 60 -133 60q-52 0 -85.5 -29.5t-33.5 -76.5
q0 -46 33.5 -75.5t85.5 -29.5zM345 554q-25 0 -43.5 14.5t-27.5 31.5t-22.5 31.5t-29.5 14.5q-21 0 -34.5 -21.5t-13.5 -64.5h-45q0 60 25.5 97t71.5 37q24 0 42.5 -14.5t28 -31.5t23 -31.5t29.5 -14.5q21 0 34.5 21.5t13.5 64.5h45q0 -60 -25.5 -97t-71.5 -37z" />
    <glyph glyph-name="adieresis" unicode="&#xe4;" horiz-adv-x="492" 
d="M472 0h-75v55q-61 -67 -160 -67q-67 0 -118 43t-51 117q0 76 50.5 117.5t118.5 41.5q103 0 160 -66v87q0 48 -34 75t-88 27q-85 0 -148 -67l-35 52q77 80 193 80q83 0 135 -40t52 -123v-332zM264 42q90 0 133 60v91q-43 60 -133 60q-52 0 -85.5 -29.5t-33.5 -76.5
q0 -46 33.5 -75.5t85.5 -29.5zM435 604q0 -19 -14 -33t-33 -14t-33 14t-14 33t14 32.5t33 13.5t33 -13.5t14 -32.5zM228 604q0 -19 -13.5 -33t-32.5 -14q-20 0 -33.5 13.5t-13.5 33.5q0 19 14 32.5t33 13.5t32.5 -13.5t13.5 -32.5z" />
    <glyph glyph-name="aring" unicode="&#xe5;" horiz-adv-x="492" 
d="M472 0h-75v55q-61 -67 -160 -67q-67 0 -118 43t-51 117q0 76 50.5 117.5t118.5 41.5q103 0 160 -66v87q0 48 -34 75t-88 27q-85 0 -148 -67l-35 52q77 80 193 80q83 0 135 -40t52 -123v-332zM264 42q90 0 133 60v91q-43 60 -133 60q-52 0 -85.5 -29.5t-33.5 -76.5
q0 -46 33.5 -75.5t85.5 -29.5zM285 543q-41 0 -69.5 28.5t-28.5 69.5t29 70t69 29t69 -29t29 -70t-28.5 -69.5t-69.5 -28.5zM285 582q24 0 41 17.5t17 41.5q0 25 -16.5 42t-41.5 17q-24 0 -41 -17t-17 -42q0 -24 17 -41.5t41 -17.5z" />
    <glyph glyph-name="ae" unicode="&#xe6;" horiz-adv-x="883" 
d="M863 217h-367q5 -71 48 -118t113 -47q84 0 139 61l36 -51q-72 -74 -178 -74q-136 0 -193 116q-26 -52 -79.5 -84t-119.5 -32q-82 0 -138 42.5t-56 117.5t51.5 117t126.5 42q112 0 175 -64v86q0 47 -36.5 74t-96.5 27q-94 0 -161 -67l-35 52q79 80 205 80q64 0 111 -26
t60 -79q60 105 179 105q101 0 158.5 -73t57.5 -186v-19zM496 272h293q-1 63 -38 112t-109 49q-66 0 -104.5 -49.5t-41.5 -111.5zM421 180v12q-52 61 -145 61q-59 0 -95 -27.5t-36 -73.5q0 -45 36 -72.5t95 -27.5q62 0 103.5 39t41.5 89z" />
    <glyph glyph-name="ccedilla" unicode="&#xe7;" horiz-adv-x="505" 
d="M309 -189q-63 0 -101 30l19 38q35 -29 80 -29q25 0 43 11.5t18 30.5q0 35 -37 35q-23 0 -38 -17l-33 19l22 61q-96 9 -155.5 79t-59.5 173q0 109 67 181t174 72q112 0 177 -84l-50 -46q-46 63 -123 63q-76 0 -121.5 -52t-45.5 -134t45.5 -134.5t121.5 -52.5t123 63
l50 -46q-60 -77 -159 -83l-16 -42q16 11 37 11q29 0 47.5 -18.5t18.5 -48.5q0 -36 -30 -58t-74 -22z" />
    <glyph glyph-name="egrave" unicode="&#xe8;" horiz-adv-x="557" 
d="M313 -12q-108 0 -177 70.5t-69 183.5q0 106 68 179.5t170 73.5q107 0 169.5 -73.5t62.5 -185.5v-19h-391q5 -71 52 -119t122 -48q90 0 149 61l36 -49q-74 -74 -192 -74zM463 272q-1 62 -42 111.5t-117 49.5q-72 0 -113.5 -49t-44.5 -112h317zM362 556h-57l-169 144h78z
" />
    <glyph glyph-name="eacute" unicode="&#xe9;" horiz-adv-x="557" 
d="M474 700l-169 -144h-57l148 144h78zM313 -12q-108 0 -177 70.5t-69 183.5q0 106 68 179.5t170 73.5q107 0 169.5 -73.5t62.5 -185.5v-19h-391q5 -71 52 -119t122 -48q90 0 149 61l36 -49q-74 -74 -192 -74zM463 272q-1 62 -42 111.5t-117 49.5q-72 0 -113.5 -49
t-44.5 -112h317z" />
    <glyph glyph-name="ecircumflex" unicode="&#xea;" horiz-adv-x="557" 
d="M439 556h-51l-83 106l-80 -106h-51l95 144h72zM313 -12q-108 0 -177 70.5t-69 183.5q0 106 68 179.5t170 73.5q107 0 169.5 -73.5t62.5 -185.5v-19h-391q5 -71 52 -119t122 -48q90 0 149 61l36 -49q-74 -74 -192 -74zM463 272q-1 62 -42 111.5t-117 49.5
q-72 0 -113.5 -49t-44.5 -112h317z" />
    <glyph glyph-name="edieresis" unicode="&#xeb;" horiz-adv-x="557" 
d="M456 604q0 -19 -14 -33t-33 -14t-33 14t-14 33t14 32.5t33 13.5t33 -13.5t14 -32.5zM249 604q0 -19 -13.5 -33t-32.5 -14t-33 13.5t-14 33.5q0 19 14 32.5t33 13.5t32.5 -13.5t13.5 -32.5zM313 -12q-108 0 -177 70.5t-69 183.5q0 106 68 179.5t170 73.5
q107 0 169.5 -73.5t62.5 -185.5v-19h-391q5 -71 52 -119t122 -48q90 0 149 61l36 -49q-74 -74 -192 -74zM463 272q-1 62 -42 111.5t-117 49.5q-72 0 -113.5 -49t-44.5 -112h317z" />
    <glyph glyph-name="igrave" unicode="&#xec;" horiz-adv-x="209" 
d="M170 0h-75v483h75v-483zM189 556h-57l-169 144h78z" />
    <glyph glyph-name="iacute" unicode="&#xed;" horiz-adv-x="322" 
d="M302 700l-169 -144h-57l148 144h78zM170 0h-75v483h75v-483z" />
    <glyph glyph-name="icircumflex" unicode="&#xee;" horiz-adv-x="285" 
d="M265 556h-51l-83 106l-80 -106h-51l95 144h72zM170 0h-75v483h75v-483z" />
    <glyph glyph-name="idieresis" unicode="&#xef;" horiz-adv-x="303" 
d="M283 604q0 -19 -14 -33t-33 -14t-33 14t-14 33t14 32.5t33 13.5t33 -13.5t14 -32.5zM76 604q0 -19 -13.5 -33t-32.5 -14q-20 0 -33.5 13.5t-13.5 33.5q0 19 14 32.5t33 13.5t32.5 -13.5t13.5 -32.5zM170 0h-75v483h75v-483z" />
    <glyph glyph-name="eth" unicode="&#xf0;" horiz-adv-x="565" 
d="M142 497l-18 42l118 52l-75 48l41 62q67 -41 112 -76l108 48l17 -41l-86 -38q186 -158 186 -347q0 -114 -65 -186.5t-174 -72.5q-107 0 -173 70t-66 176t62 175.5t158 69.5t158 -89q-49 88 -160 170zM306 55q74 0 117 52t43 127q0 74 -43 126t-117 52t-117.5 -52
t-43.5 -126q0 -75 43.5 -127t117.5 -52z" />
    <glyph glyph-name="ntilde" unicode="&#xf1;" 
d="M496 0h-75v316q0 61 -28 86.5t-80 25.5q-42 0 -81.5 -22t-61.5 -53v-353h-75v483h75v-70q28 33 75 57.5t97 24.5q154 0 154 -156v-339zM356 554q-25 0 -43.5 14.5t-27.5 31.5t-22.5 31.5t-29.5 14.5q-21 0 -34.5 -21.5t-13.5 -64.5h-45q0 60 25.5 97t71.5 37
q24 0 42.5 -14.5t28 -31.5t23 -31.5t29.5 -14.5q21 0 34.5 21.5t13.5 64.5h45q0 -60 -25.5 -97t-71.5 -37z" />
    <glyph glyph-name="ograve" unicode="&#xf2;" horiz-adv-x="565" 
d="M306 -12q-108 0 -173.5 73t-65.5 181t65.5 180.5t173.5 72.5t173.5 -72.5t65.5 -180.5t-65.5 -181t-173.5 -73zM306 55q74 0 117 54.5t43 132.5t-43 132t-117 54t-117.5 -54.5t-43.5 -131.5q0 -78 43.5 -132.5t117.5 -54.5zM363 556h-57l-169 144h78z" />
    <glyph glyph-name="oacute" unicode="&#xf3;" horiz-adv-x="565" 
d="M475 700l-169 -144h-57l148 144h78zM306 -12q-108 0 -173.5 73t-65.5 181t65.5 180.5t173.5 72.5t173.5 -72.5t65.5 -180.5t-65.5 -181t-173.5 -73zM306 55q74 0 117 54.5t43 132.5t-43 132t-117 54t-117.5 -54.5t-43.5 -131.5q0 -78 43.5 -132.5t117.5 -54.5z" />
    <glyph glyph-name="ocircumflex" unicode="&#xf4;" horiz-adv-x="565" 
d="M439 556h-51l-83 106l-80 -106h-51l95 144h72zM306 -12q-108 0 -173.5 73t-65.5 181t65.5 180.5t173.5 72.5t173.5 -72.5t65.5 -180.5t-65.5 -181t-173.5 -73zM306 55q74 0 117 54.5t43 132.5t-43 132t-117 54t-117.5 -54.5t-43.5 -131.5q0 -78 43.5 -132.5t117.5 -54.5z
" />
    <glyph glyph-name="otilde" unicode="&#xf5;" horiz-adv-x="565" 
d="M306 -12q-108 0 -173.5 73t-65.5 181t65.5 180.5t173.5 72.5t173.5 -72.5t65.5 -180.5t-65.5 -181t-173.5 -73zM306 55q74 0 117 54.5t43 132.5t-43 132t-117 54t-117.5 -54.5t-43.5 -131.5q0 -78 43.5 -132.5t117.5 -54.5zM366 554q-25 0 -43.5 14.5t-27.5 31.5
t-22.5 31.5t-29.5 14.5q-21 0 -34.5 -21.5t-13.5 -64.5h-45q0 60 25.5 97t71.5 37q24 0 42.5 -14.5t28 -31.5t23 -31.5t29.5 -14.5q21 0 34.5 21.5t13.5 64.5h45q0 -60 -25.5 -97t-71.5 -37z" />
    <glyph glyph-name="odieresis" unicode="&#xf6;" horiz-adv-x="565" 
d="M456 604q0 -19 -14 -33t-33 -14t-33 14t-14 33t14 32.5t33 13.5t33 -13.5t14 -32.5zM249 604q0 -19 -13.5 -33t-32.5 -14t-33 13.5t-14 33.5q0 19 14 32.5t33 13.5t32.5 -13.5t13.5 -32.5zM306 -12q-108 0 -173.5 73t-65.5 181t65.5 180.5t173.5 72.5t173.5 -72.5
t65.5 -180.5t-65.5 -181t-173.5 -73zM306 55q74 0 117 54.5t43 132.5t-43 132t-117 54t-117.5 -54.5t-43.5 -131.5q0 -78 43.5 -132.5t117.5 -54.5z" />
    <glyph glyph-name="divide" unicode="&#xf7;" horiz-adv-x="522" 
d="M322 526q0 -19 -14 -32.5t-33 -13.5t-32 13.5t-13 32.5t13 32.5t32 13.5q20 0 33.5 -13.5t13.5 -32.5zM502 311h-453v52h453v-52zM322 144q0 -19 -14 -32.5t-33 -13.5t-32 13.5t-13 32.5t13 32.5t32 13.5t33 -13.5t14 -32.5z" />
    <glyph glyph-name="oslash" unicode="&#xf8;" horiz-adv-x="565" 
d="M138 0h-54l48 61q-65 71 -65 181q0 108 65.5 180.5t173.5 72.5q79 0 137 -41l23 29h54l-45 -57q70 -72 70 -184q0 -108 -65.5 -181t-173.5 -73q-83 0 -142 45zM306 55q74 0 117 54.5t43 132.5q0 73 -38 125l-220 -278q42 -34 98 -34zM145 242q0 -70 34 -121l219 277
q-38 30 -92 30q-74 0 -117.5 -54.5t-43.5 -131.5z" />
    <glyph glyph-name="ugrave" unicode="&#xf9;" 
d="M496 0h-75v68q-30 -34 -75.5 -57t-96.5 -23q-154 0 -154 154v341h75v-318q0 -60 27.5 -85t80.5 -25q42 0 81.5 21t61.5 52v355h75v-483zM352 556h-57l-169 144h78z" />
    <glyph glyph-name="uacute" unicode="&#xfa;" 
d="M464 700l-169 -144h-57l148 144h78zM496 0h-75v68q-30 -34 -75.5 -57t-96.5 -23q-154 0 -154 154v341h75v-318q0 -60 27.5 -85t80.5 -25q42 0 81.5 21t61.5 52v355h75v-483z" />
    <glyph glyph-name="ucircumflex" unicode="&#xfb;" 
d="M428 556h-51l-83 106l-80 -106h-51l95 144h72zM496 0h-75v68q-30 -34 -75.5 -57t-96.5 -23q-154 0 -154 154v341h75v-318q0 -60 27.5 -85t80.5 -25q42 0 81.5 21t61.5 52v355h75v-483z" />
    <glyph glyph-name="udieresis" unicode="&#xfc;" 
d="M447 604q0 -19 -14 -33t-33 -14t-33 14t-14 33t14 32.5t33 13.5t33 -13.5t14 -32.5zM240 604q0 -19 -13.5 -33t-32.5 -14q-20 0 -33.5 13.5t-13.5 33.5q0 19 14 32.5t33 13.5t32.5 -13.5t13.5 -32.5zM496 0h-75v68q-30 -34 -75.5 -57t-96.5 -23q-154 0 -154 154v341h75
v-318q0 -60 27.5 -85t80.5 -25q42 0 81.5 21t61.5 52v355h75v-483z" />
    <glyph glyph-name="yacute" unicode="&#xfd;" horiz-adv-x="527" 
d="M68 -189l12 68q18 -8 41 -8q26 0 43 11t29 40l32 73l-202 488h81l161 -396l160 396h82l-242 -581q-40 -96 -142 -98q-31 0 -55 7zM434 700l-169 -144h-57l148 144h78z" />
    <glyph glyph-name="thorn" unicode="&#xfe;" horiz-adv-x="568" 
d="M333 -12q-102 0 -163 85v-257h-75v851h75v-256q27 38 70 61t93 23q96 0 155.5 -68.5t59.5 -184.5t-59.5 -185t-155.5 -69zM314 55q71 0 113 52.5t42 134.5t-42 134t-113 52q-43 0 -83.5 -22.5t-60.5 -54.5v-218q20 -33 60.5 -55.5t83.5 -22.5z" />
    <glyph glyph-name="ydieresis" unicode="&#xff;" horiz-adv-x="527" 
d="M68 -189l12 68q18 -8 41 -8q26 0 43 11t29 40l32 73l-202 488h81l161 -396l160 396h82l-242 -581q-40 -96 -142 -98q-31 0 -55 7zM415 604q0 -19 -14 -33t-33 -14t-33 14t-14 33t14 32.5t33 13.5t33 -13.5t14 -32.5zM208 604q0 -19 -13.5 -33t-32.5 -14q-20 0 -33.5 13.5
t-13.5 33.5q0 19 14 32.5t33 13.5t32.5 -13.5t13.5 -32.5z" />
    <glyph glyph-name="Amacron" unicode="&#x100;" horiz-adv-x="689" 
d="M669 0h-95l-59 148h-332l-59 -148h-95l268 667h103zM490 222l-141 359l-142 -359h283zM530 739h-363v48h363v-48z" />
    <glyph glyph-name="amacron" unicode="&#x101;" horiz-adv-x="492" 
d="M472 0h-75v55q-61 -67 -160 -67q-67 0 -118 43t-51 117q0 76 50.5 117.5t118.5 41.5q103 0 160 -66v87q0 48 -34 75t-88 27q-85 0 -148 -67l-35 52q77 80 193 80q83 0 135 -40t52 -123v-332zM264 42q90 0 133 60v91q-43 60 -133 60q-52 0 -85.5 -29.5t-33.5 -76.5
q0 -46 33.5 -75.5t85.5 -29.5zM465 572h-363v48h363v-48z" />
    <glyph glyph-name="Abreve" unicode="&#x102;" horiz-adv-x="689" 
d="M669 0h-95l-59 148h-332l-59 -148h-95l268 667h103zM490 222l-141 359l-142 -359h283zM524 793q-65 -88 -175 -88q-109 0 -176 88l37 32q52 -72 139 -72q88 0 138 72z" />
    <glyph glyph-name="abreve" unicode="&#x103;" horiz-adv-x="492" 
d="M472 0h-75v55q-61 -67 -160 -67q-67 0 -118 43t-51 117q0 76 50.5 117.5t118.5 41.5q103 0 160 -66v87q0 48 -34 75t-88 27q-85 0 -148 -67l-35 52q77 80 193 80q83 0 135 -40t52 -123v-332zM264 42q90 0 133 60v91q-43 60 -133 60q-52 0 -85.5 -29.5t-33.5 -76.5
q0 -46 33.5 -75.5t85.5 -29.5zM459 626q-65 -88 -175 -88q-109 0 -176 88l37 32q52 -72 139 -72q88 0 138 72z" />
    <glyph glyph-name="Aogonek" unicode="&#x104;" horiz-adv-x="746" 
d="M689 -105l37 -21q-26 -60 -89 -60q-38 0 -63.5 22t-25.5 65q0 57 53 99h-27l-59 148h-332l-59 -148h-95l268 667h103l269 -667q-76 -38 -76 -97q0 -50 44 -50q38 0 52 42zM490 222l-141 359l-142 -359h283z" />
    <glyph glyph-name="aogonek" unicode="&#x105;" horiz-adv-x="549" 
d="M492 -105l37 -21q-26 -60 -89 -60q-38 0 -63.5 22t-25.5 65q0 57 53 99h-7v55q-61 -67 -160 -67q-67 0 -118 43t-51 117q0 76 50.5 117.5t118.5 41.5q103 0 160 -66v87q0 48 -34 75t-88 27q-85 0 -148 -67l-35 52q77 80 193 80q83 0 135 -40t52 -123v-332
q-76 -38 -76 -97q0 -50 44 -50q38 0 52 42zM264 42q90 0 133 60v91q-43 60 -133 60q-52 0 -85.5 -29.5t-33.5 -76.5q0 -46 33.5 -75.5t85.5 -29.5z" />
    <glyph glyph-name="Cacute" unicode="&#x106;" horiz-adv-x="688" 
d="M583 867l-169 -144h-57l148 144h78zM414 -12q-146 0 -244.5 96.5t-98.5 248.5t98.5 248.5t244.5 96.5q160 0 253 -132l-70 -39q-29 43 -78 70t-105 27q-110 0 -183.5 -76.5t-73.5 -194.5t73.5 -194.5t183.5 -76.5q56 0 105 26.5t78 70.5l71 -39q-97 -132 -254 -132z" />
    <glyph glyph-name="cacute" unicode="&#x107;" horiz-adv-x="505" 
d="M476 700l-169 -144h-57l148 144h78zM308 -12q-107 0 -174 72.5t-67 181.5t67 181t174 72q112 0 177 -84l-50 -46q-46 63 -123 63q-76 0 -121.5 -52t-45.5 -134t45.5 -134.5t121.5 -52.5t123 63l50 -46q-65 -84 -177 -84z" />
    <glyph glyph-name="Ccircumflex" unicode="&#x108;" horiz-adv-x="688" 
d="M546 723h-51l-83 106l-80 -106h-51l95 144h72zM414 -12q-146 0 -244.5 96.5t-98.5 248.5t98.5 248.5t244.5 96.5q160 0 253 -132l-70 -39q-29 43 -78 70t-105 27q-110 0 -183.5 -76.5t-73.5 -194.5t73.5 -194.5t183.5 -76.5q56 0 105 26.5t78 70.5l71 -39
q-97 -132 -254 -132z" />
    <glyph glyph-name="ccircumflex" unicode="&#x109;" horiz-adv-x="505" 
d="M441 556h-51l-83 106l-80 -106h-51l95 144h72zM308 -12q-107 0 -174 72.5t-67 181.5t67 181t174 72q112 0 177 -84l-50 -46q-46 63 -123 63q-76 0 -121.5 -52t-45.5 -134t45.5 -134.5t121.5 -52.5t123 63l50 -46q-65 -84 -177 -84z" />
    <glyph glyph-name="Cdotaccent" unicode="&#x10a;" horiz-adv-x="688" 
d="M414 -12q-146 0 -244.5 96.5t-98.5 248.5t98.5 248.5t244.5 96.5q160 0 253 -132l-70 -39q-29 43 -78 70t-105 27q-110 0 -183.5 -76.5t-73.5 -194.5t73.5 -194.5t183.5 -76.5q56 0 105 26.5t78 70.5l71 -39q-97 -132 -254 -132zM416 722q-19 0 -33 14t-14 33t14 33
t33 14t32.5 -13.5t13.5 -33.5t-13.5 -33.5t-32.5 -13.5z" />
    <glyph glyph-name="cdotaccent" unicode="&#x10b;" horiz-adv-x="505" 
d="M308 -12q-107 0 -174 72.5t-67 181.5t67 181t174 72q112 0 177 -84l-50 -46q-46 63 -123 63q-76 0 -121.5 -52t-45.5 -134t45.5 -134.5t121.5 -52.5t123 63l50 -46q-65 -84 -177 -84zM310 555q-19 0 -33 14t-14 33t14 33t33 14t32.5 -13.5t13.5 -33.5t-13.5 -33.5
t-32.5 -13.5z" />
    <glyph glyph-name="Ccaron" unicode="&#x10c;" horiz-adv-x="688" 
d="M451 723h-72l-98 144h51l83 -106l80 106h51zM414 -12q-146 0 -244.5 96.5t-98.5 248.5t98.5 248.5t244.5 96.5q160 0 253 -132l-70 -39q-29 43 -78 70t-105 27q-110 0 -183.5 -76.5t-73.5 -194.5t73.5 -194.5t183.5 -76.5q56 0 105 26.5t78 70.5l71 -39
q-97 -132 -254 -132z" />
    <glyph glyph-name="ccaron" unicode="&#x10d;" horiz-adv-x="505" 
d="M346 556h-72l-98 144h51l83 -106l80 106h51zM308 -12q-107 0 -174 72.5t-67 181.5t67 181t174 72q112 0 177 -84l-50 -46q-46 63 -123 63q-76 0 -121.5 -52t-45.5 -134t45.5 -134.5t121.5 -52.5t123 63l50 -46q-65 -84 -177 -84z" />
    <glyph glyph-name="Dcaron" unicode="&#x10e;" horiz-adv-x="688" 
d="M409 723h-72l-98 144h51l83 -106l80 106h51zM326 0h-228v667h228q153 0 247.5 -95t94.5 -239q0 -145 -94.5 -239t-247.5 -94zM326 74q118 0 187 74t69 185q0 112 -68 186t-188 74h-145v-519h145z" />
    <glyph glyph-name="dcaron" unicode="&#x10f;" horiz-adv-x="688" 
d="M668 613q0 -39 -20 -75t-51 -59l-33 26q23 15 39.5 39.5t18.5 46.5q-2 -2 -11 -2q-18 0 -30 12.5t-12 31.5q0 20 13.5 33.5t32.5 13.5q22 0 37.5 -18t15.5 -49zM520 0h-75v72q-62 -84 -163 -84q-96 0 -155.5 68.5t-59.5 184.5q0 115 59.5 184.5t155.5 69.5q100 0 163 -85
v257h75v-667zM300 55q44 0 84 22t61 54v219q-21 33 -61.5 55.5t-83.5 22.5q-71 0 -113 -52.5t-42 -134.5t42 -134t113 -52z" />
    <glyph glyph-name="Dcroat" unicode="&#x110;" horiz-adv-x="716" 
d="M354 0h-228v299h-96v61h96v307h228q153 0 247.5 -95t94.5 -239q0 -145 -94.5 -239t-247.5 -94zM354 74q118 0 187 74t69 185q0 112 -68 186t-188 74h-145v-233h169v-61h-169v-225h145z" />
    <glyph glyph-name="dcroat" unicode="&#x111;" horiz-adv-x="608" 
d="M520 0h-75v72q-62 -84 -163 -84q-96 0 -155.5 68.5t-59.5 184.5q0 115 59.5 184.5t155.5 69.5q100 0 163 -85v125h-157v48h157v84h75v-84h68v-48h-68v-535zM300 55q44 0 84 22t61 54v219q-21 33 -61.5 55.5t-83.5 22.5q-71 0 -113 -52.5t-42 -134.5t42 -134t113 -52z" />
    <glyph glyph-name="Emacron" unicode="&#x112;" horiz-adv-x="555" 
d="M535 0h-437v667h437v-74h-354v-215h347v-74h-347v-230h354v-74zM497 739h-363v48h363v-48z" />
    <glyph glyph-name="emacron" unicode="&#x113;" horiz-adv-x="557" 
d="M313 -12q-108 0 -177 70.5t-69 183.5q0 106 68 179.5t170 73.5q107 0 169.5 -73.5t62.5 -185.5v-19h-391q5 -71 52 -119t122 -48q90 0 149 61l36 -49q-74 -74 -192 -74zM463 272q-1 62 -42 111.5t-117 49.5q-72 0 -113.5 -49t-44.5 -112h317zM486 572h-363v48h363v-48z
" />
    <glyph glyph-name="Ebreve" unicode="&#x114;" horiz-adv-x="555" 
d="M535 0h-437v667h437v-74h-354v-215h347v-74h-347v-230h354v-74zM493 793q-65 -88 -175 -88q-109 0 -176 88l37 32q52 -72 139 -72q88 0 138 72z" />
    <glyph glyph-name="ebreve" unicode="&#x115;" horiz-adv-x="557" 
d="M313 -12q-108 0 -177 70.5t-69 183.5q0 106 68 179.5t170 73.5q107 0 169.5 -73.5t62.5 -185.5v-19h-391q5 -71 52 -119t122 -48q90 0 149 61l36 -49q-74 -74 -192 -74zM463 272q-1 62 -42 111.5t-117 49.5q-72 0 -113.5 -49t-44.5 -112h317zM482 626q-65 -88 -175 -88
q-109 0 -176 88l37 32q52 -72 139 -72q88 0 138 72z" />
    <glyph glyph-name="Edotaccent" unicode="&#x116;" horiz-adv-x="555" 
d="M535 0h-437v667h437v-74h-354v-215h347v-74h-347v-230h354v-74zM320 722q-19 0 -33 14t-14 33t14 33t33 14t32.5 -13.5t13.5 -33.5t-13.5 -33.5t-32.5 -13.5z" />
    <glyph glyph-name="edotaccent" unicode="&#x117;" horiz-adv-x="557" 
d="M313 -12q-108 0 -177 70.5t-69 183.5q0 106 68 179.5t170 73.5q107 0 169.5 -73.5t62.5 -185.5v-19h-391q5 -71 52 -119t122 -48q90 0 149 61l36 -49q-74 -74 -192 -74zM463 272q-1 62 -42 111.5t-117 49.5q-72 0 -113.5 -49t-44.5 -112h317zM306 555q-19 0 -33 14
t-14 33t14 33t33 14t32.5 -13.5t13.5 -33.5t-13.5 -33.5t-32.5 -13.5z" />
    <glyph glyph-name="Eogonek" unicode="&#x118;" horiz-adv-x="612" 
d="M535 0q-76 -38 -76 -97q0 -50 44 -50q38 0 52 42l37 -21q-26 -60 -89 -60q-38 0 -63.5 22t-25.5 65q0 57 53 99h-369v667h437v-74h-354v-215h347v-74h-347v-230h354v-74z" />
    <glyph glyph-name="eogonek" unicode="&#x119;" horiz-adv-x="557" 
d="M313 -12q-108 0 -177 70.5t-69 183.5q0 106 68 179.5t170 73.5q107 0 169.5 -73.5t62.5 -185.5v-19h-391q5 -71 52 -119t122 -48q90 0 149 61l36 -49q-46 -46 -106 -62q-75 -38 -75 -97q0 -50 44 -50q38 0 52 42l37 -21q-26 -60 -89 -60q-38 0 -63.5 22t-25.5 65
q0 48 39 87h-5zM463 272q-1 62 -42 111.5t-117 49.5q-72 0 -113.5 -49t-44.5 -112h317z" />
    <glyph glyph-name="Ecaron" unicode="&#x11a;" horiz-adv-x="555" 
d="M355 723h-72l-98 144h51l83 -106l80 106h51zM535 0h-437v667h437v-74h-354v-215h347v-74h-347v-230h354v-74z" />
    <glyph glyph-name="ecaron" unicode="&#x11b;" horiz-adv-x="557" 
d="M343 556h-72l-98 144h51l83 -106l80 106h51zM313 -12q-108 0 -177 70.5t-69 183.5q0 106 68 179.5t170 73.5q107 0 169.5 -73.5t62.5 -185.5v-19h-391q5 -71 52 -119t122 -48q90 0 149 61l36 -49q-74 -74 -192 -74zM463 272q-1 62 -42 111.5t-117 49.5q-72 0 -113.5 -49
t-44.5 -112h317z" />
    <glyph glyph-name="Gcircumflex" unicode="&#x11c;" horiz-adv-x="696" 
d="M551 723h-51l-83 106l-80 -106h-51l95 144h72zM414 -13q-145 0 -244 96.5t-99 249.5t99 249t244 96q158 0 259 -125l-66 -41q-32 42 -83.5 67t-109.5 25q-110 0 -183.5 -76.5t-73.5 -194.5t73.5 -195t183.5 -77q55 0 102.5 21.5t76.5 50.5v136h-229v74h312v-241
q-103 -115 -262 -115z" />
    <glyph glyph-name="gcircumflex" unicode="&#x11d;" horiz-adv-x="539" 
d="M443 556h-51l-83 106l-80 -106h-51l95 144h72zM289 -196q-64 0 -109 15.5t-86 56.5l38 56q55 -66 157 -66q67 0 111 35.5t44 109.5v69q-27 -38 -70 -62t-92 -24q-96 0 -155.5 67.5t-59.5 182.5t59.5 183t155.5 68q99 0 162 -85v73h75v-469q0 -111 -65 -160.5t-165 -49.5z
M300 60q43 0 83.5 23t60.5 56v211q-20 33 -60 55.5t-84 22.5q-72 0 -113.5 -51t-41.5 -133q0 -81 42 -132.5t113 -51.5z" />
    <glyph glyph-name="Gbreve" unicode="&#x11e;" horiz-adv-x="696" 
d="M414 -13q-145 0 -244 96.5t-99 249.5t99 249t244 96q158 0 259 -125l-66 -41q-32 42 -83.5 67t-109.5 25q-110 0 -183.5 -76.5t-73.5 -194.5t73.5 -195t183.5 -77q55 0 102.5 21.5t76.5 50.5v136h-229v74h312v-241q-103 -115 -262 -115zM592 793q-65 -88 -175 -88
q-109 0 -176 88l37 32q52 -72 139 -72q88 0 138 72z" />
    <glyph glyph-name="gbreve" unicode="&#x11f;" horiz-adv-x="539" 
d="M289 -196q-64 0 -109 15.5t-86 56.5l38 56q55 -66 157 -66q67 0 111 35.5t44 109.5v69q-27 -38 -70 -62t-92 -24q-96 0 -155.5 67.5t-59.5 182.5t59.5 183t155.5 68q99 0 162 -85v73h75v-469q0 -111 -65 -160.5t-165 -49.5zM300 60q43 0 83.5 23t60.5 56v211
q-20 33 -60 55.5t-84 22.5q-72 0 -113.5 -51t-41.5 -133q0 -81 42 -132.5t113 -51.5zM485 626q-65 -88 -175 -88q-109 0 -176 88l37 32q52 -72 139 -72q88 0 138 72z" />
    <glyph glyph-name="Gdotaccent" unicode="&#x120;" horiz-adv-x="696" 
d="M414 -13q-145 0 -244 96.5t-99 249.5t99 249t244 96q158 0 259 -125l-66 -41q-32 42 -83.5 67t-109.5 25q-110 0 -183.5 -76.5t-73.5 -194.5t73.5 -195t183.5 -77q55 0 102.5 21.5t76.5 50.5v136h-229v74h312v-241q-103 -115 -262 -115zM416 722q-19 0 -33 14t-14 33
t14 33t33 14t32.5 -13.5t13.5 -33.5t-13.5 -33.5t-32.5 -13.5z" />
    <glyph glyph-name="gdotaccent" unicode="&#x121;" horiz-adv-x="539" 
d="M289 -196q-64 0 -109 15.5t-86 56.5l38 56q55 -66 157 -66q67 0 111 35.5t44 109.5v69q-27 -38 -70 -62t-92 -24q-96 0 -155.5 67.5t-59.5 182.5t59.5 183t155.5 68q99 0 162 -85v73h75v-469q0 -111 -65 -160.5t-165 -49.5zM300 60q43 0 83.5 23t60.5 56v211
q-20 33 -60 55.5t-84 22.5q-72 0 -113.5 -51t-41.5 -133q0 -81 42 -132.5t113 -51.5zM309 555q-19 0 -33 14t-14 33t14 33t33 14t32.5 -13.5t13.5 -33.5t-13.5 -33.5t-32.5 -13.5z" />
    <glyph glyph-name="CapitalLetterGwithce" unicode="&#x122;" horiz-adv-x="696" 
d="M468 -138q0 -39 -20 -75t-51 -59l-33 26q23 15 39.5 39.5t18.5 46.5q-2 -2 -11 -2q-18 0 -30 12.5t-12 31.5q0 20 13.5 33.5t32.5 13.5q22 0 37.5 -18t15.5 -49zM414 -13q-145 0 -244 96.5t-99 249.5t99 249t244 96q158 0 259 -125l-66 -41q-32 42 -83.5 67t-109.5 25
q-110 0 -183.5 -76.5t-73.5 -194.5t73.5 -195t183.5 -77q55 0 102.5 21.5t76.5 50.5v136h-229v74h312v-241q-103 -115 -262 -115z" />
    <glyph glyph-name="SmallLetterGwithcedi" unicode="&#x123;" horiz-adv-x="539" 
d="M258 611q0 43 19.5 81.5t49.5 59.5l33 -27q-22 -15 -39 -38.5t-18 -45.5q2 1 5 1q17 0 31.5 -13.5t14.5 -31.5t-14 -32t-34 -14q-19 0 -33.5 15.5t-14.5 44.5zM289 -196q-64 0 -109 15.5t-86 56.5l38 56q55 -66 157 -66q67 0 111 35.5t44 109.5v69q-27 -38 -70 -62
t-92 -24q-96 0 -155.5 67.5t-59.5 182.5t59.5 183t155.5 68q99 0 162 -85v73h75v-469q0 -111 -65 -160.5t-165 -49.5zM300 60q43 0 83.5 23t60.5 56v211q-20 33 -60 55.5t-84 22.5q-72 0 -113.5 -51t-41.5 -133q0 -81 42 -132.5t113 -51.5z" />
    <glyph glyph-name="Hcircumflex" unicode="&#x124;" horiz-adv-x="674" 
d="M506 723h-51l-83 106l-80 -106h-51l95 144h72zM654 0h-83v306h-390v-306h-83v667h83v-287h390v287h83v-667z" />
    <glyph glyph-name="hcircumflex" unicode="&#x125;" horiz-adv-x="517" 
d="M430 723h-51l-83 106l-80 -106h-51l95 144h72zM497 0h-75v318q0 60 -28 85t-81 25q-41 0 -80.5 -22t-62.5 -53v-353h-75v667h75v-254q28 33 75 57.5t98 24.5q154 0 154 -154v-341z" />
    <glyph glyph-name="Hbar" unicode="&#x126;" horiz-adv-x="761" 
d="M664 0h-83v306h-390v-306h-83v498h-78v48h78v121h83v-121h390v121h83v-121h77v-48h-77v-498zM191 380h390v118h-390v-118z" />
    <glyph glyph-name="hbar" unicode="&#x127;" horiz-adv-x="519" 
d="M328 535h-156v-122q28 33 75 57.5t98 24.5q154 0 154 -154v-341h-75v318q0 60 -28 85t-81 25q-41 0 -80.5 -22t-62.5 -53v-353h-75v535h-68v48h68v84h75v-84h156v-48z" />
    <glyph glyph-name="Itilde" unicode="&#x128;" horiz-adv-x="316" 
d="M181 0h-83v667h83v-667zM199 721q-25 0 -43.5 14.5t-27.5 31.5t-22.5 31.5t-29.5 14.5q-21 0 -34.5 -21.5t-13.5 -64.5h-45q0 60 25.5 97t71.5 37q24 0 42.5 -14.5t28 -31.5t23 -31.5t29.5 -14.5q21 0 34.5 21.5t13.5 64.5h45q0 -60 -25.5 -97t-71.5 -37z" />
    <glyph glyph-name="itilde" unicode="&#x129;" horiz-adv-x="309" 
d="M170 0h-75v483h75v-483zM192 554q-25 0 -43.5 14.5t-27.5 31.5t-22.5 31.5t-29.5 14.5q-21 0 -34.5 -21.5t-13.5 -64.5h-45q0 60 25.5 97t71.5 37q24 0 42.5 -14.5t28 -31.5t23 -31.5t29.5 -14.5q21 0 34.5 21.5t13.5 64.5h45q0 -60 -25.5 -97t-71.5 -37z" />
    <glyph glyph-name="Imacron" unicode="&#x12a;" horiz-adv-x="342" 
d="M181 0h-83v667h83v-667zM322 739h-363v48h363v-48z" />
    <glyph glyph-name="imacron" unicode="&#x12b;" horiz-adv-x="334" 
d="M170 0h-75v483h75v-483zM314 572h-363v48h363v-48z" />
    <glyph glyph-name="Ibreve" unicode="&#x12c;" horiz-adv-x="336" 
d="M181 0h-83v667h83v-667zM316 793q-65 -88 -175 -88q-109 0 -176 88l37 32q52 -72 139 -72q88 0 138 72z" />
    <glyph glyph-name="ibreve" unicode="&#x12d;" horiz-adv-x="328" 
d="M170 0h-75v483h75v-483zM308 626q-65 -88 -175 -88q-109 0 -176 88l37 32q52 -72 139 -72q88 0 138 72z" />
    <glyph glyph-name="Iogonek" unicode="&#x12e;" horiz-adv-x="258" 
d="M201 -105l37 -21q-26 -60 -89 -60q-38 0 -63.5 22t-25.5 65q0 57 53 99h-15v667h83v-667q-76 -38 -76 -97q0 -50 44 -50q38 0 52 42z" />
    <glyph glyph-name="iogonek" unicode="&#x12f;" horiz-adv-x="247" 
d="M190 -105l37 -21q-26 -60 -89 -60q-38 0 -63.5 22t-25.5 65q0 57 53 99h-7v483h75v-483q-76 -38 -76 -97q0 -50 44 -50q38 0 52 42zM132 552q-20 0 -35 14.5t-15 35.5t15 36t35 15q21 0 36 -15t15 -36t-15 -35.5t-36 -14.5z" />
    <glyph glyph-name="Idotaccent" unicode="&#x130;" horiz-adv-x="206" 
d="M181 0h-83v667h83v-667zM140 722q-19 0 -33 14t-14 33t14 33t33 14t32.5 -13.5t13.5 -33.5t-13.5 -33.5t-32.5 -13.5z" />
    <glyph glyph-name="dotlessi" unicode="&#x131;" horiz-adv-x="190" 
d="M170 0h-75v483h75v-483z" />
    <glyph glyph-name="IJ" unicode="&#x132;" horiz-adv-x="676" 
d="M181 0h-83v667h83v-667zM444 -12q-108 0 -174 77l43 63q55 -66 126 -66q61 0 97.5 38.5t36.5 101.5v465h83v-466q0 -104 -59 -158.5t-153 -54.5z" />
    <glyph glyph-name="ij" unicode="&#x133;" horiz-adv-x="428" 
d="M132 552q-20 0 -35 14.5t-15 35.5t15 36t35 15q21 0 36 -15t15 -36t-15 -35.5t-36 -14.5zM170 0h-75v483h75v-483zM357 552q-20 0 -35 14.5t-15 35.5t15 36t35 15q21 0 36 -15t15 -36t-15 -35.5t-36 -14.5zM252 -196q-60 0 -106 36l27 57q31 -31 69 -31q36 0 57 21.5
t21 65.5v530h75v-530q0 -71 -37 -110t-106 -39z" />
    <glyph glyph-name="Jcircumflex" unicode="&#x134;" horiz-adv-x="528" 
d="M508 723h-51l-83 106l-80 -106h-51l95 144h72zM205 -12q-108 0 -174 77l43 63q55 -66 126 -66q61 0 97.5 38.5t36.5 101.5v465h83v-466q0 -104 -59 -158.5t-153 -54.5z" />
    <glyph glyph-name="jcircumflex" unicode="&#x135;" horiz-adv-x="287" 
d="M267 556h-51l-83 106l-80 -106h-51l95 144h72zM27 -196q-59 0 -106 36l27 57q31 -31 69 -31q36 0 57 21.5t21 65.5v530h75v-530q0 -71 -37 -110t-106 -39z" />
    <glyph glyph-name="CapitalLetterKwithce" unicode="&#x136;" horiz-adv-x="624" 
d="M380 -138q0 -39 -20 -75t-51 -59l-33 26q23 15 39.5 39.5t18.5 46.5q-2 -2 -11 -2q-18 0 -30 12.5t-12 31.5q0 20 13.5 33.5t32.5 13.5q22 0 37.5 -18t15.5 -49zM604 0h-103l-253 300l-67 -76v-224h-83v667h83v-345l295 345h104l-278 -317z" />
    <glyph glyph-name="SmallLetterKwithcedi" unicode="&#x137;" horiz-adv-x="540" 
d="M334 -138q0 -39 -20 -75t-51 -59l-33 26q23 15 39.5 39.5t18.5 46.5q-2 -2 -11 -2q-18 0 -30 12.5t-12 31.5q0 20 13.5 33.5t32.5 13.5q22 0 37.5 -18t15.5 -49zM520 0h-96l-174 217l-80 -79v-138h-75v667h75v-441l254 257h95l-214 -219z" />
    <glyph glyph-name="kgreenlandic" unicode="&#x138;" horiz-adv-x="540" 
d="M520 0h-96l-174 217l-80 -79v-138h-75v483h75v-257l254 257h95l-214 -219z" />
    <glyph glyph-name="Lacute" unicode="&#x139;" horiz-adv-x="511" 
d="M463 867l-169 -144h-57l148 144h78zM491 0h-393v667h83v-593h310v-74z" />
    <glyph glyph-name="lacute" unicode="&#x13a;" horiz-adv-x="322" 
d="M302 867l-169 -144h-57l148 144h78zM170 0h-75v667h75v-667z" />
    <glyph glyph-name="CapitalLetterLwithce" unicode="&#x13b;" horiz-adv-x="511" 
d="M339 -138q0 -39 -20 -75t-51 -59l-33 26q23 15 39.5 39.5t18.5 46.5q-2 -2 -11 -2q-18 0 -30 12.5t-12 31.5q0 20 13.5 33.5t32.5 13.5q22 0 37.5 -18t15.5 -49zM491 0h-393v667h83v-593h310v-74z" />
    <glyph glyph-name="SmallLetterLwithcedi" unicode="&#x13c;" horiz-adv-x="210" 
d="M190 -138q0 -39 -20 -75t-51 -59l-33 26q23 15 39.5 39.5t18.5 46.5q-2 -2 -11 -2q-18 0 -30 12.5t-12 31.5q0 20 13.5 33.5t32.5 13.5q22 0 37.5 -18t15.5 -49zM170 0h-75v667h75v-667z" />
    <glyph glyph-name="Lcaron" unicode="&#x13d;" horiz-adv-x="511" 
d="M374 613q0 -39 -20 -75t-51 -59l-33 26q23 15 39.5 39.5t18.5 46.5q-2 -2 -11 -2q-18 0 -30 12.5t-12 31.5q0 20 13.5 33.5t32.5 13.5q22 0 37.5 -18t15.5 -49zM491 0h-393v667h83v-593h310v-74z" />
    <glyph glyph-name="lcaron" unicode="&#x13e;" horiz-adv-x="351" 
d="M331 613q0 -39 -20 -75t-51 -59l-33 26q23 15 39.5 39.5t18.5 46.5q-2 -2 -11 -2q-18 0 -30 12.5t-12 31.5q0 20 13.5 33.5t32.5 13.5q22 0 37.5 -18t15.5 -49zM170 0h-75v667h75v-667z" />
    <glyph glyph-name="Ldot" unicode="&#x13f;" horiz-adv-x="511" 
d="M491 0h-393v667h83v-593h310v-74zM444 341q0 -22 -16.5 -38t-38.5 -16t-38.5 16t-16.5 38q0 23 16 39t39 16t39 -16t16 -39z" />
    <glyph glyph-name="ldot" unicode="&#x140;" horiz-adv-x="361" 
d="M170 0h-75v667h75v-667zM341 244q0 -22 -16.5 -38t-38.5 -16t-38.5 16t-16.5 38t16.5 38.5t38.5 16.5t38.5 -16.5t16.5 -38.5z" />
    <glyph glyph-name="Lslash" unicode="&#x141;" horiz-adv-x="530" 
d="M30 221v72l87 50v324h83v-276l97 56v-72l-97 -56v-245h310v-74h-393v271z" />
    <glyph glyph-name="lslash" unicode="&#x142;" horiz-adv-x="316" 
d="M30 228v60l96 55v324h75v-281l95 54v-60l-95 -54v-326h-75v283z" />
    <glyph glyph-name="Nacute" unicode="&#x143;" horiz-adv-x="670" 
d="M551 867l-169 -144h-57l148 144h78zM650 0h-80l-389 532v-532h-83v667h85l384 -521v521h83v-667z" />
    <glyph glyph-name="nacute" unicode="&#x144;" 
d="M464 700l-169 -144h-57l148 144h78zM496 0h-75v316q0 61 -28 86.5t-80 25.5q-42 0 -81.5 -22t-61.5 -53v-353h-75v483h75v-70q28 33 75 57.5t97 24.5q154 0 154 -156v-339z" />
    <glyph glyph-name="CapitalLetterNwithce" unicode="&#x145;" horiz-adv-x="670" 
d="M431 -138q0 -39 -20 -75t-51 -59l-33 26q23 15 39.5 39.5t18.5 46.5q-2 -2 -11 -2q-18 0 -30 12.5t-12 31.5q0 20 13.5 33.5t32.5 13.5q22 0 37.5 -18t15.5 -49zM650 0h-80l-389 532v-532h-83v667h85l384 -521v521h83v-667z" />
    <glyph glyph-name="SmallLetterNwithcedi" unicode="&#x146;" 
d="M350 -138q0 -39 -20 -75t-51 -59l-33 26q23 15 39.5 39.5t18.5 46.5q-2 -2 -11 -2q-18 0 -30 12.5t-12 31.5q0 20 13.5 33.5t32.5 13.5q22 0 37.5 -18t15.5 -49zM496 0h-75v316q0 61 -28 86.5t-80 25.5q-42 0 -81.5 -22t-61.5 -53v-353h-75v483h75v-70q28 33 75 57.5
t97 24.5q154 0 154 -156v-339z" />
    <glyph glyph-name="Ncaron" unicode="&#x147;" horiz-adv-x="670" 
d="M410 723h-72l-98 144h51l83 -106l80 106h51zM650 0h-80l-389 532v-532h-83v667h85l384 -521v521h83v-667z" />
    <glyph glyph-name="ncaron" unicode="&#x148;" 
d="M334 556h-72l-98 144h51l83 -106l80 106h51zM496 0h-75v316q0 61 -28 86.5t-80 25.5q-42 0 -81.5 -22t-61.5 -53v-353h-75v483h75v-70q28 33 75 57.5t97 24.5q154 0 154 -156v-339z" />
    <glyph glyph-name="napostrophe" unicode="&#x149;" 
d="M181 676q0 -39 -20 -75t-51 -59l-33 26q23 15 39.5 39.5t18.5 46.5q-2 -2 -11 -2q-18 0 -30 12.5t-12 31.5q0 20 13.5 33.5t32.5 13.5q22 0 37.5 -18t15.5 -49zM496 0h-75v316q0 61 -28 86.5t-80 25.5q-42 0 -81.5 -22t-61.5 -53v-353h-75v483h75v-70q28 33 75 57.5
t97 24.5q154 0 154 -156v-339z" />
    <glyph glyph-name="Eng" unicode="&#x14a;" horiz-adv-x="670" 
d="M438 -196q-108 0 -174 77l44 63q53 -66 125 -66q58 0 94 34.5t39 91.5l-385 528v-532h-83v667h85l384 -521v521h83v-652q0 -104 -59 -157.5t-153 -53.5z" />
    <glyph glyph-name="eng" unicode="&#x14b;" 
d="M496 339v-386q0 -72 -37 -110.5t-106 -38.5q-59 0 -105 36l26 61q30 -30 69 -30q36 0 57 20.5t21 61.5v363q0 61 -28 86.5t-80 25.5q-42 0 -81.5 -22t-61.5 -53v-353h-75v483h75v-70q28 33 75 57.5t97 24.5q154 0 154 -156z" />
    <glyph glyph-name="Omacron" unicode="&#x14c;" horiz-adv-x="753" 
d="M583 739h-363v48h363v-48zM402 -12q-147 0 -239 98t-92 247t92 247t239 98q146 0 238.5 -98t92.5 -247t-92.5 -247t-238.5 -98zM402 62q110 0 177.5 76.5t67.5 194.5q0 119 -67.5 195t-177.5 76q-111 0 -178 -76t-67 -195q0 -118 67 -194.5t178 -76.5z" />
    <glyph glyph-name="omacron" unicode="&#x14d;" horiz-adv-x="565" 
d="M487 572h-363v48h363v-48zM306 -12q-108 0 -173.5 73t-65.5 181t65.5 180.5t173.5 72.5t173.5 -72.5t65.5 -180.5t-65.5 -181t-173.5 -73zM306 55q74 0 117 54.5t43 132.5t-43 132t-117 54t-117.5 -54.5t-43.5 -131.5q0 -78 43.5 -132.5t117.5 -54.5z" />
    <glyph glyph-name="Obreve" unicode="&#x14e;" horiz-adv-x="753" 
d="M402 -12q-147 0 -239 98t-92 247t92 247t239 98q146 0 238.5 -98t92.5 -247t-92.5 -247t-238.5 -98zM402 62q110 0 177.5 76.5t67.5 194.5q0 119 -67.5 195t-177.5 76q-111 0 -178 -76t-67 -195q0 -118 67 -194.5t178 -76.5zM577 793q-65 -88 -175 -88q-109 0 -176 88
l37 32q52 -72 139 -72q88 0 138 72z" />
    <glyph glyph-name="obreve" unicode="&#x14f;" horiz-adv-x="565" 
d="M306 -12q-108 0 -173.5 73t-65.5 181t65.5 180.5t173.5 72.5t173.5 -72.5t65.5 -180.5t-65.5 -181t-173.5 -73zM306 55q74 0 117 54.5t43 132.5t-43 132t-117 54t-117.5 -54.5t-43.5 -131.5q0 -78 43.5 -132.5t117.5 -54.5zM482 626q-65 -88 -175 -88q-109 0 -176 88
l37 32q52 -72 139 -72q88 0 138 72z" />
    <glyph glyph-name="Ohungarumlaut" unicode="&#x150;" horiz-adv-x="753" 
d="M455 867l-115 -144h-48l94 144h69zM597 867l-115 -144h-48l94 144h69zM402 -12q-147 0 -239 98t-92 247t92 247t239 98q146 0 238.5 -98t92.5 -247t-92.5 -247t-238.5 -98zM402 62q110 0 177.5 76.5t67.5 194.5q0 119 -67.5 195t-177.5 76q-111 0 -178 -76t-67 -195
q0 -118 67 -194.5t178 -76.5z" />
    <glyph glyph-name="ohungarumlaut" unicode="&#x151;" horiz-adv-x="565" 
d="M359 700l-115 -144h-48l94 144h69zM501 700l-115 -144h-48l94 144h69zM306 -12q-108 0 -173.5 73t-65.5 181t65.5 180.5t173.5 72.5t173.5 -72.5t65.5 -180.5t-65.5 -181t-173.5 -73zM306 55q74 0 117 54.5t43 132.5t-43 132t-117 54t-117.5 -54.5t-43.5 -131.5
q0 -78 43.5 -132.5t117.5 -54.5z" />
    <glyph glyph-name="OE" unicode="&#x152;" horiz-adv-x="1091" 
d="M1071 0h-438v120q-36 -63 -100.5 -97.5t-137.5 -34.5q-144 0 -234 98t-90 247t90 246.5t234 97.5q73 0 137.5 -34t100.5 -97v121h438v-74h-355v-215h348v-74h-348v-230h355v-74zM633 223v220q-29 78 -89.5 119t-139.5 41q-112 0 -179.5 -75.5t-67.5 -194.5t67.5 -195
t179.5 -76q79 0 139.5 41.5t89.5 119.5z" />
    <glyph glyph-name="oe" unicode="&#x153;" horiz-adv-x="956" 
d="M936 217h-390q5 -71 51.5 -119t121.5 -48q89 0 150 61l36 -49q-76 -74 -192 -74q-83 0 -133 41.5t-75 96.5q-62 -138 -199 -138q-108 0 -173.5 73t-65.5 181t65.5 180.5t173.5 72.5q42 0 78 -14t59.5 -36.5t38 -43.5t24.5 -44q22 52 71.5 95t126.5 43q107 0 169.5 -73.5
t62.5 -185.5v-19zM545 272h318q-2 62 -43 111.5t-117 49.5q-72 0 -113.5 -49t-44.5 -112zM466 242q0 79 -43.5 132.5t-116.5 53.5t-117 -53.5t-44 -132.5t44 -133.5t117 -54.5t116.5 54t43.5 134z" />
    <glyph glyph-name="Racute" unicode="&#x154;" horiz-adv-x="602" 
d="M500 867l-169 -144h-57l148 144h78zM582 0h-98l-170 265h-133v-265h-83v667h268q93 0 151 -55t58 -146q0 -86 -50 -137t-123 -57zM356 338q59 0 96 36t37 92t-37 91.5t-96 35.5h-175v-255h175z" />
    <glyph glyph-name="racute" unicode="&#x155;" horiz-adv-x="402" 
d="M382 700l-169 -144h-57l148 144h78zM170 0h-75v483h75v-78q67 88 161 88v-77q-14 3 -30 3q-34 0 -74 -24t-57 -53v-342z" />
    <glyph glyph-name="CapitalLetterRwithce" unicode="&#x156;" horiz-adv-x="602" 
d="M382 -138q0 -39 -20 -75t-51 -59l-33 26q23 15 39.5 39.5t18.5 46.5q-2 -2 -11 -2q-18 0 -30 12.5t-12 31.5q0 20 13.5 33.5t32.5 13.5q22 0 37.5 -18t15.5 -49zM582 0h-98l-170 265h-133v-265h-83v667h268q93 0 151 -55t58 -146q0 -86 -50 -137t-123 -57zM356 338
q59 0 96 36t37 92t-37 91.5t-96 35.5h-175v-255h175z" />
    <glyph glyph-name="SmallLetterRwithcedi" unicode="&#x157;" horiz-adv-x="351" 
d="M241 -138q0 -39 -20 -75t-51 -59l-33 26q23 15 39.5 39.5t18.5 46.5q-2 -2 -11 -2q-18 0 -30 12.5t-12 31.5q0 20 13.5 33.5t32.5 13.5q22 0 37.5 -18t15.5 -49zM170 0h-75v483h75v-78q67 88 161 88v-77q-14 3 -30 3q-34 0 -74 -24t-57 -53v-342z" />
    <glyph glyph-name="Rcaron" unicode="&#x158;" horiz-adv-x="602" 
d="M363 723h-72l-98 144h51l83 -106l80 106h51zM582 0h-98l-170 265h-133v-265h-83v667h268q93 0 151 -55t58 -146q0 -86 -50 -137t-123 -57zM356 338q59 0 96 36t37 92t-37 91.5t-96 35.5h-175v-255h175z" />
    <glyph glyph-name="rcaron" unicode="&#x159;" horiz-adv-x="364" 
d="M249 556h-72l-98 144h51l83 -106l80 106h51zM170 0h-75v483h75v-78q67 88 161 88v-77q-14 3 -30 3q-34 0 -74 -24t-57 -53v-342z" />
    <glyph glyph-name="Sacute" unicode="&#x15a;" horiz-adv-x="580" 
d="M480 867l-169 -144h-57l148 144h78zM314 -12q-162 0 -256 106l49 63q85 -95 210 -95q81 0 119 34.5t38 80.5q0 35 -22 59t-56.5 37.5t-77 24.5t-84.5 24.5t-76.5 32.5t-56.5 54t-22 83q0 82 65 133.5t164 51.5q149 0 237 -93l-50 -61q-73 80 -193 80q-60 0 -98.5 -29.5
t-38.5 -76.5q0 -35 29.5 -58t73 -34t95 -27.5t95 -35t73 -59.5t29.5 -99q0 -82 -60.5 -139t-185.5 -57z" />
    <glyph glyph-name="sacute" unicode="&#x15b;" horiz-adv-x="458" 
d="M417 700l-169 -144h-57l148 144h78zM248 -12q-123 0 -195 76l39 54q25 -29 68.5 -49t90.5 -20q54 0 84 23t30 60q0 32 -31 50.5t-74.5 28t-87.5 22t-75 43t-31 80.5q0 59 48.5 99t131.5 40q109 0 179 -70l-35 -52q-51 61 -144 61q-49 0 -78 -21.5t-29 -54.5
q0 -29 31 -45.5t74.5 -26t87.5 -22.5t75 -45.5t31 -84.5q0 -64 -50 -105t-140 -41z" />
    <glyph glyph-name="Scircumflex" unicode="&#x15c;" horiz-adv-x="580" 
d="M438 723h-51l-83 106l-80 -106h-51l95 144h72zM314 -12q-162 0 -256 106l49 63q85 -95 210 -95q81 0 119 34.5t38 80.5q0 35 -22 59t-56.5 37.5t-77 24.5t-84.5 24.5t-76.5 32.5t-56.5 54t-22 83q0 82 65 133.5t164 51.5q149 0 237 -93l-50 -61q-73 80 -193 80
q-60 0 -98.5 -29.5t-38.5 -76.5q0 -35 29.5 -58t73 -34t95 -27.5t95 -35t73 -59.5t29.5 -99q0 -82 -60.5 -139t-185.5 -57z" />
    <glyph glyph-name="scircumflex" unicode="&#x15d;" horiz-adv-x="458" 
d="M381 556h-51l-83 106l-80 -106h-51l95 144h72zM248 -12q-123 0 -195 76l39 54q25 -29 68.5 -49t90.5 -20q54 0 84 23t30 60q0 32 -31 50.5t-74.5 28t-87.5 22t-75 43t-31 80.5q0 59 48.5 99t131.5 40q109 0 179 -70l-35 -52q-51 61 -144 61q-49 0 -78 -21.5t-29 -54.5
q0 -29 31 -45.5t74.5 -26t87.5 -22.5t75 -45.5t31 -84.5q0 -64 -50 -105t-140 -41z" />
    <glyph glyph-name="Scedilla" unicode="&#x15e;" horiz-adv-x="580" 
d="M308 -191q-63 0 -101 30l19 38q35 -29 80 -29q25 0 43 11.5t18 30.5q0 35 -37 35q-23 0 -38 -17l-33 19l23 62q-140 11 -224 105l49 63q85 -95 210 -95q81 0 119 34.5t38 80.5q0 35 -22 59t-56.5 37.5t-77 24.5t-84.5 24.5t-76.5 32.5t-56.5 54t-22 83q0 82 65 133.5
t164 51.5q149 0 237 -93l-50 -61q-73 80 -193 80q-60 0 -98.5 -29.5t-38.5 -76.5q0 -35 29.5 -58t73 -34t95 -27.5t95 -35t73 -59.5t29.5 -99q0 -80 -57.5 -136.5t-176.5 -59.5l-17 -43q16 11 37 11q29 0 47.5 -18.5t18.5 -48.5q0 -36 -30 -58t-74 -22z" />
    <glyph glyph-name="scedilla" unicode="&#x15f;" horiz-adv-x="458" 
d="M247 -191q-63 0 -101 30l19 38q35 -29 80 -29q25 0 43 11.5t18 30.5q0 35 -37 35q-23 0 -38 -17l-33 19l23 62q-105 8 -168 75l39 54q25 -29 68.5 -49t90.5 -20q54 0 84 23t30 60q0 32 -31 50.5t-74.5 28t-87.5 22t-75 43t-31 80.5q0 59 48.5 99t131.5 40q109 0 179 -70
l-35 -52q-51 61 -144 61q-49 0 -78 -21.5t-29 -54.5q0 -29 31 -45.5t74.5 -26t87.5 -22.5t75 -45.5t31 -84.5q0 -61 -45 -101t-128 -44l-17 -44q16 11 37 11q29 0 47.5 -18.5t18.5 -48.5q0 -36 -30 -58t-74 -22z" />
    <glyph glyph-name="Scaron" unicode="&#x160;" horiz-adv-x="580" 
d="M343 723h-72l-98 144h51l83 -106l80 106h51zM314 -12q-162 0 -256 106l49 63q85 -95 210 -95q81 0 119 34.5t38 80.5q0 35 -22 59t-56.5 37.5t-77 24.5t-84.5 24.5t-76.5 32.5t-56.5 54t-22 83q0 82 65 133.5t164 51.5q149 0 237 -93l-50 -61q-73 80 -193 80
q-60 0 -98.5 -29.5t-38.5 -76.5q0 -35 29.5 -58t73 -34t95 -27.5t95 -35t73 -59.5t29.5 -99q0 -82 -60.5 -139t-185.5 -57z" />
    <glyph glyph-name="scaron" unicode="&#x161;" horiz-adv-x="458" 
d="M286 556h-72l-98 144h51l83 -106l80 106h51zM248 -12q-123 0 -195 76l39 54q25 -29 68.5 -49t90.5 -20q54 0 84 23t30 60q0 32 -31 50.5t-74.5 28t-87.5 22t-75 43t-31 80.5q0 59 48.5 99t131.5 40q109 0 179 -70l-35 -52q-51 61 -144 61q-49 0 -78 -21.5t-29 -54.5
q0 -29 31 -45.5t74.5 -26t87.5 -22.5t75 -45.5t31 -84.5q0 -64 -50 -105t-140 -41z" />
    <glyph glyph-name="CapitalLetterTwithce" unicode="&#x162;" horiz-adv-x="578" 
d="M361 -138q0 -39 -20 -75t-51 -59l-33 26q23 15 39.5 39.5t18.5 46.5q-2 -2 -11 -2q-18 0 -30 12.5t-12 31.5q0 20 13.5 33.5t32.5 13.5q22 0 37.5 -18t15.5 -49zM346 0h-83v593h-211v74h506v-74h-212v-593z" />
    <glyph glyph-name="SmallLetterTwithcedi" unicode="&#x163;" horiz-adv-x="327" 
d="M223 -138q0 -39 -20 -75t-51 -59l-33 26q23 15 39.5 39.5t18.5 46.5q-2 -2 -11 -2q-18 0 -30 12.5t-12 31.5q0 20 13.5 33.5t32.5 13.5q22 0 37.5 -18t15.5 -49zM217 -12q-53 0 -80 29t-27 84v316h-80v66h80v132h75v-132h98v-66h-98v-300q0 -28 12.5 -45t36.5 -17
q33 0 51 20l22 -56q-33 -31 -90 -31z" />
    <glyph glyph-name="Tcaron" unicode="&#x164;" horiz-adv-x="578" 
d="M342 723h-72l-98 144h51l83 -106l80 106h51zM346 0h-83v593h-211v74h506v-74h-212v-593z" />
    <glyph glyph-name="tcaron" unicode="&#x165;" horiz-adv-x="365" 
d="M345 676q0 -39 -20 -75t-51 -59l-33 26q23 15 39.5 39.5t18.5 46.5q-2 -2 -11 -2q-18 0 -30 12.5t-12 31.5q0 20 13.5 33.5t32.5 13.5q22 0 37.5 -18t15.5 -49zM217 -12q-53 0 -80 29t-27 84v316h-80v66h80v132h75v-132h98v-66h-98v-300q0 -28 12.5 -45t36.5 -17
q33 0 51 20l22 -56q-33 -31 -90 -31z" />
    <glyph glyph-name="Tbar" unicode="&#x166;" horiz-adv-x="578" 
d="M346 0h-83v294h-150v48h150v251h-211v74h506v-74h-212v-251h152v-48h-152v-294z" />
    <glyph glyph-name="tbar" unicode="&#x167;" horiz-adv-x="327" 
d="M217 -12q-53 0 -80 29t-27 84v125h-80v48h80v143h-80v66h80v132h75v-132h98v-66h-98v-143h70v-48h-70v-109q0 -28 12.5 -45t36.5 -17q33 0 51 20l22 -56q-33 -31 -90 -31z" />
    <glyph glyph-name="Utilde" unicode="&#x168;" horiz-adv-x="662" 
d="M370 -12q-133 0 -202.5 72.5t-69.5 198.5v408h83v-406q0 -93 49 -146t140 -53t140 53t49 146v406h83v-407q0 -127 -69.5 -199.5t-202.5 -72.5zM432 721q-25 0 -43.5 14.5t-27.5 31.5t-22.5 31.5t-29.5 14.5q-21 0 -34.5 -21.5t-13.5 -64.5h-45q0 60 25.5 97t71.5 37
q24 0 42.5 -14.5t28 -31.5t23 -31.5t29.5 -14.5q21 0 34.5 21.5t13.5 64.5h45q0 -60 -25.5 -97t-71.5 -37z" />
    <glyph glyph-name="utilde" unicode="&#x169;" 
d="M496 0h-75v68q-30 -34 -75.5 -57t-96.5 -23q-154 0 -154 154v341h75v-318q0 -60 27.5 -85t80.5 -25q42 0 81.5 21t61.5 52v355h75v-483zM355 554q-25 0 -43.5 14.5t-27.5 31.5t-22.5 31.5t-29.5 14.5q-21 0 -34.5 -21.5t-13.5 -64.5h-45q0 60 25.5 97t71.5 37
q24 0 42.5 -14.5t28 -31.5t23 -31.5t29.5 -14.5q21 0 34.5 21.5t13.5 64.5h45q0 -60 -25.5 -97t-71.5 -37z" />
    <glyph glyph-name="Umacron" unicode="&#x16a;" horiz-adv-x="662" 
d="M370 -12q-133 0 -202.5 72.5t-69.5 198.5v408h83v-406q0 -93 49 -146t140 -53t140 53t49 146v406h83v-407q0 -127 -69.5 -199.5t-202.5 -72.5zM552 739h-363v48h363v-48z" />
    <glyph glyph-name="umacron" unicode="&#x16b;" 
d="M496 0h-75v68q-30 -34 -75.5 -57t-96.5 -23q-154 0 -154 154v341h75v-318q0 -60 27.5 -85t80.5 -25q42 0 81.5 21t61.5 52v355h75v-483zM476 572h-363v48h363v-48z" />
    <glyph glyph-name="Ubreve" unicode="&#x16c;" horiz-adv-x="662" 
d="M370 -12q-133 0 -202.5 72.5t-69.5 198.5v408h83v-406q0 -93 49 -146t140 -53t140 53t49 146v406h83v-407q0 -127 -69.5 -199.5t-202.5 -72.5zM548 793q-65 -88 -175 -88q-109 0 -176 88l37 32q52 -72 139 -72q88 0 138 72z" />
    <glyph glyph-name="ubreve" unicode="&#x16d;" 
d="M496 0h-75v68q-30 -34 -75.5 -57t-96.5 -23q-154 0 -154 154v341h75v-318q0 -60 27.5 -85t80.5 -25q42 0 81.5 21t61.5 52v355h75v-483zM472 626q-65 -88 -175 -88q-109 0 -176 88l37 32q52 -72 139 -72q88 0 138 72z" />
    <glyph glyph-name="Uring" unicode="&#x16e;" horiz-adv-x="662" 
d="M371 710q-41 0 -69.5 29t-28.5 69q0 41 29 70t69 29t69 -29t29 -70q0 -40 -28.5 -69t-69.5 -29zM371 749q24 0 41 17.5t17 41.5q0 25 -16.5 42t-41.5 17q-24 0 -41 -17t-17 -42q0 -24 17 -41.5t41 -17.5zM370 -12q-133 0 -202.5 72.5t-69.5 198.5v408h83v-406
q0 -93 49 -146t140 -53t140 53t49 146v406h83v-407q0 -127 -69.5 -199.5t-202.5 -72.5z" />
    <glyph glyph-name="uring" unicode="&#x16f;" 
d="M296 543q-40 0 -69 28.5t-29 69.5t29 70t69 29t69 -29t29 -70t-29 -69.5t-69 -28.5zM296 582q24 0 41 17.5t17 41.5q0 25 -16.5 42t-41.5 17q-24 0 -41 -17t-17 -42q0 -24 17 -41.5t41 -17.5zM496 0h-75v68q-30 -34 -75.5 -57t-96.5 -23q-154 0 -154 154v341h75v-318
q0 -60 27.5 -85t80.5 -25q42 0 81.5 21t61.5 52v355h75v-483z" />
    <glyph glyph-name="Uhungarumlaut" unicode="&#x170;" horiz-adv-x="662" 
d="M370 -12q-133 0 -202.5 72.5t-69.5 198.5v408h83v-406q0 -93 49 -146t140 -53t140 53t49 146v406h83v-407q0 -127 -69.5 -199.5t-202.5 -72.5zM424 867l-115 -144h-48l94 144h69zM566 867l-115 -144h-48l94 144h69z" />
    <glyph glyph-name="uhungarumlaut" unicode="&#x171;" 
d="M496 0h-75v68q-30 -34 -75.5 -57t-96.5 -23q-154 0 -154 154v341h75v-318q0 -60 27.5 -85t80.5 -25q42 0 81.5 21t61.5 52v355h75v-483zM349 700l-115 -144h-48l94 144h69zM491 700l-115 -144h-48l94 144h69z" />
    <glyph glyph-name="Uogonek" unicode="&#x172;" horiz-adv-x="662" 
d="M370 -12q-133 0 -202.5 72.5t-69.5 198.5v408h83v-406q0 -93 49 -146t140 -53t140 53t49 146v406h83v-407q0 -101 -44.5 -168.5t-130.5 -91.5q-76 -38 -76 -97q0 -50 44 -50q38 0 52 42l37 -21q-26 -60 -89 -60q-38 0 -63.5 22t-25.5 65q0 48 39 87h-15z" />
    <glyph glyph-name="uogonek" unicode="&#x173;" horiz-adv-x="573" 
d="M496 0q-76 -38 -76 -97q0 -50 44 -50q38 0 52 42l37 -21q-26 -60 -89 -60q-38 0 -63.5 22t-25.5 65q0 57 53 99h-7v68q-30 -34 -75.5 -57t-96.5 -23q-154 0 -154 154v341h75v-318q0 -60 27.5 -85t80.5 -25q42 0 81.5 21t61.5 52v355h75v-483z" />
    <glyph glyph-name="Wcircumflex" unicode="&#x174;" horiz-adv-x="908" 
d="M594 723h-51l-83 106l-80 -106h-51l95 144h72zM698 0h-90l-147 538l-147 -538h-90l-190 667h92l148 -556l153 556h69l153 -556l147 556h92z" />
    <glyph glyph-name="wcircumflex" unicode="&#x175;" horiz-adv-x="762" 
d="M520 556h-51l-83 106l-80 -106h-51l95 144h72zM588 0h-75l-126 388l-126 -388h-75l-154 483h78l118 -385l127 385h64l127 -385l118 385h78z" />
    <glyph glyph-name="Ycircumflex" unicode="&#x176;" horiz-adv-x="657" 
d="M467 723h-51l-83 106l-80 -106h-51l95 144h72zM375 0h-83v282l-263 385h97l207 -310l207 310h97l-262 -385v-282z" />
    <glyph glyph-name="ycircumflex" unicode="&#x177;" horiz-adv-x="527" 
d="M68 -189l12 68q18 -8 41 -8q26 0 43 11t29 40l32 73l-202 488h81l161 -396l160 396h82l-242 -581q-40 -96 -142 -98q-31 0 -55 7zM398 556h-51l-83 106l-80 -106h-51l95 144h72z" />
    <glyph glyph-name="Ydieresis" unicode="&#x178;" horiz-adv-x="657" 
d="M485 771q0 -19 -14 -33t-33 -14t-33 14t-14 33t14 32.5t33 13.5t33 -13.5t14 -32.5zM278 771q0 -19 -13.5 -33t-32.5 -14q-20 0 -33.5 14t-13.5 33t14 32.5t33 13.5t32.5 -13.5t13.5 -32.5zM375 0h-83v282l-263 385h97l207 -310l207 310h97l-262 -385v-282z" />
    <glyph glyph-name="Zacute" unicode="&#x179;" horiz-adv-x="576" 
d="M481 867l-169 -144h-57l148 144h78zM556 0h-488v69l375 524h-375v74h481v-69l-375 -524h382v-74z" />
    <glyph glyph-name="zacute" unicode="&#x17a;" horiz-adv-x="460" 
d="M424 700l-169 -144h-57l148 144h78zM440 0h-368v58l266 359h-266v66h364v-57l-268 -361h272v-65z" />
    <glyph glyph-name="Zdotaccent" unicode="&#x17b;" horiz-adv-x="576" 
d="M556 0h-488v69l375 524h-375v74h481v-69l-375 -524h382v-74zM310 722q-19 0 -33 14t-14 33t14 33t33 14t32.5 -13.5t13.5 -33.5t-13.5 -33.5t-32.5 -13.5z" />
    <glyph glyph-name="zdotaccent" unicode="&#x17c;" horiz-adv-x="460" 
d="M440 0h-368v58l266 359h-266v66h364v-57l-268 -361h272v-65zM255 555q-19 0 -33 14t-14 33t14 33t33 14t32.5 -13.5t13.5 -33.5t-13.5 -33.5t-32.5 -13.5z" />
    <glyph glyph-name="Zcaron" unicode="&#x17d;" horiz-adv-x="576" 
d="M347 723h-72l-98 144h51l83 -106l80 106h51zM556 0h-488v69l375 524h-375v74h481v-69l-375 -524h382v-74z" />
    <glyph glyph-name="zcaron" unicode="&#x17e;" horiz-adv-x="460" 
d="M288 556h-72l-98 144h51l83 -106l80 106h51zM440 0h-368v58l266 359h-266v66h364v-57l-268 -361h272v-65z" />
    <glyph glyph-name="longs" unicode="&#x17f;" horiz-adv-x="378" 
d="M191 0h-75v417h-80v66h80v37q0 74 37.5 115.5t102.5 41.5q62 0 102 -37l-31 -53q-26 23 -60 23q-36 0 -56 -24t-20 -66v-520z" />
    <glyph glyph-name="florin" unicode="&#x192;" horiz-adv-x="485" 
d="M129 -161h-84l92 415h-68v68h82l46 204q15 70 62 110.5t112 40.5q59 0 94 -36l-37 -61q-18 23 -50 23q-36 0 -63 -24.5t-37 -67.5l-42 -189h139v-68h-154z" />
    <glyph glyph-name="Ohorn" unicode="&#x1a0;" horiz-adv-x="759" 
d="M402 -12q-147 0 -239 98t-92 247t92 247t239 98q154 0 249 -110q41 34 46 76q-2 -2 -11 -2q-17 0 -28 12t-11 29q0 18 12 31t30 13q21 0 35.5 -17t14.5 -46q0 -37 -18.5 -71t-46.5 -55q59 -91 59 -205q0 -149 -92.5 -247t-238.5 -98zM402 62q110 0 177.5 76.5t67.5 194.5
q0 119 -67.5 195t-177.5 76q-111 0 -178 -76t-67 -195q0 -118 67 -194.5t178 -76.5z" />
    <glyph glyph-name="ohorn" unicode="&#x1a1;" horiz-adv-x="567" 
d="M547 530q0 -71 -58 -120q56 -68 56 -168q0 -108 -65.5 -181t-173.5 -73t-173.5 73t-65.5 181t65.5 180.5t173.5 72.5q92 0 157 -57q37 32 42 72q-1 0 -5 -0.5t-6 -0.5q-17 0 -28.5 11.5t-11.5 29.5q0 17 12.5 30t30.5 13q21 0 35.5 -17t14.5 -46zM306 55q74 0 117 54.5
t43 132.5t-43 132t-117 54t-117.5 -54.5t-43.5 -131.5q0 -78 43.5 -132.5t117.5 -54.5z" />
    <glyph glyph-name="Uhorn" unicode="&#x1af;" horiz-adv-x="778" 
d="M758 728q0 -48 -31 -90t-85 -64v-314q0 -127 -69.5 -199.5t-202.5 -72.5t-202.5 72.5t-69.5 198.5v408h83v-406q0 -93 49 -146t140 -53t140 53t49 146v406h83v-54q29 15 50 41.5t23 53.5h-5q-4 -1 -6 -1q-17 0 -28 11.5t-11 29.5t12.5 30.5t30.5 12.5q21 0 35.5 -17
t14.5 -46z" />
    <glyph glyph-name="uhorn" unicode="&#x1b0;" horiz-adv-x="610" 
d="M496 0h-75v68q-30 -34 -75.5 -57t-96.5 -23q-154 0 -154 154v341h75v-318q0 -60 27.5 -85t80.5 -25q42 0 81.5 21t61.5 52v355h75v-48q48 36 51 81h-5q-4 -1 -6 -1q-17 0 -28.5 11.5t-11.5 29.5q0 17 12.5 30t30.5 13q21 0 36 -17t15 -46q0 -43 -25.5 -82t-68.5 -62v-392
z" />
    <glyph glyph-name="AEacute" unicode="&#x1fc;" horiz-adv-x="933" 
d="M688 867l-169 -144h-57l148 144h78zM913 0h-437v148h-263l-91 -148h-95l416 667h470v-74h-354v-215h347v-74h-347v-230h354v-74zM476 222v359l-222 -359h222z" />
    <glyph glyph-name="aeacute" unicode="&#x1fd;" horiz-adv-x="883" 
d="M606 700l-169 -144h-57l148 144h78zM863 217h-367q5 -71 48 -118t113 -47q84 0 139 61l36 -51q-72 -74 -178 -74q-136 0 -193 116q-26 -52 -79.5 -84t-119.5 -32q-82 0 -138 42.5t-56 117.5t51.5 117t126.5 42q112 0 175 -64v86q0 47 -36.5 74t-96.5 27q-94 0 -161 -67
l-35 52q79 80 205 80q64 0 111 -26t60 -79q60 105 179 105q101 0 158.5 -73t57.5 -186v-19zM496 272h293q-1 63 -38 112t-109 49q-66 0 -104.5 -49.5t-41.5 -111.5zM421 180v12q-52 61 -145 61q-59 0 -95 -27.5t-36 -73.5q0 -45 36 -72.5t95 -27.5q62 0 103.5 39t41.5 89z
" />
    <glyph glyph-name="Oslashacute" unicode="&#x1fe;" horiz-adv-x="753" 
d="M572 867l-169 -144h-57l148 144h78zM402 -12q-97 0 -173 45l-22 -33h-66l44 65q-114 98 -114 268q0 149 92 247t239 98q92 0 167 -42l21 31h66l-42 -62q57 -47 88 -117.5t31 -154.5q0 -149 -92.5 -247t-238.5 -98zM402 62q110 0 177.5 76.5t67.5 194.5q0 130 -78 205
l-297 -441q55 -35 130 -35zM157 333q0 -126 73 -201l296 440q-56 32 -124 32q-111 0 -178 -76t-67 -195z" />
    <glyph glyph-name="oslashacute" unicode="&#x1ff;" horiz-adv-x="565" 
d="M475 700l-169 -144h-57l148 144h78zM138 0h-54l48 61q-65 71 -65 181q0 108 65.5 180.5t173.5 72.5q79 0 137 -41l23 29h54l-45 -57q70 -72 70 -184q0 -108 -65.5 -181t-173.5 -73q-83 0 -142 45zM306 55q74 0 117 54.5t43 132.5q0 73 -38 125l-220 -278q42 -34 98 -34z
M145 242q0 -70 34 -121l219 277q-38 30 -92 30q-74 0 -117.5 -54.5t-43.5 -131.5z" />
    <glyph glyph-name="CapitalLetterSwithco" unicode="&#x218;" horiz-adv-x="580" 
d="M365 -138q0 -39 -20 -75t-51 -59l-33 26q23 15 39.5 39.5t18.5 46.5q-2 -2 -11 -2q-18 0 -30 12.5t-12 31.5q0 20 13.5 33.5t32.5 13.5q22 0 37.5 -18t15.5 -49zM314 -12q-162 0 -256 106l49 63q85 -95 210 -95q81 0 119 34.5t38 80.5q0 35 -22 59t-56.5 37.5t-77 24.5
t-84.5 24.5t-76.5 32.5t-56.5 54t-22 83q0 82 65 133.5t164 51.5q149 0 237 -93l-50 -61q-73 80 -193 80q-60 0 -98.5 -29.5t-38.5 -76.5q0 -35 29.5 -58t73 -34t95 -27.5t95 -35t73 -59.5t29.5 -99q0 -82 -60.5 -139t-185.5 -57z" />
    <glyph glyph-name="SmallLetterSwithcomm" unicode="&#x219;" horiz-adv-x="458" 
d="M311 -138q0 -39 -20 -75t-51 -59l-33 26q23 15 39.5 39.5t18.5 46.5q-2 -2 -11 -2q-18 0 -30 12.5t-12 31.5q0 20 13.5 33.5t32.5 13.5q22 0 37.5 -18t15.5 -49zM248 -12q-123 0 -195 76l39 54q25 -29 68.5 -49t90.5 -20q54 0 84 23t30 60q0 32 -31 50.5t-74.5 28
t-87.5 22t-75 43t-31 80.5q0 59 48.5 99t131.5 40q109 0 179 -70l-35 -52q-51 61 -144 61q-49 0 -78 -21.5t-29 -54.5q0 -29 31 -45.5t74.5 -26t87.5 -22.5t75 -45.5t31 -84.5q0 -64 -50 -105t-140 -41z" />
    <glyph glyph-name="CapitalLetterTwithco" unicode="&#x21a;" horiz-adv-x="578" 
d="M361 -138q0 -39 -20 -75t-51 -59l-33 26q23 15 39.5 39.5t18.5 46.5q-2 -2 -11 -2q-18 0 -30 12.5t-12 31.5q0 20 13.5 33.5t32.5 13.5q22 0 37.5 -18t15.5 -49zM346 0h-83v593h-211v74h506v-74h-212v-593z" />
    <glyph glyph-name="SmallLetterTwithcomm" unicode="&#x21b;" horiz-adv-x="327" 
d="M223 -138q0 -39 -20 -75t-51 -59l-33 26q23 15 39.5 39.5t18.5 46.5q-2 -2 -11 -2q-18 0 -30 12.5t-12 31.5q0 20 13.5 33.5t32.5 13.5q22 0 37.5 -18t15.5 -49zM217 -12q-53 0 -80 29t-27 84v316h-80v66h80v132h75v-132h98v-66h-98v-300q0 -28 12.5 -45t36.5 -17
q33 0 51 20l22 -56q-33 -31 -90 -31z" />
    <glyph glyph-name="SmallLetterDotlessJ" unicode="&#x237;" horiz-adv-x="190" 
d="M27 -196q-59 0 -106 36l27 57q31 -31 69 -31q36 0 57 21.5t21 65.5v530h75v-530q0 -71 -37 -110t-106 -39z" />
  </font>
</defs>
</svg>
