<?xml version="1.0" standalone="no"?>
<!DOCTYPE svg PUBLIC "-//W3C//DTD SVG 1.1//EN" "http://www.w3.org/Graphics/SVG/1.1/DTD/svg11.dtd" >
<svg xmlns="http://www.w3.org/2000/svg" xmlns:xlink="http://www.w3.org/1999/xlink" version="1.1">
<metadata>
Created by FontForge 20170731 at Wed Aug  8 17:21:06 2018
 By Aleksey,,,
(c) TrackBoostR
</metadata>
<defs>
<font id="TBRThin" horiz-adv-x="502" >
  <font-face 
    font-family="TBR"
    font-weight="500"
    font-stretch="normal"
    units-per-em="1000"
    panose-1="0 0 0 0 0 0 0 0 0 0"
    ascent="790"
    descent="-210"
    x-height="483"
    cap-height="667"
    bbox="-55 -258 1099 878"
    underline-thickness="50"
    underline-position="-200"
    unicode-range="U+0020-0219"
  />
<missing-glyph horiz-adv-x="472" 
d="M0 700v-700h432v700h-432zM50 50v600h332v-600h-332z" />
    <glyph glyph-name=".notdef" horiz-adv-x="472" 
d="M0 700v-700h432v700h-432zM50 50v600h332v-600h-332z" />
    <glyph glyph-name=".notdef" horiz-adv-x="472" 
d="M0 700v-700h432v700h-432zM50 50v600h332v-600h-332z" />
    <glyph glyph-name=".null" horiz-adv-x="0" 
 />
    <glyph glyph-name="nonmarkingreturn" horiz-adv-x="333" 
 />
    <glyph glyph-name="space" unicode=" " horiz-adv-x="20" 
 />
    <glyph glyph-name="exclam" unicode="!" horiz-adv-x="197" 
d="M154 161h-20l-11 506h42zM144 -9q-14 0 -23.5 9.5t-9.5 23.5q0 13 10 22.5t23 9.5t23 -9.5t10 -22.5q0 -14 -9.5 -23.5t-23.5 -9.5z" />
    <glyph glyph-name="quotedbl" unicode="&#x22;" horiz-adv-x="288" 
d="M139 443h-22q-15 197 -15 208t7.5 18.5t18.5 7.5t18.5 -7.5t7.5 -18.5zM253 443h-22q-15 197 -15 208t7.5 18.5t18.5 7.5t18.5 -7.5t7.5 -18.5z" />
    <glyph glyph-name="numbersign" unicode="#" horiz-adv-x="601" 
d="M307 0h-33l65 191h-125l-64 -191h-33l64 191h-115l9 29h116l76 227h-117l8 29h119l63 191h33l-63 -191h124l63 191h33l-64 -191h115l-7 -29h-117l-77 -227h120l-9 -29h-120zM347 220l77 227h-124l-76 -227h123z" />
    <glyph glyph-name="dollar" unicode="$" horiz-adv-x="574" 
d="M315 -100v88q-71 2 -128.5 31t-93.5 75l26 23q76 -94 196 -99v318q-39 11 -61 18t-52.5 21.5t-47 31t-28.5 42.5t-12 59q0 76 58.5 122t142.5 48v90h32v-91q122 -7 192 -93l-25 -23q-61 78 -167 86v-285q38 -11 62 -19.5t54.5 -25t48 -35t30 -48t12.5 -65.5
q0 -30 -10 -58t-32 -55.5t-64.5 -45.5t-100.5 -21v-89h-32zM519 169q0 29 -10 52t-24.5 38.5t-39 29t-45.5 21t-53 17.5v-309q48 3 83.5 18t54 38t26.5 46.5t8 48.5zM149 508q0 -30 12.5 -52.5t39 -38.5t50.5 -25t64 -21v277q-71 -2 -118.5 -41.5t-47.5 -98.5z" />
    <glyph glyph-name="percent" unicode="%" horiz-adv-x="733" 
d="M229 351q-67 0 -110 46t-43 116q0 71 43 117.5t110 46.5t110 -46.5t43 -117.5q0 -70 -43 -116t-110 -46zM203 0h-36l426 667h37zM560 -12q-67 0 -110 46t-43 116q0 71 43 117.5t110 46.5t110 -46.5t43 -117.5q0 -70 -43 -116t-110 -46zM229 378q53 0 86.5 39.5t33.5 95.5
q0 57 -33.5 97t-86.5 40q-52 0 -86 -40t-34 -97q0 -55 34 -95t86 -40zM560 15q53 0 86.5 39.5t33.5 95.5q0 57 -33.5 97t-86.5 40t-86.5 -40t-33.5 -97q0 -56 33.5 -95.5t86.5 -39.5z" />
    <glyph glyph-name="ampersand" unicode="&#x26;" horiz-adv-x="651" 
d="M631 0h-53q-34 29 -96 89q-80 -101 -199 -101q-84 0 -140 47t-56 132q0 73 40 119t111 86q-58 90 -58 155t43.5 107.5t105.5 42.5q60 0 95 -32t35 -90q0 -34 -12.5 -61.5t-40 -50.5t-49.5 -37.5t-62 -36.5q-7 -4 -11 -6q37 -53 94 -115q53 -58 100 -106q44 67 79 171
l32 -12q-50 -131 -86 -184q63 -61 128 -117zM283 18q98 0 174 96q-79 81 -105 112q-57 65 -97 120q-63 -36 -98 -77t-35 -102q0 -71 47 -110t114 -39zM215 527q0 -58 52 -138q33 18 48 26.5t40.5 26t37 32t21.5 36t10 45.5q0 44 -26.5 68t-68.5 24q-47 0 -80.5 -34
t-33.5 -86z" />
    <glyph glyph-name="quotesingle" unicode="'" horiz-adv-x="174" 
d="M139 443h-22q-15 197 -15 208t7.5 18.5t18.5 7.5t18.5 -7.5t7.5 -18.5z" />
    <glyph glyph-name="parenleft" unicode="(" horiz-adv-x="249" 
d="M229 -187l-16 -12q-126 206 -126 442t126 442l16 -11q-54 -114 -80.5 -210t-26.5 -221q0 -124 26.5 -221t80.5 -209z" />
    <glyph glyph-name="parenright" unicode=")" horiz-adv-x="219" 
d="M73 -199l-16 12q54 112 80.5 209t26.5 221q0 125 -26.5 221t-80.5 210l16 11q126 -206 126 -442t-126 -442z" />
    <glyph glyph-name="asterisk" unicode="*" horiz-adv-x="349" 
d="M220 409h-30l6 119l-100 -65l-15 26l106 54l-106 54l15 26l100 -65l-6 119h30l-6 -119l100 65l15 -26l-106 -54l106 -54l-15 -26l-100 65z" />
    <glyph glyph-name="plus" unicode="+" horiz-adv-x="525" 
d="M505 322h-202v-222h-32v222h-202v30h202v216h32v-216h202v-30z" />
    <glyph glyph-name="comma" unicode="," horiz-adv-x="202" 
d="M182 3q0 -36 -18 -69.5t-44 -51.5l-22 18q24 18 38.5 43.5t14.5 48.5q-6 -1 -8 -1q-14 0 -23 9.5t-9 23.5q0 13 9 22.5t23 9.5q16 0 27.5 -14t11.5 -39z" />
    <glyph glyph-name="hyphen" unicode="-" horiz-adv-x="330" 
d="M310 227h-240v30h240v-30z" />
    <glyph glyph-name="period" unicode="." horiz-adv-x="197" 
d="M144 -9q-14 0 -23.5 9.5t-9.5 23.5q0 13 10 22.5t23 9.5t23 -9.5t10 -22.5q0 -14 -9.5 -23.5t-23.5 -9.5z" />
    <glyph glyph-name="slash" unicode="/" horiz-adv-x="328" 
d="M71 -20h-31l237 707h31z" />
    <glyph glyph-name="zero" unicode="0" horiz-adv-x="600" 
d="M343 -12q-63 0 -111 31.5t-74.5 83.5t-39.5 110.5t-13 119.5q0 62 13 120t39.5 109.5t74.5 83t111 31.5t110.5 -31.5t74 -83t39.5 -109.5t13 -120q0 -61 -13 -119.5t-39.5 -110.5t-74 -83.5t-110.5 -31.5zM343 18q55 0 96 29t63 76.5t32.5 100t10.5 109.5t-10.5 109.5
t-32.5 100t-63 76t-96 28.5t-96 -28.5t-63.5 -76t-33 -100t-10.5 -109.5t10.5 -109.5t33 -100.5t63.5 -76.5t96 -28.5z" />
    <glyph glyph-name="one" unicode="1" horiz-adv-x="249" 
d="M229 0h-32v621l-105 -115l-22 23l129 138h30v-667z" />
    <glyph glyph-name="two" unicode="2" horiz-adv-x="540" 
d="M520 0h-421v28q80 66 124 104.5t102.5 94.5t88 95t51 85.5t21.5 88.5q0 75 -49.5 113t-116.5 38q-62 0 -110 -24.5t-74 -65.5l-26 19q31 47 86.5 74t124.5 27q75 0 136 -45.5t61 -135.5q0 -33 -11.5 -67.5t-26.5 -63.5t-47 -67t-56.5 -63.5t-71.5 -68t-75 -66l-84 -70.5
h374v-30z" />
    <glyph glyph-name="three" unicode="3" horiz-adv-x="525" 
d="M292 -12q-75 0 -131.5 32t-84.5 80l28 16q61 -98 188 -98q83 0 132 42.5t49 116.5q0 77 -55 115t-138 38q-46 0 -56 -1v32q10 -1 56 -1q77 0 130 36t53 107q0 66 -49.5 105t-121.5 39q-58 0 -100.5 -22t-81.5 -68l-25 20q79 100 207 100q83 0 143 -46.5t60 -127.5
q0 -72 -45 -110.5t-97 -47.5q31 -3 64 -19.5t60.5 -56t27.5 -92.5q0 -83 -56.5 -136t-156.5 -53z" />
    <glyph glyph-name="four" unicode="4" horiz-adv-x="546" 
d="M425 0h-32v195h-315v33l305 439h42v-442h101v-30h-101v-195zM393 225v406l-280 -406h280z" />
    <glyph glyph-name="five" unicode="5" horiz-adv-x="569" 
d="M337 -12q-145 0 -216 112l26 19q67 -101 190 -101q77 0 128.5 51.5t51.5 128.5q0 83 -51 132.5t-129 49.5q-95 0 -168 -69l-27 16v340h364v-30h-332v-291q66 64 163 64q89 0 150.5 -56t61.5 -156q0 -94 -62.5 -152t-149.5 -58z" />
    <glyph glyph-name="six" unicode="6" horiz-adv-x="572" 
d="M337 -12q-62 0 -108.5 28.5t-72.5 78.5t-38.5 109.5t-12.5 128.5q0 65 12.5 123t39 109t74.5 81.5t112 30.5q112 0 175 -90l-24 -21q-56 81 -151 81q-56 0 -98 -28.5t-64.5 -77t-33 -103t-10.5 -115.5q0 -24 1 -36q25 42 81.5 80.5t121.5 38.5q94 0 152.5 -53.5
t58.5 -156.5q0 -83 -58 -145.5t-157 -62.5zM337 18q87 0 135 55.5t48 122.5q0 88 -49 134t-131 46q-59 0 -113 -36.5t-85 -93.5q4 -40 16 -78t34 -73t59.5 -56t85.5 -21z" />
    <glyph glyph-name="seven" unicode="7" horiz-adv-x="513" 
d="M198 0h-36l293 637h-379v30h417v-22z" />
    <glyph glyph-name="eight" unicode="8" horiz-adv-x="555" 
d="M321 -12q-95 0 -155 49.5t-60 127.5q0 68 50.5 114.5t122.5 64.5q-68 16 -115 57.5t-47 104.5q0 82 61 126.5t143 44.5q81 0 142.5 -45t61.5 -126q0 -63 -47 -104.5t-115 -57.5q72 -18 122 -64.5t50 -114.5q0 -77 -60.5 -127t-153.5 -50zM321 359q23 4 45.5 12t54.5 24
t52 45t20 66q0 65 -49.5 103t-122.5 38t-122.5 -38t-49.5 -103q0 -37 20 -66t52.5 -45.5t54.5 -23.5t45 -12zM321 18q74 0 128 40.5t54 106.5q0 40 -22 73t-54.5 51.5t-59.5 28.5t-46 12q-19 -2 -46.5 -12t-60 -28.5t-54.5 -51.5t-22 -73q0 -66 54 -106.5t129 -40.5z" />
    <glyph glyph-name="nine" unicode="9" horiz-adv-x="572" 
d="M314 -11q-112 0 -175 90l24 21q56 -81 151 -81q56 0 98 28.5t64.5 77t33 103t10.5 115.5q0 24 -1 36q-25 -42 -81.5 -80.5t-121.5 -38.5q-94 0 -152.5 53.5t-58.5 156.5q0 83 58 145.5t157 62.5q62 0 108.5 -28.5t72.5 -78.5t38.5 -109.5t12.5 -128.5q0 -65 -12.5 -123
t-39 -109t-74.5 -81.5t-112 -30.5zM317 290q59 0 113 36.5t85 93.5q-4 40 -16 78t-34 73t-59.5 56t-85.5 21q-87 0 -135 -55.5t-48 -122.5q0 -88 49 -134t131 -46z" />
    <glyph glyph-name="colon" unicode=":" horiz-adv-x="197" 
d="M144 425q-13 0 -23 9.5t-10 22.5t9.5 23t23.5 10t23.5 -10t9.5 -23t-10 -22.5t-23 -9.5zM144 -9q-14 0 -23.5 9.5t-9.5 23.5q0 13 10 22.5t23 9.5t23 -9.5t10 -22.5q0 -14 -9.5 -23.5t-23.5 -9.5z" />
    <glyph glyph-name="semicolon" unicode=";" horiz-adv-x="202" 
d="M144 425q-13 0 -23 9.5t-10 22.5t9.5 23t23.5 10t23.5 -10t9.5 -23t-10 -22.5t-23 -9.5zM182 3q0 -36 -18 -69.5t-44 -51.5l-22 18q24 18 38.5 43.5t14.5 48.5q-6 -1 -8 -1q-14 0 -23 9.5t-9 23.5q0 13 9 22.5t23 9.5q16 0 27.5 -14t11.5 -39z" />
    <glyph glyph-name="less" unicode="&#x3c;" horiz-adv-x="525" 
d="M505 90l-436 234v21l436 235v-36l-395 -210l395 -208v-36z" />
    <glyph glyph-name="equal" unicode="=" horiz-adv-x="525" 
d="M505 418h-436v30h436v-30zM505 220h-436v30h436v-30z" />
    <glyph glyph-name="greater" unicode="&#x3e;" horiz-adv-x="525" 
d="M505 324l-436 -234v36l395 208l-395 210v36l436 -235v-21z" />
    <glyph glyph-name="question" unicode="?" horiz-adv-x="486" 
d="M265 168q-44 33 -44 76q0 37 21.5 67t52.5 50.5t62 42t52.5 52t21.5 68.5q0 52 -40 87.5t-111 35.5q-68 0 -112.5 -25t-78.5 -73l-23 21q75 107 214 107q85 0 135.5 -44.5t50.5 -108.5q0 -36 -16 -66.5t-40 -50t-51.5 -39.5t-51.5 -36.5t-40 -39t-16 -48.5q0 -30 33 -53z
M262 -9q-14 0 -23.5 9.5t-9.5 23.5q0 13 10 22.5t23 9.5t23 -9.5t10 -22.5q0 -14 -9.5 -23.5t-23.5 -9.5z" />
    <glyph glyph-name="at" unicode="@" horiz-adv-x="807" 
d="M392 -70q-136 0 -226.5 90.5t-90.5 223.5q0 106 55.5 197.5t147 144t194.5 52.5q138 0 226.5 -94t88.5 -233q0 -105 -43.5 -165.5t-107.5 -60.5q-38 0 -62 26t-24 62v6q-28 -40 -74 -67t-97 -27q-68 0 -110 43t-42 115q0 106 75 181.5t168 75.5q49 0 82.5 -24.5
t48.5 -62.5l14 69h30l-62 -294q-1 -6 -1 -18q0 -26 15.5 -42t38.5 -16q17 0 36 9.5t39.5 30.5t33.5 62.5t13 97.5q0 127 -81 211.5t-208 84.5q-146 0 -255 -110.5t-109 -252.5q0 -122 82.5 -204t208.5 -82q97 0 188 57l16 -23q-98 -63 -208 -63zM379 112q56 0 102.5 32.5
t77.5 78.5l34 157q-11 36 -42.5 64.5t-80.5 28.5q-85 0 -147.5 -70.5t-62.5 -159.5q0 -58 31.5 -94.5t87.5 -36.5z" />
    <glyph glyph-name="A" unicode="A" horiz-adv-x="675" 
d="M655 0h-37l-74 179h-372l-74 -179h-37l278 667h38zM532 209l-174 421l-174 -421h348z" />
    <glyph glyph-name="B" unicode="B" horiz-adv-x="594" 
d="M383 0h-255v667h251q82 0 132 -44.5t50 -125.5q0 -60 -35 -101.5t-83 -51.5q53 -8 92 -57t39 -107q0 -85 -51.5 -132.5t-139.5 -47.5zM379 358q71 0 109 39t38 100q0 60 -38.5 100t-108.5 40h-219v-279h219zM383 30q73 0 114.5 40t41.5 109q0 61 -41 105t-115 44h-223
v-298h223z" />
    <glyph glyph-name="C" unicode="C" horiz-adv-x="691" 
d="M438 -12q-141 0 -237 97t-96 248t96 248t237 97t232 -105l-25 -22q-36 45 -90.5 71t-116.5 26q-127 0 -212.5 -88t-85.5 -227q0 -138 85.5 -226.5t212.5 -88.5q62 0 116.5 26t90.5 71l26 -21q-94 -106 -233 -106z" />
    <glyph glyph-name="D" unicode="D" horiz-adv-x="678" 
d="M326 0h-198v667h198q150 0 241 -97.5t91 -236.5q0 -140 -90.5 -236.5t-241.5 -96.5zM326 30q138 0 217.5 86t79.5 217q0 130 -80 217t-217 87h-166v-607h166z" />
    <glyph glyph-name="E" unicode="E" horiz-adv-x="556" 
d="M536 0h-408v667h408v-30h-376v-279h369v-30h-369v-298h376v-30z" />
    <glyph glyph-name="F" unicode="F" horiz-adv-x="556" 
d="M160 0h-32v667h408v-30h-376v-279h369v-30h-369v-328z" />
    <glyph glyph-name="G" unicode="G" horiz-adv-x="702" 
d="M438 -13q-141 0 -237 97t-96 249q0 151 96 248t237 97q144 0 244 -103l-21 -22q-39 45 -98 70t-125 25q-127 0 -212.5 -88t-85.5 -227q0 -138 85.5 -227t212.5 -89q67 0 122 26.5t90 63.5v183h-275v30h307v-226q-44 -49 -107.5 -78t-136.5 -29z" />
    <glyph glyph-name="H" unicode="H" horiz-adv-x="667" 
d="M647 0h-32v328h-455v-328h-32v667h32v-309h455v309h32v-667z" />
    <glyph glyph-name="I" unicode="I" horiz-adv-x="180" 
d="M160 0h-32v667h32v-667z" />
    <glyph glyph-name="J" unicode="J" horiz-adv-x="437" 
d="M225 -12q-107 0 -169 87l27 24q57 -81 142 -81q73 0 116.5 46.5t43.5 120.5v482h32v-482q0 -95 -55 -146t-137 -51z" />
    <glyph glyph-name="K" unicode="K" horiz-adv-x="600" 
d="M580 0h-43l-297 328l-80 -87v-241h-32v667h32v-385l347 385h43l-290 -319z" />
    <glyph glyph-name="L" unicode="L" horiz-adv-x="499" 
d="M479 0h-367v667h32v-637h335v-30z" />
    <glyph glyph-name="M" unicode="M" horiz-adv-x="742" 
d="M722 0h-32v629l-260 -629h-10l-260 629v-629h-32v667h51l246 -597l246 597h51v-667z" />
    <glyph glyph-name="N" unicode="N" horiz-adv-x="662" 
d="M642 0h-32l-450 615v-615h-32v667h32l450 -609v609h32v-667z" />
    <glyph glyph-name="O" unicode="O" horiz-adv-x="759" 
d="M422 -12q-143 0 -230 98.5t-87 246.5t87 246.5t230 98.5q142 0 229.5 -98.5t87.5 -246.5t-87.5 -246.5t-229.5 -98.5zM422 18q127 0 204.5 88.5t77.5 226.5q0 139 -77.5 227t-204.5 88q-128 0 -205 -88t-77 -227q0 -138 77 -226.5t205 -88.5z" />
    <glyph glyph-name="P" unicode="P" horiz-adv-x="574" 
d="M160 0h-32v667h231q90 0 142.5 -54.5t52.5 -134.5q0 -79 -53 -134t-142 -55h-199v-289zM358 319q73 0 117 44.5t44 114.5t-44 114.5t-117 44.5h-198v-318h198z" />
    <glyph glyph-name="Q" unicode="Q" horiz-adv-x="759" 
d="M422 -12q-143 0 -230 98.5t-87 246.5t87 246.5t230 98.5q142 0 229.5 -98.5t87.5 -246.5q0 -158 -97 -257l76 -76l-22 -23l-78 78q-83 -67 -196 -67zM422 18q100 0 173 59l-110 111l23 23l111 -112q85 88 85 234q0 139 -77.5 227t-204.5 88q-128 0 -205 -88t-77 -227
q0 -138 77 -226.5t205 -88.5z" />
    <glyph glyph-name="R" unicode="R" horiz-adv-x="584" 
d="M564 0h-41l-203 288h-160v-288h-32v667h230q85 0 141 -50.5t56 -138.5t-56.5 -139t-140.5 -51zM358 318q73 0 117.5 45t44.5 115t-44.5 114.5t-117.5 44.5h-198v-319h198z" />
    <glyph glyph-name="S" unicode="S" horiz-adv-x="574" 
d="M326 -12q-75 0 -135 29t-98 77l26 23q81 -99 207 -99q55 0 95 14.5t60 38t29 48t9 50.5q0 51 -30 85.5t-75 49.5t-97.5 31.5t-97.5 32t-75 51.5t-30 89q0 78 61 124t148 46q140 0 216 -94l-25 -23q-67 87 -191 87q-74 0 -124 -39.5t-50 -100.5q0 -38 22.5 -65t58 -42
t79 -27.5t86.5 -27t78.5 -34.5t58 -56.5t22.5 -86.5q0 -31 -11 -60.5t-35 -58t-71 -45.5t-111 -17z" />
    <glyph glyph-name="T" unicode="T" horiz-adv-x="581" 
d="M335 0h-32v637h-225v30h483v-30h-226v-637z" />
    <glyph glyph-name="U" unicode="U" horiz-adv-x="644" 
d="M376 -12q-120 0 -184 70t-64 195v414h32v-414q0 -112 56 -173.5t160 -61.5t160 61.5t56 173.5v414h32v-414q0 -125 -64 -195t-184 -70z" />
    <glyph glyph-name="V" unicode="V" horiz-adv-x="675" 
d="M377 0h-38l-278 667h37l260 -630l260 630h37z" />
    <glyph glyph-name="W" unicode="W" horiz-adv-x="887" 
d="M677 0h-38l-173 607l-173 -607h-38l-190 667h35l174 -619l175 619h34l175 -619l174 619h35z" />
    <glyph glyph-name="X" unicode="X" horiz-adv-x="673" 
d="M653 0h-42l-252 318l-252 -318h-42l276 342l-261 325h43l236 -299l236 299h43l-261 -324z" />
    <glyph glyph-name="Y" unicode="Y" horiz-adv-x="649" 
d="M361 0h-32v289l-268 378h41l243 -346l243 346h41l-268 -378v-289z" />
    <glyph glyph-name="Z" unicode="Z" horiz-adv-x="585" 
d="M565 0h-472v30l427 607h-427v30h465v-30l-428 -607h435v-30z" />
    <glyph glyph-name="bracketleft" unicode="[" horiz-adv-x="255" 
d="M235 -190h-161v868h161v-30h-131v-808h131v-30z" />
    <glyph glyph-name="backslash" unicode="\" horiz-adv-x="328" 
d="M277 -20l-237 707h31l237 -707h-31z" />
    <glyph glyph-name="bracketright" unicode="]" horiz-adv-x="238" 
d="M218 -190h-161v30h131v808h-131v30h161v-868z" />
    <glyph glyph-name="asciicircum" unicode="^" horiz-adv-x="465" 
d="M445 333h-34l-159 307l-159 -307h-34l180 334h26z" />
    <glyph glyph-name="underscore" unicode="_" horiz-adv-x="627" 
d="M607 -70h-570v30h570v-30z" />
    <glyph glyph-name="grave" unicode="`" horiz-adv-x="265" 
d="M245 556h-30l-175 144h45z" />
    <glyph glyph-name="a" unicode="a" horiz-adv-x="488" 
d="M468 0h-30v59q-65 -71 -167 -71q-68 0 -118.5 43.5t-50.5 117.5t50 117.5t119 43.5q102 0 167 -71v109q0 56 -39 88t-97 32q-92 0 -155 -76l-23 20q37 43 78 63t100 20q74 0 120 -37.5t46 -108.5v-349zM279 15q103 0 159 74v120q-56 74 -159 74q-65 0 -104.5 -38.5
t-39.5 -95.5t39.5 -95.5t104.5 -38.5z" />
    <glyph glyph-name="b" unicode="b" horiz-adv-x="566" 
d="M156 111q24 -40 72 -68t102 -28q86 0 134.5 63.5t48.5 162.5t-48.5 163t-134.5 64q-54 0 -102 -29t-72 -69v-259zM156 0h-30v667h30v-267q30 44 75.5 69.5t98.5 25.5q97 0 156.5 -70t59.5 -184q0 -115 -59 -184t-157 -69q-54 0 -101 26.5t-73 66.5v-81z" />
    <glyph glyph-name="c" unicode="c" horiz-adv-x="513" 
d="M328 -12q-102 0 -165 73.5t-63 180.5t63 180t165 73q56 0 94 -20t71 -61l-22 -18q-53 72 -141 72q-91 0 -144 -64.5t-53 -161.5q0 -98 53.5 -162.5t143.5 -64.5q87 0 141 73l22 -19q-33 -41 -71 -61t-94 -20z" />
    <glyph glyph-name="d" unicode="d" horiz-adv-x="540" 
d="M520 0h-30v81q-26 -40 -73 -66.5t-101 -26.5q-98 0 -157 69t-59 184q0 114 59.5 184t156.5 70q53 0 98.5 -25.5t75.5 -69.5v267h30v-667zM316 15q54 0 102 28t72 68v259q-24 40 -72 69t-102 29q-86 0 -134.5 -64t-48.5 -163t48.5 -162.5t134.5 -63.5z" />
    <glyph glyph-name="e" unicode="e" horiz-adv-x="571" 
d="M337 -12q-105 0 -171 71.5t-66 182.5q0 106 65 179.5t162 73.5q106 0 165 -73t59 -180v-10h-417q2 -92 57.5 -154.5t145.5 -62.5q100 0 168 73l18 -19q-78 -81 -186 -81zM519 259q0 49 -20 95.5t-65.5 80t-107.5 33.5q-87 0 -138 -64.5t-54 -144.5h385z" />
    <glyph glyph-name="f" unicode="f" horiz-adv-x="363" 
d="M170 0h-30v456h-80v27h80v51q0 67 32 105t89 38q45 0 82 -30l-18 -24q-29 27 -64 27q-91 0 -91 -116v-51h98v-27h-98v-456z" />
    <glyph glyph-name="g" unicode="g" horiz-adv-x="540" 
d="M316 -196q-63 0 -103.5 15t-81.5 58l22 25q31 -39 68.5 -55t94.5 -16q77 0 125.5 41.5t48.5 124.5v84q-27 -40 -73.5 -67.5t-100.5 -27.5q-98 0 -157 69.5t-59 184.5q0 114 59.5 184.5t156.5 70.5q53 0 98.5 -25.5t75.5 -69.5v83h30v-486q0 -99 -55.5 -146t-148.5 -47z
M316 13q54 0 102 29t72 69v259q-24 40 -72 69t-102 29q-86 0 -134.5 -64.5t-48.5 -163.5t48.5 -163t134.5 -64z" />
    <glyph glyph-name="h" unicode="h" 
d="M482 0h-30v339q0 72 -32 100.5t-93 28.5q-48 0 -96 -26.5t-75 -64.5v-377h-30v667h30v-260q29 35 78 61.5t97 26.5q75 0 113 -36.5t38 -119.5v-339z" />
    <glyph glyph-name="i" unicode="i" horiz-adv-x="190" 
d="M141 566q-11 0 -20 8.5t-9 20.5t9 20.5t20 8.5q12 0 20.5 -8.5t8.5 -20.5t-8.5 -20.5t-20.5 -8.5zM156 0h-30v483h30v-483z" />
    <glyph glyph-name="j" unicode="j" horiz-adv-x="190" 
d="M141 566q-11 0 -20 8.5t-9 20.5t9 20.5t20 8.5q12 0 20.5 -8.5t8.5 -20.5t-8.5 -20.5t-20.5 -8.5zM37 -196q-51 0 -92 38l19 25q32 -36 73 -36q40 0 64.5 23t24.5 70v559h30v-559q0 -120 -119 -120z" />
    <glyph glyph-name="k" unicode="k" horiz-adv-x="534" 
d="M511 0h-43l-212 243l-100 -92v-151h-30v667h30v-478l315 294h43l-235 -218z" />
    <glyph glyph-name="l" unicode="l" horiz-adv-x="176" 
d="M156 0h-30v667h30v-667z" />
    <glyph glyph-name="m" unicode="m" horiz-adv-x="744" 
d="M724 0h-30v348q0 120 -104 120q-40 0 -83.5 -26.5t-66.5 -63.5v-378h-30v348q0 120 -104 120q-40 0 -82.5 -26.5t-67.5 -64.5v-377h-30v483h30v-76q18 29 63 58.5t92 29.5q53 0 85 -27t40 -65q22 36 66.5 64t92.5 28q129 0 129 -147v-348z" />
    <glyph glyph-name="n" unicode="n" 
d="M482 0h-30v337q0 72 -32 101.5t-93 29.5q-48 0 -96 -26.5t-75 -64.5v-377h-30v483h30v-76q29 35 78 61.5t97 26.5q75 0 113 -37.5t38 -120.5v-337z" />
    <glyph glyph-name="o" unicode="o" horiz-adv-x="570" 
d="M325 -12q-100 0 -162.5 72.5t-62.5 181.5q0 108 62.5 180.5t162.5 72.5q101 0 163 -72t62 -181t-62 -181.5t-163 -72.5zM325 15q89 0 140.5 66.5t51.5 160.5q0 93 -51.5 159.5t-140.5 66.5q-88 0 -140 -66.5t-52 -159.5q0 -94 52 -160.5t140 -66.5z" />
    <glyph glyph-name="p" unicode="p" horiz-adv-x="566" 
d="M330 -12q-53 0 -98.5 25.5t-75.5 69.5v-267h-30v667h30v-81q26 40 73 66.5t101 26.5q98 0 157 -69t59 -184q0 -114 -59.5 -184t-156.5 -70zM330 15q86 0 134.5 64t48.5 163t-48.5 162.5t-134.5 63.5q-54 0 -102 -28t-72 -68v-259q24 -40 72 -69t102 -29z" />
    <glyph glyph-name="q" unicode="q" horiz-adv-x="536" 
d="M312 15q54 0 102 29t72 69v259q-24 40 -72 68t-102 28q-86 0 -134.5 -63.5t-48.5 -162.5t48.5 -163t134.5 -64zM312 -12q-97 0 -156.5 70t-59.5 184q0 115 59 184t157 69q54 0 101 -26.5t73 -66.5v81h30v-667h-30v267q-30 -44 -75.5 -69.5t-98.5 -25.5z" />
    <glyph glyph-name="r" unicode="r" horiz-adv-x="342" 
d="M156 0h-30v483h30v-88q73 97 166 97v-36q-9 1 -24 1q-37 0 -81 -30t-61 -65v-362z" />
    <glyph glyph-name="s" unicode="s" horiz-adv-x="454" 
d="M261 -12q-110 0 -177 77l24 22q54 -72 153 -72q65 0 104 31.5t39 80.5q0 41 -32 65t-77.5 35.5t-91 24t-77.5 40.5t-32 75q0 55 44 91.5t120 36.5q109 0 166 -73l-22 -20q-46 66 -144 66q-62 0 -98 -28.5t-36 -72.5q0 -37 32 -58.5t77.5 -32.5t91 -24t77.5 -43.5
t32 -81.5q0 -60 -44.5 -99.5t-128.5 -39.5z" />
    <glyph glyph-name="t" unicode="t" horiz-adv-x="309" 
d="M214 -12q-82 0 -82 97v371h-80v27h80v132h30v-132h98v-27h-98v-371q0 -70 52 -70q35 0 57 26l18 -23q-32 -30 -75 -30z" />
    <glyph glyph-name="u" unicode="u" 
d="M482 0h-30v74q-33 -37 -80 -61.5t-95 -24.5q-75 0 -113 36.5t-38 119.5v339h30v-339q0 -72 32 -100.5t93 -28.5q48 0 96.5 25.5t74.5 62.5v380h30v-483z" />
    <glyph glyph-name="v" unicode="v" horiz-adv-x="520" 
d="M293 0h-35l-207 483h35l190 -448l189 448h35z" />
    <glyph glyph-name="w" unicode="w" horiz-adv-x="742" 
d="M562 0h-24l-146 438l-146 -438h-24l-160 483h33l140 -436l145 436h24l145 -436l140 436h33z" />
    <glyph glyph-name="x" unicode="x" horiz-adv-x="510" 
d="M490 0h-39l-175 228l-175 -228h-39l197 248l-186 235h39l164 -214l164 214h39l-186 -235z" />
    <glyph glyph-name="y" unicode="y" horiz-adv-x="520" 
d="M90 -189l6 28q18 -8 42 -8q25 0 42.5 14.5t33.5 51.5l44 100l-207 486h35l190 -448l189 448h35l-256 -597q-36 -82 -106 -82q-27 0 -48 7z" />
    <glyph glyph-name="z" unicode="z" horiz-adv-x="466" 
d="M446 0h-346v27l307 429h-307v27h342v-27l-309 -429h313v-27z" />
    <glyph glyph-name="braceleft" unicode="{" horiz-adv-x="280" 
d="M260 -190h-62q-39 0 -69 32t-30 81v234q0 30 -13.5 51t-38.5 21v30q25 0 38.5 21t13.5 51v234q0 49 30 81t69 32h62v-30h-62q-28 0 -48.5 -24t-20.5 -59v-234q0 -68 -45 -87q45 -19 45 -87v-234q0 -35 20.5 -59t48.5 -24h62v-30z" />
    <glyph glyph-name="bar" unicode="|" horiz-adv-x="178" 
d="M158 -20h-30v707h30v-707z" />
    <glyph glyph-name="braceright" unicode="}" horiz-adv-x="290" 
d="M57 -190v30h62q28 0 48.5 24t20.5 59v234q0 68 45 87q-45 19 -45 87v234q0 35 -20.5 59t-48.5 24h-62v30h62q39 0 69 -32t30 -81v-234q0 -30 13.5 -51t38.5 -21v-30q-25 0 -38.5 -21t-13.5 -51v-234q0 -49 -30 -81t-69 -32h-62z" />
    <glyph glyph-name="asciitilde" unicode="~" horiz-adv-x="528" 
d="M478 667l30 -3q-7 -68 -19 -115.5t-40 -81.5t-70 -34q-41 0 -66.5 31.5t-35.5 69.5t-30 69.5t-50 31.5q-79 0 -99 -204l-30 5q10 105 39.5 167t89.5 62q33 0 56 -21t34.5 -50.5t22 -59.5t27.5 -51t42 -21q42 0 65.5 50.5t33.5 154.5z" />
    <glyph glyph-name="Non-breakingspace" unicode="&#xa0;" horiz-adv-x="20" 
 />
    <glyph glyph-name="exclamdown" unicode="&#xa1;" horiz-adv-x="197" 
d="M123 -184l11 506h20l11 -506h-42zM111 459q0 13 9.5 23t23.5 10t23.5 -10t9.5 -23t-10 -22.5t-23 -9.5t-23 9.5t-10 22.5z" />
    <glyph glyph-name="cent" unicode="&#xa2;" horiz-adv-x="513" 
d="M302 -100v90q-92 10 -147 81t-55 171t55 170.5t147 80.5v72h30v-70q96 -1 161 -81l-22 -18q-53 70 -139 72v-453q85 0 139 73l22 -19q-65 -80 -161 -81v-88h-30zM133 242q0 -89 45.5 -152.5t123.5 -73.5v450q-79 -10 -124 -72.5t-45 -151.5z" />
    <glyph glyph-name="sterling" unicode="&#xa3;" horiz-adv-x="542" 
d="M57 267v30h143q-7 8 -34 36t-38.5 43.5t-24 46.5t-12.5 66q0 75 58.5 131.5t149.5 56.5q55 0 103.5 -28.5t71.5 -75.5l-26 -18q-15 36 -56 64t-93 28q-73 0 -124 -42.5t-51 -115.5q0 -33 12 -63t26 -47t37.5 -42.5t34.5 -39.5h152v-30h-132q15 -32 15 -64
q0 -50 -22.5 -84t-63.5 -65q28 10 55 10q35 0 83.5 -24t78.5 -24q32 0 62 14t42 29l18 -27q-48 -46 -124 -46q-46 0 -90 24t-88 24q-39 0 -119 -41l-14 33q76 32 114 78t38 99q0 33 -18 64h-164z" />
    <glyph glyph-name="currency" unicode="&#xa4;" horiz-adv-x="546" 
d="M526 137l-29 -29l-56 57q-60 -51 -140 -51t-140 51l-57 -57l-28 29l56 56q-50 62 -50 140q0 79 50 140l-56 57l28 28l57 -56q59 50 140 50q79 0 140 -50l56 56l29 -28l-56 -57q50 -61 50 -140q0 -77 -50 -140zM472 333q0 71 -50 121t-121 50t-121 -50t-50 -121t50 -121
t121 -50t121 50t50 121z" />
    <glyph glyph-name="yen" unicode="&#xa5;" horiz-adv-x="649" 
d="M361 0h-32v129h-268v30h268v130h-268v30h246l-246 348h41l243 -346l243 346h41l-247 -348h247v-30h-268v-130h268v-30h-268v-129z" />
    <glyph glyph-name="brokenbar" unicode="&#xa6;" horiz-adv-x="178" 
d="M158 -20h-30v316h30v-316zM158 371h-30v316h30v-316z" />
    <glyph glyph-name="section" unicode="&#xa7;" horiz-adv-x="454" 
d="M434 306q0 -88 -100 -127q50 -18 75 -46.5t25 -74.5q0 -65 -47.5 -102t-125.5 -37q-65 0 -104.5 20t-72.5 57l24 22q54 -72 153 -72q63 0 103 30.5t40 81.5q0 40 -32 64.5t-77.5 36t-91 24t-77.5 40.5t-32 75q0 52 35.5 84.5t94.5 45.5q-64 18 -97 45t-33 76q0 54 43 91
t121 37q108 0 166 -73l-22 -20q-48 66 -144 66q-58 0 -96 -28.5t-38 -74.5q0 -37 32 -58.5t77.5 -32t91 -23t77.5 -44t32 -83.5zM404 309q0 25 -11.5 43.5t-35 31t-41.5 19t-50 14.5q-79 -21 -110.5 -50t-31.5 -71q0 -23 12.5 -40t34 -27.5t49 -18.5t58.5 -16q15 -3 22 -5
q104 45 104 120z" />
    <glyph glyph-name="dieresis" unicode="&#xa8;" horiz-adv-x="315" 
d="M295 598q0 -11 -8.5 -19.5t-19.5 -8.5t-19.5 8.5t-8.5 19.5t8.5 19.5t19.5 8.5t19.5 -8.5t8.5 -19.5zM93 598q0 -11 -8.5 -19.5t-19.5 -8.5t-19.5 8.5t-8.5 19.5t8.5 19.5t19.5 8.5t19.5 -8.5t8.5 -19.5z" />
    <glyph glyph-name="copyright" unicode="&#xa9;" horiz-adv-x="794" 
d="M774 334q0 -143 -101 -244t-244 -101t-244 101.5t-101 243.5q0 143 101 244t244 101t244 -101t101 -244zM748 334q0 132 -93.5 225.5t-225.5 93.5q-131 0 -225 -93.5t-94 -225.5q0 -131 94 -225t225 -94q132 0 225.5 94t93.5 225zM553 204l20 -20q-56 -65 -144 -65
q-87 0 -147.5 63t-60.5 154t60.5 152.5t147.5 61.5q89 0 144 -64l-20 -20q-19 26 -53.5 41.5t-70.5 15.5q-73 0 -126 -52.5t-53 -135.5q0 -81 53.5 -135t125.5 -54q36 0 70.5 16t53.5 42z" />
    <glyph glyph-name="ordfeminine" unicode="&#xaa;" horiz-adv-x="363" 
d="M343 326h-27v38q-45 -46 -113 -46q-45 0 -79 29t-34 76q0 48 33.5 76t79.5 28q68 0 113 -46v68q0 35 -27 54.5t-63 19.5q-64 0 -103 -50l-18 19q48 56 122 56q52 0 84 -25t32 -74v-223zM212 340q67 0 104 46v73q-37 46 -104 46q-41 0 -67 -23.5t-26 -58.5
q0 -36 25.5 -59.5t67.5 -23.5z" />
    <glyph glyph-name="guillemotleft" unicode="&#xab;" horiz-adv-x="394" 
d="M374 63h-39l-160 180l160 177h39l-160 -177zM269 63h-39l-160 180l160 177h39l-160 -177z" />
    <glyph glyph-name="logicalnot" unicode="&#xac;" horiz-adv-x="525" 
d="M505 448v-228h-32v198h-404v30h436z" />
    <glyph glyph-name="registered" unicode="&#xae;" horiz-adv-x="519" 
d="M499 465q0 -88 -62 -150t-150 -62t-150 62t-62 150t62 150t150 62q89 0 150.5 -61.5t61.5 -150.5zM473 465q0 78 -54.5 132t-131.5 54t-131.5 -54t-54.5 -132q0 -77 54.5 -131.5t131.5 -54.5t131.5 54.5t54.5 131.5zM383 343h-37l-63 96h-47v-96h-29v243h99
q31 0 52.5 -20.5t21.5 -53.5q0 -35 -22.5 -53.5t-39.5 -18.5zM350 512q0 20 -14 33.5t-30 13.5h-70v-92h70q16 0 30 13.5t14 31.5z" />
    <glyph glyph-name="macron" unicode="&#xaf;" horiz-adv-x="423" 
d="M403 591h-363v27h363v-27z" />
    <glyph glyph-name="degree" unicode="&#xb0;" horiz-adv-x="307" 
d="M287 566q0 -46 -32.5 -78t-78.5 -32t-78 32t-32 78t32 78.5t78 32.5t78.5 -32.5t32.5 -78.5zM257 566q0 33 -24 57t-57 24t-56.5 -24t-23.5 -57t23.5 -56.5t56.5 -23.5t57 23.5t24 56.5z" />
    <glyph glyph-name="plusminus" unicode="&#xb1;" horiz-adv-x="525" 
d="M505 322h-202v-222h-32v222h-202v30h202v216h32v-216h202v-30zM505 0h-436v30h436v-30z" />
    <glyph glyph-name="Superscripttwo" unicode="&#xb2;" horiz-adv-x="385" 
d="M365 421h-271v24q119 86 179.5 149t60.5 120q0 44 -29.5 65.5t-70.5 21.5q-78 0 -114 -53l-20 18q43 61 135 61q50 0 89 -28t39 -84q0 -64 -57.5 -126t-167.5 -142h227v-26z" />
    <glyph glyph-name="Superscriptthree" unicode="&#xb3;" horiz-adv-x="386" 
d="M366 528q0 -51 -37 -82.5t-101 -31.5q-48 0 -84 18.5t-54 47.5l20 17q40 -57 118 -57q50 0 79 23.5t29 64.5q0 44 -33 65.5t-84 21.5q-30 0 -36 -1v27q6 -1 36 -1q48 0 79.5 20t31.5 61q0 37 -30 58.5t-73 21.5q-67 0 -113 -52l-19 18q51 60 133 60q55 0 93 -28.5
t38 -76.5q0 -43 -28 -66t-61 -28q33 -3 64.5 -28.5t31.5 -71.5z" />
    <glyph glyph-name="acute" unicode="&#xb4;" horiz-adv-x="265" 
d="M245 700l-175 -144h-30l160 144h45z" />
    <glyph glyph-name="mu" unicode="&#xb5;" 
d="M156 -184h-30v667h30v-339q0 -72 32 -101.5t93 -29.5q48 0 96.5 26.5t74.5 63.5v380h30v-483h-30v74q-33 -37 -80 -61.5t-95 -24.5q-86 0 -121 45v-217z" />
    <glyph glyph-name="paragraph" unicode="&#xb6;" horiz-adv-x="417" 
d="M397 -100h-30v737h-98v-737h-30v423q-71 0 -121.5 50.5t-50.5 121.5t50.5 121.5t121.5 50.5h158v-767z" />
    <glyph glyph-name="periodcentered" unicode="&#xb7;" horiz-adv-x="197" 
d="M177 245q0 -13 -9.5 -23t-23.5 -10t-23.5 10t-9.5 23t10 22.5t23 9.5t23 -9.5t10 -22.5z" />
    <glyph glyph-name="cedilla" unicode="&#xb8;" horiz-adv-x="251" 
d="M133 -187q-58 0 -93 28l14 27q32 -28 79 -28q29 0 49 13.5t20 35.5q0 43 -44 43q-27 0 -43 -19l-22 13l31 85h30l-26 -69q15 12 38 12q29 0 47 -17.5t18 -47.5q0 -33 -28 -54.5t-70 -21.5z" />
    <glyph glyph-name="Superscriptone" unicode="&#xb9;" horiz-adv-x="192" 
d="M172 421h-30v360l-63 -69l-19 20l85 89h27v-400z" />
    <glyph glyph-name="ordmasculine" unicode="&#xba;" horiz-adv-x="417" 
d="M242 318q-68 0 -111 47.5t-43 117.5q0 71 43 118t111 47q69 0 112 -47t43 -118q0 -70 -43 -117.5t-112 -47.5zM242 344q58 0 92 40.5t34 98.5t-34 98t-92 40q-57 0 -90.5 -40t-33.5 -98t33.5 -98.5t90.5 -40.5z" />
    <glyph glyph-name="guillemotright" unicode="&#xbb;" horiz-adv-x="394" 
d="M269 243l-160 -180h-39l160 180l-160 177h39zM374 243l-160 -180h-39l160 180l-160 177h39z" />
    <glyph glyph-name="onequarter" unicode="&#xbc;" horiz-adv-x="729" 
d="M586 667l-427 -667h-36l426 667h37zM709 113h-62v-113h-29v113h-196v26l186 261h39v-261h62v-26zM618 139v232l-165 -232h165zM172 267h-30v360l-63 -69l-19 20l85 89h27v-400z" />
    <glyph glyph-name="onehalf" unicode="&#xbd;" horiz-adv-x="760" 
d="M586 667l-427 -667h-36l426 667h37zM740 0h-271v24q119 86 179.5 149t60.5 120q0 44 -29.5 65.5t-70.5 21.5q-78 0 -114 -53l-20 18q43 61 135 61q50 0 89 -28t39 -84q0 -64 -57.5 -126t-167.5 -142h227v-26zM172 267h-30v360l-63 -69l-19 20l85 89h27v-400z" />
    <glyph glyph-name="threequarters" unicode="&#xbe;" horiz-adv-x="855" 
d="M712 667l-427 -667h-36l426 667h37zM835 113h-62v-113h-29v113h-196v26l186 261h39v-261h62v-26zM744 139v232l-165 -232h165zM366 374q0 -51 -37 -82.5t-101 -31.5q-48 0 -84 18.5t-54 47.5l20 17q40 -57 118 -57q50 0 79 23.5t29 64.5q0 44 -33 65.5t-84 21.5
q-30 0 -36 -1v27q6 -1 36 -1q48 0 79.5 20t31.5 61q0 37 -30 58.5t-73 21.5q-67 0 -113 -52l-19 18q51 60 133 60q55 0 93 -28.5t38 -76.5q0 -43 -28 -66t-61 -28q33 -3 64.5 -28.5t31.5 -71.5z" />
    <glyph glyph-name="questiondown" unicode="&#xbf;" horiz-adv-x="501" 
d="M282 312q44 -33 44 -76q0 -37 -21.5 -67t-52.5 -50.5t-62 -42t-52.5 -52t-21.5 -68.5q0 -52 40 -87.5t111 -35.5q68 0 112.5 25t78.5 73l23 -21q-75 -107 -214 -107q-85 0 -135.5 44.5t-50.5 108.5q0 36 16 66.5t40 50t51.5 39.5t51.5 36.5t40 39t16 48.5q0 30 -33 53z
M285 492q13 0 23 -10t10 -23t-10 -22.5t-23 -9.5t-23 9.5t-10 22.5t10 23t23 10z" />
    <glyph glyph-name="Agrave" unicode="&#xc0;" horiz-adv-x="675" 
d="M411 728h-30l-175 144h45zM655 0h-37l-74 179h-372l-74 -179h-37l278 667h38zM532 209l-174 421l-174 -421h348z" />
    <glyph glyph-name="Aacute" unicode="&#xc1;" horiz-adv-x="675" 
d="M511 872l-175 -144h-30l160 144h45zM655 0h-37l-74 179h-372l-74 -179h-37l278 667h38zM532 209l-174 421l-174 -421h348z" />
    <glyph glyph-name="Acircumflex" unicode="&#xc2;" horiz-adv-x="675" 
d="M477 728h-28l-91 120l-88 -120h-28l98 144h36zM655 0h-37l-74 179h-372l-74 -179h-37l278 667h38zM532 209l-174 421l-174 -421h348z" />
    <glyph glyph-name="Atilde" unicode="&#xc3;" horiz-adv-x="675" 
d="M421 726q-26 0 -44.5 17.5t-27 39t-23 39t-33.5 17.5q-26 0 -42.5 -26.5t-16.5 -80.5h-26q0 57 23.5 95.5t64.5 38.5q26 0 44.5 -17.5t27 -39t23 -39t33.5 -17.5q26 0 42.5 26.5t16.5 80.5h26q0 -57 -23.5 -95.5t-64.5 -38.5zM655 0h-37l-74 179h-372l-74 -179h-37
l278 667h38zM532 209l-174 421l-174 -421h348z" />
    <glyph glyph-name="Adieresis" unicode="&#xc4;" horiz-adv-x="675" 
d="M488 764q0 -11 -8.5 -19.5t-19.5 -8.5t-19.5 8.5t-8.5 19.5t8.5 19.5t19.5 8.5t19.5 -8.5t8.5 -19.5zM286 764q0 -11 -8.5 -19.5t-19.5 -8.5t-19.5 8.5t-8.5 19.5t8.5 19.5t19.5 8.5t19.5 -8.5t8.5 -19.5zM655 0h-37l-74 179h-372l-74 -179h-37l278 667h38zM532 209
l-174 421l-174 -421h348z" />
    <glyph glyph-name="Aring" unicode="&#xc5;" horiz-adv-x="675" 
d="M359 692q-38 0 -65.5 27.5t-27.5 65.5t27.5 65.5t65.5 27.5t65 -27.5t27 -65.5t-27 -65.5t-65 -27.5zM359 716q28 0 48 20t20 49t-20 49t-48 20q-29 0 -49 -20t-20 -49t20 -49t49 -20zM655 0h-37l-74 179h-372l-74 -179h-37l278 667h38zM532 209l-174 421l-174 -421h348z
" />
    <glyph glyph-name="AE" unicode="&#xc6;" horiz-adv-x="925" 
d="M905 0h-408v179h-286l-113 -179h-37l425 667h419v-30h-376v-279h369v-30h-369v-298h376v-30zM497 209v421l-269 -421h269z" />
    <glyph glyph-name="Ccedilla" unicode="&#xc7;" horiz-adv-x="691" 
d="M432 -183q-58 0 -93 28l14 27q32 -28 79 -28q29 0 49 13.5t20 35.5q0 43 -44 43q-27 0 -43 -19l-22 13l21 59q-132 9 -220 104.5t-88 239.5q0 151 96 248t237 97t232 -105l-25 -22q-36 45 -90.5 71t-116.5 26q-127 0 -212.5 -88t-85.5 -227q0 -138 85.5 -226.5
t212.5 -88.5q62 0 116.5 26t90.5 71l26 -21q-93 -105 -228 -106l-16 -42q15 12 38 12q29 0 47 -17.5t18 -47.5q0 -33 -28 -54.5t-70 -21.5z" />
    <glyph glyph-name="Egrave" unicode="&#xc8;" horiz-adv-x="556" 
d="M384 728h-30l-175 144h45zM536 0h-408v667h408v-30h-376v-279h369v-30h-369v-298h376v-30z" />
    <glyph glyph-name="Eacute" unicode="&#xc9;" horiz-adv-x="556" 
d="M484 872l-175 -144h-30l160 144h45zM536 0h-408v667h408v-30h-376v-279h369v-30h-369v-298h376v-30z" />
    <glyph glyph-name="Ecircumflex" unicode="&#xca;" horiz-adv-x="556" 
d="M448 728h-28l-91 120l-88 -120h-28l98 144h36zM536 0h-408v667h408v-30h-376v-279h369v-30h-369v-298h376v-30z" />
    <glyph glyph-name="Edieresis" unicode="&#xcb;" horiz-adv-x="556" 
d="M459 764q0 -11 -8.5 -19.5t-19.5 -8.5t-19.5 8.5t-8.5 19.5t8.5 19.5t19.5 8.5t19.5 -8.5t8.5 -19.5zM257 764q0 -11 -8.5 -19.5t-19.5 -8.5t-19.5 8.5t-8.5 19.5t8.5 19.5t19.5 8.5t19.5 -8.5t8.5 -19.5zM536 0h-408v667h408v-30h-376v-279h369v-30h-369v-298h376v-30z
" />
    <glyph glyph-name="Igrave" unicode="&#xcc;" horiz-adv-x="217" 
d="M197 728h-30l-175 144h45zM160 0h-32v667h32v-667z" />
    <glyph glyph-name="Iacute" unicode="&#xcd;" horiz-adv-x="317" 
d="M297 872l-175 -144h-30l160 144h45zM160 0h-32v667h32v-667z" />
    <glyph glyph-name="Icircumflex" unicode="&#xce;" horiz-adv-x="283" 
d="M263 728h-28l-91 120l-88 -120h-28l98 144h36zM160 0h-32v667h32v-667z" />
    <glyph glyph-name="Idieresis" unicode="&#xcf;" horiz-adv-x="293" 
d="M273 764q0 -11 -8.5 -19.5t-19.5 -8.5t-19.5 8.5t-8.5 19.5t8.5 19.5t19.5 8.5t19.5 -8.5t8.5 -19.5zM71 764q0 -11 -8.5 -19.5t-19.5 -8.5t-19.5 8.5t-8.5 19.5t8.5 19.5t19.5 8.5t19.5 -8.5t8.5 -19.5zM160 0h-32v667h32v-667z" />
    <glyph glyph-name="Eth" unicode="&#xd0;" horiz-adv-x="709" 
d="M357 0h-198v319h-107v30h107v318h198q150 0 241 -97.5t91 -236.5q0 -140 -90.5 -236.5t-241.5 -96.5zM379 319h-188v-289h166q138 0 217.5 86t79.5 217q0 130 -80 217t-217 87h-166v-288h188v-30z" />
    <glyph glyph-name="Ntilde" unicode="&#xd1;" horiz-adv-x="662" 
d="M446 726q-26 0 -44.5 17.5t-27 39t-23 39t-33.5 17.5q-26 0 -42.5 -26.5t-16.5 -80.5h-26q0 57 23.5 95.5t64.5 38.5q26 0 44.5 -17.5t27 -39t23 -39t33.5 -17.5q26 0 42.5 26.5t16.5 80.5h26q0 -57 -23.5 -95.5t-64.5 -38.5zM642 0h-32l-450 615v-615h-32v667h32
l450 -609v609h32v-667z" />
    <glyph glyph-name="Ograve" unicode="&#xd2;" horiz-adv-x="759" 
d="M479 728h-30l-175 144h45zM422 -12q-143 0 -230 98.5t-87 246.5t87 246.5t230 98.5q142 0 229.5 -98.5t87.5 -246.5t-87.5 -246.5t-229.5 -98.5zM422 18q127 0 204.5 88.5t77.5 226.5q0 139 -77.5 227t-204.5 88q-128 0 -205 -88t-77 -227q0 -138 77 -226.5t205 -88.5z
" />
    <glyph glyph-name="Oacute" unicode="&#xd3;" horiz-adv-x="759" 
d="M576 872l-175 -144h-30l160 144h45zM422 -12q-143 0 -230 98.5t-87 246.5t87 246.5t230 98.5q142 0 229.5 -98.5t87.5 -246.5t-87.5 -246.5t-229.5 -98.5zM422 18q127 0 204.5 88.5t77.5 226.5q0 139 -77.5 227t-204.5 88q-128 0 -205 -88t-77 -227q0 -138 77 -226.5
t205 -88.5z" />
    <glyph glyph-name="Ocircumflex" unicode="&#xd4;" horiz-adv-x="759" 
d="M541 728h-28l-91 120l-88 -120h-28l98 144h36zM422 -12q-143 0 -230 98.5t-87 246.5t87 246.5t230 98.5q142 0 229.5 -98.5t87.5 -246.5t-87.5 -246.5t-229.5 -98.5zM422 18q127 0 204.5 88.5t77.5 226.5q0 139 -77.5 227t-204.5 88q-128 0 -205 -88t-77 -227
q0 -138 77 -226.5t205 -88.5z" />
    <glyph glyph-name="Otilde" unicode="&#xd5;" horiz-adv-x="759" 
d="M485 726q-26 0 -44.5 17.5t-27 39t-23 39t-33.5 17.5q-26 0 -42.5 -26.5t-16.5 -80.5h-26q0 57 23.5 95.5t64.5 38.5q26 0 44.5 -17.5t27 -39t23 -39t33.5 -17.5q26 0 42.5 26.5t16.5 80.5h26q0 -57 -23.5 -95.5t-64.5 -38.5zM422 -12q-143 0 -230 98.5t-87 246.5
t87 246.5t230 98.5q142 0 229.5 -98.5t87.5 -246.5t-87.5 -246.5t-229.5 -98.5zM422 18q127 0 204.5 88.5t77.5 226.5q0 139 -77.5 227t-204.5 88q-128 0 -205 -88t-77 -227q0 -138 77 -226.5t205 -88.5z" />
    <glyph glyph-name="Odieresis" unicode="&#xd6;" horiz-adv-x="759" 
d="M549 764q0 -11 -8.5 -19.5t-19.5 -8.5t-19.5 8.5t-8.5 19.5t8.5 19.5t19.5 8.5t19.5 -8.5t8.5 -19.5zM347 764q0 -11 -8.5 -19.5t-19.5 -8.5t-19.5 8.5t-8.5 19.5t8.5 19.5t19.5 8.5t19.5 -8.5t8.5 -19.5zM422 -12q-143 0 -230 98.5t-87 246.5t87 246.5t230 98.5
q142 0 229.5 -98.5t87.5 -246.5t-87.5 -246.5t-229.5 -98.5zM422 18q127 0 204.5 88.5t77.5 226.5q0 139 -77.5 227t-204.5 88q-128 0 -205 -88t-77 -227q0 -138 77 -226.5t205 -88.5z" />
    <glyph glyph-name="multiply" unicode="&#xd7;" horiz-adv-x="483" 
d="M442 158l-155 155l-155 -155l-21 21l155 155l-155 155l21 21l155 -155l155 155l21 -21l-155 -155l155 -155z" />
    <glyph glyph-name="Oslash" unicode="&#xd8;" horiz-adv-x="759" 
d="M422 -12q-92 0 -163 43l-18 -31h-36l29 48q-62 47 -95.5 121t-33.5 164q0 148 87 246.5t230 98.5q89 0 162 -43l19 32h36l-30 -50q62 -46 96 -120.5t34 -163.5q0 -148 -87.5 -246.5t-229.5 -98.5zM422 18q127 0 204.5 88.5t77.5 226.5q0 169 -111 258l-318 -534
q64 -39 147 -39zM140 333q0 -170 110 -258l318 534q-64 39 -146 39q-128 0 -205 -88t-77 -227z" />
    <glyph glyph-name="Ugrave" unicode="&#xd9;" horiz-adv-x="644" 
d="M430 728h-30l-175 144h45zM376 -12q-120 0 -184 70t-64 195v414h32v-414q0 -112 56 -173.5t160 -61.5t160 61.5t56 173.5v414h32v-414q0 -125 -64 -195t-184 -70z" />
    <glyph glyph-name="Uacute" unicode="&#xda;" horiz-adv-x="644" 
d="M527 872l-175 -144h-30l160 144h45zM376 -12q-120 0 -184 70t-64 195v414h32v-414q0 -112 56 -173.5t160 -61.5t160 61.5t56 173.5v414h32v-414q0 -125 -64 -195t-184 -70z" />
    <glyph glyph-name="Ucircumflex" unicode="&#xdb;" horiz-adv-x="644" 
d="M497 728h-28l-91 120l-88 -120h-28l98 144h36zM376 -12q-120 0 -184 70t-64 195v414h32v-414q0 -112 56 -173.5t160 -61.5t160 61.5t56 173.5v414h32v-414q0 -125 -64 -195t-184 -70z" />
    <glyph glyph-name="Udieresis" unicode="&#xdc;" horiz-adv-x="644" 
d="M505 764q0 -11 -8.5 -19.5t-19.5 -8.5t-19.5 8.5t-8.5 19.5t8.5 19.5t19.5 8.5t19.5 -8.5t8.5 -19.5zM303 764q0 -11 -8.5 -19.5t-19.5 -8.5t-19.5 8.5t-8.5 19.5t8.5 19.5t19.5 8.5t19.5 -8.5t8.5 -19.5zM376 -12q-120 0 -184 70t-64 195v414h32v-414q0 -112 56 -173.5
t160 -61.5t160 61.5t56 173.5v414h32v-414q0 -125 -64 -195t-184 -70z" />
    <glyph glyph-name="Yacute" unicode="&#xdd;" horiz-adv-x="649" 
d="M502 872l-175 -144h-30l160 144h45zM361 0h-32v289l-268 378h41l243 -346l243 346h41l-268 -378v-289z" />
    <glyph glyph-name="Thorn" unicode="&#xde;" horiz-adv-x="574" 
d="M160 0h-32v667h32v-129h199q90 0 142.5 -55t52.5 -135q0 -79 -53 -133.5t-142 -54.5h-199v-160zM358 190q73 0 117 44t44 114t-44 115t-117 45h-198v-318h198z" />
    <glyph glyph-name="germandbls" unicode="&#xdf;" horiz-adv-x="596" 
d="M576 127q0 -57 -43 -98t-130 -41q-65 0 -104.5 20t-72.5 57l24 22q55 -72 153 -72q69 0 106 33t37 79q0 41 -32 65t-77.5 35.5t-91 24t-77.5 40.5t-32 75q0 38 26 67t57 44.5t57 38.5t26 50q0 38 -36.5 60.5t-81.5 22.5q-54 0 -91 -36t-37 -95v-519h-30v519q0 68 44 113
t114 45q62 0 105 -30.5t43 -79.5q0 -36 -26 -62.5t-57 -41t-57 -40t-26 -58.5q0 -37 32 -58.5t77.5 -32t91 -23t77.5 -43t32 -81.5z" />
    <glyph glyph-name="agrave" unicode="&#xe0;" horiz-adv-x="488" 
d="M468 0h-30v59q-65 -71 -167 -71q-68 0 -118.5 43.5t-50.5 117.5t50 117.5t119 43.5q102 0 167 -71v109q0 56 -39 88t-97 32q-92 0 -155 -76l-23 20q37 43 78 63t100 20q74 0 120 -37.5t46 -108.5v-349zM279 15q103 0 159 74v120q-56 74 -159 74q-65 0 -104.5 -38.5
t-39.5 -95.5t39.5 -95.5t104.5 -38.5zM355 556h-30l-175 144h45z" />
    <glyph glyph-name="aacute" unicode="&#xe1;" horiz-adv-x="488" 
d="M468 0h-30v59q-65 -71 -167 -71q-68 0 -118.5 43.5t-50.5 117.5t50 117.5t119 43.5q102 0 167 -71v109q0 56 -39 88t-97 32q-92 0 -155 -76l-23 20q37 43 78 63t100 20q74 0 120 -37.5t46 -108.5v-349zM279 15q103 0 159 74v120q-56 74 -159 74q-65 0 -104.5 -38.5
t-39.5 -95.5t39.5 -95.5t104.5 -38.5zM453 700l-175 -144h-30l160 144h45z" />
    <glyph glyph-name="acircumflex" unicode="&#xe2;" horiz-adv-x="488" 
d="M468 0h-30v59q-65 -71 -167 -71q-68 0 -118.5 43.5t-50.5 117.5t50 117.5t119 43.5q102 0 167 -71v109q0 56 -39 88t-97 32q-92 0 -155 -76l-23 20q37 43 78 63t100 20q74 0 120 -37.5t46 -108.5v-349zM279 15q103 0 159 74v120q-56 74 -159 74q-65 0 -104.5 -38.5
t-39.5 -95.5t39.5 -95.5t104.5 -38.5zM421 556h-28l-91 120l-88 -120h-28l98 144h36z" />
    <glyph glyph-name="atilde" unicode="&#xe3;" horiz-adv-x="488" 
d="M468 0h-30v59q-65 -71 -167 -71q-68 0 -118.5 43.5t-50.5 117.5t50 117.5t119 43.5q102 0 167 -71v109q0 56 -39 88t-97 32q-92 0 -155 -76l-23 20q37 43 78 63t100 20q74 0 120 -37.5t46 -108.5v-349zM279 15q103 0 159 74v120q-56 74 -159 74q-65 0 -104.5 -38.5
t-39.5 -95.5t39.5 -95.5t104.5 -38.5zM364 554q-26 0 -44.5 17.5t-27 39t-23 39t-33.5 17.5q-26 0 -42.5 -26.5t-16.5 -80.5h-26q0 57 23.5 95.5t64.5 38.5q26 0 44.5 -17.5t27 -39t23 -39t33.5 -17.5q26 0 42.5 26.5t16.5 80.5h26q0 -57 -23.5 -95.5t-64.5 -38.5z" />
    <glyph glyph-name="adieresis" unicode="&#xe4;" horiz-adv-x="488" 
d="M468 0h-30v59q-65 -71 -167 -71q-68 0 -118.5 43.5t-50.5 117.5t50 117.5t119 43.5q102 0 167 -71v109q0 56 -39 88t-97 32q-92 0 -155 -76l-23 20q37 43 78 63t100 20q74 0 120 -37.5t46 -108.5v-349zM279 15q103 0 159 74v120q-56 74 -159 74q-65 0 -104.5 -38.5
t-39.5 -95.5t39.5 -95.5t104.5 -38.5zM429 598q0 -11 -8.5 -19.5t-19.5 -8.5t-19.5 8.5t-8.5 19.5t8.5 19.5t19.5 8.5t19.5 -8.5t8.5 -19.5zM227 598q0 -11 -8.5 -19.5t-19.5 -8.5t-19.5 8.5t-8.5 19.5t8.5 19.5t19.5 8.5t19.5 -8.5t8.5 -19.5z" />
    <glyph glyph-name="aring" unicode="&#xe5;" horiz-adv-x="488" 
d="M468 0h-30v59q-65 -71 -167 -71q-68 0 -118.5 43.5t-50.5 117.5t50 117.5t119 43.5q102 0 167 -71v109q0 56 -39 88t-97 32q-92 0 -155 -76l-23 20q37 43 78 63t100 20q74 0 120 -37.5t46 -108.5v-349zM279 15q103 0 159 74v120q-56 74 -159 74q-65 0 -104.5 -38.5
t-39.5 -95.5t39.5 -95.5t104.5 -38.5zM301 553q-38 0 -65.5 27.5t-27.5 65.5t27.5 65.5t65.5 27.5t65 -27.5t27 -65.5t-27 -65.5t-65 -27.5zM301 577q28 0 48 20t20 49t-20 49t-48 20q-29 0 -49 -20.5t-20 -48.5t20 -48.5t49 -20.5z" />
    <glyph glyph-name="ae" unicode="&#xe6;" horiz-adv-x="905" 
d="M885 232h-417q2 -92 57.5 -154.5t145.5 -62.5q100 0 168 73l18 -19q-78 -81 -186 -81q-130 0 -200 111q-67 -111 -200 -111q-68 0 -118.5 44t-50.5 118t50 117t119 43q102 0 167 -69v107q0 56 -39 88t-97 32q-92 0 -155 -76l-23 20q37 43 78 63t100 20q72 0 115.5 -33
t47.5 -96q26 56 77 92.5t119 36.5q106 0 165 -73t59 -180v-10zM468 259h385q0 49 -20 95.5t-65.5 80t-107.5 33.5q-87 0 -138 -64.5t-54 -144.5zM458 125q-20 38 -20 82q-56 76 -159 76q-65 0 -104.5 -38.5t-39.5 -95.5t39.5 -95.5t104.5 -38.5q119 0 179 110z" />
    <glyph glyph-name="ccedilla" unicode="&#xe7;" horiz-adv-x="513" 
d="M328 -185q-58 0 -93 28l14 27q32 -28 79 -28q29 0 49 13.5t20 35.5q0 43 -44 43q-27 0 -43 -19l-22 13l22 61q-95 7 -152.5 79t-57.5 174q0 107 63 180t165 73q56 0 94 -20t71 -61l-22 -18q-53 72 -141 72q-91 0 -144 -64.5t-53 -161.5q0 -98 53.5 -162.5t143.5 -64.5
q87 0 141 73l22 -19q-61 -77 -154 -81l-16 -44q15 12 38 12q29 0 47 -17.5t18 -47.5q0 -33 -28 -54.5t-70 -21.5z" />
    <glyph glyph-name="egrave" unicode="&#xe8;" horiz-adv-x="571" 
d="M337 -12q-105 0 -171 71.5t-66 182.5q0 106 65 179.5t162 73.5q106 0 165 -73t59 -180v-10h-417q2 -92 57.5 -154.5t145.5 -62.5q100 0 168 73l18 -19q-78 -81 -186 -81zM519 259q0 49 -20 95.5t-65.5 80t-107.5 33.5q-87 0 -138 -64.5t-54 -144.5h385zM381 556h-30
l-175 144h45z" />
    <glyph glyph-name="eacute" unicode="&#xe9;" horiz-adv-x="571" 
d="M337 -12q-105 0 -171 71.5t-66 182.5q0 106 65 179.5t162 73.5q106 0 165 -73t59 -180v-10h-417q2 -92 57.5 -154.5t145.5 -62.5q100 0 168 73l18 -19q-78 -81 -186 -81zM519 259q0 49 -20 95.5t-65.5 80t-107.5 33.5q-87 0 -138 -64.5t-54 -144.5h385zM480 700
l-175 -144h-30l160 144h45z" />
    <glyph glyph-name="ecircumflex" unicode="&#xea;" horiz-adv-x="571" 
d="M337 -12q-105 0 -171 71.5t-66 182.5q0 106 65 179.5t162 73.5q106 0 165 -73t59 -180v-10h-417q2 -92 57.5 -154.5t145.5 -62.5q100 0 168 73l18 -19q-78 -81 -186 -81zM519 259q0 49 -20 95.5t-65.5 80t-107.5 33.5q-87 0 -138 -64.5t-54 -144.5h385zM447 556h-28
l-91 120l-88 -120h-28l98 144h36z" />
    <glyph glyph-name="edieresis" unicode="&#xeb;" horiz-adv-x="571" 
d="M337 -12q-105 0 -171 71.5t-66 182.5q0 106 65 179.5t162 73.5q106 0 165 -73t59 -180v-10h-417q2 -92 57.5 -154.5t145.5 -62.5q100 0 168 73l18 -19q-78 -81 -186 -81zM519 259q0 49 -20 95.5t-65.5 80t-107.5 33.5q-87 0 -138 -64.5t-54 -144.5h385zM457 598
q0 -11 -8.5 -19.5t-19.5 -8.5t-19.5 8.5t-8.5 19.5t8.5 19.5t19.5 8.5t19.5 -8.5t8.5 -19.5zM255 598q0 -11 -8.5 -19.5t-19.5 -8.5t-19.5 8.5t-8.5 19.5t8.5 19.5t19.5 8.5t19.5 -8.5t8.5 -19.5z" />
    <glyph glyph-name="igrave" unicode="&#xec;" horiz-adv-x="213" 
d="M193 556h-30l-175 144h45zM156 0h-30v483h30v-483z" />
    <glyph glyph-name="iacute" unicode="&#xed;" horiz-adv-x="314" 
d="M294 700l-175 -144h-30l160 144h45zM156 0h-30v483h30v-483z" />
    <glyph glyph-name="icircumflex" unicode="&#xee;" horiz-adv-x="279" 
d="M259 556h-28l-91 120l-88 -120h-28l98 144h36zM156 0h-30v483h30v-483z" />
    <glyph glyph-name="idieresis" unicode="&#xef;" horiz-adv-x="290" 
d="M270 598q0 -11 -8.5 -19.5t-19.5 -8.5t-19.5 8.5t-8.5 19.5t8.5 19.5t19.5 8.5t19.5 -8.5t8.5 -19.5zM68 598q0 -11 -8.5 -19.5t-19.5 -8.5t-19.5 8.5t-8.5 19.5t8.5 19.5t19.5 8.5t19.5 -8.5t8.5 -19.5zM156 0h-30v483h30v-483z" />
    <glyph glyph-name="eth" unicode="&#xf0;" horiz-adv-x="570" 
d="M178 522l-11 26l126 56q-41 28 -87 57l18 27q66 -41 103 -69l111 49l11 -26l-97 -43q198 -163 198 -357q0 -109 -62 -181.5t-163 -72.5q-100 0 -162.5 72.5t-62.5 181.5q0 108 62.5 180.5t162.5 72.5q95 0 156 -85q-63 99 -162 174zM325 15q89 0 140.5 66.5t51.5 160.5
q0 93 -51.5 159.5t-140.5 66.5q-88 0 -140 -66.5t-52 -159.5q0 -94 52 -160.5t140 -66.5z" />
    <glyph glyph-name="ntilde" unicode="&#xf1;" 
d="M482 0h-30v337q0 72 -32 101.5t-93 29.5q-48 0 -96 -26.5t-75 -64.5v-377h-30v483h30v-76q29 35 78 61.5t97 26.5q75 0 113 -37.5t38 -120.5v-337zM367 554q-26 0 -44.5 17.5t-27 39t-23 39t-33.5 17.5q-26 0 -42.5 -26.5t-16.5 -80.5h-26q0 57 23.5 95.5t64.5 38.5
q26 0 44.5 -17.5t27 -39t23 -39t33.5 -17.5q26 0 42.5 26.5t16.5 80.5h26q0 -57 -23.5 -95.5t-64.5 -38.5z" />
    <glyph glyph-name="ograve" unicode="&#xf2;" horiz-adv-x="570" 
d="M325 -12q-100 0 -162.5 72.5t-62.5 181.5q0 108 62.5 180.5t162.5 72.5q101 0 163 -72t62 -181t-62 -181.5t-163 -72.5zM325 15q89 0 140.5 66.5t51.5 160.5q0 93 -51.5 159.5t-140.5 66.5q-88 0 -140 -66.5t-52 -159.5q0 -94 52 -160.5t140 -66.5zM378 556h-30l-175 144
h45z" />
    <glyph glyph-name="oacute" unicode="&#xf3;" horiz-adv-x="570" 
d="M325 -12q-100 0 -162.5 72.5t-62.5 181.5q0 108 62.5 180.5t162.5 72.5q101 0 163 -72t62 -181t-62 -181.5t-163 -72.5zM325 15q89 0 140.5 66.5t51.5 160.5q0 93 -51.5 159.5t-140.5 66.5q-88 0 -140 -66.5t-52 -159.5q0 -94 52 -160.5t140 -66.5zM478 700l-175 -144
h-30l160 144h45z" />
    <glyph glyph-name="ocircumflex" unicode="&#xf4;" horiz-adv-x="570" 
d="M325 -12q-100 0 -162.5 72.5t-62.5 181.5q0 108 62.5 180.5t162.5 72.5q101 0 163 -72t62 -181t-62 -181.5t-163 -72.5zM325 15q89 0 140.5 66.5t51.5 160.5q0 93 -51.5 159.5t-140.5 66.5q-88 0 -140 -66.5t-52 -159.5q0 -94 52 -160.5t140 -66.5zM444 556h-28l-91 120
l-88 -120h-28l98 144h36z" />
    <glyph glyph-name="otilde" unicode="&#xf5;" horiz-adv-x="570" 
d="M325 -12q-100 0 -162.5 72.5t-62.5 181.5q0 108 62.5 180.5t162.5 72.5q101 0 163 -72t62 -181t-62 -181.5t-163 -72.5zM325 15q89 0 140.5 66.5t51.5 160.5q0 93 -51.5 159.5t-140.5 66.5q-88 0 -140 -66.5t-52 -159.5q0 -94 52 -160.5t140 -66.5zM388 554
q-26 0 -44.5 17.5t-27 39t-23 39t-33.5 17.5q-26 0 -42.5 -26.5t-16.5 -80.5h-26q0 57 23.5 95.5t64.5 38.5q26 0 44.5 -17.5t27 -39t23 -39t33.5 -17.5q26 0 42.5 26.5t16.5 80.5h26q0 -57 -23.5 -95.5t-64.5 -38.5z" />
    <glyph glyph-name="odieresis" unicode="&#xf6;" horiz-adv-x="570" 
d="M325 -12q-100 0 -162.5 72.5t-62.5 181.5q0 108 62.5 180.5t162.5 72.5q101 0 163 -72t62 -181t-62 -181.5t-163 -72.5zM325 15q89 0 140.5 66.5t51.5 160.5q0 93 -51.5 159.5t-140.5 66.5q-88 0 -140 -66.5t-52 -159.5q0 -94 52 -160.5t140 -66.5zM454 598
q0 -11 -8.5 -19.5t-19.5 -8.5t-19.5 8.5t-8.5 19.5t8.5 19.5t19.5 8.5t19.5 -8.5t8.5 -19.5zM252 598q0 -11 -8.5 -19.5t-19.5 -8.5t-19.5 8.5t-8.5 19.5t8.5 19.5t19.5 8.5t19.5 -8.5t8.5 -19.5z" />
    <glyph glyph-name="divide" unicode="&#xf7;" horiz-adv-x="542" 
d="M329 536q0 -14 -10 -24t-23 -10t-23 10t-10 24q0 13 9.5 22.5t23.5 9.5t23.5 -9.5t9.5 -22.5zM522 322h-453v30h453v-30zM329 133q0 -13 -9.5 -23t-23.5 -10t-23.5 10t-9.5 23t9.5 23t23.5 10t23.5 -10t9.5 -23z" />
    <glyph glyph-name="oslash" unicode="&#xf8;" horiz-adv-x="570" 
d="M158 0h-34l42 56q-66 72 -66 186q0 108 62.5 180.5t162.5 72.5q76 0 133 -44l24 32h33l-37 -50q72 -72 72 -191q0 -109 -62 -181.5t-163 -72.5q-81 0 -139 49zM325 15q89 0 140.5 66.5t51.5 160.5q0 101 -57 166l-257 -347q49 -46 122 -46zM133 242q0 -96 52 -160
l255 345q-49 41 -115 41q-88 0 -140 -66.5t-52 -159.5z" />
    <glyph glyph-name="ugrave" unicode="&#xf9;" 
d="M482 0h-30v74q-33 -37 -80 -61.5t-95 -24.5q-75 0 -113 36.5t-38 119.5v339h30v-339q0 -72 32 -100.5t93 -28.5q48 0 96.5 25.5t74.5 62.5v380h30v-483zM359 556h-30l-175 144h45z" />
    <glyph glyph-name="uacute" unicode="&#xfa;" 
d="M482 0h-30v74q-33 -37 -80 -61.5t-95 -24.5q-75 0 -113 36.5t-38 119.5v339h30v-339q0 -72 32 -100.5t93 -28.5q48 0 96.5 25.5t74.5 62.5v380h30v-483zM458 700l-175 -144h-30l160 144h45z" />
    <glyph glyph-name="ucircumflex" unicode="&#xfb;" 
d="M482 0h-30v74q-33 -37 -80 -61.5t-95 -24.5q-75 0 -113 36.5t-38 119.5v339h30v-339q0 -72 32 -100.5t93 -28.5q48 0 96.5 25.5t74.5 62.5v380h30v-483zM421 556h-28l-91 120l-88 -120h-28l98 144h36z" />
    <glyph glyph-name="udieresis" unicode="&#xfc;" 
d="M482 0h-30v74q-33 -37 -80 -61.5t-95 -24.5q-75 0 -113 36.5t-38 119.5v339h30v-339q0 -72 32 -100.5t93 -28.5q48 0 96.5 25.5t74.5 62.5v380h30v-483zM437 598q0 -11 -8.5 -19.5t-19.5 -8.5t-19.5 8.5t-8.5 19.5t8.5 19.5t19.5 8.5t19.5 -8.5t8.5 -19.5zM235 598
q0 -11 -8.5 -19.5t-19.5 -8.5t-19.5 8.5t-8.5 19.5t8.5 19.5t19.5 8.5t19.5 -8.5t8.5 -19.5z" />
    <glyph glyph-name="yacute" unicode="&#xfd;" horiz-adv-x="520" 
d="M90 -189l6 28q18 -8 42 -8q25 0 42.5 14.5t33.5 51.5l44 100l-207 486h35l190 -448l189 448h35l-256 -597q-36 -82 -106 -82q-27 0 -48 7zM429 700l-175 -144h-30l160 144h45z" />
    <glyph glyph-name="thorn" unicode="&#xfe;" horiz-adv-x="566" 
d="M330 -12q-53 0 -98.5 25.5t-75.5 69.5v-267h-30v851h30v-265q26 40 73 66.5t101 26.5q98 0 157 -69t59 -184q0 -114 -59.5 -184t-156.5 -70zM330 15q86 0 134.5 64t48.5 163t-48.5 162.5t-134.5 63.5q-54 0 -102 -28t-72 -68v-259q24 -40 72 -69t102 -29z" />
    <glyph glyph-name="ydieresis" unicode="&#xff;" horiz-adv-x="520" 
d="M90 -189l6 28q18 -8 42 -8q25 0 42.5 14.5t33.5 51.5l44 100l-207 486h35l190 -448l189 448h35l-256 -597q-36 -82 -106 -82q-27 0 -48 7zM405 598q0 -11 -8.5 -19.5t-19.5 -8.5t-19.5 8.5t-8.5 19.5t8.5 19.5t19.5 8.5t19.5 -8.5t8.5 -19.5zM203 598q0 -11 -8.5 -19.5
t-19.5 -8.5t-19.5 8.5t-8.5 19.5t8.5 19.5t19.5 8.5t19.5 -8.5t8.5 -19.5z" />
    <glyph glyph-name="Amacron" unicode="&#x100;" horiz-adv-x="675" 
d="M655 0h-37l-74 179h-372l-74 -179h-37l278 667h38zM532 209l-174 421l-174 -421h348zM539 750h-363v27h363v-27z" />
    <glyph glyph-name="amacron" unicode="&#x101;" horiz-adv-x="498" 
d="M468 0h-30v59q-65 -71 -167 -71q-68 0 -118.5 43.5t-50.5 117.5t50 117.5t119 43.5q102 0 167 -71v109q0 56 -39 88t-97 32q-92 0 -155 -76l-23 20q37 43 78 63t100 20q74 0 120 -37.5t46 -108.5v-349zM279 15q103 0 159 74v120q-56 74 -159 74q-65 0 -104.5 -38.5
t-39.5 -95.5t39.5 -95.5t104.5 -38.5zM478 581h-363v27h363v-27z" />
    <glyph glyph-name="Abreve" unicode="&#x102;" horiz-adv-x="675" 
d="M655 0h-37l-74 179h-372l-74 -179h-37l278 667h38zM532 209l-174 421l-174 -421h348zM533 816q-65 -88 -175 -88q-109 0 -176 88l21 19q57 -80 155 -80t155 80z" />
    <glyph glyph-name="abreve" unicode="&#x103;" horiz-adv-x="492" 
d="M468 0h-30v59q-65 -71 -167 -71q-68 0 -118.5 43.5t-50.5 117.5t50 117.5t119 43.5q102 0 167 -71v109q0 56 -39 88t-97 32q-92 0 -155 -76l-23 20q37 43 78 63t100 20q74 0 120 -37.5t46 -108.5v-349zM279 15q103 0 159 74v120q-56 74 -159 74q-65 0 -104.5 -38.5
t-39.5 -95.5t39.5 -95.5t104.5 -38.5zM472 657q-65 -88 -175 -88q-109 0 -176 88l21 19q57 -80 155 -80t155 80z" />
    <glyph glyph-name="Aogonek" unicode="&#x104;" horiz-adv-x="728" 
d="M683 -112l25 -11q-22 -63 -83 -63q-35 0 -58 21t-23 63q0 32 19.5 61t51.5 48l-71 172h-372l-74 -179h-37l278 667h38l278 -667q-82 -39 -82 -102q0 -57 52 -57q43 0 58 47zM532 209l-174 421l-174 -421h348z" />
    <glyph glyph-name="aogonek" unicode="&#x105;" horiz-adv-x="541" 
d="M496 -112l25 -11q-22 -63 -83 -63q-35 0 -58 21t-23 63q0 34 22.5 65t58.5 50v46q-65 -71 -167 -71q-68 0 -118.5 43.5t-50.5 117.5t50 117.5t119 43.5q102 0 167 -71v109q0 56 -39 88t-97 32q-92 0 -155 -76l-23 20q37 43 78 63t100 20q74 0 120 -37.5t46 -108.5v-349
q-82 -39 -82 -102q0 -57 52 -57q43 0 58 47zM279 15q103 0 159 74v120q-56 74 -159 74q-65 0 -104.5 -38.5t-39.5 -95.5t39.5 -95.5t104.5 -38.5z" />
    <glyph glyph-name="Cacute" unicode="&#x106;" horiz-adv-x="691" 
d="M438 -12q-141 0 -237 97t-96 248t96 248t237 97t232 -105l-25 -22q-36 45 -90.5 71t-116.5 26q-127 0 -212.5 -88t-85.5 -227q0 -138 85.5 -226.5t212.5 -88.5q62 0 116.5 26t90.5 71l26 -21q-94 -106 -233 -106zM591 872l-175 -144h-30l160 144h45z" />
    <glyph glyph-name="cacute" unicode="&#x107;" horiz-adv-x="513" 
d="M328 -12q-102 0 -165 73.5t-63 180.5t63 180t165 73q56 0 94 -20t71 -61l-22 -18q-53 72 -141 72q-91 0 -144 -64.5t-53 -161.5q0 -98 53.5 -162.5t143.5 -64.5q87 0 141 73l22 -19q-33 -41 -71 -61t-94 -20zM483 700l-175 -144h-30l160 144h45z" />
    <glyph glyph-name="Ccircumflex" unicode="&#x108;" horiz-adv-x="691" 
d="M438 -12q-141 0 -237 97t-96 248t96 248t237 97t232 -105l-25 -22q-36 45 -90.5 71t-116.5 26q-127 0 -212.5 -88t-85.5 -227q0 -138 85.5 -226.5t212.5 -88.5q62 0 116.5 26t90.5 71l26 -21q-94 -106 -233 -106zM556 728h-28l-91 120l-88 -120h-28l98 144h36z" />
    <glyph glyph-name="ccircumflex" unicode="&#x109;" horiz-adv-x="513" 
d="M328 -12q-102 0 -165 73.5t-63 180.5t63 180t165 73q56 0 94 -20t71 -61l-22 -18q-53 72 -141 72q-91 0 -144 -64.5t-53 -161.5q0 -98 53.5 -162.5t143.5 -64.5q87 0 141 73l22 -19q-33 -41 -71 -61t-94 -20zM447 556h-28l-91 120l-88 -120h-28l98 144h36z" />
    <glyph glyph-name="Cdotaccent" unicode="&#x10a;" horiz-adv-x="691" 
d="M438 -12q-141 0 -237 97t-96 248t96 248t237 97t232 -105l-25 -22q-36 45 -90.5 71t-116.5 26q-127 0 -212.5 -88t-85.5 -227q0 -138 85.5 -226.5t212.5 -88.5q62 0 116.5 26t90.5 71l26 -21q-94 -106 -233 -106zM440 736q-11 0 -20 8.5t-9 20.5t9 20.5t20 8.5
q12 0 20.5 -8.5t8.5 -20.5t-8.5 -20.5t-20.5 -8.5z" />
    <glyph glyph-name="cdotaccent" unicode="&#x10b;" horiz-adv-x="513" 
d="M328 -12q-102 0 -165 73.5t-63 180.5t63 180t165 73q56 0 94 -20t71 -61l-22 -18q-53 72 -141 72q-91 0 -144 -64.5t-53 -161.5q0 -98 53.5 -162.5t143.5 -64.5q87 0 141 73l22 -19q-33 -41 -71 -61t-94 -20zM331 591q-11 0 -20 8.5t-9 20.5t9 20.5t20 8.5
q12 0 20.5 -8.5t8.5 -20.5t-8.5 -20.5t-20.5 -8.5z" />
    <glyph glyph-name="Ccaron" unicode="&#x10c;" horiz-adv-x="691" 
d="M438 -12q-141 0 -237 97t-96 248t96 248t237 97t232 -105l-25 -22q-36 45 -90.5 71t-116.5 26q-127 0 -212.5 -88t-85.5 -227q0 -138 85.5 -226.5t212.5 -88.5q62 0 116.5 26t90.5 71l26 -21q-94 -106 -233 -106zM458 728h-36l-101 144h28l91 -120l88 120h28z" />
    <glyph glyph-name="ccaron" unicode="&#x10d;" horiz-adv-x="513" 
d="M328 -12q-102 0 -165 73.5t-63 180.5t63 180t165 73q56 0 94 -20t71 -61l-22 -18q-53 72 -141 72q-91 0 -144 -64.5t-53 -161.5q0 -98 53.5 -162.5t143.5 -64.5q87 0 141 73l22 -19q-33 -41 -71 -61t-94 -20zM349 556h-36l-101 144h28l91 -120l88 120h28z" />
    <glyph glyph-name="Dcaron" unicode="&#x10e;" horiz-adv-x="678" 
d="M326 0h-198v667h198q150 0 241 -97.5t91 -236.5q0 -140 -90.5 -236.5t-241.5 -96.5zM326 30q138 0 217.5 86t79.5 217q0 130 -80 217t-217 87h-166v-607h166zM401 728h-36l-101 144h28l91 -120l88 120h28z" />
    <glyph glyph-name="dcaron" unicode="&#x10f;" horiz-adv-x="668" 
d="M520 0h-30v81q-26 -40 -73 -66.5t-101 -26.5q-98 0 -157 69t-59 184q0 114 59.5 184t156.5 70q53 0 98.5 -25.5t75.5 -69.5v267h30v-667zM316 15q54 0 102 28t72 68v259q-24 40 -72 69t-102 29q-86 0 -134.5 -64t-48.5 -163t48.5 -162.5t134.5 -63.5zM648 627
q0 -36 -18 -69.5t-44 -51.5l-22 18q24 18 38.5 43.5t14.5 48.5q-6 -1 -8 -1q-14 0 -23 9.5t-9 23.5q0 13 9 22.5t23 9.5q16 0 27.5 -14t11.5 -39z" />
    <glyph glyph-name="Dcroat" unicode="&#x110;" horiz-adv-x="709" 
d="M357 0h-198v319h-107v30h107v318h198q150 0 241 -97.5t91 -236.5q0 -140 -90.5 -236.5t-241.5 -96.5zM379 319h-188v-289h166q138 0 217.5 86t79.5 217q0 130 -80 217t-217 87h-166v-288h188v-30z" />
    <glyph glyph-name="dcroat" unicode="&#x111;" horiz-adv-x="617" 
d="M520 0h-30v81q-26 -40 -73 -66.5t-101 -26.5q-98 0 -157 69t-59 184q0 114 59.5 184t156.5 70q53 0 98.5 -25.5t75.5 -69.5v141h-166v27h166v99h30v-99h77v-27h-77v-541zM316 15q54 0 102 28t72 68v259q-24 40 -72 69t-102 29q-86 0 -134.5 -64t-48.5 -163t48.5 -162.5
t134.5 -63.5z" />
    <glyph glyph-name="Emacron" unicode="&#x112;" horiz-adv-x="556" 
d="M536 0h-408v667h408v-30h-376v-279h369v-30h-369v-298h376v-30zM511 750h-363v27h363v-27z" />
    <glyph glyph-name="emacron" unicode="&#x113;" horiz-adv-x="571" 
d="M337 -12q-105 0 -171 71.5t-66 182.5q0 106 65 179.5t162 73.5q106 0 165 -73t59 -180v-10h-417q2 -92 57.5 -154.5t145.5 -62.5q100 0 168 73l18 -19q-78 -81 -186 -81zM519 259q0 49 -20 95.5t-65.5 80t-107.5 33.5q-87 0 -138 -64.5t-54 -144.5h385zM507 581h-363v27
h363v-27z" />
    <glyph glyph-name="Ebreve" unicode="&#x114;" horiz-adv-x="556" 
d="M536 0h-408v667h408v-30h-376v-279h369v-30h-369v-298h376v-30zM505 816q-65 -88 -175 -88q-109 0 -176 88l21 19q57 -80 155 -80t155 80z" />
    <glyph glyph-name="ebreve" unicode="&#x115;" horiz-adv-x="571" 
d="M337 -12q-105 0 -171 71.5t-66 182.5q0 106 65 179.5t162 73.5q106 0 165 -73t59 -180v-10h-417q2 -92 57.5 -154.5t145.5 -62.5q100 0 168 73l18 -19q-78 -81 -186 -81zM519 259q0 49 -20 95.5t-65.5 80t-107.5 33.5q-87 0 -138 -64.5t-54 -144.5h385zM505 657
q-65 -88 -175 -88q-109 0 -176 88l21 19q57 -80 155 -80t155 80z" />
    <glyph glyph-name="Edotaccent" unicode="&#x116;" horiz-adv-x="556" 
d="M536 0h-408v667h408v-30h-376v-279h369v-30h-369v-298h376v-30zM339 736q-11 0 -20 8.5t-9 20.5t9 20.5t20 8.5q12 0 20.5 -8.5t8.5 -20.5t-8.5 -20.5t-20.5 -8.5z" />
    <glyph glyph-name="edotaccent" unicode="&#x117;" horiz-adv-x="571" 
d="M337 -12q-105 0 -171 71.5t-66 182.5q0 106 65 179.5t162 73.5q106 0 165 -73t59 -180v-10h-417q2 -92 57.5 -154.5t145.5 -62.5q100 0 168 73l18 -19q-78 -81 -186 -81zM519 259q0 49 -20 95.5t-65.5 80t-107.5 33.5q-87 0 -138 -64.5t-54 -144.5h385zM328 591
q-11 0 -20 8.5t-9 20.5t9 20.5t20 8.5q12 0 20.5 -8.5t8.5 -20.5t-8.5 -20.5t-20.5 -8.5z" />
    <glyph glyph-name="Eogonek" unicode="&#x118;" horiz-adv-x="609" 
d="M564 -112l25 -11q-22 -63 -83 -63q-35 0 -58 21t-23 63q0 59 60 102h-357v667h408v-30h-376v-279h369v-30h-369v-298h376v-30q-82 -39 -82 -102q0 -57 52 -57q43 0 58 47z" />
    <glyph glyph-name="eogonek" unicode="&#x119;" horiz-adv-x="571" 
d="M446 -112l25 -11q-22 -63 -83 -63q-35 0 -58 21t-23 63q0 49 45 91q-2 -1 -15 -1q-105 0 -171 71.5t-66 182.5q0 106 65 179.5t162 73.5q106 0 165 -73t59 -180v-10h-417q2 -92 57.5 -154.5t145.5 -62.5q100 0 168 73l18 -19q-49 -51 -105 -69q-82 -39 -82 -102
q0 -57 52 -57q43 0 58 47zM519 259q0 49 -20 95.5t-65.5 80t-107.5 33.5q-87 0 -138 -64.5t-54 -144.5h385z" />
    <glyph glyph-name="Ecaron" unicode="&#x11a;" horiz-adv-x="556" 
d="M536 0h-408v667h408v-30h-376v-279h369v-30h-369v-298h376v-30zM353 728h-36l-101 144h28l91 -120l88 120h28z" />
    <glyph glyph-name="ecaron" unicode="&#x11b;" horiz-adv-x="571" 
d="M337 -12q-105 0 -171 71.5t-66 182.5q0 106 65 179.5t162 73.5q106 0 165 -73t59 -180v-10h-417q2 -92 57.5 -154.5t145.5 -62.5q100 0 168 73l18 -19q-78 -81 -186 -81zM519 259q0 49 -20 95.5t-65.5 80t-107.5 33.5q-87 0 -138 -64.5t-54 -144.5h385zM348 556h-36
l-101 144h28l91 -120l88 120h28z" />
    <glyph glyph-name="Gcircumflex" unicode="&#x11c;" horiz-adv-x="702" 
d="M438 -13q-141 0 -237 97t-96 249q0 151 96 248t237 97q144 0 244 -103l-21 -22q-39 45 -98 70t-125 25q-127 0 -212.5 -88t-85.5 -227q0 -138 85.5 -227t212.5 -89q67 0 122 26.5t90 63.5v183h-275v30h307v-226q-44 -49 -107.5 -78t-136.5 -29zM561 728h-28l-91 120
l-88 -120h-28l98 144h36z" />
    <glyph glyph-name="gcircumflex" unicode="&#x11d;" horiz-adv-x="540" 
d="M316 -196q-63 0 -103.5 15t-81.5 58l22 25q31 -39 68.5 -55t94.5 -16q77 0 125.5 41.5t48.5 124.5v84q-27 -40 -73.5 -67.5t-100.5 -27.5q-98 0 -157 69.5t-59 184.5q0 114 59.5 184.5t156.5 70.5q53 0 98.5 -25.5t75.5 -69.5v83h30v-486q0 -99 -55.5 -146t-148.5 -47z
M316 13q54 0 102 29t72 69v259q-24 40 -72 69t-102 29q-86 0 -134.5 -64.5t-48.5 -163.5t48.5 -163t134.5 -64zM442 551h-28l-91 120l-88 -120h-28l98 144h36z" />
    <glyph glyph-name="Gbreve" unicode="&#x11e;" horiz-adv-x="702" 
d="M438 -13q-141 0 -237 97t-96 249q0 151 96 248t237 97q144 0 244 -103l-21 -22q-39 45 -98 70t-125 25q-127 0 -212.5 -88t-85.5 -227q0 -138 85.5 -227t212.5 -89q67 0 122 26.5t90 63.5v183h-275v30h307v-226q-44 -49 -107.5 -78t-136.5 -29zM617 816q-65 -88 -175 -88
q-109 0 -176 88l21 19q57 -80 155 -80t155 80z" />
    <glyph glyph-name="gbreve" unicode="&#x11f;" horiz-adv-x="540" 
d="M316 -196q-63 0 -103.5 15t-81.5 58l22 25q31 -39 68.5 -55t94.5 -16q77 0 125.5 41.5t48.5 124.5v84q-27 -40 -73.5 -67.5t-100.5 -27.5q-98 0 -157 69.5t-59 184.5q0 114 59.5 184.5t156.5 70.5q53 0 98.5 -25.5t75.5 -69.5v83h30v-486q0 -99 -55.5 -146t-148.5 -47z
M316 13q54 0 102 29t72 69v259q-24 40 -72 69t-102 29q-86 0 -134.5 -64.5t-48.5 -163.5t48.5 -163t134.5 -64zM498 657q-65 -88 -175 -88q-109 0 -176 88l21 19q57 -80 155 -80t155 80z" />
    <glyph glyph-name="Gdotaccent" unicode="&#x120;" horiz-adv-x="702" 
d="M438 -13q-141 0 -237 97t-96 249q0 151 96 248t237 97q144 0 244 -103l-21 -22q-39 45 -98 70t-125 25q-127 0 -212.5 -88t-85.5 -227q0 -138 85.5 -227t212.5 -89q67 0 122 26.5t90 63.5v183h-275v30h307v-226q-44 -49 -107.5 -78t-136.5 -29zM441 736q-11 0 -20 8.5
t-9 20.5t9 20.5t20 8.5q12 0 20.5 -8.5t8.5 -20.5t-8.5 -20.5t-20.5 -8.5z" />
    <glyph glyph-name="gdotaccent" unicode="&#x121;" horiz-adv-x="540" 
d="M316 -196q-63 0 -103.5 15t-81.5 58l22 25q31 -39 68.5 -55t94.5 -16q77 0 125.5 41.5t48.5 124.5v84q-27 -40 -73.5 -67.5t-100.5 -27.5q-98 0 -157 69.5t-59 184.5q0 114 59.5 184.5t156.5 70.5q53 0 98.5 -25.5t75.5 -69.5v83h30v-486q0 -99 -55.5 -146t-148.5 -47z
M316 13q54 0 102 29t72 69v259q-24 40 -72 69t-102 29q-86 0 -134.5 -64.5t-48.5 -163.5t48.5 -163t134.5 -64zM321 591q-11 0 -20 8.5t-9 20.5t9 20.5t20 8.5q12 0 20.5 -8.5t8.5 -20.5t-8.5 -20.5t-20.5 -8.5z" />
    <glyph glyph-name="CapitalLetterGwithce" unicode="&#x122;" horiz-adv-x="702" 
d="M438 -13q-141 0 -237 97t-96 249q0 151 96 248t237 97q144 0 244 -103l-21 -22q-39 45 -98 70t-125 25q-127 0 -212.5 -88t-85.5 -227q0 -138 85.5 -227t212.5 -89q67 0 122 26.5t90 63.5v183h-275v30h307v-226q-44 -49 -107.5 -78t-136.5 -29zM479 -137q0 -36 -18 -69.5
t-44 -51.5l-22 18q24 18 38.5 43.5t14.5 48.5q-6 -1 -8 -1q-14 0 -23 9.5t-9 23.5q0 13 9 22.5t23 9.5q16 0 27.5 -14t11.5 -39z" />
    <glyph glyph-name="SmallLetterGwithcedi" unicode="&#x123;" horiz-adv-x="540" 
d="M281 610q0 40 18.5 76.5t41.5 52.5l24 -19q-24 -18 -38.5 -43.5t-14.5 -48.5q2 1 4 1q12 0 22.5 -10t10.5 -23q0 -12 -9.5 -22t-23.5 -10q-16 0 -25.5 13t-9.5 33zM316 -196q-63 0 -103.5 15t-81.5 58l22 25q31 -39 68.5 -55t94.5 -16q77 0 125.5 41.5t48.5 124.5v84
q-27 -40 -73.5 -67.5t-100.5 -27.5q-98 0 -157 69.5t-59 184.5q0 114 59.5 184.5t156.5 70.5q53 0 98.5 -25.5t75.5 -69.5v83h30v-486q0 -99 -55.5 -146t-148.5 -47zM316 13q54 0 102 29t72 69v259q-24 40 -72 69t-102 29q-86 0 -134.5 -64.5t-48.5 -163.5t48.5 -163
t134.5 -64z" />
    <glyph glyph-name="Hcircumflex" unicode="&#x124;" horiz-adv-x="667" 
d="M647 0h-32v328h-455v-328h-32v667h32v-309h455v309h32v-667zM502 728h-28l-91 120l-88 -120h-28l98 144h36z" />
    <glyph glyph-name="hcircumflex" unicode="&#x125;" 
d="M482 0h-30v339q0 72 -32 100.5t-93 28.5q-48 0 -96 -26.5t-75 -64.5v-377h-30v667h30v-260q29 35 78 61.5t97 26.5q75 0 113 -36.5t38 -119.5v-339zM260 728h-28l-91 120l-88 -120h-28l98 144h36z" />
    <glyph glyph-name="Hbar" unicode="&#x126;" horiz-adv-x="765" 
d="M659 0h-32v328h-455v-328h-32v501h-88v27h88v139h32v-139h455v139h32v-139h86v-27h-86v-501zM172 358h455v143h-455v-143z" />
    <glyph glyph-name="hbar" unicode="&#x127;" horiz-adv-x="504" 
d="M324 541h-166v-134q29 35 78 61.5t97 26.5q75 0 113 -36.5t38 -119.5v-339h-30v339q0 72 -32 100.5t-93 28.5q-48 0 -96 -26.5t-75 -64.5v-377h-30v541h-76v27h76v99h30v-99h166v-27z" />
    <glyph glyph-name="Itilde" unicode="&#x128;" horiz-adv-x="314" 
d="M160 0h-32v667h32v-667zM206 726q-26 0 -44.5 17.5t-27 39t-23 39t-33.5 17.5q-26 0 -42.5 -26.5t-16.5 -80.5h-26q0 57 23.5 95.5t64.5 38.5q26 0 44.5 -17.5t27 -39t23 -39t33.5 -17.5q26 0 42.5 26.5t16.5 80.5h26q0 -57 -23.5 -95.5t-64.5 -38.5z" />
    <glyph glyph-name="itilde" unicode="&#x129;" horiz-adv-x="311" 
d="M156 0h-30v483h30v-483zM203 544q-26 0 -44.5 17.5t-27 39t-23 39t-33.5 17.5q-26 0 -42.5 -26.5t-16.5 -80.5h-26q0 57 23.5 95.5t64.5 38.5q26 0 44.5 -17.5t27 -39t23 -39t33.5 -17.5q26 0 42.5 26.5t16.5 80.5h26q0 -57 -23.5 -95.5t-64.5 -38.5z" />
    <glyph glyph-name="Imacron" unicode="&#x12a;" horiz-adv-x="346" 
d="M160 0h-32v667h32v-667zM326 750h-363v27h363v-27z" />
    <glyph glyph-name="imacron" unicode="&#x12b;" horiz-adv-x="343" 
d="M156 0h-30v483h30v-483zM323 581h-363v27h363v-27z" />
    <glyph glyph-name="Ibreve" unicode="&#x12c;" horiz-adv-x="340" 
d="M160 0h-32v667h32v-667zM320 816q-65 -88 -175 -88q-109 0 -176 88l21 19q57 -80 155 -80t155 80z" />
    <glyph glyph-name="ibreve" unicode="&#x12d;" horiz-adv-x="337" 
d="M156 0h-30v483h30v-483zM317 657q-65 -88 -175 -88q-109 0 -176 88l21 19q57 -80 155 -80t155 80z" />
    <glyph glyph-name="Iogonek" unicode="&#x12e;" horiz-adv-x="233" 
d="M188 -112l25 -11q-22 -63 -83 -63q-35 0 -58 21t-23 63q0 33 22 63.5t57 50.5v655h32v-667q-82 -39 -82 -102q0 -57 52 -57q43 0 58 47z" />
    <glyph glyph-name="iogonek" unicode="&#x12f;" horiz-adv-x="229" 
d="M184 -112l25 -11q-22 -63 -83 -63q-35 0 -58 21t-23 63q0 34 22.5 65t58.5 50v470h30v-483q-82 -39 -82 -102q0 -57 52 -57q43 0 58 47zM141 566q-11 0 -20 8.5t-9 20.5t9 20.5t20 8.5q12 0 20.5 -8.5t8.5 -20.5t-8.5 -20.5t-20.5 -8.5z" />
    <glyph glyph-name="Idotaccent" unicode="&#x130;" horiz-adv-x="193" 
d="M160 0h-32v667h32v-667zM144 736q-11 0 -20 8.5t-9 20.5t9 20.5t20 8.5q12 0 20.5 -8.5t8.5 -20.5t-8.5 -20.5t-20.5 -8.5z" />
    <glyph glyph-name="dotlessi" unicode="&#x131;" horiz-adv-x="176" 
d="M156 0h-30v483h30v-483z" />
    <glyph glyph-name="IJ" unicode="&#x132;" horiz-adv-x="645" 
d="M160 0h-32v667h32v-667zM433 -12q-107 0 -169 87l27 24q57 -81 142 -81q73 0 116.5 46.5t43.5 120.5v482h32v-482q0 -95 -55 -146t-137 -51z" />
    <glyph glyph-name="ij" unicode="&#x133;" horiz-adv-x="392" 
d="M141 566q-11 0 -20 8.5t-9 20.5t9 20.5t20 8.5q12 0 20.5 -8.5t8.5 -20.5t-8.5 -20.5t-20.5 -8.5zM156 0h-30v483h30v-483zM343 566q-11 0 -20 8.5t-9 20.5t9 20.5t20 8.5q12 0 20.5 -8.5t8.5 -20.5t-8.5 -20.5t-20.5 -8.5zM239 -196q-51 0 -92 38l19 25q32 -36 73 -36
q40 0 64.5 23t24.5 70v559h30v-559q0 -120 -119 -120z" />
    <glyph glyph-name="Jcircumflex" unicode="&#x134;" horiz-adv-x="538" 
d="M225 -12q-107 0 -169 87l27 24q57 -81 142 -81q73 0 116.5 46.5t43.5 120.5v482h32v-482q0 -95 -55 -146t-137 -51zM518 728h-28l-91 120l-88 -120h-28l98 144h36z" />
    <glyph glyph-name="jcircumflex" unicode="&#x135;" horiz-adv-x="280" 
d="M37 -196q-51 0 -92 38l19 25q32 -36 73 -36q40 0 64.5 23t24.5 70v559h30v-559q0 -120 -119 -120zM260 556h-28l-91 120l-88 -120h-28l98 144h36z" />
    <glyph glyph-name="CapitalLetterKwithce" unicode="&#x136;" horiz-adv-x="600" 
d="M580 0h-43l-297 328l-80 -87v-241h-32v667h32v-385l347 385h43l-290 -319zM370 -137q0 -36 -18 -69.5t-44 -51.5l-22 18q24 18 38.5 43.5t14.5 48.5q-6 -1 -8 -1q-14 0 -23 9.5t-9 23.5q0 13 9 22.5t23 9.5q16 0 27.5 -14t11.5 -39z" />
    <glyph glyph-name="SmallLetterKwithcedi" unicode="&#x137;" horiz-adv-x="534" 
d="M511 0h-43l-212 243l-100 -92v-151h-30v667h30v-478l315 294h43l-235 -218zM333 -137q0 -36 -18 -69.5t-44 -51.5l-22 18q24 18 38.5 43.5t14.5 48.5q-6 -1 -8 -1q-14 0 -23 9.5t-9 23.5q0 13 9 22.5t23 9.5q16 0 27.5 -14t11.5 -39z" />
    <glyph glyph-name="kgreenlandic" unicode="&#x138;" horiz-adv-x="534" 
d="M511 0h-43l-212 243l-100 -92v-151h-30v483h30v-294l315 294h43l-235 -218z" />
    <glyph glyph-name="Lacute" unicode="&#x139;" horiz-adv-x="499" 
d="M479 0h-367v667h32v-637h335v-30zM449 872l-175 -144h-30l160 144h45z" />
    <glyph glyph-name="lacute" unicode="&#x13a;" horiz-adv-x="314" 
d="M156 0h-30v667h30v-667zM294 872l-175 -144h-30l160 144h45z" />
    <glyph glyph-name="CapitalLetterLwithce" unicode="&#x13b;" horiz-adv-x="499" 
d="M479 0h-367v667h32v-637h335v-30zM322 -137q0 -36 -18 -69.5t-44 -51.5l-22 18q24 18 38.5 43.5t14.5 48.5q-6 -1 -8 -1q-14 0 -23 9.5t-9 23.5q0 13 9 22.5t23 9.5q16 0 27.5 -14t11.5 -39z" />
    <glyph glyph-name="SmallLetterLwithcedi" unicode="&#x13c;" horiz-adv-x="206" 
d="M156 0h-30v667h30v-667zM186 -137q0 -36 -18 -69.5t-44 -51.5l-22 18q24 18 38.5 43.5t14.5 48.5q-6 -1 -8 -1q-14 0 -23 9.5t-9 23.5q0 13 9 22.5t23 9.5q16 0 27.5 -14t11.5 -39z" />
    <glyph glyph-name="Lcaron" unicode="&#x13d;" horiz-adv-x="499" 
d="M479 0h-367v667h32v-637h335v-30zM322 626q0 -36 -18 -69.5t-44 -51.5l-22 18q24 18 38.5 43.5t14.5 48.5q-6 -1 -8 -1q-14 0 -23 9.5t-9 23.5q0 13 9 22.5t23 9.5q16 0 27.5 -14t11.5 -39z" />
    <glyph glyph-name="lcaron" unicode="&#x13e;" horiz-adv-x="319" 
d="M156 0h-30v667h30v-667zM299 626q0 -36 -18 -69.5t-44 -51.5l-22 18q24 18 38.5 43.5t14.5 48.5q-6 -1 -8 -1q-14 0 -23 9.5t-9 23.5q0 13 9 22.5t23 9.5q16 0 27.5 -14t11.5 -39z" />
    <glyph glyph-name="Ldot" unicode="&#x13f;" horiz-adv-x="499" 
d="M479 0h-367v667h32v-637h335v-30zM402 342q0 -14 -10 -23.5t-23 -9.5t-23 9.5t-10 23.5q0 13 10 22.5t23 9.5t23 -9.5t10 -22.5z" />
    <glyph glyph-name="ldot" unicode="&#x140;" horiz-adv-x="314" 
d="M156 0h-30v667h30v-667zM294 245q0 -13 -10 -23t-23 -10t-23 10t-10 23t10 22.5t23 9.5t23 -9.5t10 -22.5z" />
    <glyph glyph-name="Lslash" unicode="&#x141;" horiz-adv-x="539" 
d="M52 246v34l100 58v329h32v-311l114 67v-34l-114 -67v-292h335v-30h-367v304z" />
    <glyph glyph-name="lslash" unicode="&#x142;" horiz-adv-x="316" 
d="M52 248v32l107 61v326h30v-309l107 62v-32l-107 -62v-326h-30v309z" />
    <glyph glyph-name="Nacute" unicode="&#x143;" horiz-adv-x="662" 
d="M642 0h-32l-450 615v-615h-32v667h32l450 -609v609h32v-667zM537 872l-175 -144h-30l160 144h45z" />
    <glyph glyph-name="nacute" unicode="&#x144;" 
d="M482 0h-30v337q0 72 -32 101.5t-93 29.5q-48 0 -96 -26.5t-75 -64.5v-377h-30v483h30v-76q29 35 78 61.5t97 26.5q75 0 113 -37.5t38 -120.5v-337zM456 700l-175 -144h-30l160 144h45z" />
    <glyph glyph-name="CapitalLetterNwithce" unicode="&#x145;" horiz-adv-x="662" 
d="M642 0h-32l-450 615v-615h-32v667h32l450 -609v609h32v-667zM430 -137q0 -36 -18 -69.5t-44 -51.5l-22 18q24 18 38.5 43.5t14.5 48.5q-6 -1 -8 -1q-14 0 -23 9.5t-9 23.5q0 13 9 22.5t23 9.5q16 0 27.5 -14t11.5 -39z" />
    <glyph glyph-name="SmallLetterNwithcedi" unicode="&#x146;" 
d="M482 0h-30v337q0 72 -32 101.5t-93 29.5q-48 0 -96 -26.5t-75 -64.5v-377h-30v483h30v-76q29 35 78 61.5t97 26.5q75 0 113 -37.5t38 -120.5v-337zM349 -137q0 -36 -18 -69.5t-44 -51.5l-22 18q24 18 38.5 43.5t14.5 48.5q-6 -1 -8 -1q-14 0 -23 9.5t-9 23.5q0 13 9 22.5
t23 9.5q16 0 27.5 -14t11.5 -39z" />
    <glyph glyph-name="Ncaron" unicode="&#x147;" horiz-adv-x="662" 
d="M642 0h-32l-450 615v-615h-32v667h32l450 -609v609h32v-667zM404 728h-36l-101 144h28l91 -120l88 120h28z" />
    <glyph glyph-name="ncaron" unicode="&#x148;" 
d="M482 0h-30v337q0 72 -32 101.5t-93 29.5q-48 0 -96 -26.5t-75 -64.5v-377h-30v483h30v-76q29 35 78 61.5t97 26.5q75 0 113 -37.5t38 -120.5v-337zM323 556h-36l-101 144h28l91 -120l88 120h28z" />
    <glyph glyph-name="napostrophe" unicode="&#x149;" 
d="M482 0h-30v337q0 72 -32 101.5t-93 29.5q-48 0 -96 -26.5t-75 -64.5v-377h-30v483h30v-76q29 35 78 61.5t97 26.5q75 0 113 -37.5t38 -120.5v-337zM189 672q0 -36 -18 -69.5t-44 -51.5l-22 18q24 18 38.5 43.5t14.5 48.5q-6 -1 -8 -1q-14 0 -23 9.5t-9 23.5q0 13 9 22.5
t23 9.5q16 0 27.5 -14t11.5 -39z" />
    <glyph glyph-name="Eng" unicode="&#x14a;" horiz-adv-x="662" 
d="M450 -196q-107 0 -169 87l27 24q57 -81 142 -81q74 0 117 45t43 119v2l-450 615v-615h-32v667h32l450 -609v609h32v-669q0 -95 -54.5 -144.5t-137.5 -49.5z" />
    <glyph glyph-name="eng" unicode="&#x14b;" 
d="M363 -196q-51 0 -92 38l19 25q32 -36 73 -36q40 0 64.5 23t24.5 70v413q0 72 -32 101.5t-93 29.5q-48 0 -96 -26.5t-75 -64.5v-377h-30v483h30v-76q29 35 78 61.5t97 26.5q75 0 113 -37.5t38 -120.5v-413q0 -120 -119 -120z" />
    <glyph glyph-name="Omacron" unicode="&#x14c;" horiz-adv-x="759" 
d="M422 -12q-143 0 -230 98.5t-87 246.5t87 246.5t230 98.5q142 0 229.5 -98.5t87.5 -246.5t-87.5 -246.5t-229.5 -98.5zM422 18q127 0 204.5 88.5t77.5 226.5q0 139 -77.5 227t-204.5 88q-128 0 -205 -88t-77 -227q0 -138 77 -226.5t205 -88.5zM603 750h-363v27h363v-27z
" />
    <glyph glyph-name="omacron" unicode="&#x14d;" horiz-adv-x="570" 
d="M325 -12q-100 0 -162.5 72.5t-62.5 181.5q0 108 62.5 180.5t162.5 72.5q101 0 163 -72t62 -181t-62 -181.5t-163 -72.5zM325 15q89 0 140.5 66.5t51.5 160.5q0 93 -51.5 159.5t-140.5 66.5q-88 0 -140 -66.5t-52 -159.5q0 -94 52 -160.5t140 -66.5zM506 581h-363v27h363
v-27z" />
    <glyph glyph-name="Obreve" unicode="&#x14e;" horiz-adv-x="759" 
d="M422 -12q-143 0 -230 98.5t-87 246.5t87 246.5t230 98.5q142 0 229.5 -98.5t87.5 -246.5t-87.5 -246.5t-229.5 -98.5zM422 18q127 0 204.5 88.5t77.5 226.5q0 139 -77.5 227t-204.5 88q-128 0 -205 -88t-77 -227q0 -138 77 -226.5t205 -88.5zM596 816q-65 -88 -175 -88
q-109 0 -176 88l21 19q57 -80 155 -80t155 80z" />
    <glyph glyph-name="obreve" unicode="&#x14f;" horiz-adv-x="570" 
d="M325 -12q-100 0 -162.5 72.5t-62.5 181.5q0 108 62.5 180.5t162.5 72.5q101 0 163 -72t62 -181t-62 -181.5t-163 -72.5zM325 15q89 0 140.5 66.5t51.5 160.5q0 93 -51.5 159.5t-140.5 66.5q-88 0 -140 -66.5t-52 -159.5q0 -94 52 -160.5t140 -66.5zM502 657
q-65 -88 -175 -88q-109 0 -176 88l21 19q57 -80 155 -80t155 80z" />
    <glyph glyph-name="Ohungarumlaut" unicode="&#x150;" horiz-adv-x="759" 
d="M422 -12q-143 0 -230 98.5t-87 246.5t87 246.5t230 98.5q142 0 229.5 -98.5t87.5 -246.5t-87.5 -246.5t-229.5 -98.5zM422 18q127 0 204.5 88.5t77.5 226.5q0 139 -77.5 227t-204.5 88q-128 0 -205 -88t-77 -227q0 -138 77 -226.5t205 -88.5zM464 872l-115 -144h-26
l100 144h41zM600 872l-115 -144h-26l100 144h41z" />
    <glyph glyph-name="ohungarumlaut" unicode="&#x151;" horiz-adv-x="570" 
d="M325 -12q-100 0 -162.5 72.5t-62.5 181.5q0 108 62.5 180.5t162.5 72.5q101 0 163 -72t62 -181t-62 -181.5t-163 -72.5zM325 15q89 0 140.5 66.5t51.5 160.5q0 93 -51.5 159.5t-140.5 66.5q-88 0 -140 -66.5t-52 -159.5q0 -94 52 -160.5t140 -66.5zM367 700l-115 -144
h-26l100 144h41zM503 700l-115 -144h-26l100 144h41z" />
    <glyph glyph-name="OE" unicode="&#x152;" horiz-adv-x="1119" 
d="M1099 0h-408v157q-39 -81 -111 -125t-158 -44q-143 0 -230 98.5t-87 246.5t87 246t230 98q86 0 158 -43.5t111 -123.5v157h408v-30h-376v-279h369v-30h-369v-298h376v-30zM691 218v231q-34 98 -104.5 148t-164.5 50q-128 0 -205 -87.5t-77 -226.5t77 -227t205 -88
q93 0 164 51t105 149z" />
    <glyph glyph-name="oe" unicode="&#x153;" horiz-adv-x="988" 
d="M968 232h-417q2 -92 57.5 -154.5t145.5 -62.5q100 0 168 73l18 -19q-78 -81 -186 -81q-50 0 -90.5 16.5t-66 42.5t-41 52.5t-22.5 52.5q-8 -26 -21.5 -51t-37.5 -52t-63 -44t-87 -17q-100 0 -162.5 72.5t-62.5 181.5q0 108 62.5 180.5t162.5 72.5q48 0 88 -17t64 -44.5
t37.5 -53t19.5 -49.5q7 25 22 51t39.5 52.5t63.5 43.5t85 17q106 0 165 -73t59 -180v-10zM551 259h385q0 49 -20 95.5t-65.5 80t-107.5 33.5q-87 0 -138 -64.5t-54 -144.5zM517 242q0 93 -51.5 159.5t-140.5 66.5q-88 0 -140 -66.5t-52 -159.5q0 -94 52 -161t140 -67
q89 0 140.5 67t51.5 161z" />
    <glyph glyph-name="Racute" unicode="&#x154;" horiz-adv-x="584" 
d="M564 0h-41l-203 288h-160v-288h-32v667h230q85 0 141 -50.5t56 -138.5t-56.5 -139t-140.5 -51zM358 318q73 0 117.5 45t44.5 115t-44.5 114.5t-117.5 44.5h-198v-319h198zM482 872l-175 -144h-30l160 144h45z" />
    <glyph glyph-name="racute" unicode="&#x155;" horiz-adv-x="395" 
d="M156 0h-30v483h30v-88q73 97 166 97v-36q-9 1 -24 1q-37 0 -81 -30t-61 -65v-362zM375 700l-175 -144h-30l160 144h45z" />
    <glyph glyph-name="CapitalLetterRwithce" unicode="&#x156;" horiz-adv-x="584" 
d="M564 0h-41l-203 288h-160v-288h-32v667h230q85 0 141 -50.5t56 -138.5t-56.5 -139t-140.5 -51zM358 318q73 0 117.5 45t44.5 115t-44.5 114.5t-117.5 44.5h-198v-319h198zM374 -137q0 -36 -18 -69.5t-44 -51.5l-22 18q24 18 38.5 43.5t14.5 48.5q-6 -1 -8 -1
q-14 0 -23 9.5t-9 23.5q0 13 9 22.5t23 9.5q16 0 27.5 -14t11.5 -39z" />
    <glyph glyph-name="SmallLetterRwithcedi" unicode="&#x157;" horiz-adv-x="342" 
d="M156 0h-30v483h30v-88q73 97 166 97v-36q-9 1 -24 1q-37 0 -81 -30t-61 -65v-362zM237 -137q0 -36 -18 -69.5t-44 -51.5l-22 18q24 18 38.5 43.5t14.5 48.5q-6 -1 -8 -1q-14 0 -23 9.5t-9 23.5q0 13 9 22.5t23 9.5q16 0 27.5 -14t11.5 -39z" />
    <glyph glyph-name="Rcaron" unicode="&#x158;" horiz-adv-x="584" 
d="M564 0h-41l-203 288h-160v-288h-32v667h230q85 0 141 -50.5t56 -138.5t-56.5 -139t-140.5 -51zM358 318q73 0 117.5 45t44.5 115t-44.5 114.5t-117.5 44.5h-198v-319h198zM349 728h-36l-101 144h28l91 -120l88 120h28z" />
    <glyph glyph-name="rcaron" unicode="&#x159;" horiz-adv-x="359" 
d="M156 0h-30v483h30v-88q73 97 166 97v-36q-9 1 -24 1q-37 0 -81 -30t-61 -65v-362zM241 556h-36l-101 144h28l91 -120l88 120h28z" />
    <glyph glyph-name="Sacute" unicode="&#x15a;" horiz-adv-x="574" 
d="M326 -12q-75 0 -135 29t-98 77l26 23q81 -99 207 -99q55 0 95 14.5t60 38t29 48t9 50.5q0 51 -30 85.5t-75 49.5t-97.5 31.5t-97.5 32t-75 51.5t-30 89q0 78 61 124t148 46q140 0 216 -94l-25 -23q-67 87 -191 87q-74 0 -124 -39.5t-50 -100.5q0 -38 22.5 -65t58 -42
t79 -27.5t86.5 -27t78.5 -34.5t58 -56.5t22.5 -86.5q0 -31 -11 -60.5t-35 -58t-71 -45.5t-111 -17zM480 872l-175 -144h-30l160 144h45z" />
    <glyph glyph-name="sacute" unicode="&#x15b;" horiz-adv-x="454" 
d="M261 -12q-110 0 -177 77l24 22q54 -72 153 -72q65 0 104 31.5t39 80.5q0 41 -32 65t-77.5 35.5t-91 24t-77.5 40.5t-32 75q0 55 44 91.5t120 36.5q109 0 166 -73l-22 -20q-46 66 -144 66q-62 0 -98 -28.5t-36 -72.5q0 -37 32 -58.5t77.5 -32.5t91 -24t77.5 -43.5
t32 -81.5q0 -60 -44.5 -99.5t-128.5 -39.5zM419 700l-175 -144h-30l160 144h45z" />
    <glyph glyph-name="Scircumflex" unicode="&#x15c;" horiz-adv-x="574" 
d="M437 728h-28l-91 120l-88 -120h-28l98 144h36zM326 -12q-75 0 -135 29t-98 77l26 23q81 -99 207 -99q55 0 95 14.5t60 38t29 48t9 50.5q0 51 -30 85.5t-75 49.5t-97.5 31.5t-97.5 32t-75 51.5t-30 89q0 78 61 124t148 46q140 0 216 -94l-25 -23q-67 87 -191 87
q-74 0 -124 -39.5t-50 -100.5q0 -38 22.5 -65t58 -42t79 -27.5t86.5 -27t78.5 -34.5t58 -56.5t22.5 -86.5q0 -31 -11 -60.5t-35 -58t-71 -45.5t-111 -17z" />
    <glyph glyph-name="scircumflex" unicode="&#x15d;" horiz-adv-x="454" 
d="M261 -12q-110 0 -177 77l24 22q54 -72 153 -72q65 0 104 31.5t39 80.5q0 41 -32 65t-77.5 35.5t-91 24t-77.5 40.5t-32 75q0 55 44 91.5t120 36.5q109 0 166 -73l-22 -20q-46 66 -144 66q-62 0 -98 -28.5t-36 -72.5q0 -37 32 -58.5t77.5 -32.5t91 -24t77.5 -43.5
t32 -81.5q0 -60 -44.5 -99.5t-128.5 -39.5zM379 556h-28l-91 120l-88 -120h-28l98 144h36z" />
    <glyph glyph-name="Scedilla" unicode="&#x15e;" horiz-adv-x="574" 
d="M324 -187q-58 0 -93 28l14 27q32 -28 79 -28q29 0 49 13.5t20 35.5q0 43 -44 43q-27 0 -43 -19l-22 13l22 63q-136 7 -213 105l26 23q81 -99 207 -99q55 0 95 14.5t60 38t29 48t9 50.5q0 51 -30 85.5t-75 49.5t-97.5 31.5t-97.5 32t-75 51.5t-30 89q0 78 61 124t148 46
q140 0 216 -94l-25 -23q-67 87 -191 87q-74 0 -124 -39.5t-50 -100.5q0 -38 22.5 -65t58 -42t79 -27.5t86.5 -27t78.5 -34.5t58 -56.5t22.5 -86.5q0 -69 -51 -123.5t-167 -57.5l-17 -46q15 12 38 12q29 0 47 -17.5t18 -47.5q0 -33 -28 -54.5t-70 -21.5z" />
    <glyph glyph-name="scedilla" unicode="&#x15f;" horiz-adv-x="454" 
d="M260 -187q-58 0 -93 28l14 27q32 -28 79 -28q29 0 49 13.5t20 35.5q0 43 -44 43q-27 0 -43 -19l-22 13l22 63q-96 4 -158 76l24 22q54 -72 153 -72q65 0 104 31.5t39 80.5q0 41 -32 65t-77.5 35.5t-91 24t-77.5 40.5t-32 75q0 55 44 91.5t120 36.5q109 0 166 -73l-22 -20
q-46 66 -144 66q-62 0 -98 -28.5t-36 -72.5q0 -37 32 -58.5t77.5 -32.5t91 -24t77.5 -43.5t32 -81.5q0 -58 -42 -97t-120 -42l-17 -46q15 12 38 12q29 0 47 -17.5t18 -47.5q0 -33 -28 -54.5t-70 -21.5z" />
    <glyph glyph-name="Scaron" unicode="&#x160;" horiz-adv-x="574" 
d="M339 728h-36l-101 144h28l91 -120l88 120h28zM326 -12q-75 0 -135 29t-98 77l26 23q81 -99 207 -99q55 0 95 14.5t60 38t29 48t9 50.5q0 51 -30 85.5t-75 49.5t-97.5 31.5t-97.5 32t-75 51.5t-30 89q0 78 61 124t148 46q140 0 216 -94l-25 -23q-67 87 -191 87
q-74 0 -124 -39.5t-50 -100.5q0 -38 22.5 -65t58 -42t79 -27.5t86.5 -27t78.5 -34.5t58 -56.5t22.5 -86.5q0 -31 -11 -60.5t-35 -58t-71 -45.5t-111 -17z" />
    <glyph glyph-name="scaron" unicode="&#x161;" horiz-adv-x="454" 
d="M261 -12q-110 0 -177 77l24 22q54 -72 153 -72q65 0 104 31.5t39 80.5q0 41 -32 65t-77.5 35.5t-91 24t-77.5 40.5t-32 75q0 55 44 91.5t120 36.5q109 0 166 -73l-22 -20q-46 66 -144 66q-62 0 -98 -28.5t-36 -72.5q0 -37 32 -58.5t77.5 -32.5t91 -24t77.5 -43.5
t32 -81.5q0 -60 -44.5 -99.5t-128.5 -39.5zM281 556h-36l-101 144h28l91 -120l88 120h28z" />
    <glyph glyph-name="CapitalLetterTwithce" unicode="&#x162;" horiz-adv-x="581" 
d="M335 0h-32v637h-225v30h483v-30h-226v-637zM364 -137q0 -36 -18 -69.5t-44 -51.5l-22 18q24 18 38.5 43.5t14.5 48.5q-6 -1 -8 -1q-14 0 -23 9.5t-9 23.5q0 13 9 22.5t23 9.5q16 0 27.5 -14t11.5 -39z" />
    <glyph glyph-name="SmallLetterTwithcedi" unicode="&#x163;" horiz-adv-x="309" 
d="M214 -12q-82 0 -82 97v371h-80v27h80v132h30v-132h98v-27h-98v-371q0 -70 52 -70q35 0 57 26l18 -23q-32 -30 -75 -30zM213 -137q0 -36 -18 -69.5t-44 -51.5l-22 18q24 18 38.5 43.5t14.5 48.5q-6 -1 -8 -1q-14 0 -23 9.5t-9 23.5q0 13 9 22.5t23 9.5q16 0 27.5 -14
t11.5 -39z" />
    <glyph glyph-name="Tcaron" unicode="&#x164;" horiz-adv-x="581" 
d="M335 0h-32v637h-225v30h483v-30h-226v-637zM339 728h-36l-101 144h28l91 -120l88 120h28z" />
    <glyph glyph-name="tcaron" unicode="&#x165;" horiz-adv-x="320" 
d="M214 -12q-82 0 -82 97v371h-80v27h80v132h30v-132h98v-27h-98v-371q0 -70 52 -70q35 0 57 26l18 -23q-32 -30 -75 -30zM300 672q0 -36 -18 -69.5t-44 -51.5l-22 18q24 18 38.5 43.5t14.5 48.5q-6 -1 -8 -1q-14 0 -23 9.5t-9 23.5q0 13 9 22.5t23 9.5q16 0 27.5 -14
t11.5 -39z" />
    <glyph glyph-name="Tbar" unicode="&#x166;" horiz-adv-x="581" 
d="M335 0h-32v321h-165v27h165v289h-225v30h483v-30h-226v-289h166v-27h-166v-321z" />
    <glyph glyph-name="tbar" unicode="&#x167;" horiz-adv-x="309" 
d="M234 242h-72v-157q0 -70 52 -70q35 0 57 26l18 -23q-32 -30 -75 -30q-82 0 -82 97v157h-80v27h80v187h-80v27h80v132h30v-132h98v-27h-98v-187h72v-27z" />
    <glyph glyph-name="Utilde" unicode="&#x168;" horiz-adv-x="644" 
d="M376 -12q-120 0 -184 70t-64 195v414h32v-414q0 -112 56 -173.5t160 -61.5t160 61.5t56 173.5v414h32v-414q0 -125 -64 -195t-184 -70zM441 726q-26 0 -44.5 17.5t-27 39t-23 39t-33.5 17.5q-26 0 -42.5 -26.5t-16.5 -80.5h-26q0 57 23.5 95.5t64.5 38.5q26 0 44.5 -17.5
t27 -39t23 -39t33.5 -17.5q26 0 42.5 26.5t16.5 80.5h26q0 -57 -23.5 -95.5t-64.5 -38.5z" />
    <glyph glyph-name="utilde" unicode="&#x169;" 
d="M482 0h-30v74q-33 -37 -80 -61.5t-95 -24.5q-75 0 -113 36.5t-38 119.5v339h30v-339q0 -72 32 -100.5t93 -28.5q48 0 96.5 25.5t74.5 62.5v380h30v-483zM366 554q-26 0 -44.5 17.5t-27 39t-23 39t-33.5 17.5q-26 0 -42.5 -26.5t-16.5 -80.5h-26q0 57 23.5 95.5t64.5 38.5
q26 0 44.5 -17.5t27 -39t23 -39t33.5 -17.5q26 0 42.5 26.5t16.5 80.5h26q0 -57 -23.5 -95.5t-64.5 -38.5z" />
    <glyph glyph-name="Umacron" unicode="&#x16a;" horiz-adv-x="644" 
d="M376 -12q-120 0 -184 70t-64 195v414h32v-414q0 -112 56 -173.5t160 -61.5t160 61.5t56 173.5v414h32v-414q0 -125 -64 -195t-184 -70zM557 750h-363v27h363v-27z" />
    <glyph glyph-name="umacron" unicode="&#x16b;" horiz-adv-x="505" 
d="M482 0h-30v74q-33 -37 -80 -61.5t-95 -24.5q-75 0 -113 36.5t-38 119.5v339h30v-339q0 -72 32 -100.5t93 -28.5q48 0 96.5 25.5t74.5 62.5v380h30v-483zM485 581h-363v27h363v-27z" />
    <glyph glyph-name="Ubreve" unicode="&#x16c;" horiz-adv-x="644" 
d="M376 -12q-120 0 -184 70t-64 195v414h32v-414q0 -112 56 -173.5t160 -61.5t160 61.5t56 173.5v414h32v-414q0 -125 -64 -195t-184 -70zM555 816q-65 -88 -175 -88q-109 0 -176 88l21 19q57 -80 155 -80t155 80z" />
    <glyph glyph-name="ubreve" unicode="&#x16d;" 
d="M482 0h-30v74q-33 -37 -80 -61.5t-95 -24.5q-75 0 -113 36.5t-38 119.5v339h30v-339q0 -72 32 -100.5t93 -28.5q48 0 96.5 25.5t74.5 62.5v380h30v-483zM481 657q-65 -88 -175 -88q-109 0 -176 88l21 19q57 -80 155 -80t155 80z" />
    <glyph glyph-name="Uring" unicode="&#x16e;" horiz-adv-x="644" 
d="M376 -12q-120 0 -184 70t-64 195v414h32v-414q0 -112 56 -173.5t160 -61.5t160 61.5t56 173.5v414h32v-414q0 -125 -64 -195t-184 -70zM376 692q-38 0 -65.5 27.5t-27.5 65.5t27.5 65.5t65.5 27.5t65 -27.5t27 -65.5t-27 -65.5t-65 -27.5zM376 716q28 0 48 20t20 49
t-20 49t-48 20t-48.5 -20t-20.5 -49t20.5 -49t48.5 -20z" />
    <glyph glyph-name="uring" unicode="&#x16f;" 
d="M482 0h-30v74q-33 -37 -80 -61.5t-95 -24.5q-75 0 -113 36.5t-38 119.5v339h30v-339q0 -72 32 -100.5t93 -28.5q48 0 96.5 25.5t74.5 62.5v380h30v-483zM304 560q-38 0 -65.5 27.5t-27.5 65.5t27.5 65.5t65.5 27.5t65 -27.5t27 -65.5t-27 -65.5t-65 -27.5zM304 584
q28 0 48 20t20 49t-20 49t-48 20t-48.5 -20t-20.5 -49t20.5 -49t48.5 -20z" />
    <glyph glyph-name="Uhungarumlaut" unicode="&#x170;" horiz-adv-x="644" 
d="M376 -12q-120 0 -184 70t-64 195v414h32v-414q0 -112 56 -173.5t160 -61.5t160 61.5t56 173.5v414h32v-414q0 -125 -64 -195t-184 -70zM418 872l-115 -144h-26l100 144h41zM554 872l-115 -144h-26l100 144h41z" />
    <glyph glyph-name="uhungarumlaut" unicode="&#x171;" 
d="M482 0h-30v74q-33 -37 -80 -61.5t-95 -24.5q-75 0 -113 36.5t-38 119.5v339h30v-339q0 -72 32 -100.5t93 -28.5q48 0 96.5 25.5t74.5 62.5v380h30v-483zM346 700l-115 -144h-26l100 144h41zM482 700l-115 -144h-26l100 144h41z" />
    <glyph glyph-name="Uogonek" unicode="&#x172;" horiz-adv-x="644" 
d="M492 -112l25 -11q-22 -63 -83 -63q-35 0 -58 21t-23 63q0 50 46 91q-8 -1 -23 -1q-120 0 -184 70t-64 195v414h32v-414q0 -112 56 -173.5t160 -61.5t160 61.5t56 173.5v414h32v-414q0 -100 -41.5 -166t-121.5 -88q-79 -39 -79 -101q0 -57 52 -57q43 0 58 47z" />
    <glyph glyph-name="uogonek" unicode="&#x173;" horiz-adv-x="555" 
d="M510 -112l25 -11q-22 -63 -83 -63q-35 0 -58 21t-23 63q0 34 22.5 65t58.5 50v61q-33 -37 -80 -61.5t-95 -24.5q-75 0 -113 36.5t-38 119.5v339h30v-339q0 -72 32 -100.5t93 -28.5q48 0 96.5 25.5t74.5 62.5v380h30v-483q-82 -39 -82 -102q0 -57 52 -57q43 0 58 47z" />
    <glyph glyph-name="Wcircumflex" unicode="&#x174;" horiz-adv-x="887" 
d="M677 0h-38l-173 607l-173 -607h-38l-190 667h35l174 -619l175 619h34l175 -619l174 619h35zM584 728h-28l-91 120l-88 -120h-28l98 144h36z" />
    <glyph glyph-name="wcircumflex" unicode="&#x175;" horiz-adv-x="742" 
d="M562 0h-24l-146 438l-146 -438h-24l-160 483h33l140 -436l145 436h24l145 -436l140 436h33zM510 556h-28l-91 120l-88 -120h-28l98 144h36z" />
    <glyph glyph-name="Ycircumflex" unicode="&#x176;" horiz-adv-x="649" 
d="M464 728h-28l-91 120l-88 -120h-28l98 144h36zM361 0h-32v289l-268 378h41l243 -346l243 346h41l-268 -378v-289z" />
    <glyph glyph-name="ycircumflex" unicode="&#x177;" horiz-adv-x="520" 
d="M90 -189l6 28q18 -8 42 -8q25 0 42.5 14.5t33.5 51.5l44 100l-207 486h35l190 -448l189 448h35l-256 -597q-36 -82 -106 -82q-27 0 -48 7zM394 556h-28l-91 120l-88 -120h-28l98 144h36z" />
    <glyph glyph-name="Ydieresis" unicode="&#x178;" horiz-adv-x="649" 
d="M478 764q0 -11 -8.5 -19.5t-19.5 -8.5t-19.5 8.5t-8.5 19.5t8.5 19.5t19.5 8.5t19.5 -8.5t8.5 -19.5zM276 764q0 -11 -8.5 -19.5t-19.5 -8.5t-19.5 8.5t-8.5 19.5t8.5 19.5t19.5 8.5t19.5 -8.5t8.5 -19.5zM361 0h-32v289l-268 378h41l243 -346l243 346h41l-268 -378v-289
z" />
    <glyph glyph-name="Zacute" unicode="&#x179;" horiz-adv-x="585" 
d="M565 0h-472v30l427 607h-427v30h465v-30l-428 -607h435v-30zM481 872l-175 -144h-30l160 144h45z" />
    <glyph glyph-name="zacute" unicode="&#x17a;" horiz-adv-x="466" 
d="M446 0h-346v27l307 429h-307v27h342v-27l-309 -429h313v-27zM425 700l-175 -144h-30l160 144h45z" />
    <glyph glyph-name="Zdotaccent" unicode="&#x17b;" horiz-adv-x="585" 
d="M565 0h-472v30l427 607h-427v30h465v-30l-428 -607h435v-30zM329 736q-11 0 -20 8.5t-9 20.5t9 20.5t20 8.5q12 0 20.5 -8.5t8.5 -20.5t-8.5 -20.5t-20.5 -8.5z" />
    <glyph glyph-name="zdotaccent" unicode="&#x17c;" horiz-adv-x="466" 
d="M446 0h-346v27l307 429h-307v27h342v-27l-309 -429h313v-27zM273 591q-11 0 -20 8.5t-9 20.5t9 20.5t20 8.5q12 0 20.5 -8.5t8.5 -20.5t-8.5 -20.5t-20.5 -8.5z" />
    <glyph glyph-name="Zcaron" unicode="&#x17d;" horiz-adv-x="585" 
d="M348 728h-36l-101 144h28l91 -120l88 120h28zM565 0h-472v30l427 607h-427v30h465v-30l-428 -607h435v-30z" />
    <glyph glyph-name="zcaron" unicode="&#x17e;" horiz-adv-x="466" 
d="M446 0h-346v27l307 429h-307v27h342v-27l-309 -429h313v-27zM285 556h-36l-101 144h28l91 -120l88 120h28z" />
    <glyph glyph-name="longs" unicode="&#x17f;" horiz-adv-x="363" 
d="M170 0h-30v456h-80v27h80v51q0 67 32 105t89 38q45 0 82 -30l-18 -24q-29 27 -64 27q-91 0 -91 -116v-534z" />
    <glyph glyph-name="florin" unicode="&#x192;" horiz-adv-x="482" 
d="M112 -161h-32l95 428h-80v30h86l53 237q15 67 55.5 105t97.5 38q46 0 75 -30l-23 -24q-19 24 -52 24q-45 0 -77.5 -30t-43.5 -83l-53 -237h162v-30h-168z" />
    <glyph glyph-name="AEacute" unicode="&#x1fc;" horiz-adv-x="925" 
d="M905 0h-408v179h-286l-113 -179h-37l425 667h419v-30h-376v-279h369v-30h-369v-298h376v-30zM497 209v421l-269 -421h269zM665 872l-175 -144h-30l160 144h45z" />
    <glyph glyph-name="aeacute" unicode="&#x1fd;" horiz-adv-x="905" 
d="M885 232h-417q2 -92 57.5 -154.5t145.5 -62.5q100 0 168 73l18 -19q-78 -81 -186 -81q-130 0 -200 111q-67 -111 -200 -111q-68 0 -118.5 44t-50.5 118t50 117t119 43q102 0 167 -69v107q0 56 -39 88t-97 32q-92 0 -155 -76l-23 20q37 43 78 63t100 20q72 0 115.5 -33
t47.5 -96q26 56 77 92.5t119 36.5q106 0 165 -73t59 -180v-10zM468 259h385q0 49 -20 95.5t-65.5 80t-107.5 33.5q-87 0 -138 -64.5t-54 -144.5zM458 125q-20 38 -20 82q-56 76 -159 76q-65 0 -104.5 -38.5t-39.5 -95.5t39.5 -95.5t104.5 -38.5q119 0 179 110zM625 700
l-175 -144h-30l160 144h45z" />
    <glyph glyph-name="Oslashacute" unicode="&#x1fe;" horiz-adv-x="759" 
d="M576 872l-175 -144h-30l160 144h45zM422 -12q-92 0 -163 43l-18 -31h-36l29 48q-62 47 -95.5 121t-33.5 164q0 148 87 246.5t230 98.5q89 0 162 -43l19 32h36l-30 -50q62 -46 96 -120.5t34 -163.5q0 -148 -87.5 -246.5t-229.5 -98.5zM422 18q127 0 204.5 88.5t77.5 226.5
q0 169 -111 258l-318 -534q64 -39 147 -39zM140 333q0 -170 110 -258l318 534q-64 39 -146 39q-128 0 -205 -88t-77 -227z" />
    <glyph glyph-name="oslashacute" unicode="&#x1ff;" horiz-adv-x="570" 
d="M478 700l-175 -144h-30l160 144h45zM158 0h-34l42 56q-66 72 -66 186q0 108 62.5 180.5t162.5 72.5q76 0 133 -44l24 32h33l-37 -50q72 -72 72 -191q0 -109 -62 -181.5t-163 -72.5q-81 0 -139 49zM325 15q89 0 140.5 66.5t51.5 160.5q0 101 -57 166l-257 -347
q49 -46 122 -46zM133 242q0 -96 52 -160l255 345q-49 41 -115 41q-88 0 -140 -66.5t-52 -159.5z" />
    <glyph glyph-name="CapitalLetterSwithco" unicode="&#x218;" horiz-adv-x="574" 
d="M326 -12q-75 0 -135 29t-98 77l26 23q81 -99 207 -99q55 0 95 14.5t60 38t29 48t9 50.5q0 51 -30 85.5t-75 49.5t-97.5 31.5t-97.5 32t-75 51.5t-30 89q0 78 61 124t148 46q140 0 216 -94l-25 -23q-67 87 -191 87q-74 0 -124 -39.5t-50 -100.5q0 -38 22.5 -65t58 -42
t79 -27.5t86.5 -27t78.5 -34.5t58 -56.5t22.5 -86.5q0 -31 -11 -60.5t-35 -58t-71 -45.5t-111 -17zM367 -137q0 -36 -18 -69.5t-44 -51.5l-22 18q24 18 38.5 43.5t14.5 48.5q-6 -1 -8 -1q-14 0 -23 9.5t-9 23.5q0 13 9 22.5t23 9.5q16 0 27.5 -14t11.5 -39z" />
    <glyph glyph-name="SmallLetterSwithcomm" unicode="&#x219;" horiz-adv-x="454" 
d="M261 -12q-110 0 -177 77l24 22q54 -72 153 -72q65 0 104 31.5t39 80.5q0 41 -32 65t-77.5 35.5t-91 24t-77.5 40.5t-32 75q0 55 44 91.5t120 36.5q109 0 166 -73l-22 -20q-46 66 -144 66q-62 0 -98 -28.5t-36 -72.5q0 -37 32 -58.5t77.5 -32.5t91 -24t77.5 -43.5
t32 -81.5q0 -60 -44.5 -99.5t-128.5 -39.5zM312 -137q0 -36 -18 -69.5t-44 -51.5l-22 18q24 18 38.5 43.5t14.5 48.5q-6 -1 -8 -1q-14 0 -23 9.5t-9 23.5q0 13 9 22.5t23 9.5q16 0 27.5 -14t11.5 -39z" />
  </font>
</defs>
</svg>
